<svg viewBox="0 0 535 335" xmlns="http://www.w3.org/2000/svg" xmlns:xlink="http://www.w3.org/1999/xlink"><defs><path id="a" d="M0 16.333V.423h259.75v31.821H0z"/></defs><g fill="none" fill-rule="evenodd"><path d="M373.96 205.737V7.187a7.055 7.055 0 0 0-7.055-7.055h-245.64a7.055 7.055 0 0 0-7.055 7.055v198.38c1.3.01 2.63.052 3.987.125 0 0 44.942-56.564 104.26 0 21.355-17.918 70.92-63.611 136.72 0 5.304-.41 10.228-.373 14.783.05z" fill="#FF8500"/><g transform="translate(114 -.423)"><mask id="b" fill="#fff"><use xlink:href="#a"/></mask><path d="M259.75 4.723v27.52H0V4.723c0-2.376 2.63-4.3 5.874-4.3h248c3.244 0 5.874 1.924 5.874 4.3" fill="#EAE8E8" mask="url(#b)"/></g><path d="M131.383 8.617a7.293 7.293 0 1 1 0 14.587 7.293 7.293 0 0 1 0-14.587" fill="#EF833B"/><path d="M177.059 8.617a7.293 7.293 0 1 1 0 14.587 7.293 7.293 0 0 1 0-14.587" fill="#5AB15E"/><path d="M154.222 8.617a7.294 7.294 0 1 1-.002 14.588 7.294 7.294 0 0 1 .002-14.588" fill="#F5C17D"/><path d="M209.959 90.03c2.456 7.877 1.47 15.192-2.203 16.338-3.673 1.145-8.643-4.313-11.1-12.19-2.456-7.877-1.469-15.192 2.203-16.337 3.673-1.146 8.643 4.311 11.1 12.189M292.95 93.846c-2.063 7.99-6.757 13.687-10.482 12.724-3.726-.962-5.073-8.22-3.008-16.209 2.063-7.99 6.757-13.686 10.482-12.724 3.726.963 5.072 8.22 3.008 16.209" fill="#422B27"/><path d="M204.259 70.185s-17.941-6-20.119 9.334M287.16 66.674s18.141-3.822 16.808 17.511" stroke="#422B27" stroke-linecap="round" stroke-width="2.5"/><path d="M207.428 96.879c.642 2.06.137 4.049-1.129 4.443-1.266.395-2.812-.955-3.454-3.013-.643-2.06-.137-4.049 1.129-4.444 1.265-.394 2.811.955 3.454 3.014M287.51 98.116c-.51 1.974-1.855 3.332-3.006 3.035-1.149-.297-1.669-2.138-1.159-4.111s1.855-3.331 3.006-3.034c1.15.297 1.669 2.137 1.159 4.11" fill="#FEFEFE"/><g stroke="#BAC3BC" stroke-width="2"><path d="M222.46 205.689c21.355-17.918 70.92-63.611 136.72 0 72.733-5.611 73.841 72.639 34.608 80.63-9.303 36.929-34.608 50.811-74.344 26.877-19.543 21.964-49.99 8.959-56.399-3.84-10.254 20.478-33.494 35.538-69.217 13.891-30.486 10.812-63.213 1.106-75.626-27.97-62.218 8.845-79.144-93.828 0-89.588 0 0 44.942-56.564 104.26 0zM477.6 120.514c-7.65-6.418-25.403-22.785-48.971 0-26.053-2.01-26.45 26.019-12.397 28.882 3.332 13.228 12.397 18.201 26.63 9.627 7 7.868 17.906 3.21 20.202-1.375 3.673 7.335 11.997 12.73 24.793 4.976 10.92 3.873 22.643.396 27.089-10.02 22.287 3.169 28.349-33.61 0-32.09 0 0-16.098-20.261-37.346 0zM38.818 130.332c5.045-4.234 16.756-15.03 32.302 0 17.185-1.326 17.447 17.163 8.177 19.051-2.198 8.725-8.177 12.005-17.565 6.35-4.617 5.19-11.811 2.117-13.326-.907-2.423 4.838-7.914 8.397-16.354 3.282-7.203 2.555-14.936.261-17.868-6.608-14.701 2.09-18.7-22.17 0-21.168 0 0 10.619-13.365 24.634 0z"/></g><path d="M214 145.48c20.21-18.442 40.419-18.442 60.629 0" stroke="#422B27" stroke-linecap="round" stroke-width="3"/><g fill="#FFE6B6"><path d="M293.5 135.705c0 10.104-5.484 14.912-12.25 14.912S269 145.809 269 135.705 281.25 108 281.25 108s12.25 17.601 12.25 27.705"/></g></g></svg>