<?xml version="1.0" encoding="UTF-8"?>
<svg width="425px" height="47px" viewBox="0 0 425 47" version="1.1" xmlns="http://www.w3.org/2000/svg" xmlns:xlink="http://www.w3.org/1999/xlink">
    <!-- Generator: Sketch 47 (45396) - http://www.bohemiancoding.com/sketch -->
    <title>Big road Freight Logo</title>
    <desc>Created with Sketch.</desc>
    <defs>
        <polygon id="path-1" points="0.5417 0.391 37.7897 0.391 37.7897 37.1545 0.5417 37.1545 0.5417 0.391"></polygon>
        <polygon id="path-3" points="35.72 36.5482 35.72 0.9972 0.2654 0.9972 0.2654 36.5482 35.72 36.5482"></polygon>
    </defs>
    <g id="Page-1" stroke="none" stroke-width="1" fill="none" fill-rule="evenodd">
        <g id="Big-Road-Freight----Signin--0.4" transform="translate(-70.000000, -549.000000)">
            <g id="Grey-illustration" transform="translate(24.000000, 46.000000)">
                <g id="Big-road-Freight-Logo" transform="translate(46.000000, 502.000000)">
                    <path d="M11.7365,15.9613 L17.3145,15.9613 C19.8205,15.9613 21.6225,15.7853 22.7225,15.4283 C23.8215,15.0733 24.6475,14.4913 25.1965,13.6823 C25.7455,12.8743 26.0205,12.0093 26.0205,11.0873 C26.0205,10.1823 25.7615,9.4383 25.2445,8.8573 C24.7275,8.2743 23.9925,7.8863 23.0375,7.6923 C22.5045,7.5963 21.2195,7.5473 19.1815,7.5473 L13.5075,7.5473 L11.7365,15.9613 Z M8.5115,31.4343 L15.5695,31.4343 C18.5275,31.4343 20.5105,31.2443 21.5215,30.8633 C22.5325,30.4843 23.3415,29.8573 23.9475,28.9843 C24.5535,28.1113 24.8565,27.1903 24.8565,26.2203 C24.8565,25.0393 24.4205,24.0653 23.5475,23.2983 C22.6745,22.5303 21.2195,22.1453 19.1815,22.1453 L10.4515,22.1453 L8.5115,31.4343 Z M0.0005,37.1573 L7.4445,1.6063 L19.5935,1.6063 C22.2305,1.6063 24.0715,1.6863 25.1245,1.8473 C26.8695,2.0903 28.3485,2.5753 29.5615,3.3033 C30.7735,4.0303 31.6945,5.0013 32.3265,6.2133 C32.9565,7.4253 33.2715,8.7683 33.2715,10.2383 C33.2715,12.2123 32.7215,13.9203 31.6225,15.3683 C30.5235,16.8153 28.8265,17.9103 26.5305,18.6543 C28.3565,19.1553 29.7835,20.0483 30.8105,21.3333 C31.8375,22.6183 32.3505,24.0703 32.3505,25.6873 C32.3505,27.8213 31.7435,29.8453 30.5315,31.7613 C29.3195,33.6773 27.6455,35.0553 25.5105,35.8963 C23.3775,36.7363 20.4595,37.1573 16.7575,37.1573 L0.0005,37.1573 Z" id="Fill-1" fill="#FF8500"></path>
                    <path d="M40.3063,1.6063 L47.2673,1.6063 L45.9573,7.9103 L38.9973,7.9103 L40.3063,1.6063 Z M38.2703,11.4033 L45.2293,11.4033 L39.8453,37.1573 L32.8863,37.1573 L38.2703,11.4033 Z" id="Fill-3" fill="#FF8500"></path>
                    <path d="M52.5324,26.0741 C52.5324,28.0311 52.9724,29.5221 53.8524,30.5501 C54.7344,31.5761 55.8384,32.0891 57.1634,32.0891 C58.3754,32.0891 59.5524,31.6281 60.6914,30.7061 C61.8314,29.7851 62.7054,28.4761 63.3114,26.7781 C63.9174,25.0791 64.2204,23.4391 64.2204,21.8551 C64.2204,20.0281 63.7264,18.5561 62.7414,17.4421 C61.7544,16.3261 60.6144,15.7691 59.3224,15.7691 C58.0754,15.7691 56.9334,16.2611 55.8904,17.2481 C54.8464,18.2331 53.9864,19.7541 53.3074,21.8061 C52.7904,23.3911 52.5324,24.8131 52.5324,26.0741 M44.3344,38.5141 L51.6834,39.5821 C51.6834,40.3251 51.8044,40.8871 52.0464,41.2681 C52.2894,41.6471 52.6804,41.9701 53.2224,42.2371 C53.7634,42.5041 54.5044,42.6371 55.4414,42.6371 C56.9124,42.6371 58.0924,42.3461 58.9834,41.7641 C59.6454,41.3121 60.1864,40.5851 60.6074,39.5821 C60.8654,38.9521 61.1974,37.5781 61.6014,35.4591 L61.8444,34.2471 C59.4354,36.2521 56.9454,37.2541 54.3744,37.2541 C51.8524,37.2541 49.7834,36.3661 48.1664,34.5861 C46.5504,32.8071 45.7424,30.2061 45.7424,26.7781 C45.7424,23.7551 46.2904,20.9821 47.3894,18.4601 C48.4894,15.9381 50.0334,14.0311 52.0224,12.7371 C54.0114,11.4431 56.0394,10.7971 58.1084,10.7971 C59.8234,10.7971 61.3914,11.2491 62.8134,12.1541 C64.2364,13.0601 65.3434,14.3301 66.1364,15.9611 L67.1064,11.4031 L73.6304,11.4031 L69.1684,32.8641 C68.4404,36.3081 67.8254,38.7651 67.3244,40.2361 C66.8244,41.7081 66.2484,42.8811 65.6024,43.7531 C64.9564,44.6261 64.1404,45.3581 63.1534,45.9481 C62.1674,46.5381 61.0034,46.9631 59.6614,47.2201 C58.3194,47.4801 56.8644,47.6091 55.2964,47.6091 C51.6574,47.6091 48.9104,46.9861 47.0504,45.7421 C45.1924,44.4971 44.2614,42.4271 44.2614,39.5341 C44.2614,39.2251 44.2864,38.8871 44.3344,38.5141" id="Fill-5" fill="#FF8500"></path>
                    <path d="M85.7565,17.1024 L89.6365,17.1024 C93.5655,17.1024 96.1715,16.8684 97.4575,16.3984 C98.7425,15.9304 99.7485,15.1934 100.4765,14.1914 C101.2045,13.1904 101.5685,12.1384 101.5685,11.0384 C101.5685,9.7464 101.0425,8.7754 99.9915,8.1294 C99.3445,7.7414 97.9465,7.5474 95.7965,7.5474 L87.7455,7.5474 L85.7565,17.1024 Z M81.5615,37.1574 L74.2375,37.1574 L81.6825,1.6064 L97.4695,1.6064 C100.1865,1.6064 102.2995,1.8844 103.8105,2.4414 C105.3225,3.0004 106.5435,4.0234 107.4725,5.5094 C108.4035,6.9974 108.8665,8.8004 108.8665,10.9184 C108.8665,13.9414 107.9615,16.4354 106.1505,18.3994 C104.3415,20.3644 101.5995,21.5814 97.9305,22.0494 C98.8685,22.8894 99.7485,23.9984 100.5745,25.3724 C102.2055,28.1514 104.0255,32.0804 106.0305,37.1574 L98.1735,37.1574 C97.5425,35.1524 96.3045,32.0244 94.4635,27.7724 C93.4595,25.4764 92.3925,23.9324 91.2615,23.1404 C90.5655,22.6714 89.3535,22.4374 87.6235,22.4374 L84.6405,22.4374 L81.5615,37.1574 Z" id="Fill-7" fill="#FF8500"></path>
                    <path d="M127.7853,21.4921 C127.7853,19.8431 127.3053,18.5211 126.3433,17.5261 C125.3803,16.5321 124.1393,16.0351 122.6203,16.0351 C121.1163,16.0351 119.7833,16.4991 118.6193,17.4291 C117.4543,18.3591 116.5493,19.7091 115.9033,21.4781 C115.2553,23.2491 114.9323,24.8781 114.9323,26.3661 C114.9323,28.2101 115.4333,29.6721 116.4363,30.7561 C117.4383,31.8391 118.6993,32.3801 120.2203,32.3801 C122.1273,32.3801 123.7273,31.5631 125.0213,29.9301 C126.8653,27.6181 127.7853,24.8051 127.7853,21.4921 M107.9483,26.4621 C107.9483,21.6931 109.2943,17.8891 111.9863,15.0531 C114.6783,12.2151 118.2153,10.7971 122.5953,10.7971 C126.3953,10.7971 129.3623,11.8431 131.4953,13.9371 C133.6303,16.0311 134.6973,18.8481 134.6973,22.3881 C134.6973,26.5601 133.3633,30.1661 130.6953,33.2051 C128.0283,36.2441 124.4553,37.7631 119.9773,37.7631 C117.5523,37.7631 115.4013,37.2791 113.5263,36.3081 C111.6503,35.3391 110.2523,33.9651 109.3303,32.1851 C108.4093,30.4071 107.9483,28.5001 107.9483,26.4621" id="Fill-9" fill="#FF8500"></path>
                    <path d="M151.7223,25.1537 C151.3013,25.2667 150.7443,25.3717 150.0493,25.4677 C146.5563,25.8887 144.2773,26.5037 143.2103,27.3117 C142.4503,27.8937 142.0713,28.6777 142.0713,29.6627 C142.0713,30.4727 142.3613,31.1547 142.9433,31.7127 C143.5263,32.2717 144.2933,32.5497 145.2483,32.5497 C146.2983,32.5497 147.2883,32.2947 148.2183,31.7847 C149.1483,31.2777 149.8433,30.6217 150.3043,29.8217 C150.7653,29.0217 151.1723,27.7727 151.5283,26.0737 L151.7223,25.1537 Z M145.1023,18.7027 L138.3113,18.1207 C139.0873,15.8247 140.4423,14.0307 142.3743,12.7367 C144.3053,11.4437 146.8633,10.7967 150.0493,10.7967 C153.3633,10.7967 155.8123,11.4637 157.3963,12.7977 C158.9803,14.1317 159.7733,15.7597 159.7733,17.6837 C159.7733,18.4597 159.7043,19.2837 159.5673,20.1567 C159.4303,21.0307 158.9503,23.3267 158.1243,27.0447 C157.4453,30.1167 157.1063,32.2667 157.1063,33.4947 C157.1063,34.5947 157.3003,35.8167 157.6883,37.1567 L150.9223,37.1567 C150.6463,36.2197 150.4773,35.2497 150.4123,34.2467 C149.3943,35.3787 148.2223,36.2467 146.8953,36.8537 C145.5713,37.4607 144.2373,37.7637 142.8943,37.7637 C140.7613,37.7637 138.9983,37.0637 137.6083,35.6657 C136.2173,34.2677 135.5233,32.4687 135.5233,30.2697 C135.5233,27.8127 136.2863,25.8487 137.8143,24.3777 C139.3423,22.9057 142.0713,22.0167 145.9993,21.7097 C149.3123,21.4337 151.5283,21.1037 152.6443,20.7157 C152.9343,19.7447 153.0793,18.9697 153.0793,18.3867 C153.0793,17.6437 152.7803,17.0207 152.1833,16.5197 C151.5843,16.0197 150.6953,15.7687 149.5153,15.7687 C148.2713,15.7687 147.2883,16.0227 146.5703,16.5317 C145.8493,17.0417 145.3603,17.7647 145.1023,18.7027 L145.1023,18.7027 Z" id="Fill-11" fill="#FF8500"></path>
                    <path d="M167.6354,26.6815 C167.6354,28.5235 168.0994,29.9625 169.0294,30.9965 C169.9584,32.0335 171.1024,32.5495 172.4604,32.5495 C173.7214,32.5495 174.8984,32.1175 175.9894,31.2515 C177.0804,30.3875 177.9534,29.0665 178.6084,27.2875 C179.2634,25.5095 179.5904,23.8035 179.5904,22.1705 C179.5904,20.3105 179.0894,18.8075 178.0874,17.6595 C177.0834,16.5115 175.9274,15.9375 174.6194,15.9375 C172.5814,15.9375 170.9084,17.0695 169.5984,19.3325 C168.2904,21.5975 167.6354,24.0455 167.6354,26.6815 L167.6354,26.6815 Z M183.7124,37.1575 L177.1164,37.1575 L177.6984,34.3685 C176.4374,35.5795 175.1974,36.4505 173.9764,36.9745 C172.7554,37.5005 171.3774,37.7635 169.8424,37.7635 C167.1744,37.7635 165.0124,36.8535 163.3544,35.0355 C161.6974,33.2165 160.8684,30.5285 160.8684,26.9715 C160.8684,22.8495 162.0334,19.1225 164.3614,15.7925 C166.6894,12.4625 169.7694,10.7965 173.5994,10.7965 C177.0604,10.7965 179.6554,12.1705 181.3844,14.9195 L184.1734,1.6065 L191.1344,1.6065 L183.7124,37.1575 Z" id="Fill-13" fill="#FF8500"></path>
                    <path d="M236.5905,16.0594 L238.6755,16.0594 C242.1665,16.0594 244.4265,15.8974 245.4535,15.5744 C246.4795,15.2494 247.2435,14.7054 247.7445,13.9364 C248.2445,13.1694 248.4955,12.4304 248.4955,11.7184 C248.4955,10.8134 248.1955,10.1014 247.5995,9.5844 C247.0005,9.0674 245.6985,8.8084 243.6945,8.8084 L238.1165,8.8084 L236.5905,16.0594 Z M228.6355,1.6064 L248.8605,1.6064 C252.3515,1.6064 254.9065,2.5184 256.5235,4.3464 C258.1405,6.1734 258.9485,8.3714 258.9485,10.9424 C258.9485,13.7234 258.0915,16.1524 256.3775,18.2304 C254.6635,20.3064 251.9235,21.6374 248.1555,22.2184 C250.3885,24.0284 253.0555,29.0094 256.1595,37.1574 L244.5435,37.1574 C243.5735,34.5854 242.4305,31.7784 241.1125,28.7294 C239.7935,25.6824 238.8045,23.9164 238.1415,23.4314 C237.4775,22.9454 236.6775,22.7044 235.7405,22.7044 L235.1585,22.7044 L232.1265,37.1574 L221.0935,37.1574 L228.6355,1.6064 Z" id="Fill-15" fill="#282828"></path>
                    <polygon id="Fill-17" fill="#282828" points="294.8288 1.6063 293.2038 9.2443 275.1608 9.2443 273.9728 14.8943 291.3608 14.8943 289.7598 22.0983 272.3958 22.0983 270.8928 29.0573 290.4638 29.0573 288.7178 37.1573 258.1858 37.1573 265.7758 1.6063"></polygon>
                    <polygon id="Fill-19" fill="#282828" points="311.0973 1.6063 303.4823 37.1573 292.3513 37.1573 299.9653 1.6063"></polygon>
                    <g id="Group-23" transform="translate(310.000000, 0.609100)">
                        <mask id="mask-2" fill="white">
                            <use xlink:href="#path-1"></use>
                        </mask>
                        <g id="Clip-22"></g>
                        <path d="M37.7897,11.2785 L26.9747,12.4665 C25.9877,9.6545 23.9827,8.2485 20.9607,8.2485 C18.0017,8.2485 15.6567,9.7435 13.9287,12.7335 C12.1967,15.7255 11.3327,18.9265 11.3327,22.3365 C11.3327,24.3105 11.9747,25.9635 13.2617,27.2965 C14.5457,28.6305 16.1837,29.2975 18.1727,29.2975 L18.2687,29.2975 C20.5307,29.2975 22.5197,28.7155 24.2347,27.5505 L25.0347,23.7445 L18.3167,23.7445 L19.9177,16.3225 L36.5047,16.3225 L32.9407,33.0315 C27.4107,35.7805 21.9307,37.1545 16.4977,37.1545 C11.6007,37.1545 7.7157,35.8295 4.8457,33.1765 C1.9767,30.5255 0.5417,26.7995 0.5417,21.9975 C0.5417,17.9885 1.4547,14.3105 3.2817,10.9635 C5.1087,7.6165 7.6837,5.0185 11.0057,3.1665 C14.3277,1.3155 18.1397,0.3905 22.4397,0.3905 C30.8477,0.3905 35.9637,4.0205 37.7897,11.2785" id="Fill-21" fill="#282828" mask="url(#mask-2)"></path>
                    </g>
                    <polygon id="Fill-24" fill="#282828" points="387.7711 1.6063 380.1321 37.1573 369.0981 37.1573 372.1771 22.7043 360.2701 22.7043 357.2401 37.1573 346.1091 37.1573 353.7471 1.6063 364.7811 1.6063 362.0901 14.1673 373.9721 14.1673 376.7611 1.6063"></polygon>
                    <g id="Group-28" transform="translate(389.000000, 0.609100)">
                        <mask id="mask-4" fill="white">
                            <use xlink:href="#path-3"></use>
                        </mask>
                        <g id="Clip-27"></g>
                        <polygon id="Fill-26" fill="#282828" mask="url(#mask-4)" points="35.7204 0.9972 33.9004 9.7272 22.3584 9.7272 16.5624 36.5482 5.5284 36.5482 11.2994 9.7272 0.2654 9.7272 2.1094 0.9972"></polygon>
                    </g>
                    <polygon id="Fill-29" fill="#282828" points="207.1281 9.1967 207.1281 9.1967 223.4241 9.1967 225.0741 1.6067 197.7921 1.6067 196.1711 9.1967"></polygon>
                    <polygon id="Fill-31" fill="#282828" points="205.7458 15.5477 194.8158 15.5477 190.2018 37.1567 201.1868 37.1567 204.0968 22.7517 220.1018 22.7517 221.6798 15.5487 205.7458 15.5487"></polygon>
                </g>
            </g>
        </g>
    </g>
</svg>