<svg width="124px" height="209px" viewBox="0 0 124 209" version="1.1" xmlns="http://www.w3.org/2000/svg" xmlns:xlink="http://www.w3.org/1999/xlink">
    <!-- Generator: Sketch 50.2 (55047) - http://www.bohemiancoding.com/sketch -->
    <desc>Created with Sketch.</desc>
    <defs>
        <path d="M67.7929918,101.584057 C43.0174477,101.584057 19.9425368,94.3023201 0.5916876,81.7622742 L0.5916876,0.405454918 L128.768157,0.405454918 L128.768127,85.5415798 C110.771492,95.7532728 89.9631706,101.584057 67.7929918,101.584057 Z" id="path-1"></path>
        <path d="M57.8895123,81.2278901 C41.0037101,92.0543749 21.314327,98.8901536 0.152422131,100.404113 L0.152422131,0.170495902 L57.8895123,0.170495902 L57.8895123,81.2278901 Z" id="path-3"></path>
        <path d="M17.6640984,62.9764362 C12.0902388,64.6210571 6.35260261,65.8837358 0.481489071,66.7341719 L0.481489071,0.130561475 L17.6640984,0.130561475 L17.6640984,62.9764362 Z" id="path-5"></path>
        <path d="M0.786675639,47.4286539 C6.61466457,50.3225413 12.7032041,52.7705159 19.0076632,54.7279466 L19.0076632,0.382819672 L0.786675639,0.382819672 L0.786675639,47.4286539 Z" id="path-7"></path>
        <path d="M23.6834385,104.383515 C19.5100669,104.808801 15.2753343,105.02668 10.9897131,105.02668 C7.56320552,105.02668 4.1692267,104.887399 0.813129351,104.61419 L0.813129351,0.348737705 L23.6834385,0.348737705 L23.6834385,104.383515 Z" id="path-9"></path>
        <path d="M23.6831803,104.619471 C20.3482917,104.889194 16.9760419,105.02668 13.5716803,105.02668 C9.26378303,105.02668 5.00730133,104.80653 0.812872108,104.376866 L0.812872108,0.348307377 L23.6831803,0.348307377 L23.6831803,104.619471 Z" id="path-11"></path>
    </defs>
    <g id="Onboarding" stroke="none" stroke-width="1" fill="none" fill-rule="evenodd">
        <g id="FO---Onboarding--LogIn-7" transform="translate(-311.000000, -342.000000)">
            <g id="Illustration/man_happy-" transform="translate(307.000000, 342.000000)">
                <path d="M64.4563156,103.249598 C63.8332008,103.315869 63.1954549,103.354598 62.5740615,103.354598 L62.5198402,103.354598 C60.8183238,103.335664 59.1624221,103.012057 57.7070533,102.176361 C57.7070533,99.8000902 57.6717664,97.3119344 57.4221762,94.8590656 C59.376696,95.8040513 61.3277732,96.2292167 63.2315164,96.2292295 C65.6103689,96.2292295 67.9031557,95.5561967 70.1227869,94.3289016 C70.0875,96.8359918 69.979918,99.4274262 70.0565164,102.05759 C69.8585656,102.112672 69.6614754,102.176361 69.4661066,102.234025 C67.8704508,102.660049 66.1603279,103.068861 64.4562295,103.249598 Z" id="Combined-Shape" fill="#F69A65"></path>
                <path d="M73.2513566,118.653357 L72.9492664,118.653357 C72.0404139,117.810775 71.1031598,116.839094 70.1564385,115.771881 C67.175127,112.339586 64.3160287,107.993275 63.1782418,104.137537 L62.5034877,104.06352 L62.5198402,103.355201 L62.5740615,103.355201 C63.1954549,103.355201 63.8332008,103.316471 64.4563156,103.24934 C66.1595533,103.069463 67.8705369,102.659791 69.4661926,102.233766 C69.6615615,102.267332 69.8758648,102.307783 70.0729549,102.357701 C73.3916434,103.090119 76.3634877,105.12643 79.0082828,108.188643 C78.3137336,109.74643 77.5529139,111.311963 76.7507828,112.806061 C75.627627,114.880242 74.4399221,116.874381 73.2513566,118.653357 Z" id="Fill-11" fill="#FCD7BD"></path>
                <g id="Group-15" transform="translate(0.000000, 107.157664)">
                    <mask id="mask-2" fill="white">
                        <use xlink:href="#path-1"></use>
                    </mask>
                    <g id="Clip-14"></g>
                    <path d="M30.1687113,41.6945533 C31.1988553,46.1552663 31.1652858,51.1435248 30.8967664,55.8297049 C20.6833648,83.5849918 16.0633648,116.061836 19.2090615,143.548598 C18.0532008,143.488352 16.7209057,143.4195 15.3034057,143.350648 C14.961248,137.502129 14.2699316,131.654855 13.7058634,125.808165 C14.2698332,131.65481 14.9609289,137.50208 15.3027172,143.350906 C10.2566926,143.042791 4.12193852,142.620209 0.872102459,142.725209 C-1.43789754,94.0120943 10.3048893,35.1217254 44.2568975,2.9297582 C44.2568975,2.9297582 46.1959549,1.22307787 47.1719385,0.405454918 C48.0584139,5.23889754 50.9889467,9.02406148 54.593373,12.3832008 C55.428209,11.1361107 56.3921434,9.73065984 57.3689877,8.2400041 C59.0016516,12.0070943 60.7289877,15.8963975 62.1490697,19.7865615 C62.1662828,19.8958648 62.1662828,20.0008648 62.1490697,20.1050041 C62.3986598,43.7868074 54.7414057,67.9996352 55.0426352,91.7012336 C55.1502172,91.8682008 55.2569385,92.0420533 55.3636598,92.2004139 C58.8441516,97.4418074 61.75575,103.677258 66.0220205,108.225824 C66.2001762,108.439266 66.3955451,108.634635 66.5874713,108.830865 L67.0350123,109.203529 C70.7298074,105.416643 73.2179631,99.4170123 76.3791516,94.2229549 C76.8576762,93.4259877 77.373209,92.6436516 77.9050943,91.882832 C75.4367336,78.0064795 67.4274713,33.0966025 67.0513648,20.0722992 C66.9945615,20.090373 66.9446434,20.1050041 66.8878402,20.1050041 C67.2475943,16.3250041 68.4912418,12.1146762 69.9121844,8.82869262 L70.1566107,8.61438934 C71.103332,9.67988115 72.0405861,10.6532828 72.9494385,11.4958648 L73.250668,11.4958648 C74.4400811,9.71604845 75.6277728,7.72279426 76.7509175,5.64863875 C77.5529139,4.15447131 78.3137336,2.58893852 79.0082828,1.03115164 C79.5745943,1.66889754 80.695168,3.05283197 80.695168,3.05283197 C116.885742,32.7041434 133.209799,90.6718893 134.487873,139.440086 C133.029061,139.492586 131.023734,139.706889 128.767955,139.99607 L128.767955,137.186889 C126.994143,110.538406 121.217422,83.4441025 110.562504,58.572873 C110.255319,57.9280399 109.93964,57.2789622 109.616202,56.626373 C109.939694,57.2789587 110.25543,57.9280362 110.562676,58.572873 C121.217594,83.4441025 126.994316,110.538406 128.768127,137.186889 L128.768127,139.99607 C124.593947,140.472012 119.671857,141.202709 116.246447,141.587422 C117.490094,112.471439 109.683947,78.4316434 96.2577172,50.6668893 C96.0244795,50.1496352 95.7766107,49.6323811 95.5296025,49.1349221 C95.5803182,49.4400761 95.6370436,49.758108 95.6706251,50.0624364 C99.8808197,76.31925 101.001393,104.937775 101.284549,118.759906 C101.819877,122.384988 102.352623,126.005766 102.869016,129.634291 L90.2363115,129.634291 L72.9494385,129.633775 L72.9494385,127.857381 L67.0350123,127.857381 L66.3396025,127.857381 L56.9610369,127.857381 L56.9610369,129.633775 L28.553373,129.633775 C28.7676762,104.514676 29.7075123,80.9920943 31.1112418,61.2865205 L31.1112418,61.2340205 C31.30575,58.6434467 31.5037008,56.105373 31.7180041,53.6473402 C31.590627,53.9124221 31.5037008,54.1809467 31.3969795,54.44775 C31.2179631,54.9116434 31.0578811,55.367791 30.8969385,55.8291025 C31.1654631,51.142832 31.1990287,46.1536107 30.1688238,41.6945533 L30.1687113,41.6945533 Z M27.2484786,47.1412833 C27.2482589,47.1417922 27.2480391,47.142301 27.2478193,47.1428099 C27.2480393,47.1423007 27.2482594,47.141791 27.2484796,47.1412813 Z M26.1296508,49.7976049 C19.2033796,66.6678531 15.5887023,83.7230538 13.2922254,102.097094 C12.6440225,107.925085 12.7620316,113.752456 13.174402,119.580127 C12.7621428,113.752522 12.6443527,107.925264 13.2929139,102.097697 C15.588649,83.7229154 19.2038629,66.6682522 26.1297449,49.7976164 Z M108.851172,55.1043018 C104.599482,46.7588355 99.1896238,37.9392806 94.1222582,30.1445533 C91.8419285,26.3428089 88.540882,19.6315647 84.8037818,14.0820697 C88.5405233,19.6316158 91.8412486,26.3428233 94.1215697,30.1445533 C99.1889394,37.940042 104.598802,46.7590351 108.851076,55.1043562 Z M90.2365697,129.633775 C87.4626762,115.030168 87.4626762,99.252627 87.4626762,83.8864795 C87.4626762,75.0045648 83.4666989,39.4779242 87.4626053,33.6965821 C88.1390702,35.3102037 88.8950788,37.2924658 89.7442769,39.3581931 C89.8172293,39.5355935 89.8908143,39.7135674 89.9650946,39.8919768 Z" id="Combined-Shape" fill="#EF833B" mask="url(#mask-2)"></path>
                </g>
                <g id="Group-7" transform="translate(76.598361, 108.018320)">
                    <mask id="mask-4" fill="white">
                        <use xlink:href="#path-3"></use>
                    </mask>
                    <g id="Clip-6"></g>
                    <path d="M52.1695943,139.135414 L52.1695943,136.326234 C50.3957828,109.67775 44.6190615,82.5834467 33.9641434,57.7122172 C29.5205779,48.3844303 23.2997582,38.1684467 17.5238975,29.2838975 C13.6913975,22.8943893 7.3190954,11.5514557 -0.624605773,5.88719791 C0.177525375,4.39309955 1.71537295,1.72828279 2.40992213,0.170495902 C2.97623361,0.808241803 4.09680738,2.19217623 4.09680738,2.19217623 C40.2873811,31.8434877 56.6114385,89.8112336 57.8895123,138.57943 C56.4307008,138.63193 54.425373,138.846234 52.1695943,139.135414 Z" id="Fill-5" fill="#E06A25" mask="url(#mask-4)"></path>
                </g>
                <g id="Group-10" transform="translate(85.204918, 140.723238)">
                    <mask id="mask-6" fill="white">
                        <use xlink:href="#path-5"></use>
                    </mask>
                    <g id="Clip-9"></g>
                    <path d="M16.0796311,85.194332 C16.614959,88.8194139 17.1477049,92.4401926 17.6640984,96.0687172 L5.03139344,96.0687172 C2.2575,81.4633893 2.2575,65.686709 2.2575,50.3214221 C2.2575,41.4377336 -1.73852459,5.91158607 2.2575,0.130561475 C4.21635246,4.80306148 6.84221311,12.5670369 10.4664344,16.4976516 C14.6759016,42.7536762 15.7964754,71.3722008 16.0796311,85.194332" id="Fill-8" fill="#E06A25" mask="url(#mask-6)"></path>
                </g>
                <path d="M62.5197541,103.354857 L62.5034016,104.063176 C62.0231557,107.706332 59.6813115,111.81166 57.3695902,115.396291 C56.3918852,116.888668 55.4288115,118.294119 54.5931148,119.541209 C50.9895492,116.181209 48.0581557,112.396906 47.1708197,107.563463 C50.087582,105.024529 53.5680738,103.159488 57.7069672,102.176619 C59.1631967,103.012316 60.8182377,103.335922 62.5197541,103.354857" id="Fill-16" fill="#FCD7BD"></path>
                <g id="Group-20" transform="translate(12.049180, 148.469139)">
                    <mask id="mask-8" fill="white">
                        <use xlink:href="#path-7"></use>
                    </mask>
                    <g id="Clip-19"></g>
                    <path d="M18.1194713,0.382819672 C19.1496762,4.84359836 19.1161107,9.83195902 18.8475861,14.5182295 C8.63418443,42.2735164 4.01418443,74.7503607 7.15988115,102.237123 C6.00402049,102.176877 4.67172541,102.108025 3.25422541,102.039172 C2.4495123,88.2841721 -0.286512295,74.5360574 1.24373361,60.7862213 C3.90746311,39.4660574 8.34758607,19.9231475 17.6745123,0.382819672 L18.1194713,0.382819672 Z" id="Fill-18" fill="#E06A25" mask="url(#mask-8)"></path>
                </g>
                <g id="Group-23" transform="translate(56.803279, 103.715041)">
                    <mask id="mask-10" fill="white">
                        <use xlink:href="#path-9"></use>
                    </mask>
                    <g id="Clip-22"></g>
                    <path d="M10.7408975,23.4977951 C10.6840943,23.5167295 13.1085615,12.2714016 13.1085615,12.2714016 C10.12725,8.83910656 7.51257787,4.2784918 6.37565164,0.421893443 L5.70089754,0.348737705 C5.21893033,3.99017213 5.45991393,8.09636066 3.14819262,11.6818525 C4.7799959,15.4489426 6.50733197,19.3391066 7.92741393,23.2292705 C7.97991393,23.3377131 8.01347951,23.4435738 8.05134836,23.5477131 L7.92741393,23.5477131 C8.1770041,47.2295164 0.51975,71.4423443 0.821840164,95.1439426 C0.929422131,95.3100492 1.03614344,95.4847623 1.14286475,95.6439836 C4.62335656,100.884516 7.53495492,107.119967 11.8003648,111.668533 C11.9785205,111.881975 12.1738893,112.077344 12.3666762,112.271852 L12.8133566,112.645377 C16.5081516,108.859352 18.997168,102.859721 22.1583566,97.6656639 C22.6360205,96.8686967 23.1532746,96.0863607 23.6834385,95.3246803 C21.2159385,81.4483279 11.9613074,38.4164016 10.7408975,23.4977951" id="Fill-21" fill="#E06A25" mask="url(#mask-10)"></path>
                </g>
                <path d="M101.736738,18.945873 C102.89518,23.3662008 102.85473,28.230627 102.056041,33.0571844 C99.1315328,33.0201762 96.3662459,32.8695615 93.5803033,32.7025943 C82.1903852,30.8212008 68.7142377,32.0863648 58.2426393,27.4655041 C63.8325984,30.0397254 67.5557951,34.7535369 71.7480492,38.6127172 C62.783459,39.2814467 49.4080082,34.0994385 40.313459,28.3597254 C35.6512869,23.2164467 31.6690328,20.3814467 35.5712459,13.9523484 C40.1232541,16.8424303 46.033377,18.1101762 50.6353033,20.9796025 C50.0070246,18.1824713 48.1402623,15.3870615 46.5928033,13.2061598 C55.2974754,17.86575 66.7777623,18.7987008 76.411082,20.3659549 C85.145877,21.4090697 93.2016148,19.5448893 101.736738,18.945873" id="Fill-27" fill="#5C2F1C"></path>
                <path d="M101.347421,17.6777344 C102.505864,22.0980622 102.465413,28.6744672 101.666725,33.5010246 C98.7422164,33.4640164 95.9769295,33.3134016 93.1909869,33.1464344 C81.8010689,31.265041 68.3249213,32.5302049 57.853323,27.9093443 C63.443282,30.4835656 67.1664787,35.197377 71.3587328,39.0565574 C62.3941426,39.7252869 49.0186918,34.5432787 39.9241426,28.8035656 C35.2619705,23.6602869 31.2797164,20.8252869 35.1819295,14.3961885 C39.9241426,7.85756836 45.050564,1.42490971 49.6524902,4.29433594 C49.0242115,1.49720479 49.0189434,13.2315364 47.4714844,11.0506348 C56.1761565,15.7102249 67.4124811,14.9763982 77.0458008,16.5436523 C85.7805959,17.5867671 91.1554044,14.9952049 99.6905273,14.3961885 L101.347421,17.6777344 Z" id="Fill-27" fill="#5C2F1C"></path>
                <path d="M40.3132869,28.3592951 C49.4078361,34.0998689 62.7832869,39.2810164 71.747877,38.6122869 C67.555623,34.7539672 63.8324262,30.0392951 58.2424672,27.4659344 C68.7140656,32.0859344 82.1902131,30.8207705 93.5809918,32.7030246 C93.830582,32.7426148 94.0999672,32.7942541 94.3392295,32.8338443 C94.6593934,42.6900738 92.8821393,53.8183525 89.658123,64.0128197 C89.257918,65.2633525 88.8284508,66.4915082 88.3998443,67.7041721 C89.1477541,66.5483115 89.8276721,65.3907295 90.4662787,64.2357295 C92.6420164,64.7392131 95.1973033,64.4595 96.2963607,62.1314262 C97.2146803,60.157082 96.245582,57.4899098 94.1903361,56.9304836 C95.007959,55.1239672 95.7971803,53.2787213 96.5459508,51.3981885 C100.269148,52.8303197 100.588451,58.3299098 100.179639,61.779418 C98.8525082,68.2833934 94.1696803,69.7731885 87.7207869,69.5476967 C83.2195574,81.3102787 76.7500082,91.1312213 69.412918,95.1737213 C67.0770984,96.4638443 64.6715656,97.1704426 62.1748033,97.1704426 C60.1789426,97.1704426 58.1323033,96.7211803 56.0753361,95.7331475 C55.2568525,95.3432705 54.4590246,94.8767951 53.6302131,94.3182295 C56.8636967,95.7159344 60.5576311,94.6349508 64.1422623,93.2028197 C70.8200902,90.552 73.6155,86.061959 77.1992705,79.8359754 C82.4699262,70.8360984 85.5743115,62.2992541 86.663041,51.8792951 C86.9823443,49.4006066 88.5298033,41.331959 86.9823443,39.4677787 C86.1939836,38.367 76.7302131,36.2084754 75.0123443,34.6412213 C76.5606639,37.4366311 78.8964836,40.6985164 79.8242705,43.6608934 C72.0671803,43.6608934 61.3563197,42.7296639 54.3583279,39.7629836 C48.8286148,37.6414672 41.5810328,35.5922459 36.2096803,32.1074508 C36.310377,30.0195 36.4394754,27.9659754 36.600418,25.9382705 L36.6787377,25.844459 C37.7777951,26.6827377 39.0050902,27.5184344 40.3132869,28.3592951" id="Fill-29" fill="#F8A877"></path>
                <path d="M94.1899918,56.9307418 C93.0711393,59.3930779 91.8533115,61.8149631 90.4667951,64.235127 C90.187082,64.1800451 89.9271639,64.10775 89.6577787,64.0130779 C92.8817951,53.8186107 94.6590492,42.690332 94.3397459,32.8341025 C94.1004836,32.7945123 93.8302377,32.742873 93.5806475,32.7032828 C96.3657295,32.8693893 99.1310164,33.0200041 102.056385,33.0570123 C101.347205,37.2897172 100.079459,41.4819713 98.532,45.3747172 L98.772123,45.467668 C98.0328197,47.5022582 97.3141721,49.4783238 96.5456066,51.3975861 C95.7968361,53.2789795 95.0076148,55.1233648 94.1899918,56.9307418" id="Fill-31" fill="#2E130C"></path>
                <path d="M94.1899918,56.9307418 C96.2460984,57.4893074 97.2151967,60.1573402 96.2960164,62.1316844 C95.1978197,64.4597582 92.6416721,64.7386107 90.4667951,64.235127 C91.8533115,61.8149631 93.0711393,59.3930779 94.1899918,56.9307418" id="Fill-33" fill="#BB794F"></path>
                <path d="M89.9270779,4.72827049 C96.6255615,8.04265574 100.229127,13.1136393 101.736996,18.9463033 C93.201873,19.5453197 85.1452746,21.4095 76.4113402,20.3663852 C66.7780205,18.7991311 55.2977336,17.8661803 46.5922008,13.2065902 C48.1396598,15.3874918 50.0064221,18.1829016 50.6355615,20.9800328 C46.0336352,18.1106066 40.1235123,16.842 35.5715041,13.9527787 C35.9708484,13.3184754 36.4201107,12.666959 36.9588811,11.9758525 C39.1750697,9.01347541 42.3801516,6.23527869 45.3244549,3.83490984 C45.4139631,3.85212295 45.524127,3.85212295 45.6239631,3.86933607 C60.0890041,-0.829844262 76.8399467,-1.96246721 89.9270779,4.72827049" id="Fill-35" fill="#4D2411"></path>
                <path d="M89.658123,64.0126475 C89.9266475,64.1073197 90.1865656,64.1796148 90.4662787,64.2355574 C89.8276721,65.391418 89.1477541,66.5481393 88.3998443,67.704 C88.8284508,66.4913361 89.257918,65.2631803 89.658123,64.0126475" id="Fill-37" fill="#4D2411"></path>
                <path d="M86.982,39.4679508 C88.5303197,41.3321311 86.982,49.4007787 86.6626967,51.8794672 C85.5739672,62.2985656 82.4704426,70.8362705 77.1997869,79.8352869 C73.6160164,86.0621311 70.8206066,90.5513115 64.141918,93.2029918 C60.5581475,94.635123 56.8642131,95.7152459 53.6298689,94.317541 C51.4438033,92.847541 49.2474098,90.7415164 47.051877,87.9443852 C43.1883934,82.5954098 40.5530656,76.1447951 38.8154016,69.139918 C38.7964672,69.1192623 38.7964672,69.0994672 38.7964672,69.0813934 C35.9502787,57.5072951 35.562123,44.4038115 36.2101967,32.107623 C41.5806885,35.592418 48.8282705,37.6416393 54.3588443,39.7631557 C61.3568361,42.7298361 72.0676967,43.6610656 79.8247869,43.6610656 C78.8961393,40.6986885 76.5611803,37.4368033 75.0128607,34.6413934 C76.7307295,36.2086475 86.1936393,38.3671721 86.982,39.4679508" id="Fill-39" fill="#FCC99F"></path>
                <path d="M35.0022664,63.4713811 C33.7147254,60.9203975 32.7068975,58.0879795 32.038168,55.1806844 C31.4589467,52.7949467 31.0991926,50.3713402 30.9597664,48.0234713 C30.8496025,46.3632664 30.8496025,44.7435123 30.9597664,43.1960533 C28.2538648,33.4482664 27.6445205,21.2915041 28.73325,18.0296189 C32.0278402,8.1449877 35.8809959,6.53814344 45.3241107,3.83482377 C42.3798074,6.23519262 39.1755861,9.01425 36.9585369,11.9757664 C36.4197664,12.666873 35.9705041,13.31925 35.5711598,13.9526926 C31.6689467,20.381791 35.6512008,23.216791 40.313373,28.359209 C39.0051762,27.519209 37.7778811,26.6826516 36.6788238,25.844373 L36.5996434,25.9390451 C36.4395615,27.9658893 36.3104631,30.0194139 36.2097664,32.1082254 C35.5616926,44.4044139 35.950709,57.5070369 38.7960369,69.0819959 L38.7659139,69.0819959 C37.3088238,67.4794549 36.0600123,65.5636352 35.0022664,63.4713811" id="Fill-41" fill="#2E130C"></path>
                <path d="M38.766,69.0815656 C25.6091557,69.2339016 24.2811639,55.7000902 30.2807951,48.0600492 L30.9598525,48.023041 C31.0992787,50.3717705 31.4590328,52.7945164 32.0382541,55.1811148 C30.8996066,55.9995984 30.1413689,57.4110738 30.1413689,59.0368525 C30.2506721,61.9062787 32.5770246,63.0251311 35.0023525,63.4709508 C36.0600984,65.5632049 37.3089098,67.4798852 38.766,69.0815656" id="Fill-43" fill="#F8A877"></path>
                <path d="M32.0379098,55.1807705 C32.7066393,58.0880656 33.7144672,60.9204836 35.0020082,63.4714672 C32.5766803,63.0247869 30.2511885,61.9059344 30.1410246,59.0365082 C30.1410246,57.4115902 30.900123,55.9992541 32.0379098,55.1807705" id="Fill-45" fill="#BB794F"></path>
                <path d="M37.7926844,19.6905123 C42.5942828,26.9828484 52.6123156,33.6933811 61.636291,32.4402664 C62.0855533,32.3800205 62.1647336,31.6493238 61.7653893,31.4694467 C57.8976025,29.7274795 53.7044877,28.8341189 49.8065779,27.1248566 C45.2648975,25.1376025 41.9307172,22.5573566 38.1274795,19.4331762 C37.9527664,19.2903074 37.6523975,19.4753484 37.7926844,19.6905123" id="Fill-47" fill="#714838"></path>
                <path d="M53.0911844,18.903873 C63.7727828,30.0992828 81.6813074,29.3109221 95.8468402,26.9303484 C96.1962664,26.8726844 96.2065943,26.2693648 95.8468402,26.2160041 C81.7062664,24.1469877 65.0052418,29.2282992 53.1316352,18.8634221 C53.1015123,18.8384631 53.0662254,18.876332 53.0911844,18.903873" id="Fill-49" fill="#714838"></path>
                <path d="M71.4691967,20.9227131 C74.6742787,21.7265656 78.6513689,22.1784098 81.8607541,21.3091475 C82.2454672,21.2067295 82.1507951,20.6550492 81.7721066,20.6386967 C78.4671885,20.4906639 74.803377,20.2341885 71.5191148,20.565541 C71.3246066,20.5853361 71.2591967,20.8702131 71.4691967,20.9227131" id="Fill-51" fill="#714838"></path>
                <path d="M34.2239754,13.0985779 C28.8534836,16.2287828 30.270123,27.0472254 33.0311066,31.4744385 C33.1903279,31.728332 33.6852049,31.6543156 33.6447541,31.3091926 C33.315123,28.6351352 32.3417213,26.083291 31.9879918,23.3980451 C31.4827869,19.5526352 32.5818443,16.523127 34.2833607,13.1579631 C34.2988525,13.1209549 34.2644262,13.0762008 34.2239754,13.0985779" id="Fill-53" fill="#572A18"></path>
                <path d="M47.7499549,8.65914344 C59.3550369,11.7592254 74.7134385,16.3525451 86.3142172,11.3245943 C86.932168,11.0569303 86.6335205,9.95959426 85.9639303,10.0370533 C79.5150369,10.7729139 73.3011025,11.7540615 66.7730287,11.4674631 C60.3628648,11.185168 54.1188074,9.3579959 47.7602828,8.60147951 C47.7258566,8.59889754 47.7206926,8.65139754 47.7499549,8.65914344" id="Fill-55" fill="#5C301E"></path>
                <path d="M62.6046148,7.12192623 C64.3112951,7.94815574 66.1031803,7.68565574 67.9449836,7.46360656 C69.991623,7.2157377 72.2585902,6.94204918 74.1950656,6.23545082 C74.6434672,6.07364754 74.553959,5.46172131 74.0849016,5.42127049 C72.2628934,5.26032787 70.4262541,5.77844262 68.6343689,6.08139344 C66.6574426,6.41877049 64.5660492,6.31721311 62.639041,6.8697541 C62.5297377,6.89901639 62.4944508,7.06684426 62.6046148,7.12192623" id="Fill-57" fill="#5C301E"></path>
                <path d="M60.4185492,51.7314344 C60.113877,56.2094262 58.7660902,61.1306557 54.294123,63.0697131 C54.0187131,63.1893443 53.8388361,63.5611475 53.8500246,63.8451639 C53.9997787,68.0881967 57.9183443,71.2330328 61.9152295,71.9490984 C62.1303934,71.9895492 62.2396967,71.7296311 62.0598197,71.6022541 C60.0295328,70.1838934 58.0526066,69.0340574 56.5404344,66.9951639 C54.6891639,64.5018443 56.889,63.5990164 58.2376475,61.8622131 C60.3987541,59.0685246 61.0872787,55.1577049 60.7180574,51.7314344 C60.6974016,51.5420902 60.434041,51.5369262 60.4185492,51.7314344" id="Fill-59" fill="#CE8558"></path>
                <path d="M80.9927828,45.0353607 C79.8799549,43.0248689 78.8118811,41.4042541 76.4304467,40.7140082 C74.4242582,40.129623 71.4343402,39.5323279 69.692373,40.9730656 C69.3782336,41.2355656 69.5176598,41.7235574 69.817168,41.9215082 C71.0599549,42.7529016 72.7365123,42.4826557 74.174668,42.5781885 C76.4949959,42.7322459 79.3299959,43.2167951 80.9385615,45.0783934 C80.9626598,45.1110984 81.0117172,45.0706475 80.9927828,45.0353607" id="Fill-61" fill="#C67560"></path>
                <path d="M43.5676844,41.4523648 C45.5239549,39.5451516 47.0464549,39.2387582 49.6817828,39.0812582 C51.663873,38.961627 53.8198156,38.754209 55.7967418,38.989168 C55.9568238,39.0089631 56.0910861,38.779168 55.99125,38.649209 C54.3043648,36.4433484 51.9332582,36.3607254 49.3667828,36.7549057 C47.406209,37.0578566 43.9773566,39.3730205 43.5427254,41.436873 C43.5427254,41.4523648 43.5573566,41.4626926 43.5676844,41.4523648" id="Fill-63" fill="#C67560"></path>
                <path d="M53.66025,53.7209262 C53.66025,56.1066639 52.112791,58.041418 50.2055779,58.041418 C48.2992254,58.041418 46.752627,56.1066639 46.752627,53.7209262 C46.752627,51.3360492 48.2992254,49.4004344 50.2055779,49.4004344 C52.112791,49.4004344 53.66025,51.3360492 53.66025,53.7209262" id="Fill-65" fill="#422B27"></path>
                <path d="M74.6336557,54.1874016 C74.6336557,56.5731393 73.0758689,58.5053115 71.170377,58.5053115 C69.2631639,58.5053115 67.7157049,56.5731393 67.7157049,54.1874016 C67.7157049,51.8025246 69.2631639,49.8694918 71.170377,49.8694918 C73.0758689,49.8694918 74.6336557,51.8025246 74.6336557,54.1874016" id="Fill-67" fill="#422B27"></path>
                <path d="M54.328377,79.7011107 C57.7529262,81.4120943 65.3998525,80.7261516 68.1548115,79.1588975 C67.9654672,79.8482828 67.6556311,80.5187336 67.0970656,81.4732008 C65.7191557,83.8933648 63.5132951,85.0896762 60.9975984,85.1611107 C59.2702623,85.2910697 56.6753852,84.1558648 55.3671885,81.8596352 C54.9075984,81.0609467 54.5685,80.352627 54.328377,79.7011107" id="Fill-69" fill="#4B2C12"></path>
                <path d="M68.1551557,79.1589836 C65.4001967,80.7262377 57.7532705,81.4121803 54.3287213,79.7011967 C53.9001148,78.5634098 53.7503607,77.5573033 53.7297049,76.3437787 C55.3675328,78.2088197 67.9649508,77.2225082 68.8135574,76.1200082 C68.5545,77.4824262 68.4340082,78.3413607 68.1551557,79.1589836" id="Fill-71" fill="#FEFEFE"></path>
                <g id="Group-26" transform="translate(54.221311, 103.715041)">
                    <mask id="mask-12" fill="white">
                        <use xlink:href="#path-11"></use>
                    </mask>
                    <g id="Clip-25"></g>
                    <path d="M12.8303115,23.5145779 C12.7735082,23.5326516 12.8871148,23.5145779 12.8303115,23.5145779 C13.1892049,19.7337172 14.2701885,15.5569549 15.6902705,12.271832 L15.9346967,12.056668 C12.9542459,8.62437295 10.0942869,4.27806148 8.95736066,0.42232377 L8.28260656,0.348307377 C7.8015,3.9897418 5.46051639,8.09679098 3.14793443,11.6814221 C4.7797377,15.449373 6.50707377,19.6588402 7.92801639,23.5472828 C7.97965574,23.6574467 8.01322131,23.4431434 8.05109016,23.5472828 L7.92801639,23.5472828 C8.17760656,47.2299467 0.519491803,71.4427746 0.821581967,95.144373 C0.929163934,95.3104795 1.03588525,95.484332 1.14260656,95.6444139 C4.62309836,100.884086 7.53555738,107.120398 11.8009672,111.668963 C11.979123,111.882406 12.1736311,112.076914 12.366418,112.272283 L12.8130984,112.645807 C16.5078934,108.858922 18.9969098,102.859291 22.1580984,97.6652336 C22.636623,96.8682664 23.1530164,96.0859303 23.6831803,95.3251107 C21.2156803,81.4478975 13.206418,36.5397418 12.8303115,23.5145779" id="Fill-24" fill="#422B27" mask="url(#mask-12)"></path>
                </g>
            </g>
        </g>
    </g>
</svg>