<svg width="490px" height="51px" viewBox="0 0 490 51" version="1.1" xmlns="http://www.w3.org/2000/svg" xmlns:xlink="http://www.w3.org/1999/xlink">
    <!-- Generator: Sketch 50.2 (55047) - http://www.bohemiancoding.com/sketch -->
    <desc>Created with Sketch.</desc>
    <defs></defs>
    <g id="Onboarding" stroke="none" stroke-width="1" fill="none" fill-rule="evenodd">
        <g id="FO---Onboarding-Screen-6" transform="translate(-130.000000, -237.000000)">
            <g id="Group-6" transform="translate(130.000000, 237.000000)">
                <path d="M13.7574754,18.1530898 L20.294246,18.1530898 C23.2316955,18.1530898 25.3433813,17.9564329 26.6324551,17.5540428 C27.921529,17.1546782 28.8891224,16.4981469 29.5352352,15.5874745 C30.1750444,14.6798275 30.4996767,13.7056198 30.4996767,12.6709024 C30.4996767,11.6513123 30.1971068,10.8132516 29.5888153,10.1567204 C28.9836754,9.50624007 28.1232423,9.06754406 27.0012122,8.8497088 C26.3771618,8.74079117 24.8706158,8.68633235 22.484726,8.68633235 L15.8313399,8.68633235 L13.7574754,18.1530898 Z M9.97850331,35.5617578 L18.2487474,35.5617578 C21.7156942,35.5617578 24.0417003,35.3499735 25.2267658,34.920354 C26.4118313,34.4907344 27.3573622,33.7888208 28.0696622,32.8055366 C28.7819622,31.825278 29.1349604,30.787535 29.1349604,29.6953332 C29.1349604,28.3671432 28.6243737,27.2719159 27.6000485,26.4096513 C26.5757233,25.5413358 24.8706158,25.1117162 22.484726,25.1117162 L12.2509294,25.1117162 L9.97850331,35.5617578 Z M0,42 L8.72409892,2 L22.9669468,2 C26.0556813,2 28.2146436,2.09076469 29.4501374,2.27229408 C31.495636,2.54761364 33.2291094,3.08917631 34.6505576,3.90908403 C36.068854,4.72899176 37.1499111,5.82119356 37.890577,7.18568943 C38.6280912,8.54715982 39,10.0599047 39,11.7118221 C39,13.9325316 38.3538872,15.8567431 37.0679651,17.4844565 C35.7757395,19.11217 33.7869727,20.3465699 31.0953612,21.181605 C33.2385647,21.7443461 34.9090027,22.7518342 36.1129788,24.1980183 C37.3169549,25.6442024 37.9189429,27.2779669 37.9189429,29.0962862 C37.9189429,31.4954996 37.206643,33.7736934 35.7851948,35.9308676 C34.3668983,38.0850163 32.4033457,39.6370925 29.9008405,40.5810453 C27.401487,41.5280236 23.9786649,42 19.6418296,42 L0,42 Z" id="Fill-100" fill="#F5851F"></path>
                <path d="M47.7733732,2 L56,2 L54.4519447,9.09477347 L46.2253179,9.09477347 L47.7733732,2 Z M45.3638743,13.0248847 L53.5905011,13.0248847 L47.2266268,42 L39,42 L45.3638743,13.0248847 Z" id="Fill-101" fill="#F5851F"></path>
                <path d="M60.0093389,27.6006866 C60.0093389,29.7276313 60.489837,31.3462128 61.4479033,32.4622745 C62.4088995,33.5783361 63.6101447,34.1334453 65.0574986,34.1334453 C66.3759385,34.1334453 67.6562901,33.6338471 68.8985534,32.6346505 C70.1408167,31.6325323 71.0930233,30.2126214 71.755173,28.3661529 C72.414393,26.5196845 72.7454679,24.7374918 72.7454679,23.0166533 C72.7454679,21.0299467 72.2063725,19.4318165 71.1340414,18.2222628 C70.0587804,17.0097875 68.8165171,16.402089 67.4072514,16.402089 C66.0507233,16.402089 64.8055301,16.9396684 63.668742,18.0119056 C62.5319539,19.0812212 61.5943966,20.7319407 60.8531405,22.964064 C60.2906061,24.6849025 60.0093389,26.2304434 60.0093389,27.6006866 M51.0761765,41.1161347 L59.0864311,42.2760207 C59.0864311,43.0853115 59.2153452,43.6959316 59.4790331,44.1078811 C59.745651,44.5198305 60.1734115,44.8704258 60.7623146,45.1625886 C61.3512177,45.4518297 62.156931,45.5949894 63.1794543,45.5949894 C64.7820912,45.5949894 66.0683025,45.2823753 67.0380883,44.6483821 C67.7617652,44.1575488 68.3506684,43.3657877 68.8077275,42.2760207 C69.0889947,41.5923599 69.4522981,40.0994084 69.8917781,37.797166 L70.155466,36.4795121 C67.5303058,38.6590461 64.8201795,39.7458915 62.0192272,39.7458915 C59.2680828,39.7458915 57.0150156,38.7817544 55.2541659,36.8476371 C53.4903864,34.9164415 52.6114265,32.0883062 52.6114265,28.3661529 C52.6114265,25.0822438 53.2091192,22.0671244 54.4074345,19.3266379 C55.6057499,16.5861515 57.2874931,14.5147177 59.4555942,13.1094149 C61.6207654,11.7041122 63.8328145,11 66.0858817,11 C67.9551364,11 69.6632485,11.4908334 71.2131478,12.4754218 C72.7630471,13.4600102 73.970152,14.8390183 74.8344626,16.6124461 L75.8892144,11.6602878 L83,11.6602878 L78.1364219,34.9777956 C77.3424281,38.7204003 76.6714887,41.3907677 76.1265336,42.9888978 C75.5815785,44.5841063 74.9575169,45.8608575 74.2514192,46.8074648 C73.5482512,47.7569936 72.6575719,48.5516763 71.5823109,49.1944343 C70.5099799,49.8342707 69.2384179,50.2988094 67.7764146,50.576364 C66.3144113,50.8597619 64.7293536,51 63.0212415,51 C59.0571324,51 56.062809,50.3221825 54.0382714,48.969469 C52.0137337,47.6196772 51,45.3671025 51,42.2263531 C51,41.8903659 51.0263688,41.5222409 51.0761765,41.1161347" id="Fill-102" fill="#F5851F"></path>
                <path d="M97.9737537,19.4358974 L102.340736,19.4358974 C106.765259,19.4358974 109.702827,19.1726798 111.150412,18.6432191 C112.597997,18.1167839 113.730626,17.2877997 114.551328,16.1623175 C115.369001,15.0368353 115.780867,13.8508434 115.780867,12.613418 C115.780867,11.161183 115.190325,10.0659557 114.006212,9.33983814 C113.276363,8.90416761 111.701584,8.68633235 109.278848,8.68633235 L100.211756,8.68633235 L97.9737537,19.4358974 Z M93.2463892,42 L85,42 L93.3826681,2 L111.162525,2 C114.22123,2 116.601569,2.31465093 118.306569,2.94092731 C120.005513,3.57022918 121.380416,4.72294078 122.42825,6.39301112 C123.479112,8.06610695 124,10.0962106 124,12.477271 C124,15.880947 122.979422,18.685576 120.941295,20.8941835 C118.903168,23.1058165 115.817208,24.4763634 111.683414,25.0027986 C112.740332,25.9467514 113.730626,27.1932532 114.660351,28.7392784 C116.498602,31.8676348 118.548843,36.2878753 120.805016,42 L111.955971,42 C111.247321,39.7460101 109.851219,36.2273656 107.776751,31.4440663 C106.64715,28.8572725 105.447896,27.1206414 104.172931,26.2281219 C103.38857,25.7016867 102.022752,25.4384691 100.075478,25.4384691 L96.7169592,25.4384691 L93.2463892,42 Z" id="Fill-103" fill="#F5851F"></path>
                <path d="M146.249698,22.8994915 C146.249698,21.0658092 145.709891,19.5940772 144.630277,18.4872869 C143.550663,17.3804966 142.160434,16.8300927 140.456574,16.8300927 C138.770808,16.8300927 137.272014,17.347592 135.96924,18.3766078 C134.66345,19.4145977 133.647165,20.9162429 132.923402,22.8845348 C132.196622,24.8528268 131.834741,26.6655698 131.834741,28.3197727 C131.834741,30.3718217 132.395657,31.9991026 133.520507,33.2046066 C134.64234,34.4101107 136.05971,35.011367 137.766586,35.011367 C139.904704,35.011367 141.696019,34.1020042 143.149578,32.2862698 C145.21532,29.7137302 146.249698,26.5848041 146.249698,22.8994915 M124,28.4304517 C124,23.1238409 125.510856,18.8911158 128.529554,15.7352677 C131.548251,12.5794197 135.513872,11 140.426417,11 C144.687575,11 148.016888,12.1666168 150.411339,14.4938678 C152.802774,16.8241101 154,19.9590188 154,23.8956028 C154,28.5381394 152.504222,32.5495064 149.512666,35.9267125 C146.52111,39.3099013 142.513269,41 137.492159,41 C134.772014,41 132.359469,40.4615615 130.257539,39.3816931 C128.152593,38.3018247 126.584439,36.7762489 125.553076,34.7959916 C124.518697,32.8157344 124,30.6948848 124,28.4304517" id="Fill-104" fill="#F5851F"></path>
                <path d="M174.703925,26.9722776 C174.219561,27.0979258 173.576846,27.2145991 172.772677,27.3222976 C168.73941,27.7889908 166.106454,28.4740726 164.876913,29.3745513 C163.998226,30.0237335 163.560435,30.894296 163.560435,31.9922218 C163.560435,32.8927004 163.895764,33.6495812 164.566423,34.2688472 C165.240186,34.8911049 166.125083,35.2022337 167.230428,35.2022337 C168.44134,35.2022337 169.587048,34.9180295 170.658239,34.3526127 C171.732535,33.7842042 172.536704,33.0572397 173.067642,32.1657359 C173.601686,31.2742321 174.070526,29.8891105 174.480373,27.9984045 L174.703925,26.9722776 Z M167.059658,19.7983646 L159.219783,19.1491823 C160.117099,16.5943359 161.678864,14.5959314 163.908184,13.1599521 C166.140608,11.7179896 169.093369,11 172.772677,11 C176.597915,11 179.42648,11.7419226 181.255267,13.2257679 C183.084054,14.7096131 184,16.5225369 184,18.6645393 C184,19.5261268 183.922377,20.4415636 183.764028,21.4138412 C183.602573,22.3861189 183.0499,24.9409653 182.096695,29.0753889 C181.31426,32.4948145 180.919938,34.8881133 180.919938,36.2552852 C180.919938,37.4788592 181.143491,38.8370562 181.593701,40.3268847 L173.778665,40.3268847 C173.461965,39.2828081 173.266356,38.2058237 173.191839,37.0899481 C172.018186,38.3494216 170.661344,39.315716 169.130628,39.9918229 C167.603016,40.6649382 166.062985,41 164.510534,41 C162.048348,41 160.014637,40.2251695 158.406299,38.6695253 C156.801065,37.1138811 156,35.112485 156,32.6623454 C156,29.9309932 156.881792,27.7471081 158.645376,26.1106901 C160.40896,24.4712804 163.560435,23.4840447 168.096695,23.1429996 C171.921934,22.8348624 174.480373,22.4668927 175.768907,22.0360989 C176.104236,20.9561229 176.271901,20.0915437 176.271901,19.445353 C176.271901,18.6166733 175.927257,17.9256083 175.237969,17.3691663 C174.545576,16.8127244 173.517853,16.5315118 172.157906,16.5315118 C170.720337,16.5315118 169.587048,16.8127244 168.754935,17.3811328 C167.922821,17.9465497 167.357729,18.754288 167.059658,19.7983646 Z" id="Fill-105" fill="#F5851F"></path>
                <path d="M193.602878,29.740592 C193.602878,31.7813476 194.125444,33.372899 195.170576,34.5152462 C196.212687,35.6605682 197.496446,36.2347166 199.021855,36.2347166 C200.441542,36.2347166 201.761549,35.7527889 202.984897,34.7978581 C204.214286,33.8429273 205.192964,32.379295 205.929993,30.4129109 C206.664001,28.443552 207.029495,26.5574892 207.029495,24.7487729 C207.029495,22.6931429 206.470682,21.0301949 205.343994,19.7629035 C204.217306,18.4896624 202.918443,17.8560167 201.450426,17.8560167 C199.160803,17.8560167 197.281983,19.1084337 195.807925,21.6132679 C194.336887,24.1151272 193.602878,26.8252268 193.602878,29.740592 Z M211.663113,41.330656 L204.253554,41.330656 L204.906006,38.2427488 C203.489339,39.5873866 202.099858,40.5482671 200.72548,41.1283653 C199.354122,41.7084635 197.807569,42 196.07978,42 C193.083333,42 190.654762,40.9944965 188.794065,38.9805147 C186.933369,36.9724825 186,33.9976201 186,30.0618771 C186,25.5014131 187.310945,21.3782538 189.923774,17.6923992 C192.539623,14.0095196 196.001244,12.1680797 200.302594,12.1680797 C204.190121,12.1680797 207.105011,13.6882344 209.047264,16.7285438 L212.179638,2 L220,2 L211.663113,41.330656 Z" id="Fill-106" fill="#F5851F"></path>
                <path d="M272.603822,18.2620074 L274.971159,18.2620074 C278.936066,18.2620074 281.505008,18.080478 282.671876,17.7174193 C283.838744,17.351335 284.706258,16.7371606 285.274419,15.874896 C285.84258,15.0126314 286.129715,14.1775962 286.129715,13.378867 C286.129715,12.3592769 285.787597,11.5575221 285.109469,10.9766281 C284.428287,10.3957341 282.952902,10.105287 280.674149,10.105287 L274.335796,10.105287 L272.603822,18.2620074 Z M263.565177,2 L286.539035,2 C290.506997,2 293.411949,3.02866652 295.24778,5.08599955 C297.083612,7.1372816 298,9.61213221 298,12.5045004 C298,15.6358823 297.028628,18.3678996 295.079776,20.7066031 C293.133977,23.0392557 290.021311,24.5368732 285.741777,25.1903789 C288.277119,27.229559 291.30731,32.8327661 294.832351,42 L281.639412,42 C280.539746,39.1076318 279.238474,35.9490205 277.741706,32.5181151 C276.241884,29.0902352 275.117781,27.1024885 274.366342,26.5579003 C273.611849,26.0133122 272.70157,25.7410181 271.638559,25.7410181 L270.97876,25.7410181 L267.533139,42 L255,42 L263.565177,2 Z" id="Fill-107" fill="#282827"></path>
                <polygon id="Fill-108" fill="#282827" points="337 2 335.227049 10.5954164 315.530858 10.5954164 314.233434 16.9489449 333.2134 16.9489449 331.463932 25.0572574 312.510384 25.0572574 310.872459 32.8872249 332.232993 32.8872249 330.330887 42 297 42 305.283555 2"></polygon>
                <polygon id="Fill-109" fill="#282827" points="358 2 349.063683 42 336 42 344.936317 2"></polygon>
                <path d="M400,11.8461088 L387.517831,13.1392627 C386.375469,10.0789936 384.059703,8.54885898 380.573636,8.54885898 C377.158966,8.54885898 374.452065,10.1784669 372.452931,13.4318315 C370.453797,16.685196 369.457335,20.1696899 369.457335,23.8794617 C369.457335,26.0269163 370.196145,27.8232885 371.683078,29.2744295 C373.166907,30.7255705 375.057392,31.451141 377.351429,31.451141 L377.463182,31.451141 C380.076956,31.451141 382.370993,30.8162668 384.351502,29.5523698 L385.276567,25.4125219 L377.522163,25.4125219 L379.369189,17.3346987 L398.516171,17.3346987 L394.403046,35.514921 C388.017615,38.5049737 381.694268,40 375.420589,40 C369.767759,40 365.282125,38.5605617 361.966792,35.6758338 C358.657667,32.7881802 357,28.7331773 357,23.5078994 C357,19.1486249 358.052339,15.1462844 360.163226,11.5038034 C362.274112,7.8642481 365.244874,5.03803394 369.078617,3.01930954 C372.915463,1.00643651 377.314178,0 382.28097,0 C391.98484,0 397.892218,3.94967817 400,11.8461088" id="Fill-110" fill="#282827"></path>
                <polygon id="Fill-111" fill="#282827" points="448 2 439.198658 42 426.487673 42 430.031754 25.7410181 416.313928 25.7410181 412.82561 42 400 42 408.801342 2 421.512327 2 418.411256 16.1320626 432.1012 16.1320626 435.313799 2"></polygon>
                <polygon id="Fill-112" fill="#282827" points="490 2 487.946151 11.8237652 474.925294 11.8237652 468.387562 42 455.934016 42 462.450512 11.8237652 450 11.8237652 452.081153 2"></polygon>
                <polygon id="Fill-113" fill="#282827" points="239.129512 11 239.129512 11 257.174916 11 259 2 228.792333 2 227 11"></polygon>
                <polygon id="Fill-114" fill="#282827" points="239.269264 17 226.423885 17 221 40 233.911755 40 237.33171 24.6704828 256.144627 24.6704828 258 17.0028621 239.269264 17.0028621"></polygon>
            </g>
        </g>
    </g>
</svg>