<svg width="216px" height="163px" viewBox="0 0 216 163" version="1.1" xmlns="http://www.w3.org/2000/svg" xmlns:xlink="http://www.w3.org/1999/xlink">
    <!-- Generator: Sketch 50.2 (55047) - http://www.bohemiancoding.com/sketch -->
    <desc>Created with Sketch.</desc>
    <defs></defs>
    <g id="Onboarding" stroke="none" stroke-width="1" fill="none" fill-rule="evenodd">
        <g id="FO---Onboarding--Forgot-password-02" transform="translate(-270.000000, -1056.000000)" fill-rule="nonzero">
            <g id="Icon/Mailing" transform="translate(270.000000, 1056.000000)">
                <path d="M180.819778,3 L92.0004215,59.4566955 L3.18106525,3 C1.23253629,4.79662737 0,7.35998445 0,10.2033792 L0,121.184763 C0,124.042076 1.244343,126.615976 3.20931703,128.413447 L91.9999998,71.9854301 L183.243527,131 L184,131 L184,10.2033792 C184.000843,7.35998445 182.768307,4.79662737 180.819778,3 Z" id="Shape" fill="#CFD0D1"></path>
                <path d="M9.60288224,131 L183,131 L121.074054,66 L62.4731578,66 L3,128.425975 C4.747053,130.01774 7.06240412,131 9.60288224,131 Z" id="Shape" fill="#B6B7B7"></path>
                <path d="M9.6459091,0.000423314507 C7.0862475,0.000423314507 4.75432733,1.00156212 3,2.62201005 L85.215925,89.0581758 C88.9472507,92.9806081 95.0523267,92.9806081 98.7836525,89.0581758 L181,2.62158674 C179.245673,1.00113881 176.913753,0 174.354091,0 L9.6459091,0 L9.6459091,0.000423314507 Z" id="Shape" fill="#EAEAEB"></path>
                <circle id="Oval" fill="#F6851F" cx="184" cy="131" r="32"></circle>
                <path d="M183.399835,147 C181.411247,147 179.800082,145.347059 179.800082,143.307853 L179.800082,127.097858 C178.533755,127.555622 177.068197,127.265818 176.05431,126.226331 C174.648563,124.784502 174.648563,122.446607 176.05431,121.004779 L180.85398,116.081916 C181.883954,115.025506 183.432421,114.709471 184.777533,115.281464 C186.123058,115.853034 187,117.199671 187,118.692692 L187,143.307853 C186.999588,145.346636 185.388423,147 183.399835,147 Z" id="Shape" fill="#FFFFFF"></path>
            </g>
        </g>
    </g>
</svg>