<svg width="750px" height="326px" viewBox="0 0 750 326" version="1.1" xmlns="http://www.w3.org/2000/svg" xmlns:xlink="http://www.w3.org/1999/xlink">
    <!-- Generator: Sketch 50.2 (55047) - http://www.bohemiancoding.com/sketch -->
    <desc>Created with Sketch.</desc>
    <defs>
        <polygon id="path-1" points="779.244335 4.3441699e-14 779.244335 217.892565 0.111428571 217.892565 0.111428571 8.68833979e-14"></polygon>
        <polygon id="path-3" points="779.244335 0.416762308 779.244335 106.046412 0.111428571 106.046412 0.111428571 0.416762308"></polygon>
        <linearGradient x1="50%" y1="0%" x2="50%" y2="97.9651626%" id="linearGradient-5">
            <stop stop-color="#4E4E4E" offset="0%"></stop>
            <stop stop-color="#333332" offset="100%"></stop>
        </linearGradient>
    </defs>
    <g id="Onboarding" stroke="none" stroke-width="1" fill="none" fill-rule="evenodd">
        <g id="FO---Onboarding-Screen-6" transform="translate(0.000000, -950.000000)">
            <g id="Illustration/truck" transform="translate(-15.000000, 952.000000)">
                <g id="Group-134">
                    <g id="Group-3" transform="translate(0.000000, 128.850000)">
                        <mask id="mask-2" fill="white">
                            <use xlink:href="#path-1"></use>
                        </mask>
                        <g id="Clip-2"></g>
                        <polygon id="Stroke-1" stroke="#D0D8D3" stroke-width="4" mask="url(#mask-2)" points="806.791783 120.441268 773.906266 102.092968 768.004394 95.6033104 760.427251 91.781495 753.485379 86.9184142 747.242818 81.0332796 741.516414 75.5964142 736.178089 69.7432988 731.234246 63.3343296 723.737793 59.8506373 717.080256 55.0272604 709.504394 49.4892142 700.979468 44.8489873 691.896118 44.1420027 683.004887 44.7798258 674.409517 47.4860912 665.391488 45.9965565 657.102227 49.2625181 648.468433 49.0857719 640.232966 51.8304604 631.746463 52.8179335 622.599074 55.6305027 613.290305 58.1075104 604.328631 61.7922835 596.499172 65.8856219 588.104887 68.4586873 580.484197 73.1117219 573.184985 78.3475065 565.488729 82.4984796 558.233064 87.6305219 550.853163 92.6716296 545.48666 98.1033719 539.591192 103.116303 532.829911 106.477041 524.418975 108.026772 516.064394 104.21008 507.583015 100.249941 499.283507 95.6635065 492.67464 90.6275219 484.554443 89.6579796 476.933754 87.8456912 469.291291 88.7307027 460.973852 88.4079488 453.134148 95.6814373 445.124099 102.277399 434.042719 104.999033 426.03267 105.029772 418.219862 107.050826 410.203409 105.52543 401.860355 107.570818 393.559567 109.545764 384.956512 109.275522 374.542424 107.422249 364.449813 104.646822 355.420256 103.905257 348.240158 98.2762758 341.54932 92.0683873 333.055133 88.0967219 324.527645 91.8224796 316.115429 94.8668681 310.292966 98.7668104 303.109025 99.3943873 296.372079 104.97598 289.85799 110.466637 282.476808 114.575345 274.642227 117.585153 266.757695 120.287576 258.454345 122.344491 250.51602 118.582872 243.13868 116.29798 235.624296 114.725195 227.575823 114.940364 221.118089 109.563695 214.046857 106.483445 205.689714 104.22801 197.424788 102.04558 188.770502 101.770214 180.552966 99.2637488 172.466069 96.1591642 164.52134 92.5768527 157.154246 88.1031258 149.429813 84.2992412 142.50203 79.0480873 136.629616 72.1152835 129.799172 66.8103373 121.676414 63.5892027 116.270207 55.9276412 108.313951 52.7244373 101.393852 47.7281565 94.284197 43.0533488 86.7211429 39.3685758 79.2592709 37.3180642 71.7474483 35.3110988 63.8680394 35.5352335 57.5012414 40.9426412 50.0252808 45.7903527 42.332867 50.1347219 34.3689261 54.0589988 27.035133 59.1731104 19.8870542 64.592045 12.3701084 69.5076373 5.11188177 74.0556488 -1.01668966 80.2737835 -6.74821675 87.236045 -15.3756059 89.1917796 -31.9093005 282.180649 373.667645 294.988341 389.677498 288.584495 399.716315 294.988341 406.76065 294.988341 413.804985 294.988341 420.208926 294.988341 429.174443 294.988341 439.420749 294.988341 454.485379 294.988341 461.194148 294.988341 468.878877 294.988341 477.215527 287.303726 485.529123 283.461418 494.49464 286.022957 506.021734 294.988341 664.839468 294.988341 676.366562 294.988341 684.051291 294.988341 694.297596 294.988341 707.105478 294.988341 717.351783 288.584495 726.3173 284.742187 745.529123 284.742187 753.213852 283.461418 764.740946 280.89988 772.425675 280.89988 791.637498 282.180649 798.041438 280.89988 810.84932 278.338341 810.84932 225.826803"></polygon>
                    </g>
                    <g id="Group-6" transform="translate(0.000000, 240.696154)">
                        <mask id="mask-4" fill="white">
                            <use xlink:href="#path-3"></use>
                        </mask>
                        <g id="Clip-5"></g>
                        <polygon id="Stroke-4" stroke="#D0D8D3" stroke-width="4" mask="url(#mask-4)" points="791.637498 20.7348854 784.876217 23.2259815 774.089419 24.3761123 763.233458 23.5551392 752.423606 22.6445123 741.635527 22.5702277 730.848729 22.8494354 720.246365 25.0062508 710.522621 19.9331238 697.76469 15.6207738 689.03868 17.2704046 680.462522 17.84547 671.640453 15.0111277 660.069813 15.7847123 648.636217 13.4639585 638.529517 7.43922 626.852571 8.01428538 615.502227 7.36493538 605.360946 8.16541615 595.784493 11.1150277 585.830207 11.3212315 577.908532 8.17182 567.272867 5.97530077 555.302621 5.36565462 543.82932 0.416762308 535.490108 1.65526615 527.332768 4.27572 516.994246 5.93303538 507.795626 11.8207315 498.317793 17.2921777 489.125576 23.1721892 479.209714 27.4499585 469.389911 31.2909854 458.670995 30.9003508 448.948532 28.51812 439.933064 24.1583815 431.218581 17.3037046 425.165576 7.52247 415.385478 2.05230462 404.19267 8.04246231 395.19001 16.4353431 385.748039 22.1936815 377.349911 28.98432 367.519862 32.2221046 356.844493 33.0161815 346.950404 28.9907238 337.978483 23.4936623 331.249222 18.3052662 324.563507 13.64967 314.41198 13.6970585 304.328335 18.4269392 300.178581 26.5944046 294.011586 32.8112585 287.807448 39.4033777 275.228828 40.3421815 264.889025 32.6537238 255.947842 33.2070162 248.144 35.0833431 238.886463 33.5361738 232.424887 26.3344085 223.00469 26.3894815 213.926463 26.7250431 204.446069 28.9164392 194.480256 30.6749354 184.988335 27.9648277 176.117596 23.6166162 166.922818 20.3314431 156.030995 14.1427662 145.007251 6.85775077 137.257202 4.99551231 129.14597 7.00119692 118.584591 6.74120077 110.096808 11.8758046 100.814936 14.5052238 91.6547389 19.8716469 83.4884335 15.03162 74.4652808 16.14717 67.8564138 22.1450123 63.0163153 29.4620469 54.2582857 33.9268085 44.6792709 35.61102 35.0323744 36.0695354 25.8401576 39.5340162 16.2739507 39.9105623 6.85503448 41.15547 -8.26851232 43.7989777 -18.9759015 43.0113046 -25.5053596 42.4362392 -25.5053596 151.123597 791.637498 151.123597"></polygon>
                    </g>
                    <path d="M98.7523547,200.094232 C98.7523547,200.094232 96.4866404,167.797075 126.991172,167.33984 C134.906443,167.219448 155.228709,169.597836 158.616394,200.094232 C166.52398,204.989332 190.996,232.096813 152.592847,253.557382 C148.828611,261.464852 129.124966,281.852136 105.530286,253.557382 C91.9757044,247.157378 70.138266,227.956086 98.7523547,200.094232" id="Fill-7" fill="#F3F5F4"></path>
                    <path d="M98.7523547,200.094232 C98.7523547,200.094232 96.4866404,167.797075 126.991172,167.33984 C134.906443,167.219448 155.228709,169.597836 158.616394,200.094232 C166.52398,204.989332 190.996,232.096813 152.592847,253.557382 C148.828611,261.464852 129.124966,281.852136 105.530286,253.557382 C91.9757044,247.157378 70.138266,227.956086 98.7523547,200.094232 Z" id="Stroke-9" stroke="#D0D8D3" stroke-width="4"></path>
                    <g id="Group-14" transform="translate(129.359606, 209.957692)">
                        <path d="M0.764630542,0.0813288462 L0.475172414,102.924537" id="Fill-11" fill="#FEFEFE"></path>
                        <path d="M0.764630542,0.0813288462 L0.475172414,102.924537" id="Stroke-13" stroke="#D0D8D3" stroke-width="4"></path>
                    </g>
                    <g id="Group-18" transform="translate(129.359606, 224.046154)">
                        <path d="M0.638216749,17.3003746 L17.832798,0.733624615" id="Fill-15" fill="#FEFEFE"></path>
                        <path d="M0.638216749,17.3003746 L17.832798,0.733624615" id="Stroke-17" stroke="#D0D8D3" stroke-width="4"></path>
                    </g>
                    <g id="Group-22" transform="translate(110.147783, 240.696154)">
                        <path d="M19.8500394,16.4636481 L0.98146798,0.728117308" id="Fill-19" fill="#FEFEFE"></path>
                        <path d="M19.8500394,16.4636481 L0.98146798,0.728117308" id="Stroke-21" stroke="#D0D8D3" stroke-width="4"></path>
                    </g>
                    <path d="M332.588335,33.9624235 C332.588335,52.2787042 317.740158,67.1266619 299.423606,67.1266619 C281.108335,67.1266619 266.260158,52.2787042 266.260158,33.9624235 C266.260158,15.6461427 281.108335,0.798185 299.423606,0.798185 C317.740158,0.798185 332.588335,15.6461427 332.588335,33.9624235 Z" id="Stroke-23" stroke="#D0D8D3" stroke-width="4"></path>
                    <path d="M453.108828,101.174041 C452.707941,94.3565062 447.086562,88.9055523 440.311192,88.9055523 C436.19602,88.9055523 432.212768,90.9227638 429.74469,94.2143408 C429.687054,94.1848831 429.628138,94.1643908 429.569222,94.1374946 C429.42065,94.0644908 429.268236,93.99661 429.113261,93.9338523 C429.026167,93.8992715 428.939074,93.8685331 428.853261,93.8377946 C428.698286,93.7840023 428.54203,93.7366138 428.383212,93.6930677 C428.296118,93.6700138 428.210305,93.6456792 428.121931,93.6251869 C427.951586,93.5867638 427.777399,93.5585869 427.601931,93.5316908 C427.525084,93.5188831 427.450798,93.5047946 427.37267,93.49711 C427.121635,93.4676523 426.866759,93.4510023 426.60932,93.4510023 C422.847645,93.4510023 419.789123,96.5094792 419.789123,100.269818 C419.789123,100.365875 419.795527,100.460652 419.80065,100.55671 L419.80065,100.559272 C416.649911,102.276783 414.485379,105.875745 414.485379,109.478548 C414.485379,114.844972 418.851586,119.211114 424.216808,119.211114 L442.785675,119.211114 C442.865084,119.211114 442.943212,119.207272 443.022621,119.200868 L443.068729,119.194464 L443.171192,119.200868 C443.248039,119.207272 443.324887,119.211114 443.405576,119.211114 L450.832867,119.211114 C455.857399,119.211114 459.945675,115.124179 459.945675,110.098441 C459.945675,105.939783 457.04597,102.210183 453.108828,101.174041 Z" id="Stroke-25" stroke="#D0D8D3" stroke-width="4"></path>
                    <path d="M618.932519,141.931951 C618.636974,136.905871 614.492734,132.887273 609.497739,132.887273 C606.463917,132.887273 603.527351,134.374418 601.707814,136.801062 C601.665323,136.779345 601.621888,136.764238 601.578454,136.744409 C601.468923,136.690589 601.356559,136.640545 601.242307,136.594278 C601.178099,136.568784 601.113891,136.546123 601.050627,136.523462 C600.936375,136.483805 600.821178,136.448869 600.704093,136.416765 C600.639886,136.399769 600.576622,136.381829 600.51147,136.366721 C600.385887,136.338395 600.257471,136.317622 600.128111,136.297793 C600.071457,136.288351 600.016692,136.277965 599.959093,136.2723 C599.774024,136.250583 599.586121,136.238308 599.39633,136.238308 C596.623117,136.238308 594.368287,138.493104 594.368287,141.265332 C594.368287,141.336148 594.373008,141.406021 594.376785,141.476837 L594.376785,141.478726 C592.053971,142.744924 590.458217,145.39818 590.458217,148.05427 C590.458217,152.010549 593.677108,155.229393 597.632502,155.229393 L611.321998,155.229393 C611.380541,155.229393 611.438139,155.226561 611.496681,155.22184 L611.530674,155.217118 L611.606212,155.22184 C611.662866,155.226561 611.71952,155.229393 611.779007,155.229393 L617.254617,155.229393 C620.958844,155.229393 623.972837,152.216389 623.972837,148.511272 C623.972837,145.445391 621.835093,142.695824 618.932519,141.931951 Z" id="Stroke-25-Copy" stroke="#D0D8D3" stroke-width="4"></path>
                    <path d="M139.068365,99.0722785 C138.49201,89.2667092 130.407675,81.4284015 120.664719,81.4284015 C114.748759,81.4284015 109.018512,84.3293438 105.469448,89.0643477 C105.387478,89.0208015 105.301665,88.9913438 105.218414,88.9529208 C105.003241,88.8478977 104.782946,88.7479977 104.561369,88.6583438 C104.437133,88.6096746 104.311616,88.5661285 104.187379,88.5225823 C103.965803,88.4444554 103.741665,88.3752938 103.512404,88.3138169 C103.388167,88.2792362 103.26265,88.2446554 103.135852,88.2164785 C102.891222,88.1601246 102.641468,88.1178592 102.387872,88.0807169 C102.277724,88.0640669 102.170138,88.0422938 102.05999,88.0307669 C101.697527,87.9910631 101.331222,87.9654477 100.959793,87.9654477 C95.5523054,87.9654477 91.1540788,92.3636092 91.1540788,97.7697362 C91.1540788,97.90934 91.1630443,98.0451015 91.1720099,98.1821438 L91.1720099,98.1859862 C86.6393005,100.65659 83.5269852,105.832178 83.5269852,111.01289 C83.5269852,118.730805 89.8054089,125.009136 97.5234384,125.009136 L124.22531,125.009136 C124.33802,125.009136 124.450729,125.002732 124.563438,124.993767 L124.63132,124.984802 L124.77733,124.993767 C124.888759,125.002732 125.000187,125.009136 125.114177,125.009136 L135.79467,125.009136 C143.020877,125.009136 148.899695,119.130405 148.899695,111.904305 C148.899695,105.924394 144.730729,100.559252 139.068365,99.0722785 Z" id="Stroke-27" stroke="#D0D8D3" stroke-width="4"></path>
                    <polygon id="Fill-29" fill="#767777" points="208.014601 323.711005 530.812926 323.711005 487.243074 318.712162 217.977852 318.717285"></polygon>
                    <path d="M207.401744,237.042632 C207.401744,240.564747 204.970808,243.446478 201.999379,243.446478 C199.029232,243.446478 196.597015,240.564747 196.597015,237.042632 L196.597015,227.450951 C196.597015,223.928835 199.029232,221.047105 201.999379,221.047105 C204.970808,221.047105 207.401744,223.928835 207.401744,227.450951 L207.401744,237.042632 Z" id="Fill-31" fill="#424242"></path>
                    <path d="M207.401744,252.208092 C207.401744,255.288342 204.970808,257.807615 201.999379,257.807615 C199.029232,257.807615 196.597015,255.288342 196.597015,252.208092 C196.597015,249.129123 199.029232,246.608569 201.999379,246.608569 C204.970808,246.608569 207.401744,249.129123 207.401744,252.208092" id="Fill-33" fill="#424242"></path>
                    <path d="M358.339557,277.678365 C352.583695,277.970381 348.029212,287.951415 348.170099,299.967592 C348.309704,311.990173 353.089606,321.497323 358.846749,321.204027 L369.283892,321.204027 L363.302611,293.684138 L358.339557,277.678365 Z" id="Fill-35" fill="#424242"></path>
                    <path d="M379.453862,298.911086 C379.314256,286.893628 374.533074,277.385197 368.777212,277.678493 C363.02135,277.969228 358.468148,287.951543 358.607754,299.96772 C358.74736,311.990301 363.527261,321.497451 369.284404,321.204155 C375.040266,320.91342 379.593468,310.932386 379.453862,298.911086" id="Fill-37" fill="#333332"></path>
                    <path d="M390.714552,277.678365 C384.95869,277.970381 380.405488,287.951415 380.545094,299.967592 C380.6847,311.990173 385.464601,321.497323 391.221744,321.204027 L400.328148,321.204027 L395.678887,293.684138 L390.714552,277.678365 Z" id="Fill-39" fill="#424242"></path>
                    <path d="M410.496709,298.911086 C410.358384,286.893628 405.577202,277.385197 399.82134,277.678493 C394.065478,277.969228 389.510995,287.951543 389.651882,299.96772 C389.791488,311.990301 394.571389,321.497451 400.328532,321.204155 C406.084394,320.91342 410.636315,310.932386 410.496709,298.911086" id="Fill-41" fill="#424242"></path>
                    <path d="M421.408384,277.678365 C415.652522,277.970381 411.098039,287.951415 411.238926,299.967592 C411.378532,311.990173 416.158433,321.497323 421.915576,321.204027 L431.0207,321.204027 L426.372719,293.684138 L421.408384,277.678365 Z" id="Fill-43" fill="#424242"></path>
                    <path d="M441.190542,298.911086 C441.050936,286.893628 436.271034,277.385197 430.513892,277.678493 C424.75803,277.969228 420.204828,287.951543 420.345714,299.96772 C420.484039,311.990301 425.263941,321.497451 431.021084,321.204155 C436.778227,320.91342 441.330148,310.932386 441.190542,298.911086" id="Fill-45" fill="#333332"></path>
                    <path d="M388.479448,298.588332 C388.339842,286.570874 383.55866,277.063724 377.802798,277.35574 C372.046936,277.647755 367.493734,287.62879 367.63334,299.646247 C367.772946,311.667547 372.552847,321.174697 378.30999,320.882682 C384.065852,320.590667 388.619054,310.609632 388.479448,298.588332" id="Fill-47" fill="#333332"></path>
                    <polygon id="Fill-49" fill="#333332" points="475.043951 287.390438 471.972621 291.125162 469.934887 284.486935 467.853606 277.715508 464.825823 267.86255 461.611044 278.325154 459.034099 286.709069 457.675182 291.125162 454.607695 287.390438 456.717153 280.529358 458.989271 273.120108 462.752227 260.866988 464.825823 263.393946 466.895576 260.866988 470.520207 272.664154 472.467005 278.996277"></polygon>
                    <polygon id="Fill-51" fill="#333332" points="507.157409 287.390438 504.086079 291.125162 502.048345 284.486935 499.967064 277.715508 496.939281 267.86255 493.724502 278.325154 491.146276 286.709069 489.78864 291.125162 486.721153 287.390438 488.830611 280.529358 491.101448 273.120108 494.865685 260.866988 496.939281 263.393946 499.009034 260.866988 502.633665 272.664154 504.580463 278.996277"></polygon>
                    <polygon id="Fill-53" fill="#364242" points="531.464847 268.193885 528.393517 271.929889 527.722384 270.043316 530.718148 271.929889 528.393517 267.862166 525.177458 278.32477 522.600512 286.708685 521.242877 291.124777 518.175389 287.390054 520.284847 280.528973 522.555685 273.121004 526.31864 260.866604 528.393517 263.393562 530.46199 260.866604 534.086621 272.66377 532.170562 273.06465"></polygon>
                    <path d="M253.06735,260.504275 C249.03799,260.504275 245.742522,257.208855 245.742522,253.179555 L245.742522,172.863798 C245.742522,168.835778 249.03799,165.540359 253.06735,165.540359 L492.905182,165.540359 C496.933261,165.540359 500.23001,168.835778 500.23001,172.863798 L500.23001,253.179555 C500.23001,257.208855 496.933261,260.504275 492.905182,260.504275 L253.06735,260.504275 Z" id="Fill-55" fill="#F7E1CC"></path>
                    <path d="M309.698424,258.117817 C305.670345,258.117817 302.374877,254.822398 302.374877,250.794379 L302.374877,185.76204 C302.374877,181.734021 305.670345,178.438602 309.698424,178.438602 L330.107783,178.438602 C334.135862,178.438602 337.43133,181.734021 337.43133,185.76204 L337.43133,250.794379 C337.43133,254.822398 334.135862,258.117817 330.107783,258.117817 L309.698424,258.117817 Z" id="Fill-57" fill="#EF833B"></path>
                    <polygon id="Fill-59" fill="#767F7F" points="281.182956 262.744596 342.659507 262.744596 342.659507 250.194338 281.182956 250.194338"></polygon>
                    <path d="M367.062493,262.74434 L367.062493,283.424921 C367.062493,284.768448 368.160128,285.867348 369.503675,285.867348 L505.468305,285.867348 C506.810571,285.867348 507.909488,284.768448 507.909488,283.424921 L507.909488,263.923928" id="Fill-61" fill="#21211F"></path>
                    <polygon id="Fill-62" fill="#333332" points="450.142355 270.442788 445.855557 286.342257 443.697429 294.331695 392.973094 295.479265 382.059498 270.442788"></polygon>
                    <path d="M427.783635,290.44725 C427.783635,292.759039 429.20531,294.648173 430.94334,294.648173 C432.681369,294.648173 434.104325,293.889958 434.104325,292.962681 L434.104325,287.074985 L434.104325,274.6464 C434.104325,272.335893 432.681369,270.445477 430.94334,270.445477 C429.20531,270.445477 427.783635,272.335893 427.783635,274.6464 L427.783635,290.44725 Z" id="Fill-63" fill="#364242"></path>
                    <path d="M321.166729,262.74434 L321.166729,272.207944 C321.166729,273.551471 322.264365,274.64909 323.607911,274.64909 L533.384365,274.64909 C534.727911,274.64909 535.826828,273.551471 535.826828,272.207944 L535.826828,263.923928" id="Fill-64" fill="#21211F"></path>
                    <path d="M438.205025,262.74434 L438.205025,272.207944 C438.205025,273.551471 439.303941,274.64909 440.646207,274.64909 L522.667882,274.64909 C524.010148,274.64909 525.416453,273.595017 525.791724,272.305282 L528.226502,263.923928" id="Fill-65" fill="#21211F"></path>
                    <path d="M538.974493,262.74434 L538.974493,272.207944 C538.974493,273.551471 539.91203,274.64909 541.059616,274.64909 C542.205921,274.64909 543.144739,273.551471 543.144739,272.207944 L543.144739,263.923928" id="Fill-66" fill="#191F25"></path>
                    <path d="M349.340355,259.61747 C345.310995,259.61747 342.015527,256.322051 342.015527,252.294032 L342.015527,171.976993 C342.015527,167.950255 345.310995,164.653555 349.340355,164.653555 L533.899369,164.653555 C537.927448,164.653555 541.222916,167.950255 541.222916,171.976993 L541.222916,252.294032 C541.222916,256.322051 537.927448,259.61747 533.899369,259.61747 L349.340355,259.61747 Z" id="Fill-67" fill="#F6F0EA"></path>
                    <polygon id="Fill-68" fill="#21211F" points="444.234975 288.197195 441.167488 291.931918 438.789064 284.183264 436.742365 277.528387 433.022956 265.418714 436.97931 266.322937 439.485813 272.73703 441.424926 279.051222"></polygon>
                    <polygon id="Fill-69" fill="#21211F" points="456.808985 291.125162 467.155192 264.535112 434.042975 264.611958 437.762384 276.721631 439.809084 283.376508 442.187507 291.125162"></polygon>
                    <polygon id="Fill-70" fill="#21211F" points="477.090138 287.390438 474.020089 291.125162 471.982355 284.486935 469.899793 277.715508 466.87201 267.86255 463.657232 278.325154 461.080286 286.709069 459.721369 291.125162 456.655163 287.390438 458.76334 280.529358 461.035458 273.120108 464.798414 260.866988 466.87201 263.393946 468.941764 260.866988 472.566394 272.664154 474.513192 278.996277"></polygon>
                    <polygon id="Fill-71" fill="#21211F" points="530.718148 264.611702 526.769478 277.474467 524.255291 285.652178 522.573616 291.124905 519.501005 287.390182 521.830759 279.802905 524.078542 272.48459 527.649379 260.866732"></polygon>
                    <polygon id="Fill-72" fill="#21211F" points="508.972286 287.390438 505.902236 291.125162 503.810709 284.308908 501.73199 277.545165 498.295635 266.366612 494.936128 277.313346 492.430906 285.455196 490.691596 291.125162 487.618985 287.390438 489.994847 279.668681 492.238788 272.359331 495.76736 260.866988 498.295635 263.947238 500.823911 260.866988 504.408837 272.538638 506.355635 278.872042"></polygon>
                    <path d="M504.410759,270.442788 C503.42199,271.902865 501.977261,274.205688 501.184453,276.069207 L503.810069,284.308395 C504.511941,282.248918 505.920808,279.793684 506.905734,278.252918 L504.410759,270.442788 Z" id="Fill-73" fill="#364242"></path>
                    <polygon id="Fill-74" fill="#21211F" points="404.206502 268.835935 533.015369 268.835935 533.015369 265.422685 404.206502 265.422685"></polygon>
                    <path d="M470.454887,277.678365 C464.699025,277.970381 460.144542,287.951415 460.285429,299.967592 C460.425034,311.990173 465.204936,321.497323 470.962079,321.204027 L481.289074,321.204027 L470.454887,277.678365" id="Fill-75" fill="#21211F"></path>
                    <path d="M483.30401,270.984297 L477.917015,274.815078 C475.186374,274.954682 475.74736,277.026966 473.78135,280.394108 C472.857901,281.979701 472.051005,283.856028 471.39268,285.948805 C470.119576,289.988351 469.401054,294.846308 469.461251,300.037266 C469.47534,301.078532 469.516325,302.100585 469.58933,303.103428 L458.03534,303.194362 C457.985389,302.431024 457.953369,301.645912 457.932877,300.858239 C457.929034,300.614893 457.922631,300.371547 457.920069,300.128201 C457.899576,298.451674 457.949527,296.808447 458.06736,295.203643 C459.030512,281.796551 465.048936,271.332666 471.760266,270.994543 L483.30401,270.984297 Z" id="Fill-76" fill="#454F58"></path>
                    <path d="M501.515281,277.678365 C495.759419,277.970381 491.206217,287.951415 491.347103,299.967592 C491.485429,311.990173 496.26533,321.497323 502.022473,321.204027 L512.964246,321.204027 C512.964246,321.204027 504.347103,282.866762 504.347103,282.54785 C504.347103,282.228938 501.515281,277.678365 501.515281,277.678365" id="Fill-77" fill="#21211F"></path>
                    <path d="M515.513783,270.984297 L510.126788,274.815078 C507.396148,274.954682 507.957133,277.026966 505.991123,280.394108 C505.067675,281.979701 504.260778,283.856028 503.602453,285.948805 C502.328069,289.988351 501.610828,294.846308 501.671025,300.037266 C501.685113,301.078532 501.726099,302.100585 501.799103,303.103428 L490.245113,303.194362 C490.195163,302.431024 490.163143,301.645912 490.14265,300.858239 C490.138808,300.614893 490.132404,300.371547 490.129842,300.128201 C490.10935,298.451674 490.1593,296.808447 490.275852,295.203643 C491.239005,281.796551 497.258709,271.332666 503.968759,270.994543 L515.513783,270.984297 Z" id="Fill-78" fill="#454F58"></path>
                    <path d="M490.499734,279.655745 C488.460719,276.490964 485.924759,272.765207 483.191557,272.90481 C480.459635,273.043133 476.302197,277.023764 474.34003,280.390907 C471.626039,285.043941 469.926433,292.158614 470.017369,300.036626 C470.030177,301.077891 470.049389,304.037749 470.121113,305.036749 L472.89402,304.895864 C472.803084,303.903268 472.773626,300.94213 472.760818,299.897022 C472.640424,289.479245 476.601901,280.798191 481.593133,280.543318 C486.583084,280.291007 490.743084,288.559653 490.864759,298.97871 C490.877567,300.023818 490.846828,301.052276 490.778946,302.053837 L495.218158,301.914233 C495.265547,300.90883 495.284759,299.880372 495.274512,298.839107 C495.181015,290.961095 493.318749,284.02701 490.499734,279.655745" id="Fill-79" fill="#21211F"></path>
                    <path d="M492.791064,298.911086 C492.651458,286.893628 487.870276,277.385197 482.114414,277.678493 C476.358552,277.969228 471.80535,287.951543 471.944956,299.96772 C472.084562,311.98902 476.864463,321.497451 482.621606,321.204155 C488.377468,320.91342 492.93067,310.932386 492.791064,298.911086" id="Fill-80" fill="#424242"></path>
                    <path d="M482.559872,315.889987 C478.214158,316.11028 474.59465,308.909795 474.489626,299.839387 C474.38332,290.77026 477.832483,283.212441 482.176916,282.992149 C486.52135,282.771857 490.140857,289.97106 490.247163,299.040187 C490.352187,308.110595 486.904305,315.669695 482.559872,315.889987" id="Fill-81" fill="#424242"></path>
                    <path d="M488.249517,299.157506 C488.263606,300.355025 488.193163,301.510279 488.045872,302.604056 C487.552768,306.302917 486.218187,309.28711 484.486562,310.561475 C483.938384,310.966198 483.351783,311.200579 482.739567,311.232598 C482.128631,311.263337 481.538187,311.08659 480.982325,310.739502 C479.248138,309.659813 477.85464,306.879263 477.262916,303.302075 C477.077202,302.17884 476.969616,300.982602 476.955527,299.73001 C476.941438,298.478698 477.019567,297.270933 477.179665,296.132329 C477.69198,292.466767 479.032966,289.532525 480.759468,288.294021 C481.294837,287.905948 481.868631,287.680533 482.464197,287.651075 C483.062325,287.620337 483.639961,287.786837 484.184296,288.119837 C485.96203,289.196963 487.382424,292.05564 487.965182,295.728887 C488.135527,296.808575 488.235429,297.959987 488.249517,299.157506" id="Fill-82" fill="#67676D"></path>
                    <path d="M482.37467,299.1812 C482.387478,300.226308 482.333685,301.236835 482.219695,302.193569 C481.8393,305.423669 480.7993,308.026192 479.446788,309.134058 C479.019005,309.486269 478.559202,309.688631 478.080187,309.714246 C477.602453,309.738581 477.141369,309.582327 476.705901,309.277504 C475.348266,308.327173 474.254473,305.89115 473.788266,302.762231 C473.642256,301.7786 473.555163,300.732212 473.542355,299.637154 C473.530828,298.543377 473.591025,297.490585 473.71398,296.492865 C474.109744,293.292223 475.153586,290.733246 476.503537,289.656119 C476.921074,289.319277 477.36935,289.1246 477.836837,289.101546 C478.303044,289.077212 478.756443,289.2245 479.181665,289.517796 C480.573882,290.465565 481.688167,292.97075 482.14797,296.1842 C482.283734,297.126846 482.361862,298.134812 482.37467,299.1812" id="Fill-83" fill="#303035"></path>
                    <path d="M478.875044,299.372547 C478.878887,299.676089 478.859675,299.970666 478.822532,300.249874 C478.697015,301.189958 478.357606,301.948174 477.915734,302.270928 C477.777409,302.373389 477.626276,302.432305 477.4713,302.439989 C477.315044,302.446393 477.165192,302.401566 477.024305,302.313193 C476.581153,302.037828 476.227655,301.328282 476.075241,300.417655 C476.027852,300.132043 476.000956,299.82722 475.997113,299.508308 C475.994552,299.189397 476.015044,298.883293 476.054749,298.593839 C476.184108,297.661439 476.526079,296.916032 476.96667,296.602243 C477.102433,296.503624 477.248443,296.44727 477.402138,296.439585 C477.553271,296.431901 477.700562,296.475447 477.838887,296.561258 C478.292286,296.836624 478.653468,297.564101 478.802039,298.499062 C478.846867,298.774428 478.871202,299.067724 478.875044,299.372547" id="Fill-84" fill="#303035"></path>
                    <path d="M496.286975,293.843082 C495.013872,280.549978 489.302837,270.654755 482.592788,270.99544 C475.881458,271.336124 470.407369,281.798728 469.445498,295.20454 C469.328946,296.806782 469.278995,298.453851 469.299488,300.129097 C469.311015,301.16524 469.350719,302.191136 469.414759,303.195259 L471.255251,303.101763 C471.183527,302.101482 471.13998,301.076867 471.127172,300.036882 C471.036236,292.15887 472.734562,285.044197 475.448552,280.391163 C477.412,277.02402 479.904414,274.953017 482.636335,274.814693 C485.369537,274.67637 487.906778,276.49122 489.944512,279.656001 C492.763527,284.027267 494.627074,290.961351 494.71801,298.838082 C494.730818,299.880628 494.711606,300.909086 494.661655,301.91449 L493.277123,301.983651 L496.503429,301.820993 C496.544414,300.809186 496.559783,299.782009 496.546975,298.745867 C496.527764,297.07062 496.44067,295.431236 496.286975,293.843082" id="Fill-85" fill="#767777"></path>
                    <path d="M484.35464,310.555583 C483.806463,310.959026 483.218581,311.194687 482.608926,311.224145 C481.996709,311.256164 481.406266,311.080699 480.851685,310.73361 C479.114936,309.653922 477.722719,306.873372 477.130995,303.296183 C476.946562,302.172949 476.838975,300.97671 476.823606,299.724118 C476.808236,298.471526 476.888926,297.265041 477.047744,296.123876 C477.558778,292.460876 478.899764,289.526633 480.628828,288.286849 C481.162916,287.900057 481.736709,287.674641 482.333557,287.643903 C482.931685,287.614445 483.50932,287.780945 484.052374,288.113945 C485.830108,289.189791 487.251783,292.049749 487.833261,295.722995 C488.004887,296.801403 488.104788,297.954095 488.117596,299.151614 C488.131685,300.346572 488.062522,301.504387 487.91267,302.598164 C487.422128,306.295745 486.086266,309.279937 484.35464,310.555583 M482.201635,285.22453 C478.447645,285.414083 475.468532,291.947287 475.558187,299.785595 C475.649123,307.625183 478.778089,313.848441 482.53336,313.658887 C486.288631,313.466772 489.269025,306.934849 489.178089,299.09398 C489.085872,291.255672 485.956906,285.033695 482.201635,285.22453" id="Fill-86" fill="#BBBCBE"></path>
                    <polygon id="Fill-87" fill="#21211F" points="357.883084 273.095517 347.196187 273.095517 342.475202 264.865294 362.604069 264.865294"></polygon>
                    <polygon id="Fill-88" fill="#21211F" points="367.963015 268.110123 340.568236 268.110123 339.117103 264.535496 369.414148 264.535496"></polygon>
                    <path d="M522.175419,279.655745 C520.136404,276.490964 517.599163,272.765207 514.867241,272.90481 C512.134039,273.043133 507.976601,277.023764 506.014433,280.390907 C503.300443,285.043941 501.602118,292.158614 501.693054,300.036626 C501.705862,301.077891 501.725074,304.037749 501.796798,305.036749 L504.569704,304.895864 C504.478768,303.903268 504.44803,300.94213 504.436502,299.897022 C504.316108,289.479245 508.276305,280.798191 513.268818,280.543318 C518.258768,280.291007 522.418768,288.559653 522.539163,298.97871 C522.55197,300.023818 522.522512,301.052276 522.454631,302.053837 L526.893842,301.914233 C526.941232,300.90883 526.960443,299.880372 526.948916,298.839107 C526.8567,290.961095 524.994433,284.02701 522.175419,279.655745" id="Fill-89" fill="#21211F"></path>
                    <path d="M524.466877,298.911086 C524.327271,286.893628 519.546089,277.385197 513.790227,277.678493 C508.034365,277.969228 503.479882,287.951543 503.620768,299.96772 C503.760374,311.98902 508.540276,321.497451 514.297419,321.204155 C520.053281,320.91342 524.606483,310.932386 524.466877,298.911086" id="Fill-90" fill="#424242"></path>
                    <path d="M514.234276,315.889987 C509.889842,316.11028 506.270335,308.909795 506.16531,299.839387 C506.059005,290.77026 509.508167,283.212441 513.85132,282.992149 C518.197034,282.771857 521.816542,289.97106 521.921567,299.040187 C522.027872,308.110595 518.57999,315.669695 514.234276,315.889987" id="Fill-91" fill="#424242"></path>
                    <path d="M519.92533,299.157506 C519.939419,300.355025 519.868975,301.510279 519.720404,302.604056 C519.228581,306.302917 517.892719,309.28711 516.162374,310.561475 C515.614197,310.966198 515.026315,311.200579 514.415379,311.232598 C513.804443,311.263337 513.214,311.08659 512.658138,310.739502 C510.92267,309.659813 509.530453,306.879263 508.938729,303.302075 C508.751734,302.17884 508.645429,300.982602 508.63134,299.73001 C508.61597,298.478698 508.695379,297.270933 508.854197,296.132329 C509.366512,292.466767 510.707498,289.532525 512.434,288.294021 C512.969369,287.905948 513.544443,287.680533 514.14001,287.651075 C514.738138,287.620337 515.314493,287.786837 515.858828,288.119837 C517.637842,289.196963 519.058236,292.05564 519.639714,295.728887 C519.81134,296.808575 519.911241,297.959987 519.92533,299.157506" id="Fill-92" fill="#67676D"></path>
                    <path d="M514.050483,299.1812 C514.063291,300.226308 514.009498,301.236835 513.895507,302.193569 C513.515113,305.423669 512.475113,308.026192 511.12132,309.134058 C510.694818,309.486269 510.235015,309.688631 509.756,309.714246 C509.278266,309.738581 508.817182,309.582327 508.381714,309.277504 C507.024079,308.327173 505.930286,305.89115 505.464079,302.762231 C505.316788,301.7786 505.230975,300.732212 505.218167,299.637154 C505.20536,298.543377 505.266837,297.490585 505.388512,296.492865 C505.784276,293.292223 506.829399,290.733246 508.17935,289.656119 C508.596887,289.319277 509.045163,289.1246 509.511369,289.101546 C509.978857,289.077212 510.430975,289.2245 510.856197,289.517796 C512.249695,290.465565 513.36398,292.97075 513.823783,296.1842 C513.958266,297.126846 514.037675,298.134812 514.050483,299.1812" id="Fill-93" fill="#303035"></path>
                    <path d="M510.549576,299.372547 C510.553419,299.676089 510.535488,299.970666 510.498345,300.249874 C510.372828,301.189958 510.033419,301.948174 509.591547,302.270928 C509.451941,302.373389 509.302089,302.432305 509.145833,302.439989 C508.990857,302.446393 508.841005,302.401566 508.698837,302.313193 C508.256966,302.037828 507.902187,301.328282 507.751054,300.417655 C507.703665,300.132043 507.676768,299.82722 507.672926,299.508308 C507.669084,299.189397 507.689576,298.883293 507.730562,298.593839 C507.859921,297.661439 508.201892,296.916032 508.642483,296.602243 C508.778246,296.503624 508.924256,296.44727 509.07667,296.439585 C509.229084,296.431901 509.376374,296.475447 509.513419,296.561258 C509.968099,296.836624 510.329281,297.564101 510.476571,298.499062 C510.521399,298.774428 510.547015,299.067724 510.549576,299.372547" id="Fill-94" fill="#303035"></path>
                    <path d="M527.962788,293.843082 C526.688404,280.549978 520.97865,270.654755 514.26732,270.99544 C507.55599,271.336124 502.083182,281.798728 501.12003,295.20454 C501.003478,296.806782 500.954808,298.453851 500.97402,300.129097 C500.986828,301.16524 501.025251,302.191136 501.090571,303.195259 L502.929783,303.101763 C502.858059,302.101482 502.814512,301.076867 502.802985,300.036882 C502.710768,292.15887 504.410374,285.044197 507.124365,280.391163 C509.087813,277.02402 511.580227,274.953017 514.312148,274.814693 C517.044069,274.67637 519.58131,276.49122 521.620325,279.656001 C524.43934,284.027267 526.301606,290.961351 526.393823,298.838082 C526.40535,299.880628 526.386138,300.909086 526.337468,301.91449 L524.951655,301.983651 L528.179241,301.820993 C528.218946,300.809186 528.235596,299.782009 528.222788,298.745867 C528.202296,297.07062 528.115202,295.431236 527.962788,293.843082" id="Fill-95" fill="#767777"></path>
                    <path d="M516.029172,310.555583 C515.482276,310.959026 514.894394,311.194687 514.283458,311.224145 C513.671241,311.256164 513.082079,311.080699 512.526217,310.73361 C510.790749,309.653922 509.397251,306.873372 508.806808,303.296183 C508.621094,302.172949 508.513507,300.97671 508.499419,299.724118 C508.484049,298.471526 508.564739,297.265041 508.723557,296.123876 C509.234591,292.460876 510.575576,289.526633 512.30336,288.286849 C512.838729,287.900057 513.412522,287.674641 514.009369,287.643903 C514.606217,287.614445 515.183852,287.780945 515.728187,288.113945 C517.505921,289.189791 518.926315,292.049749 519.509074,295.722995 C519.6807,296.801403 519.77932,297.954095 519.792128,299.151614 C519.807498,300.346572 519.737054,301.504387 519.588483,302.598164 C519.097941,306.295745 517.762079,309.279937 516.029172,310.555583 M513.877448,285.22453 C510.123458,285.414083 507.143064,291.947287 507.234,299.785595 C507.324936,307.625183 510.453901,313.848441 514.209172,313.658887 C517.964443,313.466772 520.944837,306.934849 520.853901,299.09398 C520.761685,291.255672 517.632719,285.033695 513.877448,285.22453" id="Fill-96" fill="#BBBCBE"></path>
                    <polygon id="Fill-97" fill="#424242" points="280.3133 265.422685 342.384138 265.422685 342.384138 260.057542 280.3133 260.057542"></polygon>
                    <polygon id="Fill-98" fill="#767777" points="341.738621 262.744596 541.223941 262.744596 541.223941 250.194338 341.738621 250.194338"></polygon>
                    <polygon id="Fill-99" fill="#EF833B" points="274.77197 250.194338 274.77197 260.056262 274.178966 260.056262 274.178966 265.422685 336.248522 265.422685 336.248522 262.744596 336.248522 260.056262 336.248522 250.194338"></polygon>
                    <polygon id="Fill-100" fill="#21211F" points="341.738621 265.427808 543.991724 265.427808 543.991724 260.062665 341.738621 260.062665"></polygon>
                    <polygon id="Fill-101" fill="#424242" points="371.621586 270.350188 325.789862 270.350188 321.864246 279.903446 373.909074 279.903446"></polygon>
                    <path d="M221.175212,277.678365 C215.41935,277.970381 210.864867,287.951415 211.005754,299.967592 C211.14536,311.990173 215.925261,321.497323 221.682404,321.204027 L232.119547,321.204027 L226.139547,293.684138 L221.175212,277.678365 Z" id="Fill-102" fill="#21211F"></path>
                    <path d="M243.621537,298.911086 C243.483212,286.893628 238.70203,277.385197 232.944887,277.678493 C227.190305,277.969228 222.635823,287.951543 222.776709,299.96772 C222.916315,311.990301 227.696217,321.497451 233.452079,321.204155 C239.209222,320.91342 243.761143,310.932386 243.621537,298.911086" id="Fill-103" fill="#21211F"></path>
                    <path d="M286.126414,277.678365 C280.370552,277.970381 275.816069,287.951415 275.956956,299.967592 C276.096562,311.990173 280.876463,321.497323 286.633606,321.204027 L297.070749,321.204027 L291.090749,293.684138 L286.126414,277.678365 Z" id="Fill-104" fill="#424242"></path>
                    <path d="M307.240719,298.911086 C307.101113,286.893628 302.321212,277.385197 296.564069,277.678493 C290.808207,277.969228 286.255005,287.951543 286.395892,299.96772 C286.534217,311.990301 291.314118,321.497451 297.071261,321.204155 C302.827123,320.91342 307.380325,310.932386 307.240719,298.911086" id="Fill-105" fill="#424242"></path>
                    <path d="M368.924887,277.678365 C363.169025,277.970381 358.614542,287.951415 358.755429,299.967592 C358.895034,311.990173 363.674936,321.497323 369.432079,321.204027 L379.388926,321.204027 L368.924887,277.678365 Z" id="Fill-106" fill="#21211F"></path>
                    <path d="M303.081872,277.678365 C297.32601,277.970381 292.772808,287.951415 292.912414,299.967592 C293.05202,311.990173 297.831921,321.497323 303.589064,321.204027 L313.396059,321.204027 L303.081872,277.678365" id="Fill-107" fill="#21211F"></path>
                    <path d="M335.614404,286.173452 C335.614404,287.714217 336.873419,288.975775 338.415488,288.975775 L339.132729,288.975775 C340.672236,288.975775 341.933813,288.216278 341.933813,287.287721 L341.933813,282.801186 L341.933813,274.736182 C341.933813,273.196698 340.672236,271.936421 339.132729,271.936421 L338.415488,271.936421 C336.873419,271.936421 335.614404,273.196698 335.614404,274.736182 L335.614404,286.173452 Z" id="Fill-108" fill="#424242"></path>
                    <path d="M203.464345,283.350508 C201.716069,283.350508 200.286709,284.779847 200.286709,286.528097 L200.286709,304.574135 C200.286709,306.322385 201.716069,307.751723 203.464345,307.751723 L307.853704,307.751723 C309.60198,307.751723 311.03134,306.322385 311.03134,304.574135 L311.03134,286.528097 C311.03134,284.779847 309.60198,283.350508 307.853704,283.350508 L203.464345,283.350508 Z" id="Fill-109" fill="#21211F"></path>
                    <path d="M328.147281,206.154192 L328.147281,173.311427 L241.352108,173.311427 C241.352108,173.311427 209.945901,174.854753 209.961271,195.568634 C209.970236,208.057415 221.930236,210.419153 221.930236,210.419153 L328.147281,206.154192 Z" id="Fill-110" fill="#EF833B"></path>
                    <path d="M288.437852,195.491532 L297.318837,280.095305 L203.016966,280.095305 L200.382384,276.646193 C200.379823,274.985036 200.372138,273.805447 200.372138,268.723355 C200.372138,263.609243 200.583468,257.599874 200.984355,251.276717 C201.012532,250.804113 203.042581,251.662228 203.075882,251.189624 L207.932631,217.820463 L204.305438,213.449197 C205.227606,203.669243 208.63066,197.884009 211.392039,197.197517 C219.435389,195.196955 261.39401,195.491532 288.437852,195.491532" id="Fill-111" fill="#EF833B"></path>
                    <path d="M295.275852,220.799148 L291.538512,253.157782 L200.844621,253.157782 C200.87536,252.685178 200.904818,252.211294 200.939399,251.73869 L201.826985,241.708986 L203.192305,226.316702 L203.778906,219.701528 L203.780187,219.682317 L205.278709,219.682317 C205.737232,219.682317 205.992108,219.414636 205.867872,220.799148 L295.275852,220.799148 Z" id="Fill-112" fill="#333332"></path>
                    <path d="M295.415842,218.920515 L291.677222,251.27915 L200.98333,251.27915 C201.014069,250.806546 201.044808,250.332662 201.078108,249.860058 L201.965695,239.830354 L203.332296,224.436788 L203.917616,217.822896 L203.918897,217.803685 L205.4187,217.803685 C205.877222,217.803685 206.132099,217.536004 206.006581,218.920515 L295.415842,218.920515 Z" id="Fill-113" fill="#6599A1"></path>
                    <path d="M225.605458,218.920515 C222.803094,225.507512 215.917576,241.95515 212.018857,251.27915 L200.983586,251.27915 C201.014325,250.806546 201.045064,250.332662 201.078365,249.860058 L201.965951,239.830354 L203.331271,224.436788 L203.916591,217.822896 L203.919153,217.803685 L205.418956,217.803685 C205.877478,217.803685 206.132355,217.536004 206.006837,218.920515 L225.605458,218.920515 Z" id="Fill-114" fill="#C3C3C3" opacity="0.435631793"></path>
                    <path d="M293.380926,218.920515 L293.242601,224.436788 L203.331271,224.436788 L203.916591,217.822896 L203.919153,217.803685 L205.418956,217.803685 C205.877478,217.803685 206.132355,217.536004 206.006837,218.920515 L293.380926,218.920515 Z" id="Fill-115" fill="#2C170F"></path>
                    <path d="M297.638522,207.333652 L297.638522,208.766833 L293.76798,212.496433 L292.091429,219.661056 L201.050443,219.661056 C201.525616,214.626352 202.673202,209.956668 203.170148,206.253964 C203.170148,207.763991 297.638522,207.333652 297.638522,207.333652" id="Fill-116" fill="#21211F"></path>
                    <polygon id="Fill-117" fill="#333332" points="290.818069 280.052271 300.000039 280.052271 303.191764 276.63774 287.745458 276.63774 200.443094 276.63774 200.443094 280.052271 211.886936 280.052271"></polygon>
                    <path d="M201.86336,280.017178 C200.116365,280.017178 198.687005,281.446517 198.687005,283.194767 L198.687005,301.239524 C198.687005,302.989055 200.116365,304.418393 201.86336,304.418393 L286.788581,304.418393 C288.536857,304.418393 289.966217,302.989055 289.966217,301.239524 L289.966217,283.194767 C289.966217,281.446517 288.536857,280.017178 286.788581,280.017178 L201.86336,280.017178 Z" id="Fill-118" fill="#434C54"></path>
                    <path d="M201.146631,284.99143 C199.398355,284.99143 197.968995,286.422049 197.968995,288.169018 L197.968995,292.373783 C197.968995,294.120753 199.398355,295.551372 201.146631,295.551372 L204.75333,295.551372 C206.502887,295.551372 207.932246,294.120753 207.932246,292.373783 L207.932246,288.169018 C207.932246,286.422049 206.502887,284.99143 204.75333,284.99143 L201.146631,284.99143 Z" id="Fill-119" fill="#F3F7FB"></path>
                    <path d="M328.147281,194.772252 L328.147281,212.496817 L201.962749,212.496817 C203.070631,200.76241 202.865704,194.772252 207.744227,194.772252 C217.979005,194.772252 295.703635,194.76841 328.147281,194.772252" id="Fill-120" fill="#FCD402"></path>
                    <path d="M330.646355,206.154192 L330.646355,173.311427 L328.714926,173.311427 C328.714926,173.311427 297.308719,174.854753 297.322808,195.568634 C297.333054,208.057415 309.293054,210.419153 309.293054,210.419153 L330.646355,206.154192 Z" id="Fill-121" fill="#F69857"></path>
                    <path d="M330.646355,187.129005 L330.645074,204.853571 L296.18931,204.853571 C297.295911,193.119163 297.089704,187.129005 301.966946,187.129005 L330.646355,187.129005 Z" id="Fill-122" fill="#F69857"></path>
                    <path d="M321.176719,267.907505 L330.646867,267.907505 L330.646867,195.57094 C329.882236,195.57094 321.900365,195.569659 321.176719,195.569659 L321.176719,267.907505 Z" id="Fill-123" fill="#F69857"></path>
                    <polygon id="Fill-124" fill="#FEFEFE" points="293.664236 274.698015 300.98266 274.698015 300.98266 265.440615 293.664236 265.440615"></polygon>
                    <polygon id="Fill-125" fill="#454F58" points="386.135478 270.350188 363.694788 270.350188 359.906217 279.903446 338.014985 279.903446 289.236167 279.903446 291.599222 302.507742 388.422966 302.507742 388.422966 279.903446"></polygon>
                    <polygon id="Fill-126" fill="#333332" points="354.772433 298.968592 359.142483 298.968592 360.287507 293.684138 360.287507 279.903062 354.772433 279.903062"></polygon>
                    <path d="M324.837724,208.7644 L324.837724,207.3325 C324.837724,207.3325 290.41398,207.762838 290.531813,206.247688 C290.036148,209.951673 288.887281,214.627761 288.413389,219.661184 L295.487182,219.661184 L297.165015,212.496561 L324.837724,208.7644 Z" id="Fill-127" fill="#21211F"></path>
                    <path d="M292.480276,281.476871 L292.480276,264.341459 C292.480276,261.544259 292.592985,256.970632 292.728749,254.177275 L294.528256,217.575452 C294.6653,214.782094 297.065498,212.497202 299.862739,212.497202 L319.196236,212.497202 C321.993478,212.497202 324.314266,214.784655 324.35397,217.580575 L325.232591,279.536505" id="Fill-128" fill="#EF833B"></path>
                    <path d="M303.771064,217.801123 C306.568305,217.801123 308.857074,220.088577 308.857074,222.887058 L308.857074,238.320327 C308.857074,241.117527 306.706631,244.190092 304.079734,245.149388 L303.188305,245.473423 C300.561409,246.431438 297.593823,247.513688 296.593527,247.877427 C295.594512,248.242446 294.977172,246.261096 295.220522,243.474142 L295.813527,236.69375 C296.058158,233.906796 296.456483,229.348538 296.699833,226.562865 L297.022591,222.866565 C297.267222,220.079612 299.754512,217.801123 302.551754,217.801123 L303.771064,217.801123 Z" id="Fill-129" fill="#5A2B15"></path>
                    <path d="M303.771064,217.801123 C306.568305,217.801123 308.857074,220.088577 308.857074,222.887058 L308.857074,238.320327 C308.857074,241.117527 306.706631,244.190092 304.079734,245.149388 L303.188305,245.473423 C300.561409,246.431438 297.593823,247.513688 296.593527,247.877427 C295.594512,248.242446 294.977172,246.261096 295.220522,243.474142 L295.813527,236.69375 C296.058158,233.906796 296.456483,229.348538 296.699833,226.562865 L297.022591,222.866565 C297.267222,220.079612 299.754512,217.801123 302.551754,217.801123 L303.771064,217.801123 Z" id="Stroke-130" stroke="#F5C17D" stroke-width="0.5"></path>
                    <path d="M311.031724,212.496689 L311.031724,267.907889" id="Stroke-131" stroke="#5A2B12"></path>
                    <path d="M311.834778,265.996341 C308.011626,265.996341 304.399803,269.072749 301.669163,274.662026 C300.877635,276.278357 300.184729,278.057345 299.60069,279.966972 L301.311823,279.966972 C301.715271,278.834772 302.162266,277.764049 302.652808,276.758645 C305.120887,271.713695 308.381773,267.980253 311.834778,267.980253 L330.646995,267.980253 L330.646995,265.996341 L311.834778,265.996341 Z" id="Fill-132" fill="#333332"></path>
                    <polygon id="Fill-133" fill="#333332" points="318.017271 280.052271 327.199241 280.052271 327.199241 272.645583 309.085054 277.672602 303.192148 276.63774 287.806039 276.63774 287.806039 280.052271 299.249882 280.052271"></polygon>
                </g>
                <path d="M325.906044,267 L312.323765,267 C308.61798,267 305.25731,270.00114 302.805313,274.872192 C300.907827,278.638354 299.551925,283.523201 299,289 L323.238189,278.747463 C323.973658,278.761259 324.707836,278.776308 325.443305,278.791358 C327.066768,278.822711 326.379123,278.855319 328,278.886672 L328,267 L325.906044,267 Z" id="Fill-135" fill="url(#linearGradient-5)"></path>
                <g id="Group-249" transform="translate(201.000000, 194.000000)">
                    <polygon id="Fill-137" fill="#333332" points="187.4069 102.488359 187.4069 108.094318 104.542056 108.094318 87.054275 102.488359"></polygon>
                    <path d="M124.384262,100.095627 C123.917887,94.5371323 122.6802,89.5238394 120.90695,85.567597 L115.6692,85.567597 C118.38545,88.4475465 120.417512,93.7430616 121.117075,100.095627 C121.293887,101.678637 121.384856,103.325789 121.384856,105.019122 C121.384856,105.692607 121.370762,106.358395 121.338731,107.017769 C121.324637,107.376961 121.305419,107.740001 121.279794,108.094062 L124.508544,108.094062 C124.521356,107.831082 124.532887,107.568102 124.544419,107.299991 C124.571325,106.549536 124.587981,105.784971 124.587981,105.019122 C124.587981,103.338617 124.518794,101.694031 124.384262,100.095627" id="Fill-139" fill="#333332"></path>
                    <path d="M84.2525656,84.6891162 C82.5036594,84.6891162 81.0737844,86.1207525 81.0737844,87.8718131 L81.0737844,106.823035 C81.0737844,108.574096 82.5036594,110.005732 84.2525656,110.005732 L104.861472,110.005732 C106.610378,110.005732 108.040253,108.574096 108.040253,106.823035 L108.040253,87.8718131 C108.040253,86.1207525 106.610378,84.6891162 104.861472,84.6891162 L84.2525656,84.6891162 Z" id="Fill-141" fill="#434C54"></path>
                    <path d="M96.3943313,106.769157 C96.3943313,107.574773 96.4122688,108.380389 96.4404563,109.170611 C96.4532688,109.452833 96.4648,110.208419 96.4788938,110.484227 L127.549206,110.484227 C127.541519,110.373904 127.549206,107.287419 127.549206,107.287419 C127.549206,107.287419 124.107769,100.79246 121.695175,85.3382273 L100.040769,85.3382273 C98.1752688,89.5022879 97.1003,95.7355505 96.6095813,101.587813 C96.4673625,103.268318 96.3943313,105.001419 96.3943313,106.769157" id="Fill-143" fill="#333332"></path>
                    <path d="M86.5961,90.5483061 C85.3212562,90.5483061 84.2770375,91.9812253 84.2770375,93.731003 L84.2770375,97.9425283 C84.2770375,99.6923061 85.3212562,101.125225 86.5961,101.125225 C87.8709437,101.125225 88.9151625,99.6923061 88.9151625,97.9425283 L88.9151625,93.731003 C88.9151625,91.9812253 87.8709437,90.5483061 86.5961,90.5483061" id="Fill-145" fill="#E2E4E1"></path>
                    <path d="M187.398187,85.2040434 C185.358437,82.0341747 182.820281,78.3024273 180.087375,78.4422556 C177.354469,78.580801 173.19425,82.5678313 171.231375,85.9403869 C168.516406,90.600902 166.817469,97.7270131 166.908437,105.61769 C166.92125,106.660629 166.940469,109.625245 167.012219,110.625852 L169.786125,110.48474 C169.695156,109.490548 169.664406,106.524649 169.652875,105.477862 C169.532437,95.0433364 173.494062,86.3483263 178.488375,86.0930434 C183.480125,85.8403263 187.641625,94.1222657 187.763344,104.558074 C187.774875,105.604862 187.745406,106.634973 187.6775,107.638144 L192.118312,107.498316 C192.165719,106.491296 192.184937,105.461185 192.174687,104.418245 C192.081156,96.5275687 190.218219,89.5823364 187.398187,85.2040434" id="Fill-147" fill="#21211F"></path>
                    <path d="M189.690472,104.49034 C189.550816,92.4535626 184.767909,82.9298455 179.009972,83.2236131 C173.252034,83.5148152 168.695909,93.5131788 168.836847,105.548674 C168.976503,117.590583 173.758128,127.113017 179.517347,126.819249 C185.275284,126.528047 189.830128,116.530967 189.690472,104.49034" id="Fill-149" fill="#333332"></path>
                    <path d="M179.454181,121.496538 C175.108181,121.717185 171.487369,114.505124 171.382306,105.420134 C171.275963,96.3364273 174.726369,88.7664576 179.071088,88.5458111 C183.418369,88.3251646 187.039181,95.5359424 187.144244,104.619649 C187.250587,113.704639 183.801462,121.275892 179.454181,121.496538" id="Fill-151" fill="#444856"></path>
                    <path d="M179.429197,119.261595 C175.672572,119.451454 172.542478,113.218191 172.451509,105.365999 C172.359259,97.5150899 175.342009,90.9713828 179.097353,90.7815242 C182.853978,90.5903828 185.984072,96.8223626 186.075041,104.673272 C186.167291,112.526746 183.185822,119.071736 179.429197,119.261595" id="Fill-153" fill="#E2E9F6"></path>
                    <path d="M185.015831,104.729588 C185.029925,105.929032 184.958175,107.087426 184.810831,108.182962 C184.318831,111.886487 182.982487,114.875477 181.250237,116.153174 C180.703144,116.558547 180.11505,116.793305 179.502612,116.824093 C178.892737,116.854881 178.302081,116.679133 177.744737,116.331487 C176.009925,115.250063 174.617206,112.465042 174.025269,108.882103 C173.838206,107.757063 173.730581,106.558901 173.717769,105.304295 C173.702394,104.050972 173.781831,102.841265 173.940706,101.699547 C174.453206,98.0293758 175.794675,95.0904162 177.5218,93.8499212 C178.057362,93.4612242 178.632644,93.2354465 179.228425,93.2059414 C179.825487,93.1751535 180.403331,93.3419212 180.947862,93.6754566 C182.727519,94.7543152 184.147144,97.6175879 184.730112,101.296739 C184.9018,102.376881 185.000456,103.531426 185.015831,104.729588" id="Fill-155" fill="#A8AEB3"></path>
                    <path d="M181.040753,93.7653828 C180.699941,95.0045949 179.991409,95.7961 179.258534,95.833302 C178.530784,95.870504 177.958066,95.0045949 177.613409,93.7653828 C178.154097,93.4036253 178.729378,93.2073525 179.327722,93.2073525 C179.924784,93.2073525 180.500066,93.4036253 181.040753,93.7653828" id="Fill-157" fill="#444856"></path>
                    <path d="M181.249725,116.153559 C180.702631,116.557649 180.114538,116.79369 179.503381,116.823195 C178.892225,116.855266 178.301569,116.679518 177.745506,116.331872 C178.061975,114.991316 178.711569,114.0587 179.470069,114.020215 C180.231131,113.983013 180.903788,114.845074 181.249725,116.153559" id="Fill-159" fill="#444856"></path>
                    <path d="M185.015831,104.729588 C185.029925,105.929032 184.958175,107.087426 184.810831,108.182962 C184.270144,107.468426 183.904988,106.221517 183.888331,104.787315 C183.870394,103.353113 184.206081,102.066436 184.730112,101.296739 C184.9018,102.376881 185.000456,103.531426 185.015831,104.729588" id="Fill-161" fill="#444856"></path>
                    <path d="M174.983516,105.239512 C175.001453,106.775058 174.614516,108.139987 174.025141,108.882744 C173.838078,107.757704 173.730453,106.55826 173.717641,105.304936 C173.702266,104.05033 173.782984,102.841906 173.941859,101.698906 C174.546609,102.381371 174.965578,103.700118 174.983516,105.239512" id="Fill-163" fill="#444856"></path>
                    <path d="M184.565472,104.842348 C184.574441,105.568429 184.532159,106.270136 184.441191,106.934641 C184.143941,109.178308 183.334191,110.989662 182.284847,111.76449 C181.953003,112.008227 181.596816,112.150621 181.226534,112.169864 C180.854972,112.189106 180.497503,112.082631 180.160534,111.870965 C179.108628,111.216722 178.265566,109.52852 177.906816,107.357975 C177.794066,106.676793 177.728722,105.949429 177.719753,105.189995 C177.710784,104.430561 177.759472,103.698066 177.856847,103.005338 C178.166909,100.782197 178.979222,99.0016313 180.026003,98.2486111 C180.350159,98.0138535 180.697378,97.8778737 181.059972,97.8599141 C181.422566,97.8406717 181.771066,97.9420152 182.101628,98.1434192 C183.179159,98.7976616 184.040159,100.533328 184.393784,102.762884 C184.496284,103.417126 184.557784,104.116268 184.565472,104.842348" id="Fill-165" fill="#E2E9F6"></path>
                    <path d="M182.583506,104.952543 C182.58735,105.256574 182.569413,105.551624 182.532256,105.831281 C182.406694,106.772877 182.067163,107.532311 181.625131,107.855584 C181.485475,107.95821 181.335569,108.01722 181.179256,108.024917 C181.024225,108.031331 180.874319,107.986432 180.7321,107.897917 C180.290069,107.622109 179.935162,106.911422 179.783975,105.999331 C179.736569,105.713261 179.709662,105.407947 179.705819,105.088523 C179.701975,104.770382 179.722475,104.462503 179.763475,104.172584 C179.892881,103.238685 180.234975,102.492079 180.675725,102.177786 C180.811538,102.079008 180.9576,102.022564 181.110069,102.014867 C181.262538,102.00717 181.409881,102.050786 181.546975,102.136735 C182.001819,102.412543 182.363131,103.14119 182.511756,104.077655 C182.555319,104.353463 182.580944,104.64723 182.583506,104.952543" id="Fill-167" fill="#444856"></path>
                    <path d="M184.730625,101.296996 C184.147656,97.6178444 182.728031,94.7532889 180.948375,93.6757131 C180.403844,93.3421778 179.826,93.1754101 179.228938,93.2049152 C178.631875,93.235703 178.057875,93.4614808 177.522313,93.8488949 C175.793906,95.0906727 174.453719,98.0296323 173.941219,101.698521 C173.782344,102.841521 173.702906,104.049945 173.717,105.304552 L173.717,105.309683 L174.77275,105.255804 L174.77275,105.250673 C174.761219,104.232107 174.824,103.245612 174.954688,102.320693 C175.371094,99.3329859 176.461438,96.9430768 177.866969,95.9334909 C178.301313,95.6153495 178.77025,95.4370364 179.255844,95.4113798 C179.741438,95.3882889 180.211656,95.5191374 180.653688,95.7923798 C182.098938,96.6685515 183.254625,98.9981677 183.728688,101.989723 C183.868344,102.872309 183.949063,103.811339 183.959313,104.783723 L183.959313,104.788855 L185.016344,104.736259 L185.016344,104.729844 C185.000969,103.531683 184.902313,102.377137 184.730625,101.296996" id="Fill-169" fill="#444856"></path>
                    <path d="M129.609328,0.182931313 C97.1527031,0.181648485 104.296953,0.182931313 94.0559219,0.182931313 C89.1743594,0.182931313 89.3832031,6.18271919 88.2749219,17.9372747 L129.609328,17.9372747 L129.609328,0.182931313 Z" id="Fill-171" fill="#F69857"></path>
                    <path d="M191.855016,99.4141889 C190.581453,86.0997141 184.868359,76.1885828 178.155891,76.5298152 C171.442141,76.8710475 165.966078,87.3504717 165.002578,100.777835 C164.885984,102.382654 164.837297,104.032371 164.856516,105.71031 C164.869328,106.748118 164.909047,107.775664 164.973109,108.781401 L166.812984,108.687755 C166.742516,107.685866 166.697672,106.659603 166.686141,105.617946 C166.593891,97.7272697 168.294109,90.6011586 171.009078,85.9406434 C172.973234,82.5680879 175.466547,80.4937545 178.199453,80.3552091 C180.933641,80.2166636 183.470516,82.0344313 185.510266,85.2043 C188.330297,89.5825929 190.193234,96.5278253 190.285484,104.417219 C190.297016,105.461441 190.277797,106.491553 190.229109,107.498573 L188.844078,107.567845 L192.071547,107.404926 C192.111266,106.391492 192.127922,105.362664 192.115109,104.324856 C192.095891,102.646916 192.007484,101.004896 191.855016,99.4141889" id="Fill-173" fill="#767777"></path>
                    <path d="M75.682925,90.5483061 C73.9340187,90.5483061 72.5041437,91.9812253 72.5041437,93.731003 L72.5041437,97.9425283 C72.5041437,99.6923061 73.9340187,101.125225 75.682925,101.125225 L82.0673937,101.125225 C83.8175812,101.125225 85.2474562,99.6923061 85.2474562,97.9425283 L85.2474562,93.731003 C85.2474562,91.9812253 83.8175812,90.5483061 82.0673937,90.5483061 L75.682925,90.5483061 Z" id="Fill-175" fill="#F3F7FB"></path>
                    <path d="M14.2992625,91.4252475 C11.9866063,91.4252475 10.3735125,93.2994596 10.7104813,95.5880253 L11.0846063,98.1254596 C11.4228563,100.414025 13.5907313,102.288237 15.9021063,102.288237 L63.2840125,102.288237 C65.5953875,102.288237 67.7645438,100.414025 68.1015125,98.1254596 L68.4756375,95.5880253 C68.8138875,93.2994596 67.1982313,91.4252475 64.8868563,91.4252475 L14.2992625,91.4252475 Z" id="Fill-177" fill="#333332"></path>
                    <path d="M12.4136469,67.6653434 C10.1009906,67.6653434 8.50839687,69.5344242 8.87227187,71.8204242 L9.43602187,75.3520505 C9.79989687,77.6367677 11.9895531,79.5071313 14.3009281,79.5071313 L66.2773969,79.5071313 C68.5887719,79.5071313 70.7528031,77.634202 71.0884906,75.3430707 L71.6009906,71.8281212 C71.9353969,69.5382727 70.3171781,67.6653434 68.0070844,67.6653434 L12.4136469,67.6653434 Z" id="Fill-179" fill="#333332"></path>
                    <polygon id="Fill-181" fill="#757574" opacity="0.489073822" points="22.7929688 18.1914062 18.1842688 25.1131596 8.125175 25.1131596 12.5761719 18.1914062"></polygon>
                    <path d="M135.739084,104.981407 C135.739084,105.702357 135.149709,106.291175 134.430928,106.291175 L130.720428,106.291175 C130.000366,106.291175 129.412272,105.702357 129.412272,104.981407 L129.412272,81.4338111 C129.412272,80.7128616 130.000366,80.1227606 130.720428,80.1227606 L134.430928,80.1227606 C135.149709,80.1227606 135.739084,80.7128616 135.739084,81.4338111 L135.739084,104.981407 Z" id="Fill-183" fill="#333332"></path>
                    <path d="M155.18295,104.981407 C155.18295,105.702357 154.593575,106.291175 153.874794,106.291175 L150.164294,106.291175 C149.444231,106.291175 148.856137,105.702357 148.856137,104.981407 L148.856137,81.4338111 C148.856137,80.7128616 149.444231,80.1227606 150.164294,80.1227606 L153.874794,80.1227606 C154.593575,80.1227606 155.18295,80.7128616 155.18295,81.4338111 L155.18295,104.981407 Z" id="Fill-185" fill="#333332"></path>
                    <path d="M157.393875,99.434201 C157.393875,102.329544 155.027406,104.698928 152.135625,104.698928 L133.558781,104.698928 C130.667,104.698928 128.300531,102.329544 128.300531,99.434201 L128.300531,84.4623121 C128.300531,81.5656859 130.667,79.1975848 133.558781,79.1975848 L152.135625,79.1975848 C155.027406,79.1975848 157.393875,81.5656859 157.393875,84.4623121 L157.393875,99.434201 Z" id="Fill-187" fill="#93929C"></path>
                    <path d="M138.402931,85.9143455 C137.1614,85.9143455 136.113337,85.0561333 136.113337,84.0414162 C136.113337,83.026699 137.1614,82.1697697 138.402931,82.1697697 L152.135369,82.1697697 C153.3769,82.1697697 154.424962,83.026699 154.424962,84.0414162 C154.424962,85.0561333 153.3769,85.9143455 152.135369,85.9143455 L138.402931,85.9143455 Z" id="Fill-189" fill="#DFDFDE"></path>
                    <path d="M157.392594,97.5938556 L157.392594,100.463542 C157.392594,102.793159 156.5995,104.696876 155.627031,104.696876 L130.067375,104.696876 C129.096188,104.696876 128.29925,102.793159 128.29925,100.463542 L128.29925,97.5938556 C128.29925,99.9221889 129.096188,101.827189 130.067375,101.827189 L155.627031,101.827189 C156.5995,101.827189 157.392594,99.9221889 157.392594,97.5938556" id="Fill-191" fill="#7F7F89"></path>
                    <path d="M133.115213,99.4592162 C133.115213,102.35456 131.242025,104.723943 128.952431,104.723943 C126.662838,104.723943 124.78965,102.35456 124.78965,99.4592162 L124.78965,84.4873273 C124.78965,81.590701 126.662838,79.2226 128.952431,79.2226 C131.242025,79.2226 133.115213,81.590701 133.115213,84.4873273 L133.115213,99.4592162 Z" id="Fill-193" fill="#DFDFDE"></path>
                    <path d="M123.238056,98.4933747 C123.649337,100.770395 125.407212,102.634344 127.14715,102.634344 C128.884525,102.634344 130.307994,101.873627 130.307994,100.94486 L130.307994,95.047698 L130.307994,89.7752737 C130.307994,87.4610515 128.416869,85.567597 126.104212,85.567597 L125.109962,85.567597 C122.797306,85.567597 121.24315,87.4315465 121.654431,89.7085667 L123.238056,98.4933747 Z" id="Fill-195" fill="#21211F"></path>
                    <path d="M127.109353,0.184085859 L127.109353,19.2832031 L0.555664062,19.2832031 C0.555664062,15.234375 1.46100938,10.9584022 1.75697813,8.37066752 C2.38479063,2.93988862 3.35597813,0.184085859 6.66288438,0.184085859 L127.109353,0.184085859 Z" id="Fill-197" fill="#EF833B"></path>
                    <path d="M96.256725,0.184085859 C93.43285,0.184085859 92.3117563,2.19299495 91.654475,6.1595 C91.541725,6.83811616 91.1496625,8.36981313 90.1490063,8.36981313 L1.75685,8.36981313 C2.3846625,2.93960101 3.35585,0.184085859 6.66275625,0.184085859 L96.256725,0.184085859 Z" id="Fill-199" fill="#F5C17D"></path>
                    <path d="M192.119081,96.6781727 C192.119081,98.9923949 194.011487,100.885849 196.321581,100.885849 L200.271675,100.885849 C202.584331,100.885849 204.475456,100.045597 204.475456,99.0167687 L204.475456,92.9412939 L204.475456,75.5333141 C204.475456,73.2190919 202.584331,71.3243545 200.271675,71.3243545 L196.321581,71.3243545 C194.011487,71.3243545 192.119081,73.2190919 192.119081,75.5333141 L192.119081,96.6781727 Z" id="Fill-201" fill="#21211F"></path>
                    <path d="M121.531431,85.2040434 C119.491681,82.0341747 116.954806,78.3024273 114.220619,78.4422556 C111.487713,78.580801 107.328775,82.5678313 105.3659,85.9403869 C102.650931,90.600902 100.950713,97.7270131 101.041681,105.61769 C101.054494,106.660629 101.073713,109.625245 101.145463,110.625852 L103.919369,110.48474 C103.8284,109.490548 103.798931,106.524649 103.786119,105.477862 C103.665681,95.0433364 107.628588,86.3483263 112.621619,86.0930434 C117.61465,85.8403263 121.774869,94.1222657 121.896588,104.558074 C121.9094,105.604862 121.87865,106.634973 121.810744,107.638144 L126.251556,107.498316 C126.298963,106.491296 126.318181,105.461185 126.307931,104.418245 C126.2144,96.5275687 124.351463,89.5823364 121.531431,85.2040434" id="Fill-203" fill="#21211F"></path>
                    <path d="M123.823716,104.49034 C123.684059,92.4535626 118.901153,82.9298455 113.143216,83.2236131 C107.385278,83.5148152 102.830434,93.5131788 102.970091,105.548674 C103.109747,117.590583 107.891372,127.113017 113.650591,126.819249 C119.408528,126.528047 123.963372,116.530967 123.823716,104.49034" id="Fill-205" fill="#424242"></path>
                    <path d="M113.588706,121.496538 C109.241425,121.717185 105.620612,114.505124 105.51555,105.420134 C105.409206,96.3364273 108.859612,88.7664576 113.205612,88.5458111 C117.551612,88.3251646 121.172425,95.5359424 121.278769,104.619649 C121.383831,113.704639 117.934706,121.275892 113.588706,121.496538" id="Fill-207" fill="#424242"></path>
                    <path d="M113.562441,119.261595 C109.805816,119.451454 106.675722,113.218191 106.584753,105.365999 C106.493784,97.5150899 109.475253,90.9713828 113.230597,90.7815242 C116.987222,90.5903828 120.117316,96.8223626 120.208284,104.673272 C120.300534,112.526746 117.319066,119.071736 113.562441,119.261595" id="Fill-209" fill="#424242"></path>
                    <path d="M119.149075,104.729588 C119.163169,105.929032 119.0927,107.087426 118.944075,108.182962 C118.452075,111.886487 117.115731,114.875477 115.384762,116.153174 C114.836387,116.558547 114.248294,116.793305 113.637137,116.824093 C113.025981,116.854881 112.435325,116.679133 111.879262,116.331487 C110.143169,115.250063 108.75045,112.465042 108.158512,108.882103 C107.972731,107.757063 107.865106,106.558901 107.851012,105.304295 C107.835637,104.050972 107.915075,102.841265 108.07395,101.699547 C108.587731,98.0293758 109.927919,95.0904162 111.656325,93.8499212 C112.191887,93.4612242 112.765887,93.2354465 113.361669,93.2059414 C113.960012,93.1751535 114.537856,93.3419212 115.081106,93.6754566 C116.860762,94.7543152 118.281669,97.6175879 118.863356,101.296739 C119.035044,102.376881 119.134981,103.531426 119.149075,104.729588" id="Fill-211" fill="#A8AEB3"></path>
                    <path d="M115.173997,93.7653828 C114.833184,95.0045949 114.124653,95.7961 113.393059,95.833302 C112.664028,95.870504 112.091309,95.0045949 111.747934,93.7653828 C112.287341,93.4036253 112.862622,93.2073525 113.460966,93.2073525 C114.058028,93.2073525 114.634591,93.4036253 115.173997,93.7653828" id="Fill-213" fill="#444856"></path>
                    <path d="M115.384122,116.153559 C114.835747,116.557649 114.247653,116.79369 113.637778,116.823195 C113.025341,116.855266 112.434684,116.679518 111.879903,116.331872 C112.195091,114.991316 112.844684,114.0587 113.604466,114.020215 C114.364247,113.983013 115.036903,114.845074 115.384122,116.153559" id="Fill-215" fill="#444856"></path>
                    <path d="M119.149075,104.729588 C119.163169,105.929032 119.0927,107.087426 118.944075,108.182962 C118.403387,107.468426 118.038231,106.221517 118.021575,104.787315 C118.004919,103.353113 118.340606,102.066436 118.863356,101.296739 C119.035044,102.376881 119.134981,103.531426 119.149075,104.729588" id="Fill-217" fill="#444856"></path>
                    <path d="M109.116759,105.239512 C109.134697,106.775058 108.747759,108.139987 108.158384,108.882744 C107.972603,107.757704 107.864978,106.55826 107.850884,105.304936 C107.835509,104.05033 107.916228,102.841906 108.075103,101.698906 C108.679853,102.381371 109.098822,103.700118 109.116759,105.239512" id="Fill-219" fill="#444856"></path>
                    <path d="M118.699869,104.842348 C118.707556,105.568429 118.665275,106.270136 118.575588,106.934641 C118.277056,109.178308 117.467306,110.989662 116.417963,111.76449 C116.086119,112.008227 115.731213,112.150621 115.35965,112.169864 C114.989369,112.189106 114.630619,112.082631 114.294931,111.870965 C113.243025,111.216722 112.398681,109.52852 112.041213,107.357975 C111.928463,106.676793 111.861838,105.949429 111.852869,105.189995 C111.8439,104.430561 111.893869,103.698066 111.989963,103.005338 C112.300025,100.782197 113.112338,99.0016313 114.159119,98.2486111 C114.484556,98.0138535 114.830494,97.8778737 115.194369,97.8599141 C115.555681,97.8406717 115.905463,97.9420152 116.234744,98.1434192 C117.313556,98.7976616 118.174556,100.533328 118.5269,102.762884 C118.630681,103.417126 118.6909,104.116268 118.699869,104.842348" id="Fill-221" fill="#E2E9F6"></path>
                    <path d="M116.718031,104.952543 C116.721875,105.256574 116.702656,105.551624 116.6655,105.831281 C116.539938,106.772877 116.200406,107.532311 115.758375,107.855584 C115.62,107.95821 115.468813,108.01722 115.3125,108.024917 C115.157469,108.031331 115.007563,107.986432 114.866625,107.897917 C114.423313,107.622109 114.069688,106.911422 113.917219,105.999331 C113.869813,105.713261 113.842906,105.407947 113.839063,105.088523 C113.835219,104.770382 113.857,104.462503 113.896719,104.172584 C114.026125,103.238685 114.368219,102.492079 114.808969,102.177786 C114.944781,102.079008 115.090844,102.022564 115.244594,102.014867 C115.395781,102.00717 115.543125,102.050786 115.6815,102.136735 C116.135063,102.412543 116.496375,103.14119 116.645,104.077655 C116.689844,104.353463 116.714188,104.64723 116.718031,104.952543" id="Fill-223" fill="#444856"></path>
                    <path d="M118.863869,101.296996 C118.282181,97.6178444 116.861275,94.7532889 115.081619,93.6757131 C114.538369,93.3421778 113.960525,93.1754101 113.362181,93.2049152 C112.765119,93.235703 112.1924,93.4614808 111.656838,93.8488949 C109.92715,95.0906727 108.586963,98.0296323 108.074463,101.698521 C107.915588,102.841521 107.83615,104.049945 107.850244,105.304552 L107.850244,105.309683 L108.907275,105.255804 L108.907275,105.250673 C108.894463,104.232107 108.957244,103.245612 109.087931,102.320693 C109.504338,99.3329859 110.595963,96.9430768 112.000213,95.9334909 C112.434556,95.6153495 112.903494,95.4370364 113.389088,95.4113798 C113.874681,95.3882889 114.3449,95.5191374 114.786931,95.7923798 C116.232181,96.6685515 117.387869,98.9981677 117.861931,101.989723 C118.001588,102.872309 118.082306,103.811339 118.092556,104.783723 L118.092556,104.788855 L119.149588,104.736259 L119.149588,104.729844 C119.135494,103.531683 119.035556,102.377137 118.863869,101.296996" id="Fill-225" fill="#444856"></path>
                    <path d="M125.988259,99.4141889 C124.714697,86.0997141 119.001603,76.1885828 112.289134,76.5298152 C105.575384,76.8710475 100.099322,87.3504717 99.1371031,100.777835 C99.0205094,102.382654 98.9705406,104.032371 98.9910406,105.71031 C99.0025719,106.748118 99.0422906,107.775664 99.1063531,108.781401 L100.947509,108.687755 C100.875759,107.685866 100.832197,106.659603 100.819384,105.617946 C100.728416,97.7272697 102.427353,90.6011586 105.142322,85.9406434 C107.106478,82.5680879 109.599791,80.4937545 112.332697,80.3552091 C115.066884,80.2166636 117.605041,82.0344313 119.644791,85.2043 C122.463541,89.5825929 124.327759,96.5278253 124.418728,104.417219 C124.431541,105.461441 124.412322,106.491553 124.363634,107.498573 L122.977322,107.567845 L126.204791,107.404926 C126.245791,106.391492 126.261166,105.362664 126.248353,104.324856 C126.229134,102.646916 126.142009,101.004896 125.988259,99.4141889" id="Fill-227" fill="#767777"></path>
                    <path d="M37.6023813,56.7820848 L64.2382875,56.7820848 C68.1384125,47.4430949 73.3235781,36.7186796 76.1269531,30.1210938 C76.1269531,30.1210938 50.9888813,29.8619624 50.8786938,30.1210937 C47.9036313,37.1407301 41.36285,47.7753475 37.6023813,56.7820848 Z" id="Fill-229" fill="#C3C3C3" opacity="0.435631793"></path>
                    <path d="M116.512775,25.191797 C118.501275,25.191797 120.128463,27.4842111 120.128463,30.2859081 L120.128463,37.6865444 C120.128463,40.4882414 118.845931,43.2411909 117.277681,43.8056354 C115.709431,44.368797 114.082244,44.9537667 113.660713,45.1038576 C113.239181,45.2565141 112.895806,43.0872515 112.895806,40.2868374 L112.895806,30.2859081 C112.895806,27.4842111 114.522994,25.191797 116.512775,25.191797" id="Fill-231" fill="#5A2B15"></path>
                    <path d="M116.512775,25.191797 C118.501275,25.191797 120.128463,27.4842111 120.128463,30.2859081 L120.128463,37.6865444 C120.128463,40.4882414 118.845931,43.2411909 117.277681,43.8056354 C115.709431,44.368797 114.082244,44.9537667 113.660713,45.1038576 C113.239181,45.2565141 112.895806,43.0872515 112.895806,40.2868374 L112.895806,30.2859081 C112.895806,27.4842111 114.522994,25.191797 116.512775,25.191797 Z" id="Stroke-233" stroke="#F5C17D" stroke-width="0.5"></path>
                    <path d="M133.115212,79.2220869 C133.115212,79.2220869 137.230587,86.6778848 134.62965,104.724713 L136.436212,104.740107 C136.436212,104.740107 139.591931,88.9048747 134.928181,79.1964303 C132.304181,79.1964303 133.115212,79.2220869 133.115212,79.2220869" id="Fill-235" fill="#21211F"></path>
                    <path d="M151.076544,79.0617333 C151.076544,79.0617333 157.166325,87.9517333 152.78445,104.740107 C155.207294,104.79142 154.976669,104.696491 154.976669,104.696491 C154.976669,104.696491 158.532137,89.5090869 153.161137,79.1771879 C150.537137,79.1771879 151.076544,79.0617333 151.076544,79.0617333" id="Fill-237" fill="#21211F"></path>
                    <path d="M101.938556,19.1781256 L92.7174,19.1781256 C92.7174,19.1781256 90.2202437,74.1018885 90.1408062,82.1810586 L91.779525,82.1810586 C91.779525,82.1810586 93.8615562,30.4124744 95.5259,23.9322806 C96.2562125,21.0916132 99.7002125,20.1166277 102.03465,20.1166277 C102.2499,18.4534912 101.938556,19.1781256 101.938556,19.1781256" id="Fill-239" fill="#F69857"></path>
                    <path d="M103.239794,43.7289222 C103.239794,47.2567 100.807981,50.1430636 97.8354812,50.1430636 C94.8642625,50.1430636 92.4311687,47.2567 92.4311687,43.7289222 L92.4311687,34.1218212 C92.4311687,30.5940434 94.8642625,27.7076798 97.8354812,27.7076798 C100.807981,27.7076798 103.239794,30.5940434 103.239794,34.1218212 L103.239794,43.7289222 Z" id="Fill-241" fill="#21211F"></path>
                    <path d="M103.239794,56.9179364 C103.239794,60.0018556 100.807981,62.5264616 97.8354812,62.5264616 C94.8642625,62.5264616 92.4311687,60.0018556 92.4311687,56.9179364 C92.4311687,53.8340172 94.8642625,51.3094111 97.8354812,51.3094111 C100.807981,51.3094111 103.239794,53.8340172 103.239794,56.9179364" id="Fill-243" fill="#21211F"></path>
                    <path d="M91.4294875,25.706596 L94.8747688,25.706596 C96.7710188,25.706596 98.3213313,27.4384141 98.3213313,29.5550808 L98.3213313,54.8999192" id="Stroke-245" stroke="#21211F" stroke-width="2"></path>
                    <path d="M99.4261531,18.9370182 L122.586028,18.9370182 L121.440591,21.104998 C121.440591,21.104998 120.667997,20.1762303 118.862716,19.8940081 C110.405184,18.5765434 101.327528,19.8940081 101.327528,19.8940081 L99.4261531,18.9370182 Z" id="Fill-247" fill="#F69857"></path>
                </g>
            </g>
        </g>
    </g>
</svg>