<svg width="219px" height="69px" viewBox="0 0 219 69" version="1.1" xmlns="http://www.w3.org/2000/svg" xmlns:xlink="http://www.w3.org/1999/xlink">
    <!-- Generator: Sketch 50.2 (55047) - http://www.bohemiancoding.com/sketch -->
    <desc>Created with Sketch.</desc>
    <defs></defs>
    <g id="Screens-" stroke="none" stroke-width="1" fill="none" fill-rule="evenodd">
        <g id="FO---Settings-01-Copy-2" transform="translate(-342.000000, -1164.000000)">
            <g id="Side-bar" transform="translate(152.000000, 0.000000)">
                <g id="Page-1" transform="translate(190.000000, 1163.000000)">
                    <g id="Group-3" transform="translate(50.000000, 0.686100)" fill="#FF8500">
                        <path d="M6.5514,9.3949 L9.5734,9.3949 C11.5334,9.3949 12.7714,9.3079 13.2894,9.1309 C13.8054,8.9549 14.2374,8.6519 14.5854,8.2229 C14.9324,7.7939 15.1604,7.2559 15.2674,6.6119 C15.3874,5.8899 15.3024,5.3069 15.0124,4.8619 C14.7224,4.4179 14.2584,4.1359 13.6124,4.0199 C13.2904,3.9719 12.3004,3.9459 10.6444,3.9459 L7.4564,3.9459 L6.5514,9.3949 Z M0.4084,21.7849 L3.9754,0.3139 L12.5734,0.3139 C14.7354,0.3139 16.2744,0.5069 17.1894,0.8929 C18.1044,1.2789 18.7764,1.9639 19.2014,2.9509 C19.6264,3.9369 19.7324,5.0639 19.5224,6.3329 C19.2544,7.9449 18.5874,9.2759 17.5204,10.3239 C16.4534,11.3739 15.0104,12.0359 13.1894,12.3089 C13.9804,12.8559 14.6094,13.4569 15.0764,14.1099 C15.5424,14.7649 16.1244,15.9269 16.8234,17.5969 L18.5974,21.7849 L13.7124,21.7849 L11.5344,17.1129 C10.7634,15.4439 10.2204,14.3919 9.9064,13.9569 C9.5924,13.5219 9.2314,13.2249 8.8264,13.0629 C8.4214,12.9019 7.7484,12.8219 6.8104,12.8219 L5.9824,12.8219 L4.4924,21.7849 L0.4084,21.7849 Z" id="Fill-1"></path>
                    </g>
                    <path d="M72.6447,14.6948 C72.3877,16.2368 72.5367,17.4188 73.0907,18.2388 C73.6447,19.0588 74.4267,19.4678 75.4387,19.4678 C76.4527,19.4678 77.3687,19.0588 78.1907,18.2388 C79.0107,17.4188 79.5517,16.2278 79.8117,14.6658 C80.0647,13.1418 79.9157,11.9708 79.3687,11.1498 C78.8177,10.3298 78.0387,9.9208 77.0257,9.9208 C76.0137,9.9208 75.0937,10.3298 74.2687,11.1498 C73.4417,11.9708 72.9007,13.1518 72.6447,14.6948 M68.7067,14.4748 C68.9327,13.1078 69.4707,11.7848 70.3177,10.5058 C71.1657,9.2268 72.2267,8.2498 73.5027,7.5768 C74.7787,6.9028 76.1337,6.5658 77.5697,6.5658 C79.7877,6.5658 81.4777,7.3298 82.6387,8.8578 C83.8017,10.3858 84.1907,12.3168 83.8037,14.6498 C83.4127,17.0038 82.3727,18.9538 80.6847,20.5018 C78.9967,22.0488 77.0667,22.8228 74.8947,22.8228 C73.5517,22.8228 72.3257,22.5008 71.2127,21.8558 C70.1007,21.2128 69.3317,20.2678 68.9027,19.0228 C68.4757,17.7768 68.4097,16.2618 68.7067,14.4748" id="Fill-4" fill="#FF8500"></path>
                    <path d="M94.047,15.0019 C93.523,15.1779 92.7,15.3869 91.584,15.6319 C90.467,15.8769 89.723,16.1149 89.353,16.3489 C88.783,16.7299 88.449,17.2129 88.352,17.7989 C88.257,18.3759 88.376,18.8739 88.712,19.2929 C89.046,19.7139 89.527,19.9229 90.153,19.9229 C90.852,19.9229 91.559,19.6789 92.276,19.1899 C92.806,18.8199 93.19,18.3659 93.426,17.8289 C93.587,17.4779 93.747,16.8079 93.91,15.8219 L94.047,15.0019 Z M89.413,11.6629 L86.006,10.9879 C86.651,9.4849 87.518,8.3719 88.604,7.6489 C89.69,6.9269 91.185,6.5659 93.09,6.5659 C94.82,6.5659 96.071,6.7829 96.845,7.2179 C97.62,7.6519 98.124,8.2039 98.358,8.8729 C98.59,9.5419 98.56,10.7699 98.263,12.5559 L97.423,17.3599 C97.197,18.7269 97.09,19.7349 97.106,20.3839 C97.124,21.0339 97.241,21.7299 97.458,22.4709 L93.621,22.4709 C93.565,22.1979 93.508,21.7929 93.451,21.2559 C93.426,21.0119 93.407,20.8509 93.393,20.7719 C92.618,21.4559 91.822,21.9689 91.011,22.3109 C90.2,22.6519 89.367,22.8229 88.512,22.8229 C87.001,22.8229 85.886,22.3879 85.16,21.5199 C84.437,20.6499 84.183,19.5519 84.403,18.2239 C84.55,17.3449 84.878,16.5619 85.388,15.8739 C85.898,15.1859 86.54,14.6579 87.314,14.2919 C88.088,13.9249 89.169,13.6059 90.557,13.3329 C92.429,12.9709 93.742,12.6339 94.492,12.3219 L94.561,11.9109 C94.692,11.1209 94.603,10.5569 94.291,10.2199 C93.979,9.8829 93.312,9.7139 92.291,9.7139 C91.6,9.7139 91.038,9.8579 90.604,10.1469 C90.17,10.4349 89.773,10.9409 89.413,11.6629 Z" id="Fill-6" fill="#FF8500"></path>
                    <path d="M103.7477,14.3574 C103.4717,16.0184 103.4897,17.2184 103.7967,17.9604 C104.2457,19.0344 105.0287,19.5714 106.1507,19.5714 C107.0437,19.5714 107.8707,19.1684 108.6297,18.3624 C109.3887,17.5574 109.9017,16.3544 110.1687,14.7534 C110.4657,12.9664 110.3757,11.6794 109.8967,10.8934 C109.4227,10.1074 108.7097,9.7144 107.7637,9.7144 C106.8417,9.7144 106.0067,10.1024 105.2567,10.8794 C104.5077,11.6554 104.0037,12.8154 103.7477,14.3574 Z M112.7497,22.4714 L109.1477,22.4714 L109.5267,20.1864 C108.7807,21.0744 107.9657,21.7364 107.0807,22.1714 C106.1937,22.6054 105.3347,22.8224 104.5077,22.8224 C102.8237,22.8224 101.5017,22.1024 100.5397,20.6624 C99.5787,19.2224 99.3127,17.2134 99.7407,14.6364 C100.1797,12.0004 101.0957,9.9964 102.4907,8.6244 C103.8877,7.2524 105.4787,6.5654 107.2637,6.5654 C108.9017,6.5654 110.1987,7.2884 111.1537,8.7334 L112.4377,1.0004 L116.3157,1.0004 L112.7497,22.4714 Z" id="Fill-8" fill="#FF8500"></path>
                    <path d="M7.5065,18.2099 L10.6945,18.2099 C11.7705,18.2099 12.5635,18.0069 13.0725,17.6019 C13.5805,17.1969 13.8925,16.6519 14.0055,15.9679 C14.1105,15.3339 13.9775,14.8239 13.6055,14.4379 C13.2315,14.0519 12.4985,13.8589 11.4025,13.8589 L8.2295,13.8589 L7.5065,18.2099 Z M8.9085,9.7729 L11.6275,9.7729 C12.6025,9.7729 13.3095,9.5949 13.7525,9.2379 C14.1925,8.8829 14.4685,8.3669 14.5805,7.6939 C14.6845,7.0679 14.5745,6.5809 14.2505,6.2289 C13.9275,5.8769 13.2925,5.7019 12.3455,5.7019 L9.5855,5.7019 L8.9085,9.7729 Z M4.0005,1.3519 L15.7035,1.3519 C17.6535,1.3519 19.0655,1.8649 19.9395,2.8899 C20.8135,3.9149 21.1255,5.1839 20.8735,6.6979 C20.6625,7.9659 20.1095,9.0549 19.2125,9.9639 C18.6155,10.5689 17.8095,11.0469 16.7935,11.3989 C18.1855,11.7699 19.1505,12.4059 19.6855,13.3109 C20.2205,14.2129 20.3745,15.3489 20.1475,16.7159 C19.9625,17.8289 19.5525,18.8299 18.9175,19.7179 C18.2815,20.6059 17.4985,21.3089 16.5665,21.8269 C15.9875,22.1489 15.1575,22.3829 14.0745,22.5299 C12.6345,22.7249 11.6845,22.8229 11.2245,22.8229 L0.4335,22.8229 L4.0005,1.3519 Z" id="Fill-10" fill="#FF8500"></path>
                    <path d="M24.2565,7.269 L29.8745,7.269 L27.2895,22.823 L21.6725,22.823 L24.2565,7.269 Z M25.2395,1.352 L30.8575,1.352 L30.1825,5.409 L24.5655,5.409 L25.2395,1.352 Z" id="Fill-12" fill="#FF8500"></path>
                    <path d="M36.5573,14.811 C36.3693,15.934 36.4573,16.767 36.8183,17.309 C37.1793,17.85 37.7273,18.121 38.4633,18.121 C39.1623,18.121 39.7963,17.84 40.3633,17.279 C40.9303,16.718 41.3083,15.871 41.4953,14.739 C41.6853,13.606 41.5793,12.739 41.1823,12.139 C40.7853,11.538 40.2283,11.238 39.5103,11.238 C38.7923,11.238 38.1743,11.514 37.6553,12.065 C37.1353,12.617 36.7693,13.533 36.5573,14.811 Z M43.0963,7.269 L48.3543,7.269 L45.9123,21.959 L45.8123,22.647 C45.6503,23.623 45.2993,24.554 44.7623,25.437 C44.2233,26.32 43.5863,27.036 42.8463,27.583 C42.1073,28.129 41.2173,28.525 40.1793,28.769 C39.1403,29.013 37.9763,29.135 36.6883,29.135 C33.7433,29.135 31.8003,28.666 30.8573,27.729 C29.9133,26.792 29.5723,25.537 29.8333,23.965 C29.8663,23.769 29.9183,23.506 29.9933,23.174 L35.3343,23.833 C35.3823,24.371 35.5333,24.741 35.7833,24.947 C36.1473,25.249 36.6423,25.4 37.2683,25.4 C38.0773,25.4 38.7213,25.171 39.1973,24.711 C39.6733,24.254 40.0053,23.453 40.1963,22.311 L40.5883,19.952 C39.9213,20.646 39.2853,21.148 38.6813,21.46 C37.7353,21.949 36.7613,22.193 35.7583,22.193 C33.7993,22.193 32.3673,21.285 31.4633,19.468 C30.8223,18.18 30.6773,16.477 31.0293,14.357 C31.4323,11.936 32.2893,10.09 33.6053,8.822 C34.9203,7.552 36.4703,6.917 38.2553,6.917 C39.3953,6.917 40.3023,7.123 40.9743,7.533 C41.6473,7.942 42.2273,8.622 42.7143,9.568 L43.0963,7.269 Z" id="Fill-14" fill="#FF8500"></path>
                    <path d="M42.0123,49.3105 L48.3883,49.3105 C49.0103,49.3105 49.6443,48.9645 50.2913,48.2715 C50.9343,47.5815 51.3563,46.6135 51.5533,45.3695 C51.7553,44.0905 51.5993,43.1145 51.0843,42.4395 C50.5703,41.7655 50.0003,41.4295 49.3773,41.4295 L43.2603,41.4295 L42.0123,49.3105 Z M28.7163,69.4255 L34.5463,32.6145 L51.4493,32.6145 C53.2453,32.6145 54.8453,32.9875 56.2483,33.7285 C57.6523,34.4735 58.8043,35.4415 59.7033,36.6335 C60.6033,37.8255 61.2413,39.1915 61.6213,40.7285 C61.9993,42.2675 62.0663,43.8135 61.8203,45.3695 C61.4803,47.5135 60.6973,49.5095 59.4703,51.3575 C58.2453,53.2065 56.7083,54.7195 54.8643,55.8945 L60.4973,69.4255 L49.0903,69.4255 L44.4013,58.1235 L40.6163,58.1235 L38.8263,69.4255 L28.7163,69.4255 Z" id="Fill-16" fill="#282828"></path>
                    <polygon id="Fill-18" fill="#282828" points="90.715 60.6133 89.319 69.4263 63.084 69.4263 68.914 32.6143 94.682 32.6143 93.286 41.4293 77.629 41.4293 76.807 46.6133 90.183 46.6133 88.886 54.8053 75.51 54.8053 74.59 60.6133"></polygon>
                    <polygon id="Fill-20" fill="#282828" points="92.9977 69.4258 98.8287 32.6148 108.9377 32.6148 103.1077 69.4258"></polygon>
                    <path d="M133.8688,66.3681 C130.8918,68.5801 127.6928,69.6861 124.2708,69.6861 C121.8878,69.6861 119.6718,69.2631 117.6288,68.4151 C115.5858,67.5681 113.8808,66.3331 112.5138,64.7081 C111.1458,63.0841 110.1638,61.0971 109.5698,58.7451 C108.9728,56.3961 108.9138,53.7161 109.3908,50.7091 C109.8018,48.1171 110.6658,45.7071 111.9888,43.4761 C113.3068,41.2471 114.9448,39.3121 116.8998,37.6701 C118.8518,36.0291 121.0538,34.7321 123.5028,33.7811 C125.9528,32.8301 128.5058,32.3561 131.1688,32.3561 C132.8288,32.3561 134.3898,32.5371 135.8528,32.9001 C137.3148,33.2631 138.6398,33.8001 139.8238,34.5071 C141.0068,35.2171 142.0398,36.0631 142.9208,37.0471 C143.8018,38.0341 144.4728,39.1481 144.9308,40.3921 L136.5028,46.1471 C136.0068,44.6951 135.1018,43.5281 133.7898,42.6471 C132.4778,41.7651 131.0098,41.3251 129.3858,41.3251 C128.1758,41.3251 127.0298,41.5681 125.9538,42.0511 C124.8738,42.5351 123.9018,43.2091 123.0398,44.0741 C122.1768,44.9371 121.4428,45.9651 120.8408,47.1581 C120.2368,48.3511 119.8218,49.6551 119.5978,51.0721 C119.3668,52.5241 119.3678,53.8381 119.5968,55.0131 C119.8238,56.1881 120.2428,57.2001 120.8518,58.0461 C121.4608,58.8931 122.2468,59.5491 123.2098,60.0161 C124.1738,60.4821 125.2938,60.7161 126.5738,60.7161 C129.5108,60.7161 132.2948,59.5071 134.9258,57.0871 L128.5478,57.0871 L129.6968,49.8291 L144.8378,49.8291 L141.7328,69.4261 L133.3848,69.4261 L133.8688,66.3681 Z" id="Fill-22" fill="#282828"></path>
                    <polygon id="Fill-24" fill="#282828" points="184.4723 32.6147 178.6423 69.4257 168.5343 69.4257 170.8163 55.0127 158.4753 55.0127 156.1933 69.4257 146.0833 69.4257 151.9143 32.6147 162.0233 32.6147 159.8713 46.1977 172.2123 46.1977 174.3643 32.6147"></polygon>
                    <polygon id="Fill-26" fill="#282828" points="29.4718 41.2007 4.4708 41.2007 5.8068 32.7627 30.8078 32.7627"></polygon>
                    <polygon id="Fill-28" fill="#282828" points="24.3512 55.9067 2.1412 55.9067 3.4772 47.4687 25.6872 47.4687"></polygon>
                    <polygon id="Fill-30" fill="#282828" points="0.0001 69.4258 3.4781 47.4688 11.9161 47.4688 8.4381 69.4258"></polygon>
                    <polygon id="Fill-32" fill="#282828" points="217.2536 41.4292 206.6776 41.4292 202.2436 69.4262 192.1336 69.4262 196.5676 41.4292 185.9396 41.4292 187.3356 32.6152 218.6496 32.6152"></polygon>
                </g>
            </g>
        </g>
    </g>
</svg>