<?xml version="1.0" encoding="UTF-8"?>
<svg width="293px" height="218px" viewBox="0 0 293 218" version="1.1" xmlns="http://www.w3.org/2000/svg" xmlns:xlink="http://www.w3.org/1999/xlink">
    <!-- Generator: Sketch 47 (45396) - http://www.bohemiancoding.com/sketch -->
    <title>Illustration/Search LoadOld @2x</title>
    <desc>Created with Sketch.</desc>
    <defs>
        <polygon id="path-1" points="0 132.357279 0 0.591469448 131.411802 0.591469448 131.411802 132.357279"></polygon>
        <polygon id="path-3" points="0 179 202.914398 179 202.914398 0.058637931 0 0.058637931"></polygon>
    </defs>
    <g id="New-UI-flow" stroke="none" stroke-width="1" fill="none" fill-rule="evenodd">
        <g id="BRF---SL--Copy-8" transform="translate(-291.000000, -1046.000000)">
            <g id="Popup-" transform="translate(0.000000, 810.000000)">
                <g id="Illustration/Search-LoadOld-" transform="translate(288.000000, 214.000000)">
                    <g id="LoadOld">
                        <g id="Page-1" transform="translate(0.000000, 44.138765)">
                            <polygon id="Fill-1" fill="#BC7E30" points="3.0729702 178.717742 199.743063 178.717742 199.743063 0 3.0729702 0"></polygon>
                            <polygon id="Fill-3" fill="#A46A20" points="3.0729702 30.8134038 125.897352 178.717742 199.743063 178.717742 199.743063 30.8134038"></polygon>
                            <polygon id="Fill-4" fill="#422B27" points="159.79445 0 159.79445 40.0574249 164.44203 37.9097331 168.635745 39.8947119 174.447035 36.5011546 181.305242 40.0574249 181.305242 0"></polygon>
                            <polygon id="Fill-5" fill="#422B27" points="21.5107914 0 21.5107914 40.0574249 26.1541353 37.9097331 30.34785 39.8947119 36.1585353 36.5011546 43.0215827 40.0574249 43.0215827 0"></polygon>
                        </g>
                        <g id="Page-1" transform="translate(174.118580, 134.008699) rotate(-8.000000) translate(-174.118580, -134.008699) translate(64.618580, 15.008699)">
                            <path d="M32.4641395,28.1776514 C11.4953702,46.7885234 9.54107289,78.9184844 28.1016437,99.9440814 C46.6548595,120.968625 78.6979802,122.930326 99.6741045,104.325775 C120.641823,85.714903 122.597171,53.5838884 104.03555,32.5519702 C85.4833845,11.5274267 53.4318582,9.56677949 32.4641395,28.1776514" id="Fill-1" fill="#AAD2ED" opacity="0.607450181"></path>
                            <g id="Group-5">
                                <mask id="mask-2" fill="white">
                                    <use xlink:href="#path-1"></use>
                                </mask>
                                <g id="Clip-4"></g>
                                <path d="M113.519937,56.7116383 C108.155145,30.2661701 82.3460062,13.1453555 55.964975,18.5258195 C29.5902864,23.9062835 12.5170361,49.7846618 17.8828845,76.2386099 C23.248733,102.684078 49.0652719,119.802773 75.4389034,114.423369 C101.812535,109.034425 118.893185,83.1560465 113.519937,56.7116383 M130.080493,53.3324186 C137.311069,88.9785226 114.365618,123.762862 78.8078866,131.020553 C43.258612,138.277183 8.56876105,115.261814 1.33078539,79.6157097 C-5.89873346,43.9696056 17.0467171,9.18526614 52.5959917,1.92757561 C88.151609,-5.32905493 122.836174,17.6863145 130.080493,53.3324186" id="Fill-3" fill="#445D76" mask="url(#mask-2)"></path>
                            </g>
                            <polygon id="Fill-6" fill="#445D76" points="107.027607 101.684232 95.2620761 112.583016 117.30025 138.660317 129.064748 127.761534"></polygon>
                            <path d="M116.963751,124.904043 L116.963751,124.904043 C109.202801,131.798897 108.465501,143.818899 115.333758,151.610976 L185.239099,230.899099 C192.107356,238.697631 204.079922,239.430256 211.849445,232.536479 C219.610394,225.633019 220.340193,213.613017 213.464434,205.822015 L143.574097,126.532817 C136.698337,118.740739 124.7247,118.001659 116.963751,124.904043" id="Fill-8" fill="#9EB13A"></path>
                            <path d="M185.238227,230.8991 C192.10642,238.697838 204.078874,239.430483 211.848323,232.535447 C219.609199,225.631805 220.338991,213.612561 213.470798,205.820278 L185.238227,230.8991 Z M120.774303,157.778803 L149.005802,132.701056 L208.032184,199.657887 L179.798541,224.735633 L120.774303,157.778803 Z M116.963522,124.901242 L116.963522,124.901242 C109.202646,131.796277 108.465352,143.816598 115.334617,151.608881 L143.573618,126.528982 C136.697923,118.737775 124.724398,118.006206 116.963522,124.901242 L116.963522,124.901242 Z" id="Fill-10" fill="#192A3A"></path>
                            <path d="M88.2109731,50.2055209 C90.0551147,52.5884669 93.5734308,53.0976435 96.06026,51.3236725 C98.5598366,49.5547933 99.0771736,46.1748796 97.2245337,43.7919335 C96.0517616,42.2644039 94.7398291,40.8010306 93.3152935,39.4079237 C86.4040118,32.6613349 77.5657296,28.7793731 68.5681035,27.9168281 C59.471684,27.0471546 50.2148582,29.2396687 42.5578464,34.6623986 C41.2161697,35.6176137 39.8808667,36.7133616 38.5529998,37.9588073 C36.3476785,40.0372659 36.3104982,43.4375466 38.4797016,45.5526659 C40.6414689,47.6749136 44.1895293,47.7095376 46.4022867,45.6300607 C47.2563707,44.8245434 48.216684,44.0465217 49.2566694,43.317381 C54.6180648,39.5138324 61.0959308,37.9720459 67.4537575,38.5800027 C73.9156891,39.2022164 80.2809519,42.0240726 85.311974,46.9315159 C86.292471,47.8928411 87.2591581,48.9824789 88.2109731,50.2055209" id="Fill-12" fill="#E0EEF9"></path>
                        </g>
                        <polygon id="Path-2" fill="#626163" opacity="0.0931272645" points="125 222.962864 139.759249 239.376584 241.267173 239.376584 198.144206 199.878856 198.144206 222.962864"></polygon>
                        <polygon id="Path-4" fill="#D8D8D8" opacity="0.209408967" points="4.54943634 221.866506 34.9610379 239.376584 142.65904 239.376584 128.293505 221.866506"></polygon>
                    </g>
                    <g id="load" transform="translate(0.000000, 44.000000)">
                        <path d="M135.336187,143.674227 C134.240476,139.199227 130.2245,135.856247 125.464395,135.856247 C120.709181,135.856247 116.688925,139.199227 115.597494,143.674227 L135.336187,143.674227 Z" id="Fill-6" fill="#212121"></path>
                        <path d="M126.424242,156.810481 C126.33864,158.897991 124.636375,160.56084 122.552567,160.56084 C120.463257,160.56084 118.765272,158.897991 118.67967,156.810481 L120.581878,156.810481 C120.658308,157.839422 121.511887,158.644922 122.552567,158.644922 C123.587745,158.644922 124.437043,157.839422 124.522646,156.810481 L124.522646,142.936129 L126.424242,142.936129 L126.424242,156.810481 Z" id="Fill-8" fill="#212121"></path>
                        <mask id="mask-4" fill="white">
                            <use xlink:href="#path-3"></use>
                        </mask>
                        <g id="Clip-11"></g>
                        <polygon id="Fill-10" fill="#212121" mask="url(#mask-4)" points="101.773316 159.108162 103.594813 159.108162 103.594813 145.906603 101.773316 145.906603"></polygon>
                        <path d="M109.870448,135.843594 L109.870448,144.441149 C109.870448,148.427294 106.634677,151.684477 102.68596,151.684477 L102.68168,151.684477 C98.7329633,151.684477 95.5026952,148.427294 95.5026952,144.441149 L95.5026952,135.843594 L109.870448,135.843594 Z" id="Fill-12" fill="#212121" mask="url(#mask-4)"></path>
                        <path d="M98.5807744,159.108286 L106.7876,159.108286 C107.9041,159.108286 108.816988,159.755154 108.816988,160.547692 L96.5513858,160.547692 C96.5513858,159.755154 97.463663,159.108286 98.5807744,159.108286" id="Fill-13" fill="#212121" mask="url(#mask-4)"></path>
                        <polygon id="Fill-14" fill="#212121" mask="url(#mask-4)" points="75.3643614 146.000918 75.3643614 158.773494 70.7662892 158.773494 70.7662892 146.000918 67.5782108 146.000918 70.3205452 140.921639 73.0677711 135.847914 75.8101054 140.921639 78.5530512 146.000918"></polygon>
                        <polygon id="Fill-15" fill="#212121" mask="url(#mask-4)" points="87.8046539 146.000918 87.8046539 158.773494 83.202913 158.773494 83.202913 146.000918 80.0142232 146.000918 82.7608377 140.921639 85.503172 135.847914 88.2461178 140.921639 90.9890636 146.000918"></polygon>
                        <polygon id="Fill-16" fill="#212121" mask="url(#mask-4)" points="68.9149536 158.773741 89.6515259 158.773741 89.6515259 160.547692 68.9198452 160.547692"></polygon>
                    </g>
                </g>
            </g>
        </g>
    </g>
</svg>
