<svg viewBox="0 0 708 433" xmlns="http://www.w3.org/2000/svg" xmlns:xlink="http://www.w3.org/1999/xlink"><defs><path id="a" d="M0 248h538.48V.549H0z"/><path id="c" d="M154.86 11H.959V.4H154.86z"/></defs><g fill="none" fill-rule="evenodd"><g transform="translate(92 184.451)"><path fill="#767777" d="M16.06 224.3h454.09l-61.29-7.03-378.784.01z"/><path d="M15.197 106.39c0 2.75-2.25 5-5 5H5c-2.75 0-5-2.25-5-5V84.88c0-2.75 2.25-5 5-5h5.197c2.75 0 5 2.25 5 5v21.51zM15.197 126.59c0 2.75-2.25 5-5 5H5c-2.75 0-5-2.25-5-5v-5.755c0-2.75 2.25-5 5-5h5.197c2.75 0 5 2.25 5 5v5.755zM227.53 159.55c-8.097.411-14.503 14.452-14.306 31.357.197 16.911 6.921 30.285 15.019 29.874h14.683l-8.413-38.713-6.983-22.518z" fill="#424242"/><path d="M257.23 189.41c-.197-16.905-6.922-30.28-15.02-29.869-8.096.411-14.501 14.452-14.305 31.357.196 16.91 6.922 30.284 15.018 29.874 8.098-.411 14.503-14.452 14.307-31.362" fill="#333332"/><path d="M273.07 159.55c-8.098.411-14.503 14.452-14.307 31.357.198 16.911 6.922 30.285 15.019 29.874h12.81l-6.54-38.713-6.982-22.518z" fill="#424242"/><path d="M300.9 189.41c-.196-16.905-6.921-30.28-15.019-29.869-8.096.411-14.502 14.452-14.305 31.357.196 16.91 6.921 30.284 15.018 29.874 8.098-.411 14.503-14.452 14.306-31.362M316.25 159.55c-8.097.411-14.502 14.452-14.306 31.357.197 16.911 6.922 30.285 15.019 29.874h12.809l-6.539-38.713-6.983-22.518z" fill="#424242"/><path d="M344.08 189.41c-.196-16.905-6.921-30.28-15.019-29.869-8.097.411-14.502 14.452-14.306 31.357.197 16.91 6.922 30.284 15.018 29.874 8.098-.411 14.503-14.452 14.307-31.362M269.92 188.96c-.196-16.905-6.921-30.28-15.019-29.869-8.097.411-14.502 14.452-14.306 31.357.197 16.91 6.922 30.285 15.018 29.874 8.098-.411 14.503-14.451 14.307-31.362M391.7 173.21l-4.32 5.25-2.87-9.33-2.93-9.53-4.26-13.86-4.52 14.72-3.62 11.79-1.92 6.21-4.31-5.25 2.97-9.65 3.19-10.43 5.3-17.23 2.91 3.55 2.91-3.55 5.1 16.59 2.74 8.91zM436.87 173.21l-4.32 5.25-2.87-9.33-2.92-9.53-4.26-13.86-4.52 14.72-3.63 11.79-1.91 6.21-4.32-5.25 2.97-9.65 3.2-10.43 5.29-17.23 2.92 3.55 2.91-3.55 5.1 16.59 2.74 8.91z" fill="#333332"/><path fill="#364242" d="M471.07 146.2l-4.32 5.26-.95-2.65 4.22 2.65-3.27-5.72-4.53 14.72-3.62 11.79-1.91 6.21-4.32-5.25 2.97-9.65 3.19-10.42 5.3-17.24 2.92 3.55 2.91-3.55 5.09 16.59-2.69.57z"/><path d="M74.852 135.39c-3.146 0-5.719-2.573-5.719-5.718V7.522c0-3.145 2.573-5.719 5.719-5.719h346.56c3.145 0 5.718 2.574 5.718 5.719v122.15c0 3.145-2.573 5.718-5.718 5.718H74.852z" fill="#F7E1CC"/><path d="M154.52 132.03c-3.146 0-5.719-2.573-5.719-5.719V25.661c0-3.145 2.573-5.719 5.719-5.719h37.879c3.144 0 5.718 2.574 5.718 5.719v100.65c0 3.146-2.574 5.719-5.718 5.719H154.52z" fill="#EF833B"/><mask id="b" fill="#fff"><use xlink:href="#a"/></mask><path fill="#767F7F" mask="url(#b)" d="M118.99 138.54h86.48v-17.66h-86.48z"/><path d="M239.8 138.54v30.623c0 1.048.857 1.906 1.906 1.906h194.32a1.912 1.912 0 0 0 1.906-1.906v-28.962" fill="#21211F" mask="url(#b)"/><path fill="#333332" mask="url(#b)" d="M356.67 149.37l-6.03 22.36-3.04 11.24-71.35 1.62-15.36-35.22z"/><path d="M325.21 180.14a3.29 3.29 0 0 0 3.28 3.28h2.33c1.804 0 3.281-1.067 3.281-2.372v-28.395a3.29 3.29 0 0 0-3.281-3.281h-2.33a3.29 3.29 0 0 0-3.28 3.281v27.487z" fill="#364242" mask="url(#b)"/><path d="M175.23 138.54v14.842c0 1.048.858 1.906 1.906 1.906h298.16a1.912 1.912 0 0 0 1.907-1.906v-13.181" fill="#21211F" mask="url(#b)"/><path d="M339.88 138.54v14.842c0 1.048.857 1.906 1.906 1.906h118.44c1.048 0 2.145-.824 2.438-1.83l3.853-13.257" fill="#21211F" mask="url(#b)"/><path d="M481.63 138.54v14.842c0 1.048.857 1.906 1.906 1.906h2.053a1.911 1.911 0 0 0 1.905-1.906v-13.181" fill="#191F25" mask="url(#b)"/><path d="M210.28 134.14c-3.145 0-5.719-2.574-5.719-5.719V6.271c0-3.145 2.574-5.718 5.719-5.718h268.79c3.145 0 5.719 2.573 5.719 5.718v122.15c0 3.145-2.574 5.719-5.719 5.719H210.28z" fill="#F6F0EA" mask="url(#b)"/><path fill="#21211F" mask="url(#b)" d="M348.36 174.34l-4.32 5.26-3.34-10.9-2.88-9.36-5.23-17.04 5.56 1.27 3.53 9.02 2.72 8.89z"/><path fill="#21211F" mask="url(#b)" d="M366.04 178.46l14.56-37.4-46.58.1 5.23 17.04 2.88 9.36 3.35 10.9z"/><path fill="#21211F" mask="url(#b)" d="M394.58 173.21l-4.32 5.25-2.87-9.33-2.93-9.53-4.26-13.86-4.52 14.72-3.63 11.79-1.91 6.21-4.31-5.25 2.97-9.65 3.19-10.43 5.3-17.23 2.91 3.55 2.91-3.55 5.1 16.59 2.74 8.91zM470.02 141.16l-5.56 18.1-3.54 11.5-2.36 7.7-4.32-5.25 3.27-10.67 3.17-10.3 5.02-16.34zM439.43 173.21l-4.33 5.25-2.94-9.59-2.92-9.51-4.83-15.73-4.73 15.4-3.52 11.46-2.45 7.97-4.32-5.25 3.34-10.86 3.15-10.29 4.97-16.16 3.56 4.33 3.55-4.33 5.04 16.42 2.74 8.9z"/><path d="M433.01 149.37c-1.392 2.054-3.425 5.294-4.538 7.915l3.692 11.591c.988-2.898 2.969-6.352 4.355-8.52l-3.509-10.986z" fill="#364242" mask="url(#b)"/><path fill="#21211F" mask="url(#b)" d="M292.05 147.11h181.2v-4.8h-181.2zM385.24 159.55c-8.097.411-14.502 14.452-14.306 31.357.198 16.911 6.922 30.285 15.019 29.874h14.528L385.24 159.55"/><path d="M403.32 150.13l-7.578 5.389c-3.841.194-3.053 3.11-5.817 7.847-1.3 2.231-2.436 4.871-3.361 7.814-1.792 5.683-2.804 12.516-2.718 19.82.02 1.465.078 2.902.18 4.314l-16.251.128a87.945 87.945 0 0 1-.164-4.314c-.027-2.358.043-4.67.206-6.928 1.356-18.859 9.823-33.58 19.264-34.056l16.239-.014z" fill="#454F58" mask="url(#b)"/><path d="M428.94 159.55c-8.097.411-14.503 14.452-14.306 31.357.197 16.911 6.921 30.285 15.019 29.874h15.392s-12.122-53.932-12.122-54.381-3.983-6.85-3.983-6.85" fill="#21211F" mask="url(#b)"/><path d="M448.63 150.13l-7.578 5.389c-3.842.194-3.053 3.11-5.818 7.847-1.299 2.231-2.435 4.871-3.361 7.814-1.792 5.683-2.803 12.516-2.717 19.82.02 1.465.078 2.902.18 4.314l-16.252.128a81.268 81.268 0 0 1-.164-4.314c-.027-2.358.043-4.67.207-6.928 1.356-18.859 9.823-33.58 19.263-34.056l16.24-.014z" fill="#454F58" mask="url(#b)"/><path d="M413.44 162.33c-2.867-4.451-6.437-9.693-10.28-9.498-3.844.195-9.693 5.796-12.453 10.533-3.819 6.545-6.209 16.552-6.08 27.635.017 1.465.045 5.629.145 7.035l3.902-.198c-.129-1.399-.171-5.562-.187-7.033-.171-14.656 5.402-26.868 12.424-27.224 7.021-.356 12.872 11.276 13.043 25.932a55.007 55.007 0 0 1-.121 4.328l6.244-.198c.067-1.416.095-2.862.078-4.326-.129-11.083-2.749-20.836-6.715-26.986" fill="#21211F" mask="url(#b)"/><path d="M416.66 189.41c-.197-16.905-6.922-30.28-15.02-29.869-8.096.411-14.501 14.452-14.305 31.357.197 16.91 6.922 30.284 15.018 29.874 8.098-.411 14.503-14.452 14.307-31.362" fill="#424242" mask="url(#b)"/><path d="M402.27 213.3c-6.111.311-11.203-9.819-11.353-22.58-.147-12.758 4.704-23.389 10.814-23.699 6.111-.31 11.204 9.817 11.352 22.574.149 12.761-4.702 23.395-10.813 23.705" fill="#424242" mask="url(#b)"/><path d="M410.27 189.76c.02 1.684-.08 3.31-.288 4.85-.692 5.202-2.57 9.4-5.007 11.194-.769.567-1.597.898-2.456.942-.86.043-1.69-.203-2.473-.692-2.44-1.519-4.4-5.43-5.231-10.463a33.192 33.192 0 0 1-.434-5.024c-.02-1.762.092-3.459.317-5.064.719-5.153 2.605-9.281 5.035-11.025.754-.546 1.559-.863 2.399-.905.841-.042 1.654.192 2.418.66 2.502 1.515 4.5 5.538 5.32 10.705.24 1.517.38 3.138.4 4.822" fill="#67676D" mask="url(#b)"/><path d="M402.01 189.79a32.413 32.413 0 0 1-.219 4.238c-.534 4.544-1.998 8.206-3.901 9.765-.601.493-1.247.779-1.92.814-.672.035-1.321-.184-1.934-.615-1.911-1.336-3.448-4.763-4.105-9.165a32.427 32.427 0 0 1-.345-4.393c-.018-1.54.067-3.023.24-4.424.557-4.502 2.026-8.103 3.924-9.618.589-.474 1.219-.748 1.876-.782.656-.033 1.293.174 1.892.586 1.958 1.335 3.525 4.859 4.174 9.378.189 1.327.3 2.744.318 4.216" fill="#303035" mask="url(#b)"/><path d="M397.09 190.06a8.62 8.62 0 0 1-.073 1.234c-.176 1.323-.655 2.39-1.276 2.844a1.134 1.134 0 0 1-.626.238 1.071 1.071 0 0 1-.629-.177c-.622-.389-1.121-1.386-1.333-2.666a8.633 8.633 0 0 1-.03-2.568c.184-1.31.664-2.359 1.283-2.801.192-.138.398-.218.612-.228.214-.011.421.05.615.169.638.388 1.146 1.413 1.355 2.728.061.386.097.799.102 1.227" fill="#303035" mask="url(#b)"/><path d="M421.58 182.29c-1.791-18.7-9.825-32.621-19.265-32.142-9.439.479-17.14 15.199-18.494 34.059a82.48 82.48 0 0 0-.206 6.926c.017 1.457.072 2.899.163 4.312l2.589-.131a72.764 72.764 0 0 1-.179-4.312c-.129-11.082 2.261-21.09 6.08-27.635 2.76-4.737 6.266-7.65 10.11-7.846 3.844-.194 7.413 2.36 10.281 6.811 3.966 6.15 6.586 15.903 6.715 26.986a74.43 74.43 0 0 1-.078 4.326l-1.949.098 4.538-.23c.057-1.421.079-2.868.062-4.325a81.456 81.456 0 0 0-.367-6.897" fill="#767777" mask="url(#b)"/><path d="M404.79 205.8c-.77.567-1.596.897-2.456.941s-1.69-.203-2.472-.691c-2.441-1.519-4.4-5.431-5.232-10.463a33.338 33.338 0 0 1-.433-5.025c-.02-1.762.091-3.458.316-5.063.719-5.154 2.605-9.282 5.036-11.026.753-.545 1.559-.861 2.399-.904.84-.042 1.653.191 2.417.66 2.502 1.515 4.5 5.537 5.32 10.705.24 1.517.38 3.137.4 4.821a33.502 33.502 0 0 1-.287 4.851c-.693 5.201-2.571 9.399-5.008 11.194m-3.026-35.636c-5.283.268-9.475 9.457-9.347 20.484.129 11.03 4.53 19.785 9.812 19.516 5.282-.267 9.475-9.459 9.346-20.488-.128-11.027-4.529-19.779-9.811-19.512" fill="#BBBCBE" mask="url(#b)"/><path fill="#21211F" mask="url(#b)" d="M226.88 153.1h-15.03l-6.64-11.58h28.32z"/><path fill="#21211F" mask="url(#b)" d="M241.06 146.09h-38.53l-2.04-5.03h42.62zM458 162.33c-2.867-4.451-6.437-9.693-10.281-9.498-3.843.195-9.692 5.796-12.452 10.533-3.819 6.545-6.209 16.552-6.08 27.635.017 1.465.045 5.629.145 7.035l3.901-.198c-.129-1.399-.17-5.562-.186-7.033-.171-14.656 5.402-26.868 12.424-27.224 7.02-.356 12.872 11.276 13.042 25.932a54.533 54.533 0 0 1-.12 4.328l6.244-.198c.067-1.416.095-2.862.078-4.326-.129-11.083-2.749-20.836-6.715-26.986"/><path d="M461.22 189.41c-.197-16.905-6.922-30.28-15.02-29.869-8.096.411-14.501 14.452-14.305 31.357.196 16.91 6.922 30.284 15.018 29.874 8.098-.411 14.503-14.452 14.307-31.362" fill="#424242" mask="url(#b)"/><path d="M446.83 213.3c-6.111.311-11.204-9.819-11.353-22.58-.148-12.758 4.704-23.389 10.814-23.699 6.111-.31 11.204 9.817 11.352 22.574.149 12.761-4.702 23.395-10.813 23.705" fill="#424242" mask="url(#b)"/><path d="M454.83 189.76c.02 1.684-.08 3.31-.288 4.85-.692 5.202-2.57 9.4-5.007 11.194-.769.567-1.597.898-2.456.942-.86.043-1.69-.203-2.473-.692-2.44-1.519-4.4-5.43-5.231-10.463a33.192 33.192 0 0 1-.434-5.024c-.02-1.762.092-3.459.317-5.064.719-5.153 2.605-9.281 5.035-11.025.753-.546 1.559-.863 2.399-.905s1.654.192 2.418.66c2.502 1.515 4.5 5.538 5.32 10.705.24 1.517.38 3.138.4 4.822" fill="#67676D" mask="url(#b)"/><path d="M446.57 189.79a32.413 32.413 0 0 1-.219 4.238c-.534 4.544-1.998 8.206-3.901 9.765-.601.493-1.247.779-1.92.814s-1.321-.184-1.934-.615c-1.911-1.336-3.448-4.763-4.105-9.165a32.427 32.427 0 0 1-.345-4.393c-.018-1.54.067-3.023.24-4.424.556-4.502 2.026-8.103 3.924-9.618.589-.474 1.219-.748 1.876-.782.656-.033 1.293.174 1.892.586 1.958 1.335 3.525 4.859 4.173 9.378.19 1.327.301 2.744.319 4.216" fill="#303035" mask="url(#b)"/><path d="M441.64 190.06a8.62 8.62 0 0 1-.073 1.234c-.177 1.323-.656 2.39-1.276 2.844a1.134 1.134 0 0 1-.626.238 1.071 1.071 0 0 1-.629-.177c-.622-.389-1.122-1.386-1.333-2.666a8.38 8.38 0 0 1-.11-1.28c-.006-.448.023-.88.08-1.288.184-1.31.664-2.359 1.283-2.801.192-.138.397-.218.612-.228.214-.011.421.05.615.169.638.388 1.146 1.413 1.355 2.728.061.386.097.799.102 1.227" fill="#303035" mask="url(#b)"/><path d="M466.14 182.29c-1.791-18.7-9.825-32.621-19.265-32.142-9.439.479-17.14 15.199-18.494 34.059a82.48 82.48 0 0 0-.206 6.926c.017 1.457.072 2.899.162 4.312l2.59-.131a72.764 72.764 0 0 1-.179-4.312c-.129-11.082 2.261-21.09 6.08-27.635 2.76-4.737 6.266-7.65 10.11-7.846 3.844-.194 7.413 2.36 10.281 6.811 3.965 6.15 6.586 15.903 6.715 26.986a74.43 74.43 0 0 1-.078 4.326l-1.949.098 4.538-.23c.057-1.421.079-2.868.062-4.325a81.456 81.456 0 0 0-.367-6.897" fill="#767777" mask="url(#b)"/><path d="M449.35 205.8c-.77.567-1.596.897-2.456.941s-1.69-.203-2.472-.691c-2.441-1.519-4.4-5.431-5.232-10.463a33.338 33.338 0 0 1-.433-5.025c-.02-1.762.091-3.458.316-5.063.719-5.154 2.605-9.282 5.036-11.026.753-.545 1.559-.861 2.399-.904.84-.042 1.653.191 2.417.66 2.502 1.515 4.5 5.537 5.32 10.705.24 1.517.38 3.137.4 4.821a33.358 33.358 0 0 1-.288 4.851c-.693 5.201-2.57 9.399-5.007 11.194m-3.026-35.636c-5.283.268-9.475 9.457-9.347 20.484.129 11.03 4.53 19.785 9.811 19.516 5.283-.267 9.476-9.459 9.347-20.488-.128-11.027-4.529-19.779-9.811-19.512" fill="#BBBCBE" mask="url(#b)"/><path fill="#424242" mask="url(#b)" d="M117.76 142.31h87.32v-7.55h-87.32z"/><path fill="#767777" mask="url(#b)" d="M204.17 138.54h280.62v-17.66H204.17z"/><path fill="#EF833B" mask="url(#b)" d="M109.97 120.88v13.88h-.83v7.55h87.31v-21.43z"/><path fill="#21211F" mask="url(#b)" d="M204.17 142.31h284.52v-7.55H204.17z"/><path fill="#424242" mask="url(#b)" d="M246.21 149.24h-64.47l-5.52 13.44h73.21z"/><path d="M34.573 159.55c-8.097.411-14.502 14.452-14.306 31.357.198 16.911 6.922 30.285 15.019 29.874h14.683l-8.413-38.713-6.983-22.518z" fill="#21211F" mask="url(#b)"/><path d="M66.149 189.41c-.196-16.905-6.921-30.28-15.019-29.869-8.096.411-14.502 14.452-14.305 31.357.196 16.91 6.922 30.284 15.018 29.874 8.098-.411 14.503-14.452 14.306-31.362" fill="#21211F" mask="url(#b)"/><path d="M125.94 159.55c-8.097.411-14.502 14.452-14.306 31.357.197 16.911 6.922 30.285 15.019 29.874h14.683l-8.413-38.713-6.983-22.518z" fill="#424242" mask="url(#b)"/><path d="M155.64 189.41c-.197-16.905-6.922-30.28-15.019-29.869s-14.502 14.452-14.306 31.357c.197 16.91 6.922 30.284 15.018 29.874 8.098-.411 14.503-14.452 14.307-31.362" fill="#424242" mask="url(#b)"/><path d="M242.42 159.55c-8.098.411-14.503 14.452-14.307 31.357.198 16.911 6.922 30.285 15.019 29.874h14.007L242.42 159.55z" fill="#21211F" mask="url(#b)"/><path d="M195.56 173.25c0 1.202.983 2.187 2.187 2.187h4.516a2.195 2.195 0 0 0 2.187-2.187v-19.596a2.193 2.193 0 0 0-2.187-2.186h-4.516a2.192 2.192 0 0 0-2.187 2.186v19.596z" fill="#424242" mask="url(#b)"/><path d="M7.67 167.53a2.488 2.488 0 0 0-2.481 2.481v29.365a2.488 2.488 0 0 0 2.48 2.481H158.5a2.49 2.49 0 0 0 2.483-2.481v-29.365a2.489 2.489 0 0 0-2.482-2.481H7.67z" fill="#21211F" mask="url(#b)"/><path d="M185.05 58.93v-46.2H62.95S18.77 14.9 18.791 44.04c.013 17.568 16.837 20.89 16.837 20.89l149.42-6z" fill="#EF833B" mask="url(#b)"/><path d="M129.19 43.931l12.493 119.02H9.023L5.317 158.1c-.003-2.338-.013-3.998-.013-11.146 0-7.196.296-15.648.859-24.544.042-.665 2.898.544 2.943-.121l6.832-46.944-5.104-6.147c1.3-13.76 6.087-21.897 9.971-22.864 11.315-2.815 70.338-2.399 108.38-2.399" fill="#EF833B" mask="url(#b)"/><path d="M138.81 79.532l-5.259 45.52H5.971c.043-.666.086-1.332.133-1.997l1.249-14.108 1.921-21.655.824-9.305.004-.027h2.108c.644 0 1.003-.376.828 1.572h125.77z" fill="#333332" mask="url(#b)"/><path d="M139.01 76.889l-5.259 45.52H6.171c.043-.666.086-1.331.133-1.996l1.249-14.109L9.474 84.65l.824-9.306.004-.026h2.107c.645 0 1.004-.377.829 1.571h125.77z" fill="#6599A1" mask="url(#b)"/><path d="M40.806 76.889c-3.943 9.266-13.629 32.404-19.114 45.52H6.169c.043-.666.086-1.331.133-1.996l1.249-14.109L9.472 84.65l.824-9.306.004-.026h2.108c.644 0 1.003-.377.828 1.571h27.57z" fill="#FCFCFC" mask="url(#b)" opacity=".313"/><path d="M136.15 76.889l-.196 7.761H9.474l.824-9.306.004-.026h2.108c.644 0 1.004-.377.828 1.571h122.91z" fill="#2C170F" mask="url(#b)"/><path d="M142.14 60.59v2.016l-5.446 5.247-2.359 10.078H6.265c.668-7.082 2.283-13.653 2.982-18.86 0 2.123 132.89 1.519 132.89 1.519" fill="#21211F" mask="url(#b)"/><path fill="#333332" mask="url(#b)" d="M132.54 162.89h12.92l4.49-4.81H5.41v4.81h16.097z"/><path d="M5.418 162.84a2.488 2.488 0 0 0-2.48 2.481v29.365a2.488 2.488 0 0 0 2.48 2.481h123.44a2.488 2.488 0 0 0 2.482-2.481v-29.365a2.489 2.489 0 0 0-2.482-2.481H5.418z" fill="#434C54" mask="url(#b)"/><path d="M4.41 169.83a2.488 2.488 0 0 0-2.482 2.481v9.891a2.489 2.489 0 0 0 2.481 2.482h9.054a2.49 2.49 0 0 0 2.481-2.482v-9.891a2.488 2.488 0 0 0-2.48-2.481H4.408z" fill="#F3F7FB" mask="url(#b)"/><path d="M185.05 42.919v24.934H7.54c1.558-16.508 1.269-24.934 8.132-24.934 14.398 0 123.74-.007 169.37 0" fill="#FCD402" mask="url(#b)"/><path d="M188.57 58.93v-46.2h-2.715s-44.181 2.17-44.16 31.31c.014 17.568 16.838 20.89 16.838 20.89l30.037-6z" fill="#F69857" mask="url(#b)"/><path d="M188.57 32.167l-.001 24.933h-48.471c1.558-16.508 1.268-24.933 8.13-24.933h40.342z" fill="#F69857" mask="url(#b)"/><path d="M175.25 145.8h13.319V44.04l-13.319-.001v101.76z" fill="#F69857" mask="url(#b)"/><path fill="#FEFEFE" mask="url(#b)" d="M136.55 155.35h10.29v-13.02h-10.29z"/><path fill="#454F58" mask="url(#b)" d="M266.63 149.24h-31.57l-5.33 13.44h-99.41l3.32 31.8h136.2v-31.8z"/><path fill="#333332" mask="url(#b)" d="M222.51 189.5h6.15l1.6-7.44v-19.38h-7.75z"/><path d="M180.4 62.602v-2.016s-48.424.607-48.258-1.524c-.698 5.209-2.313 11.787-2.981 18.868h9.952l2.358-10.079 38.929-5.249z" fill="#21211F" mask="url(#b)"/><path d="M134.88 164.89v-27.288c0-2.185.088-5.755.195-7.937l2.842-57.847c.107-2.181 1.982-3.965 4.165-3.965h33.565c2.183 0 3.995 1.786 4.026 3.97l1.281 90.338" fill="#EF833B" mask="url(#b)"/><path d="M153.95 75.314a3.982 3.982 0 0 1 3.971 3.97v28.079c0 2.183-1.679 4.583-3.73 5.331l-7.234 2.64-6.285 2.291c-1.407.512-2.401-.849-2.21-3.025l1.388-15.881.693-7.91 1.01-11.54c.19-2.176 2.132-3.955 4.316-3.955h8.081z" fill="#5A2B15" mask="url(#b)"/><path d="M153.95 75.314a3.982 3.982 0 0 1 3.971 3.97v28.079c0 2.183-1.679 4.583-3.73 5.331l-7.234 2.64-6.285 2.291c-1.407.512-2.401-.849-2.21-3.025l1.388-15.881.693-7.91 1.01-11.54c.19-2.176 2.132-3.955 4.316-3.955h8.081z" mask="url(#b)" stroke="#F5C17D" stroke-width=".5"/><path d="M160.98 67.852v77.949" mask="url(#b)" stroke="#5A2B12"/><path d="M162.11 143.11c-5.379 0-10.457 4.327-14.302 12.189-1.112 2.275-2.085 4.777-2.907 7.464h2.406a44.276 44.276 0 0 1 1.887-4.514c3.472-7.098 8.059-12.349 12.916-12.349h26.462v-2.79H162.11z" fill="#333332" mask="url(#b)"/><path fill="#333332" mask="url(#b)" d="M170.8 162.89h12.92v-10.42l-25.48 7.07-8.29-1.46h-21.64v4.81h16.09z"/></g><path d="M273.68 330.25h-18.935c-5.165 0-9.849 4.313-13.267 11.308-2.645 5.413-4.534 12.43-5.306 20.299l33.786-14.733 3.075.064c2.26.047 1.304.094 3.565.14V330.25h-2.918z"/><path fill="#333332" d="M361.84 371.051v7.88H245.32l-24.59-7.88z"/><path d="M273.22 367.691c-.656-7.808-2.396-14.849-4.89-20.405h-7.364c3.818 4.045 6.676 11.482 7.66 20.405.248 2.224.376 4.535.376 6.913 0 .947-.018 1.881-.064 2.809a46.662 46.662 0 0 1-.083 1.511h4.539c.019-.37.035-.739.052-1.115a87 87 0 0 0 .061-3.205c0-2.358-.097-4.67-.287-6.913" fill="#333332"/><path d="M214.8 346.051a2.488 2.488 0 0 0-2.481 2.481v30.596a2.489 2.489 0 0 0 2.481 2.482h32.959a2.489 2.489 0 0 0 2.481-2.482v-30.596a2.488 2.488 0 0 0-2.481-2.481H214.8z" fill="#434C54"/><path d="M233.86 377.071c0 1.132.024 2.264.064 3.374.018.396.035 1.457.055 1.846h43.692c-.011-.158 0-4.491 0-4.491s-4.84-9.123-8.233-30.828h-30.451c-2.624 5.849-4.135 14.604-4.825 22.822a86.363 86.363 0 0 0-.302 7.277" fill="#333332"/><path d="M219.3 354.281a2.488 2.488 0 0 0-2.481 2.481v9.891a2.49 2.49 0 0 0 2.481 2.482h1.559a2.489 2.489 0 0 0 2.481-2.482v-9.891a2.488 2.488 0 0 0-2.481-2.481H219.3z" fill="#E2E4E1"/><path d="M361.83 346.781c-2.867-4.451-6.437-9.692-10.28-9.498-3.844.195-9.693 5.796-12.453 10.533-3.819 6.545-6.209 16.552-6.08 27.635.017 1.465.045 5.629.145 7.035l3.902-.198c-.129-1.399-.171-5.562-.187-7.033-.171-14.656 5.402-26.868 12.424-27.224 7.021-.356 12.872 11.276 13.043 25.932a55.007 55.007 0 0 1-.121 4.328l6.244-.198a74.42 74.42 0 0 0 .079-4.326c-.13-11.083-2.75-20.836-6.716-26.986" fill="#21211F"/><path d="M365.06 373.861c-.197-16.905-6.922-30.28-15.02-29.869-8.096.411-14.501 14.452-14.305 31.357.196 16.91 6.922 30.284 15.018 29.874 8.098-.411 14.503-14.452 14.307-31.362" fill="#333332"/><path d="M350.66 397.751c-6.111.311-11.204-9.819-11.353-22.58-.148-12.758 4.704-23.389 10.814-23.699 6.111-.31 11.204 9.817 11.352 22.574.149 12.761-4.702 23.395-10.813 23.705" fill="#444856"/><path d="M350.63 394.611c-5.281.269-9.683-8.487-9.812-19.517-.127-11.026 4.065-20.214 9.347-20.483 5.282-.268 9.684 8.485 9.812 19.512.129 11.029-4.065 20.22-9.347 20.488" fill="#E2E9F6"/><path d="M358.48 374.201a33.361 33.361 0 0 1-.287 4.851c-.692 5.201-2.571 9.399-5.008 11.193-.769.568-1.596.898-2.456.942s-1.69-.203-2.472-.692c-2.441-1.518-4.4-5.43-5.232-10.462a33.338 33.338 0 0 1-.433-5.025c-.02-1.761.091-3.458.316-5.063.719-5.154 2.605-9.282 5.036-11.026.753-.546 1.559-.862 2.399-.905.84-.042 1.653.192 2.417.661 2.502 1.515 4.5 5.537 5.32 10.705.24 1.517.38 3.137.4 4.821" fill="#A8AEB3"/><path d="M352.89 358.801c-.479 1.74-1.477 2.853-2.505 2.905-1.025.052-1.832-1.165-2.314-2.905.759-.507 1.569-.782 2.409-.782.841 0 1.65.275 2.41.782M353.19 390.251c-.77.568-1.596.898-2.456.942s-1.69-.203-2.472-.692c.444-1.883 1.357-3.191 2.426-3.245 1.069-.055 2.016 1.159 2.502 2.995M358.48 374.201a33.361 33.361 0 0 1-.287 4.851c-.762-1.005-1.275-2.755-1.298-4.77s.448-3.822 1.185-4.902c.24 1.517.38 3.137.4 4.821M344.38 374.921c.024 2.156-.521 4.073-1.349 5.116a33.33 33.33 0 0 1-.432-5.025 33.775 33.775 0 0 1 .315-5.063c.852.957 1.441 2.81 1.466 4.972" fill="#444856"/><path d="M357.85 374.361a20.221 20.221 0 0 1-.175 2.938c-.419 3.152-1.557 5.696-3.033 6.783-.467.343-.968.544-1.488.57-.522.027-1.025-.122-1.498-.419-1.48-.92-2.666-3.29-3.17-6.339a20.246 20.246 0 0 1-.263-3.045 20.51 20.51 0 0 1 .191-3.067c.437-3.123 1.58-5.624 3.052-6.681.456-.331.945-.522 1.453-.548.509-.025 1.002.117 1.465.4 1.516.918 2.727 3.355 3.223 6.486.145.919.231 1.901.243 2.922" fill="#E2E9F6"/><path d="M355.06 374.511a8.62 8.62 0 0 1-.073 1.234c-.177 1.323-.656 2.39-1.276 2.844a1.137 1.137 0 0 1-.626.238 1.071 1.071 0 0 1-.629-.177c-.623-.389-1.122-1.386-1.333-2.666a8.38 8.38 0 0 1-.11-1.28c-.006-.448.023-.88.08-1.288.184-1.31.664-2.359 1.283-2.801.192-.138.397-.218.612-.228.214-.011.421.05.615.169.638.388 1.146 1.413 1.355 2.728.061.386.097.799.102 1.227" fill="#444856"/><path d="M358.08 369.381c-.819-5.168-2.817-9.189-5.319-10.705-.765-.469-1.577-.702-2.417-.66-.84.043-1.647.358-2.4.904-2.43 1.744-4.316 5.872-5.036 11.026a33.775 33.775 0 0 0-.315 5.063v.007l1.484-.075v-.007c-.017-1.43.071-2.817.256-4.116.585-4.195 2.119-7.55 4.094-8.969.613-.447 1.271-.698 1.953-.734.684-.034 1.345.151 1.967.535 2.033 1.229 3.657 4.502 4.324 8.705a27.19 27.19 0 0 1 .325 3.923v.007l1.484-.075v-.008a33.38 33.38 0 0 0-.4-4.821" fill="#444856"/><path d="M280.57 227.367h-49.994c-6.864 0-6.572 8.427-8.129 24.936h58.123v-24.936z" fill="#F69857"/><path d="M368.1 366.741c-1.791-18.7-9.824-32.621-19.265-32.142-9.439.479-17.139 15.199-18.494 34.059a82.48 82.48 0 0 0-.206 6.926c.017 1.457.072 2.899.163 4.312l2.589-.131a72.764 72.764 0 0 1-.179-4.312c-.129-11.082 2.262-21.09 6.08-27.635 2.76-4.737 6.267-7.65 10.11-7.846 3.844-.194 7.413 2.36 10.281 6.811 3.966 6.15 6.586 15.903 6.715 26.986a72.696 72.696 0 0 1-.078 4.326l-1.949.098 4.538-.23c.057-1.421.079-2.868.062-4.325a81.456 81.456 0 0 0-.367-6.897" fill="#767777"/><path d="M202.75 354.281a2.488 2.488 0 0 0-2.481 2.481v9.891a2.489 2.489 0 0 0 2.481 2.482h12.958a2.49 2.49 0 0 0 2.481-2.482v-9.891a2.488 2.488 0 0 0-2.481-2.481H202.75z" fill="#F3F7FB"/><path d="M115.788 355.521c-1.804 0-3.064 1.46-2.801 3.245l1.295 8.765c.265 1.785 1.956 3.245 3.76 3.245h71.89c1.803 0 3.496-1.46 3.759-3.245l1.295-8.765c.264-1.785-.996-3.245-2.8-3.245h-76.398zM113.137 322.145c-1.805 0-3.048 1.458-2.764 3.239l1.62 10.155c.285 1.781 1.994 3.239 3.798 3.239h78.35c1.805 0 3.494-1.461 3.755-3.246l1.482-10.141c.261-1.785-1.002-3.246-2.805-3.246h-83.436z" fill="#333332"/><path fill="#757574" d="M129.594 252.303l-5.712 10.078h-14.144l5.551-10.078z"/><path d="M289.19 375.371c0 .562-.459 1.021-1.021 1.021h-6.855a1.023 1.023 0 0 1-1.021-1.021V340.66c0-.561.459-1.02 1.021-1.02h6.855c.562 0 1.021.459 1.021 1.02v34.711zM316.53 375.371c0 .562-.459 1.021-1.021 1.021h-6.855a1.023 1.023 0 0 1-1.021-1.021V340.66c0-.561.459-1.02 1.021-1.02h6.855c.562 0 1.021.459 1.021 1.02v34.711z" fill="#333332"/><path d="M319.64 370.051a4.116 4.116 0 0 1-4.104 4.104h-32.704a4.117 4.117 0 0 1-4.104-4.104v-27.608a4.117 4.117 0 0 1 4.104-4.105h32.704a4.117 4.117 0 0 1 4.104 4.105v27.608z" fill="#93929C"/><path d="M289.65 349.631a1.79 1.79 0 0 1-1.787-1.787v-5.4a1.79 1.79 0 0 1 1.787-1.788h25.892a1.79 1.79 0 0 1 1.787 1.788v5.4c0 .969-.819 1.787-1.787 1.787H289.65z" fill="#DFDFDE"/><path d="M319.64 364.181v4.03c0 3.272-1.117 5.947-2.483 5.947h-35.943c-1.366 0-2.486-2.675-2.486-5.947v-4.03c0 3.271 1.12 5.945 2.486 5.945h35.943c1.366 0 2.483-2.674 2.483-5.945" fill="#7F7F89"/><path d="M285.5 370.091a4.116 4.116 0 0 1-4.104 4.104h-3.5a4.117 4.117 0 0 1-4.104-4.104v-27.608a4.117 4.117 0 0 1 4.104-4.105h3.5a4.117 4.117 0 0 1 4.104 4.105v27.608z" fill="#DFDFDE"/><path d="M272.08 368.031c.321 1.775 2.06 3.228 3.863 3.228h2.33c1.804 0 3.281-1.068 3.281-2.373V350.57a3.29 3.29 0 0 0-3.281-3.28h-6.659c-1.805 0-3.018 1.453-2.697 3.228l3.163 17.513z" fill="#21211F"/><path d="M277.05 227.37v24.934H99.54c.504-5.322.817-9.803 1.234-13.438.882-7.626 2.249-11.496 6.898-11.496h169.37z" fill="#EF833B"/><path d="M233.67 227.37c-3.97 0-5.547 2.82-6.472 8.394-.158.953-.711 3.102-2.115 3.102h-124.3c.883-7.626 2.249-11.496 6.899-11.496h125.99z" fill="#F5C17D"/><path d="M368.47 365.521a3.289 3.289 0 0 0 3.28 3.28h10.815c1.803 0 3.279-1.18 3.279-2.624v-35.613a3.29 3.29 0 0 0-3.279-3.28H371.75a3.29 3.29 0 0 0-3.28 3.28v34.957zM269.21 346.781c-2.868-4.451-6.437-9.692-10.281-9.498-3.844.195-9.693 5.796-12.453 10.533-3.818 6.545-6.208 16.552-6.079 27.635.016 1.465.044 5.629.145 7.035l3.901-.198c-.129-1.399-.17-5.562-.187-7.033-.171-14.656 5.403-26.868 12.424-27.224s12.872 11.276 13.043 25.932a55.5 55.5 0 0 1-.12 4.328l6.244-.198c.066-1.416.094-2.862.078-4.326-.129-11.083-2.75-20.836-6.715-26.986" fill="#21211F"/><path d="M265.86 374.201c.02 1.685-.08 3.311-.288 4.851-.692 5.201-2.571 9.399-5.007 11.193-.769.568-1.597.898-2.457.942-.859.044-1.689-.203-2.472-.692-2.441-1.518-4.4-5.43-5.231-10.462a33.206 33.206 0 0 1-.434-5.025c-.02-1.761.092-3.458.316-5.063.72-5.154 2.606-9.282 5.036-11.026.753-.546 1.559-.862 2.399-.905.84-.042 1.654.192 2.418.661 2.502 1.515 4.499 5.537 5.32 10.705a33.64 33.64 0 0 1 .4 4.821" fill="#A8AEB3"/><path d="M260.27 358.801c-.479 1.74-1.476 2.853-2.505 2.905-1.025.052-1.831-1.165-2.313-2.905.758-.507 1.569-.782 2.409-.782s1.649.275 2.409.782M260.57 390.251c-.77.568-1.597.898-2.457.942-.859.044-1.689-.203-2.472-.692.445-1.883 1.358-3.191 2.427-3.245 1.068-.055 2.015 1.159 2.502 2.995M265.86 374.201c.02 1.685-.08 3.311-.288 4.851-.761-1.005-1.274-2.755-1.298-4.77-.023-2.015.448-3.822 1.186-4.902a33.64 33.64 0 0 1 .4 4.821M251.75 374.921c.025 2.156-.52 4.073-1.348 5.116a33.197 33.197 0 0 1-.433-5.025 33.908 33.908 0 0 1 .315-5.063c.852.957 1.441 2.81 1.466 4.972" fill="#444856"/><path d="M265.23 374.361a20.224 20.224 0 0 1-.174 2.938c-.42 3.152-1.557 5.696-3.034 6.783-.466.343-.967.544-1.488.57-.522.027-1.024-.122-1.498-.419-1.479-.92-2.666-3.29-3.17-6.339a20.12 20.12 0 0 1-.262-3.045 20.378 20.378 0 0 1 .191-3.067c.436-3.123 1.579-5.624 3.051-6.681.456-.331.946-.522 1.454-.548.509-.025 1.001.117 1.465.4 1.516.918 2.726 3.355 3.223 6.486.145.919.23 1.901.242 2.922" fill="#E2E9F6"/><path d="M262.44 374.511c.006.429-.02.843-.073 1.234-.176 1.323-.655 2.39-1.276 2.844a1.131 1.131 0 0 1-.625.238 1.074 1.074 0 0 1-.63-.177c-.622-.389-1.121-1.386-1.333-2.666a8.769 8.769 0 0 1-.03-2.568c.184-1.31.664-2.359 1.283-2.801.192-.138.398-.218.612-.228.214-.011.421.05.616.169.637.388 1.145 1.413 1.354 2.728.062.386.097.799.102 1.227" fill="#444856"/><path d="M265.46 369.381c-.82-5.168-2.817-9.189-5.319-10.705-.765-.469-1.578-.702-2.418-.66-.84.043-1.647.358-2.4.904-2.429 1.744-4.315 5.872-5.036 11.026a33.908 33.908 0 0 0-.315 5.063v.007l1.484-.075v-.007c-.017-1.43.072-2.817.256-4.116.586-4.195 2.119-7.55 4.095-8.969.612-.447 1.27-.698 1.952-.734.684-.034 1.345.151 1.968.535 2.032 1.229 3.657 4.502 4.323 8.705a27.33 27.33 0 0 1 .326 3.923v.007l1.484-.075v-.008a33.522 33.522 0 0 0-.4-4.821" fill="#444856"/><path d="M275.48 366.741c-1.791-18.7-9.825-32.621-19.265-32.142s-17.14 15.199-18.495 34.059a82.907 82.907 0 0 0-.043 11.238l2.589-.131a74.508 74.508 0 0 1-.179-4.312c-.128-11.082 2.262-21.09 6.081-27.635 2.76-4.737 6.266-7.65 10.11-7.846 3.843-.194 7.413 2.36 10.28 6.811 3.966 6.15 6.586 15.903 6.716 26.986a73.544 73.544 0 0 1-.079 4.326l-1.948.098 4.538-.23a83.721 83.721 0 0 0-.305-11.222" fill="#767777"/><path d="M151.186 306.86h37.456c5.486-13.115 12.669-28.34 16.612-37.606 0 0-37.872-.364-38.027 0-4.185 9.859-10.75 24.958-16.04 37.606z" fill="#FCFCFC" opacity=".313"/><path d="M263.27 262.493a3.983 3.983 0 0 1 3.971 3.971v16.76c0 2.184-1.682 4.575-3.738 5.312l-.545.196c-2.054.739-4.22 1.516-4.813 1.728-.592.213-1.076-1.401-1.076-3.584v-20.412a3.982 3.982 0 0 1 3.971-3.971h2.23z" fill="#5A2B15"/><path d="M263.27 262.493a3.983 3.983 0 0 1 3.971 3.971v16.76c0 2.184-1.682 4.575-3.738 5.312l-.545.196c-2.054.739-4.22 1.516-4.813 1.728-.592.213-1.076-1.401-1.076-3.584v-20.412a3.982 3.982 0 0 1 3.971-3.971h2.23z" stroke="#F5C17D" stroke-width=".5"/><path d="M285.5 338.381s5.787 10.472 2.13 35.817l2.539.023s4.439-22.241-2.118-35.875c-3.69 0-2.551.035-2.551.035M310.76 338.151s8.563 12.485 2.401 36.065c3.407.071 3.083-.06 3.083-.06s5-21.333-2.552-35.842c-3.69 0-2.932-.163-2.932-.163" fill="#21211F"/><path d="M241.66 252.303h-12.969s-3.51 78.659-3.623 90.23h2.305s2.928-74.142 5.268-83.42c1.028-4.072 5.87-5.465 9.154-5.465.302-2.384-.135-1.345-.135-1.345" fill="#F69857"/><path d="M243.49 292.536c0 2.75-2.25 5-5 5h-5.197c-2.75 0-5-2.25-5-5v-21.51c0-2.75 2.25-5 5-5h5.197c2.75 0 5 2.25 5 5v21.51zM243.49 309.928c0 2.75-2.25 5-5 5h-5.197c-2.75 0-5-2.25-5-5v-5.755c0-2.75 2.25-5 5-5h5.197c2.75 0 5 2.25 5 5v5.755z" fill="#21211F"/><path d="M226.88 263.215h6.692c1.65 0 3 1.35 3 3v38.002" stroke="#21211F" stroke-width="2"/><path d="M238.13 252.303h32.568l-1.613 3.046s-1.085-1.306-3.624-1.701c-11.893-1.853-24.658 0-24.658 0l-2.673-1.345z" fill="#F69857"/><g transform="translate(470 421.451)"><mask id="d" fill="#fff"><use xlink:href="#c"/></mask><path d="M3.333.4h77.269a2.38 2.38 0 0 1 2.373 2.372v2.77c0 .278-.058.541-.147.79h69.663c1.306 0 2.373 1.05 2.373 2.334S153.797 11 152.49 11H27.76c-1.306 0-2.373-1.05-2.373-2.334 0-.264.054-.514.137-.75H3.335A2.381 2.381 0 0 1 .963 5.541v-2.77A2.38 2.38 0 0 1 3.336.4" fill="#767777" mask="url(#d)"/></g><path d="M625.97 418.511s-4.844-6.171-4.726-5.814c.12.355-5.814 7.712-5.814 7.712l2.967 3.478 7.573-5.376z" fill="#332216"/><path d="M549.75 423.051h15.289a3.913 3.913 0 0 1 3.901 3.902v4.171h-23.092v-4.171a3.914 3.914 0 0 1 3.902-3.902" fill="#4F352F"/><path d="M550.21 431.131h-4.358v-4.171a3.913 3.913 0 0 1 3.902-3.902h15.289c1.339 0 2.525.684 3.229 1.719h-14.436c-3.824 0-3.626 1.105-3.626 2.255v4.099z" fill="#332216"/><path d="M610.73 422.991h7.739s4.641-4.401 6.428-5.279c.679-.334 2.193.533 3.222 2.472l2.355 5.015-8.777 5.865h-14.869v-4.171a3.914 3.914 0 0 1 3.902-3.902" fill="#4F352F"/><path d="M611.19 431.071h-4.358V426.9a3.913 3.913 0 0 1 3.902-3.902h7.735c1.339 0-7.279.78-7.279 3.973v4.1z" fill="#332216"/><path fill="#332216" d="M630.48 425.201l-8.8 5.86h-14.85v-2.61h14.37l8.26-5.42zM545.85 431.071h23.09v-2.62h-23.09z"/><path d="M549.25 374.651a5.491 5.491 0 1 0-10.982 0 5.491 5.491 0 0 0 10.982 0" fill="#F09A97"/><path d="M515.9 365.621h12.532c11.824 0 21.41 13.712 21.41 30.626s-9.586 30.626-21.41 30.626H517.81l-7.439-33.989 5.529-27.263z" fill="#21211F"/><path d="M539.54 396.241c0-16.914-9.586-30.626-21.41-30.626s-21.409 13.712-21.409 30.626 9.585 30.626 21.409 30.626 21.41-13.712 21.41-30.626" fill="#424242"/><path d="M530.54 396.241c0-9.809-5.559-17.76-12.416-17.76-6.856 0-12.415 7.951-12.415 17.76s5.559 17.76 12.415 17.76c6.857 0 12.416-7.951 12.416-17.76" fill="#F2F2F2"/><path d="M528.68 396.241c0-8.336-4.724-15.094-10.552-15.094-5.827 0-10.551 6.758-10.551 15.094s4.724 15.094 10.551 15.094c5.828 0 10.552-6.758 10.552-15.094" fill="#48484F"/><path fill="#F2F2F2" d="M528.83 392.041l-2.76-6.82-7.37 9.7.57 1.41z"/><path fill="#F2F2F2" d="M528.87 400.341l-9.57-4.25-.57 1.41 7.38 9.67zM520.84 411.851l-2.33-14.62h-.63l-2.25 14.62zM517.63 397.571l-.57-1.41-9.5 4.28 2.75 6.82z"/><path fill="#F2F2F2" d="M517.61 394.981l-7.36-9.65-2.73 6.81 9.52 4.25zM518.46 395.251l2.3-14.61h-5.21l2.27 14.61z"/><path d="M525.17 396.241c0-7.064-4.004-12.792-8.942-12.792-4.939 0-8.942 5.728-8.942 12.792s4.003 12.791 8.942 12.791c4.938 0 8.942-5.727 8.942-12.791" fill="#F2F2F2"/><path d="M523.3 396.241c0-5.59-3.168-10.12-7.075-10.12s-7.074 4.53-7.074 10.12c0 5.589 3.167 10.12 7.074 10.12s7.075-4.531 7.075-10.12" fill="#46464D"/><path d="M529.49 367.121a5.492 5.492 0 1 0-10.984 0 5.492 5.492 0 0 0 10.984 0" fill="#F09A97"/><path d="M531.7 365.331a4.573 4.573 0 1 0-9.146 0 4.573 4.573 0 0 0 9.146 0" fill="#F2F2F2"/><path d="M552.05 371.761a4.573 4.573 0 1 0-9.146 0 4.573 4.573 0 0 0 9.146 0" fill="#C5C4CE"/><path d="M546.52 305.639l11.257 12.401a4.67 4.67 0 0 1 .402 5.76 4.655 4.655 0 0 1-4.491-1.411l-11.256-12.401a4.667 4.667 0 0 1-.401-5.762 4.666 4.666 0 0 1 4.489 1.413" fill="#F1AA9B"/><path d="M545.73 295.827l2.69 6.362c3.357 5.452 4.022 12.388-1.43 15.745s-11.72 3.241-15.806-1.832l-5.888-9.237 20.434-11.038z" fill="#F9B087"/><path d="M531.08 316.407l-5.959-9.35 3.419-1.846a9.423 9.423 0 0 1 1.199 1.622c1.789 3.036 4.718 8.456 7.978 10.798 3.259 2.341 9.006.542 10.71-.951a11.749 11.749 0 0 1-2.399 1.956c-5.518 3.397-10.812 2.905-14.948-2.229" fill="#E4785D"/><path d="M531.49 293.228c-4.764 2.066-7.289 6.907-8.811 9.759-.683 1.282-1.698 2.223-1.698 2.223 1.69 2.641 4.207 2.229 4.207 2.229s1.723-1.345 3.009-1.822c7.215-2.678 7.482 2.371 8.941 3.917 2.667 2.823 12.967 4.465 14.1 1.139 1.407-4.132-1.096-8.524-1.096-8.524l-2.501-4.614c-2.89-5.581-9.673-7.116-16.151-4.307" fill="#8E3A25"/><path d="M534.55 295.602c3.938-1.708 7.983-1.801 11.204-.365a10.437 10.437 0 0 1 1.626 2.298l2.501 4.614s2.502 4.392 1.095 8.524c-.872 2.56-7.174 2.175-11.246.575-.818-1.393-1.534-3.666-4.203-3.988-1.045-1.764-2.76-3.437-7.592-1.643-1.286.477-3.009 1.822-3.009 1.822s-.293.045-.742.005c.3-.304 1.024-1.088 1.555-2.084 1.523-2.852 4.048-7.693 8.811-9.758" fill="#8E3A25"/><path d="M532.12 316.651c-.678 1.051-2.545 1.835-2.642.457l-.242-5.258 2.884 4.801z" fill="#E4785D"/><path d="M546.65 319.725c-.136 4.026 3.281 7.291 7.63 7.291s7.985-3.265 8.12-7.291c.135-4.027-3.281-7.292-7.63-7.292s-7.985 3.265-8.12 7.292" fill="#F2F2F2"/><path d="M549.03 375.431a4.739 4.739 0 0 0 1.748-.528c24.511-12.951 15.789-50.986 15.405-52.598a4.747 4.747 0 0 0-9.236 2.192c.111.478 7.367 32.516-10.605 42.013a4.747 4.747 0 0 0 2.688 8.921" fill="#D66727"/><path d="M591.57 367.121c3.348 0 6.707-1.174 9.414-3.562 5.898-5.202 6.462-14.2 1.26-20.097-.691-.783-17.135-19.275-37.37-29.114-7.073-3.439-15.594-.495-19.033 6.578-3.439 7.072-.494 15.593 6.579 19.032 14.921 7.257 28.335 22.193 28.466 22.343a14.21 14.21 0 0 0 10.684 4.82" fill="#EF833B"/><path d="M569.4 423.881c0-11.896 3.125-29.288 4.084-34.35l20.667-28.77a6.882 6.882 0 0 0-1.575-9.606c-3.086-2.217-8.515-1.981-10.734 1.106l-20.418 30.466a6.912 6.912 0 0 0-1.156 2.653c-.188.938-4.633 22.184-4.633 37.552l13.765.949z" fill="#434C54"/><path d="M528.74 368.981c.597 0 1.204-.113 1.791-.353 10.649-4.344 18.075-13.318 21.477-25.949 2.472-9.185 1.941-17.123 1.918-17.457a4.75 4.75 0 0 0-5.074-4.395 4.745 4.745 0 0 0-4.396 5.064c.023.37 1.492 26.194-17.511 33.947a4.747 4.747 0 0 0 1.795 9.143" fill="#EF833B"/><path d="M614.61 424.581c-8.679-10.07-20.236-28.855-20.785-29.731a6.886 6.886 0 0 1-1.039-3.279l-1.698-37.616c-.207-3.795 3.927-7.167 7.722-7.374 3.8-.21 6.701 2.452 6.907 6.248l.715 36.202c3.12 4.899 11.87 18.75 18.605 26.565l-10.427 8.985z" fill="#434C54"/><path d="M617.98 421.671l-3.37 2.904c-8.679-10.07-20.236-28.855-20.785-29.731a6.879 6.879 0 0 1-1.039-3.278l-1.215-24.448c2.165-.757 2.895-.445 3.909-2.237 0 0-1.146 20.053-.222 26.334.879 5.97 20.621 28.084 22.722 30.456" fill="#21211F"/><g fill="#D44726"><path d="M578.587 357.121l.261-.388-.261.388M578.556 357.168c.011-.017.021-.031.03-.047l-.03.047M578.848 356.733c.069-.104.051-.076 0 0"/><path d="M525.92 367.711c23.108-7.133 25.119-37.477 25.119-37.477l2.954 7.872c10.129 4.994 18.636 12.944 22.434 16.806 6.368-8.953 10.726-10.245 19.72-10.014 1.595.041 6.368-1.272 6.935-.392.902 1.401.787 1.924 1.189 1.935.5.985.874 2.014 1.13 3.063-.484-.048-1.296-3.567-2.503-3.567-1.838 0-3.38.445-4.994.404-9.021-.234-13.82 2.644-19.38 10.791l.032.036-1.071 1.599c-4.898-4.867-14.49-13.603-24.841-18.696a54.335 54.335 0 0 1-.632 2.608c-3.402 12.631-10.827 21.604-21.477 25.949a4.742 4.742 0 0 1-1.791.353 4.76 4.76 0 0 1-3.122-1.175l.299-.095"/></g><path d="M589.26 367.171l3.058-4.256s3.255.511 5.77-1.271l-3.122 4.133-.904 2.149-4.802-.755z" fill="#21211F"/><path d="M539.9 307.918c.471 1.967-.652 3.92-2.507 4.362-1.855.444-3.741-.792-4.211-2.758s.653-3.919 2.508-4.363c1.855-.442 3.74.793 4.21 2.759" fill="#F9B087"/><path fill="#342F3A" d="M285.73 404.621h10.61v-6.29h-10.61zM286.07 381.771h11.8v-4.45h-11.8z"/><path fill="#424442" d="M299.17 403.731l-2.54-3.59 9.48-6.71v-3.06l-9.48-6.71 2.54-3.59 11.33 8.03v7.61z"/><path fill="#98947F" d="M297.9 404.131h-13.39l-11.87-8.43v-7.6l11.87-8.43h13.39v4.39h-11.99l-8.87 6.31v3.06l8.87 6.31h11.99z"/><path d="M309.06 392.901h-30.198a.998.998 0 1 1 0-1.997h30.198a.998.998 0 1 1 0 1.997" fill="#5C5E5C"/><path fill="#342F3A" d="M290.08 381.771h11.8v-4.45h-11.8zM290.48 404.621h10.6v-6.29h-10.6z"/><path fill="#98947F" d="M280.88 407.911h16.99v-4.14h-16.99z"/><path fill="#5C5E5C" d="M284.48 407.911h21.4v-4.14h-21.4z"/><path d="M547.55 297.353c-.937-.521-1.767-.068-5.664.508-4.417.653-8.829 1.966-12.293 3.602-3.507 1.652-6.036 3.635-6.58 5.567-.338.335-1.458-3.165-1.896-5.736a12.012 12.012 0 0 1-.133-3.467c.489-4.376 3.519-8.495 9.856-10.485.026-.004.051-.02.064-.022a25.735 25.735 0 0 1 2.25-.583c.282-.06.555-.109.83-.15 1.694-.272 3.22-.239 4.577.01.096.018.192.034.286.061 3.5.721 5.882 2.898 7.269 5.101 1.722 2.715 2.021 5.458 1.434 5.594" fill="#FAA919"/><path d="M551.72 295.251c-1.33.264-3.787.464-5.336.741.698 1.441 2.038 2.988 3.043 4.842 9.984-.97 10.412-7.187 2.293-5.583" fill="#D66727"/><path d="M523.01 307.03c.544-1.931 3.073-3.915 6.579-5.566 3.464-1.636 7.877-2.949 12.293-3.602 3.898-.576 4.727-1.029 5.664-.508.587-.136.288-2.879-1.433-5.595-1.387-2.202-3.77-4.378-7.27-5.1 3.076 1.324 4.027 5.852 4.433 7.265.46 1.603-4.075 2.609-10.908 5.403-6.834 2.795-9.53 5.909-9.358 7.703" fill="#FAA919"/><path d="M529.59 301.465c-2-5.264-5.619-12.899 6.804-14.598 12.794-1.749 11.371 10.941 11.371 10.941l-18.175 3.657z" fill="#EF833B"/><path d="M554.02 294.989c-3.243.397-4.111 2.103-10.576 5.317-4.903 2.443-10.183 1.418-13.85 1.159 1.051-1.286 13.136-5.01 19.951-6.068 1.774-.275 4.171-.408 4.475-.408" fill="#F5C17D"/><g fill="#FEFEFE"><path d="M687.719 268.727l19.179-18.479"/></g><g fill="#FEFEFE"><path d="M686.286 285.246l-21.179-17.011"/></g><path d="M208 39.5c0 20.711-16.789 37.5-37.501 37.5C149.789 77 133 60.211 133 39.5S149.789 2 170.499 2C191.21 2 208 18.789 208 39.5zM379.87 90.836C379.218 79.811 370.067 71 359.038 71c-6.697 0-13.181 3.26-17.199 8.584-.094-.049-.19-.08-.286-.125a12.256 12.256 0 0 0-.743-.33 11.45 11.45 0 0 0-1.188-.387c-.14-.04-.281-.078-.425-.111-.276-.062-.56-.11-.848-.151-.124-.02-.246-.044-.372-.058a11.447 11.447 0 0 0-1.244-.074c-6.121 0-11.1 4.947-11.1 11.025 0 .157.01.31.02.464v.004c-5.13 2.778-8.654 8.596-8.654 14.42 0 8.68 7.107 15.738 15.842 15.738h30.227c.128 0 .256-.008.385-.018l.076-.009.166.009c.124.01.25.018.38.018h12.09c8.18 0 14.836-6.61 14.836-14.734 0-6.723-4.721-12.756-11.13-14.429zM570.59 114.72c-.317-5.4-4.77-9.716-10.134-9.716-3.258 0-6.413 1.597-8.367 4.205-.046-.024-.092-.04-.139-.062a5.941 5.941 0 0 0-.362-.161 5.546 5.546 0 0 0-.577-.19c-.069-.02-.137-.038-.207-.054a5.532 5.532 0 0 0-.413-.074c-.06-.01-.12-.022-.18-.029a5.532 5.532 0 0 0-.606-.036 5.406 5.406 0 0 0-5.4 5.4c0 .077.005.152.01.227-2.495 1.363-4.21 4.213-4.21 7.066 0 4.25 3.458 7.708 7.707 7.708h14.705c.062 0 .124-.004.187-.009h.118c.06.005.122.01.184.01h5.882c3.98 0 7.217-3.239 7.217-7.218 0-3.293-2.296-6.247-5.414-7.067z" stroke="#D0D8D3" stroke-width="3"/><g stroke="#D0D8D3" stroke-width="3"><path d="M621.785 180.744s-2.548-36.226 31.774-36.74c8.906-.134 31.773 2.533 35.586 36.74 8.896 5.49 36.432 35.895-6.78 59.966-4.235 8.868-26.405 31.736-52.954 0-15.252-7.18-39.823-28.717-7.627-59.966zM658.339 193v107.5M626 329s3.09-10.503 10.194-11.738c1.853-4.942.309-9.885 12.047-11.738 4.634-5.87 14.519-9.885 20.388 3.09 5.56 2.161 7.545 5.06 8.958 8.03 4.634 1.545 8.233 7.445 8.34 12.357H626zM657.719 228.727l19.179-18.479M658.286 245.25l-21.179-17.011"/><g><path d="M12.891 198.363s-1.758-25.005 21.924-25.36c6.145-.092 21.923 1.748 24.555 25.36 6.138 3.789 25.138 24.777-4.678 41.392-2.922 6.121-18.22 21.906-36.539 0-10.524-4.956-27.478-19.822-5.262-41.392zM37.893 211v73.657M38 232l13-13M38 243l-15-12"/></g></g></g></svg>