<?xml version="1.0" encoding="UTF-8"?>
<svg width="200px" height="200px" viewBox="0 0 108 108" preserveAspectRatio="none" version="1.1" xmlns="http://www.w3.org/2000/svg" xmlns:xlink="http://www.w3.org/1999/xlink">
    <!-- Generator: Sketch 54.1 (76490) - https://sketchapp.com -->
    <title>Empty Truck Illustration@2x</title>
    <desc>Created with Sketch.</desc>
    <defs>
        <polygon id="path-1" points="0.285018053 0.154985294 8.6705092 0.154985294 8.6705092 15 0.285018053 15"></polygon>
        <polygon id="path-3" points="0.182399735 0.154985294 8.56789088 0.154985294 8.56789088 15 0.182399735 15"></polygon>
        <polygon id="path-5" points="0 81.704146 98 81.704146 98 0.704145989 0 0.704145989"></polygon>
        <path d="M0.4695,0.268551724 L0.4695,11.6755862 L2.991,11.6755862 C4.542,11.6755862 5.8105,10.6257931 5.8105,9.3422069 L5.8105,9.3422069 L5.8105,2.60151724 C5.8105,1.31834483 4.542,0.268551724 2.991,0.268551724 L2.991,0.268551724 L0.4695,0.268551724 Z" id="path-7"></path>
        <path d="M0.4695,0.268551724 L0.4695,11.6755862 L2.991,11.6755862 C4.542,11.6755862 5.8105,10.6257931 5.8105,9.3422069 L5.8105,9.3422069 L5.8105,2.60151724 C5.8105,1.31834483 4.542,0.268551724 2.991,0.268551724 L2.991,0.268551724 L0.4695,0.268551724 Z" id="path-9"></path>
        <path d="M2.15854545,0.268551724 C1.03054545,0.268551724 0.108,1.31834483 0.108,2.60151724 L0.108,2.60151724 L0.108,9.3422069 C0.108,10.6257931 1.03054545,11.6755862 2.15854545,11.6755862 L2.15854545,11.6755862 L3.992,11.6755862 L3.992,0.268551724 L2.15854545,0.268551724 Z" id="path-11"></path>
        <path d="M2.15854545,0.268551724 C1.03054545,0.268551724 0.108,1.31834483 0.108,2.60151724 L0.108,2.60151724 L0.108,9.3422069 C0.108,10.6257931 1.03054545,11.6755862 2.15854545,11.6755862 L2.15854545,11.6755862 L3.992,11.6755862 L3.992,0.268551724 L2.15854545,0.268551724 Z" id="path-13"></path>
    </defs>
    <g id="Product-screens---Dispatcher--Mobile-" stroke="none" stroke-width="1" fill="none" fill-rule="evenodd">
        <g id="BRF---NEW-UI---Dispatcher-01-Copy-40" transform="translate(-127.000000, -414.000000)">
            <g id="Empty-Truck-Illustration" transform="translate(128.000000, 415.000000)">
                <path d="M53,93 C75.09139,93 93,75.09139 93,53 C93,30.90861 75.09139,13 53,13 C30.90861,13 13,30.90861 13,53 C13,75.09139 30.90861,93 53,93 Z" id="Oval" stroke="#31B958" stroke-width="0.5" stroke-dasharray="2"></path>
                <path d="M53,106 C82.2710917,106 106,82.2710917 106,53 C106,23.7289083 82.2710917,0 53,0 C23.7289083,0 0,23.7289083 0,53 C0,82.2710917 23.7289083,106 53,106 Z" id="Oval" stroke="#31B958" stroke-width="0.5" stroke-dasharray="2"></path>
                <g id="Truck" transform="translate(3.000000, 9.000000)">
                    <g id="Group-12" transform="translate(0.000000, 5.000000)">
                        <g id="Group-3" transform="translate(27.000000, 66.704146)">
                            <mask id="mask-2" fill="white">
                                <use xlink:href="#path-1"></use>
                            </mask>
                            <g id="Clip-2"></g>
                            <path d="M6.02843575,15.0001324 L2.92666938,15.0001324 C1.46738708,15.0001324 0.285018053,13.7635147 0.285018053,12.2388088 L0.285018053,2.91586765 C0.285018053,1.39116176 1.46738708,0.154985294 2.92666938,0.154985294 L6.02843575,0.154985294 C7.48729593,0.154985294 8.6705092,1.39116176 8.6705092,2.91586765 L8.6705092,12.2388088 C8.6705092,13.7635147 7.48729593,15.0001324 6.02843575,15.0001324" id="Fill-1" fill="#262626" mask="url(#mask-2)"></path>
                        </g>
                        <g id="Group-6" transform="translate(64.000000, 66.704146)">
                            <mask id="mask-4" fill="white">
                                <use xlink:href="#path-3"></use>
                            </mask>
                            <g id="Clip-5"></g>
                            <path d="M5.92581743,15.0001324 L2.82405106,15.0001324 C1.36476876,15.0001324 0.182399735,13.7635147 0.182399735,12.2388088 L0.182399735,2.91586765 C0.182399735,1.39116176 1.36476876,0.154985294 2.82405106,0.154985294 L5.92581743,0.154985294 C7.38467761,0.154985294 8.56789088,1.39116176 8.56789088,2.91586765 L8.56789088,12.2388088 C8.56789088,13.7635147 7.38467761,15.0001324 5.92581743,15.0001324" id="Fill-4" fill="#262626" mask="url(#mask-4)"></path>
                        </g>
                        <mask id="mask-6" fill="white">
                            <use xlink:href="#path-5"></use>
                        </mask>
                        <g id="Clip-8"></g>
                        <polygon id="Fill-7" class="primaryLight" mask="url(#mask-6)" points="23 72.704146 75 72.704146 75 66.704146 23 66.704146"></polygon>
                        <path d="M80.8242243,43.704146 L78.0897779,43.704146 C78.0401638,43.704146 78,43.6651702 78,43.6180368 L78,29.7902552 C78,29.7426685 78.0401638,29.704146 78.0897779,29.704146 L80.8242243,29.704146 C82.570641,29.704146 84,31.0746423 84,32.7501464 L84,40.6576923 C84,42.3336497 82.570641,43.704146 80.8242243,43.704146" id="Fill-9" fill="#262626" mask="url(#mask-6)"></path>
                        <path d="M77.2061337,45.704146 L75,45.704146 L75,45.2728311 L77.2061337,45.2728311 C78.4694265,45.2728311 79.5366502,43.621297 79.5366502,41.6660325 L79.5366502,31.741818 C79.5366502,29.786112 78.4694265,28.1345779 77.2061337,28.1345779 L75,28.1345779 L75,27.704146 L77.2061337,27.704146 C78.7466768,27.704146 80,29.5150503 80,31.741818 L80,41.6660325 C80,43.8923588 78.7466768,45.704146 77.2061337,45.704146" id="Fill-10" fill="#262626" mask="url(#mask-6)"></path>
                        <path d="M81.360513,42.704146 L79,42.704146 L79,30.704146 L81.360513,30.704146 C82.8124883,30.704146 84,31.8085099 84,33.1583848 L84,40.2494719 C84,41.5997821 82.8124883,42.704146 81.360513,42.704146" id="Fill-11" fill="#A7E3FE" mask="url(#mask-6)"></path>
                    </g>
                    <g id="Group-19" transform="translate(78.000000, 36.000000)">
                        <g id="Group-15" transform="translate(0.000000, -0.295854)">
                            <mask id="mask-8" fill="white">
                                <use xlink:href="#path-7"></use>
                            </mask>
                            <g id="Clip-14"></g>
                            <polygon id="Fill-13" fill="#FCFDFF" mask="url(#mask-8)" points="-13.9922 27.7977931 -16.3107 26.5771034 15.6783 -15.024 17.9968 -13.8033103"></polygon>
                        </g>
                        <g id="Group-18" transform="translate(0.000000, -0.295854)">
                            <mask id="mask-10" fill="white">
                                <use xlink:href="#path-9"></use>
                            </mask>
                            <g id="Clip-17"></g>
                            <polygon id="Fill-16" fill="#FCFDFF" mask="url(#mask-10)" points="-9.5967 26.0157517 -9.8862 25.8630621 22.1023 -15.7380414 22.3923 -15.5853517"></polygon>
                        </g>
                    </g>
                    <g id="Group-26" transform="translate(14.000000, 33.000000)">
                        <path d="M3.17599811,15.704146 L5.90975667,15.704146 C5.95936688,15.704146 6,15.6651702 6,15.6180368 L6,1.79025521 C6,1.74266854 5.95936688,1.70414599 5.90975667,1.70414599 L3.17599811,1.70414599 C1.4292464,1.70414599 0,3.07464225 0,4.75014644 L0,12.6576923 C0,14.3336497 1.4292464,15.704146 3.17599811,15.704146" id="Fill-20" fill="#262626"></path>
                        <path d="M7.79386631,17.704146 L10,17.704146 L10,17.2728311 L7.79386631,17.2728311 C6.53057349,17.2728311 5.46334979,15.621297 5.46334979,13.6660325 L5.46334979,3.74181798 C5.46334979,1.786112 6.53057349,0.134577893 7.79386631,0.134577893 L10,0.134577893 L10,-0.295854011 L7.79386631,-0.295854011 C6.25379795,-0.295854011 5,1.51505026 5,3.74181798 L5,13.6660325 C5,15.8923588 6.25379795,17.704146 7.79386631,17.704146" id="Fill-22" fill="#262626"></path>
                        <path d="M3.63973411,14.704146 L6,14.704146 L6,2.70414599 L3.63973411,2.70414599 C2.18762288,2.70414599 1,3.8085099 1,5.15838475 L1,12.2494719 C1,13.5997821 2.18762288,14.704146 3.63973411,14.704146" id="Fill-24" fill="#A7E3FE"></path>
                    </g>
                    <g id="Group-33" transform="translate(14.000000, 36.000000)">
                        <g id="Group-29" transform="translate(0.000000, -0.295854)">
                            <mask id="mask-12" fill="white">
                                <use xlink:href="#path-11"></use>
                            </mask>
                            <g id="Clip-28"></g>
                            <polygon id="Fill-27" fill="#FCFDFF" mask="url(#mask-12)" points="-10.3139273 27.7977931 -12.0001091 26.5771034 11.2646182 -15.024 12.9508 -13.8033103"></polygon>
                        </g>
                        <g id="Group-32" transform="translate(0.000000, -0.295854)">
                            <mask id="mask-14" fill="white">
                                <use xlink:href="#path-13"></use>
                            </mask>
                            <g id="Clip-31"></g>
                            <polygon id="Fill-30" fill="#FCFDFF" mask="url(#mask-14)" points="-7.11683636 26.0157517 -7.32774545 25.8630621 15.9366182 -15.7380414 16.1475273 -15.5853517"></polygon>
                        </g>
                    </g>
                    <g id="Group-50" transform="translate(21.000000, 5.000000)">
                        <polygon id="Fill-34" fill="#424242" points="0 68.704146 56 68.704146 56 0.704145989 0 0.704145989"></polygon>
                        <polygon id="Fill-37" fill="#262626" points="0 68.704146 56 68.704146 56 62.704146 0 62.704146"></polygon>
                        <polygon id="Fill-40" fill="#FE503C" points="2 66.704146 9 66.704146 9 64.704146 2 64.704146"></polygon>
                        <polygon id="Fill-41" fill="#FEC17A" points="2 66.704146 5 66.704146 5 64.704146 2 64.704146"></polygon>
                        <polygon id="Fill-42" fill="#FE503C" points="46 66.704146 53 66.704146 53 64.704146 46 64.704146"></polygon>
                        <polygon id="Fill-43" fill="#FEC17A" points="51 66.704146 54 66.704146 54 64.704146 51 64.704146"></polygon>
                        <polygon id="Fill-49" fill="#DADADA" points="11 67.704146 44 67.704146 44 64.704146 11 64.704146"></polygon>
                    </g>
                    <rect id="Rectangle" fill="#898989" x="21" y="65" width="56" height="2"></rect>
                    <polygon id="Path-3" class="primaryMain" points="77 5.70414599 92.9667874 0.169067383 92.9667874 70.704146 77 65"></polygon>
                    <polygon id="Path-3-Copy" class="primaryMain" transform="translate(14.000000, 35.897278) scale(1, -1) translate(-14.000000, -35.897278) " points="21 6.79455566 7 0.800292969 7 70.9942627 21 66.0904097"></polygon>
                    <polygon id="Path-6" fill-opacity="0.148218969" opacity="0.817289807" points="21 64.959742 41.746226 49.3077999 55.9549249 49 77 65"></polygon>
                    <polygon id="Path-7" fill="#484848" opacity="0.4453125" points="42 18.2400781 42 49 21 65 22.2125394 7"></polygon>
                    <polygon id="Path-7-Copy" fill="#484848" opacity="0.535481771" transform="translate(66.477462, 35.500000) scale(-1, 1) translate(-66.477462, -35.500000) " points="75.9549249 17.2400781 77 49 55.9549249 65 56.1674643 6"></polygon>
                </g>
                <rect id="Rectangle" class="primaryLight" x="24" y="13" width="56" height="2"></rect>
                <rect id="Rectangle" stroke="#979797" fill="#D8D8D8" x="54.5" y="13.9" width="2" height="1"></rect>
                <rect id="Rectangle-Copy" stroke="#979797" fill="#D8D8D8" x="47.5" y="13.9" width="2" height="1"></rect>
                <rect id="Rectangle-Copy-4" stroke="#979797" fill="#9B9B9B" x="54.5" y="74.9" width="2" height="1"></rect>
                <rect id="Rectangle-Copy-3" stroke="#979797" fill="#9B9B9B" x="47.5" y="74.9" width="2" height="1"></rect>
                <path d="M45,27.2400781 C45.9648437,27.2400781 50.9648437,27.2400781 60,27.2400781 L80,16 L24,15.704146 C37.0351562,23.3947674 44.0351562,27.2400781 45,27.2400781 Z" id="Path-8" fill-opacity="0.432583042" fill="#535353"></path>
            </g>
        </g>
    </g>
</svg>
