<?xml version="1.0" encoding="UTF-8"?>
<svg width="260px" height="200px" viewBox="0 0 260 200" version="1.1" xmlns="http://www.w3.org/2000/svg" xmlns:xlink="http://www.w3.org/1999/xlink">
    <g id="Bid-new" stroke="none" stroke-width="1" fill="none" fill-rule="evenodd">
        <g id="BRF---Empty-state-Notification" transform="translate(-255.000000, -506.000000)">
            <g id="Bell-Illustration" transform="translate(255.000000, 506.000000)">
                <g id="bell" transform="translate(49.000000, 16.000000)" fill-rule="nonzero">
                    <path d="M101.5,141.57284 C101.5,152.803776 93.8998207,162.259693 83.551121,165.116246 C81.4655605,165.692063 79.2695068,166 77.0018833,166 C63.4702242,166 52.5,155.064483 52.5,141.57284 L77.0408071,129 L101.5,141.57284 Z" id="Path" class="primaryMain" fill="#FF8500"></path>
                    <path d="M100.5,149 C98.0050046,156.756666 91.7594436,162.814372 83.9192709,165 C78.9901336,163.626319 74.6918861,160.723825 71.5597911,156.83173 C69.0349899,153.692783 71.3126514,149 75.3227759,149 L100.5,149 Z" id="Path" class="primaryLight" fill="#FFC27F"></path>
                    <path d="M140.5,116.56408 L87.6609519,128 L13.5,116.56408 C19.3191895,116.56408 22.6100503,113.51778 24.4779382,108.465843 C33.5136258,84.0777905 9.44786769,13 77.0018903,13 C144.555913,13 120.486374,84.0777905 129.522062,108.465843 C131.393731,113.51778 134.683331,116.56408 140.5,116.56408 Z" id="Path" class="primaryLight" fill="#FFC27F"></path>
                    <path d="M152.5,128.500641 C152.5,135.403157 146.979759,141 140.171714,141 L12.8282866,141 C9.42489603,141 6.34124467,139.602071 4.11065235,137.339244 C1.87879665,135.0777 0.5,131.951258 0.5,128.500641 C0.5,121.596843 6.02024145,116 12.8282866,116 L140.171714,116 C143.575104,116 146.658756,117.399211 148.889348,119.660755 C151.121204,121.923582 152.5,125.048742 152.5,128.500641 L152.5,128.500641 Z" id="Path" class="primaryMain" fill="#FF8500"></path>
                    <path d="M129.521844,108.86738 L63.513001,108.86738 C56.3967359,108.86738 50.7059924,102.947795 50.9265639,95.7981828 C51.8567451,65.552942 47.0571103,13.5713103 76.50655,13 C-4.33225649,13.4205654 47.3432231,117 13.5,117 L140.5,117 C134.683216,117 131.39355,113.940767 129.521844,108.86738 L129.521844,108.86738 Z" id="Path" class="primaryMain" fill="#FF8500"></path>
                    <path d="M152.5,128.500641 C152.5,135.403157 146.997426,141 140.211171,141 L48.7900893,141 C45.3963314,141 42.3225493,139.602071 40.0990964,137.339244 C37.8756435,135.0777 36.5,131.951258 36.5,128.500641 C36.5,121.596843 42.0025738,116 48.7900893,116 L140.211171,116 C143.603669,116 146.677451,117.399211 148.900904,119.660755 C151.125617,121.923582 152.5,125.048742 152.5,128.500641 L152.5,128.500641 Z" id="Path" class="primaryLight" fill="#FFC27F"></path>
                    <path d="M89.4635496,14 C89.4899447,13.6778902 89.5,13.3518518 89.5,13.0218854 C89.5,5.83202411 83.9029664,0 77,0 C70.0945199,0 64.5,5.83202411 64.5,13.0218854 C64.5,13.3518518 64.5100553,13.6778902 64.5364507,14" id="Path" class="primaryMain" fill="#FF8500"></path>
                    <g id="Group" transform="translate(1.500000, 8.000000)" class="primaryLight" fill="#FFC27F">
                        <path d="M136.297397,45.9088908 C134.898219,45.9088908 133.764228,44.7712917 133.764228,43.3704884 C133.764228,31.6212037 130.749933,21.594135 124.80595,13.5676715 C120.368484,7.57597939 115.856512,4.99708399 115.812315,4.97051056 C114.594979,4.28592658 114.156789,2.74213256 114.836173,1.51975124 C115.515558,0.298635563 117.048592,-0.144256 118.269716,0.53147007 C118.485655,0.65168362 123.615133,3.53680686 128.695363,10.3016615 C133.319723,16.459122 138.831829,27.1948174 138.831829,43.3704884 C138.831829,44.7712917 137.696575,45.9088908 136.297397,45.9088908 L136.297397,45.9088908 Z" id="Path"></path>
                        <path d="M147.4441,31.3542032 C146.044922,31.3542032 144.910931,30.2178697 144.910931,28.8158011 C144.910931,12.6110257 135.333883,6.16884911 134.926,5.90311392 C133.757913,5.14007499 133.419484,3.5722382 134.173374,2.39794242 C134.928526,1.22364665 136.481765,0.876925535 137.657428,1.6273109 C138.161284,1.94745827 149.97727,9.703125 149.97727,28.8158011 C149.97727,30.2178697 148.843279,31.3542032 147.4441,31.3542032 Z" id="Path"></path>
                        <path d="M13.9665275,45.9088908 C12.5673491,45.9088908 11.4333582,44.7712917 11.4333582,43.3704884 C11.4333582,27.1948174 16.9454641,16.459122 21.5685614,10.3016615 C26.6500539,3.53680686 31.7782697,0.650417972 31.994208,0.53147007 C33.2191203,-0.146786972 34.7609948,0.298635563 35.4378537,1.52607851 C36.1134498,2.75099048 35.6714709,4.29225352 34.4516095,4.97177589 C34.3518488,5.02871935 29.8701847,7.61394138 25.4592369,13.5676715 C19.5139917,21.594135 16.5009598,31.6212037 16.5009598,43.3704884 C16.4996968,44.7712917 15.3657058,45.9088908 13.9665275,45.9088908 Z" id="Path"></path>
                        <path d="M2.81982414,31.3542032 C1.4206458,31.3542032 0.286654849,30.2178697 0.286654849,28.8158011 C0.286654849,9.703125 12.1039028,1.94745827 12.6064959,1.6273109 C13.7872106,0.874394887 15.353078,1.22364665 16.1044416,2.40553469 C16.8532797,3.58489208 16.5097991,5.14893258 15.3366614,5.90311392 C14.9161503,6.17897235 5.35299375,12.6236796 5.35299375,28.8158011 C5.35299375,30.2178697 4.21900248,31.3542032 2.81982414,31.3542032 Z" id="Path"></path>
                    </g>
                </g>
            </g>
        </g>
    </g>
</svg>
