<?xml version="1.0" encoding="UTF-8"?>
<svg width="285px" height="250px" viewBox="0 0 285 250" version="1.1" xmlns="http://www.w3.org/2000/svg" xmlns:xlink="http://www.w3.org/1999/xlink">
    <g id="Bid-new" stroke="none" stroke-width="1" fill="none" fill-rule="evenodd">
        <g id="BRF---Empty-state-Notification-Copy" transform="translate(-226.000000, -488.000000)" fill-rule="nonzero">
            <g id="Sad-face-illustration-" transform="translate(226.000000, 488.000000)">
                <circle id="Oval" class="primaryLight" fill="#FFC27F" cx="145.5" cy="126" r="86"></circle>
                <path d="M190.5,168.694638 C190.5,182.175544 169.216254,169.84619 146.397943,169.84619 C123.579632,169.84619 100.5,181.666204 100.5,168.185298 C100.5,160.498137 107.855903,149.807529 118.408816,142.04286 L118.408816,142.04286 C126.35964,136.190984 136.123031,132 145.930901,132 C156.016773,132 165.896923,136.537003 173.778248,142.765348 C183.725119,150.618598 190.5,161.170798 190.5,168.694638 Z" id="Path" fill="#000000"></path>
                <path d="M101.5,65 C101.5,65 75.2869321,81.4491919 75.5013078,107.179261 C75.7156834,132.90933 101.5,65 101.5,65 Z" id="Path" class="primaryMain" fill="#FF8500" opacity="0.783816964"></path>
                <path d="M114.870698,114.471687 C116.528245,114.377965 124.330292,113.787233 129.28599,110.944336 C130.081892,110.473392 130.980969,110.207087 131.903615,110.169 C133.479273,110.123559 135.292127,110.785293 134.131561,114.488727 C132.250938,120.546569 121.33146,127.362705 114.554437,126.984978 C108.0372,126.621451 100.305747,123.980198 95.2003901,114.693211 C94.7112329,113.799725 94.4703095,112.790247 94.5029215,111.770793 C94.5622204,109.896355 95.2399227,107.547628 98.7385606,110.16616 C103.465534,113.702031 112.433794,114.372285 114.232529,114.471687 C114.445099,114.483148 114.658128,114.483148 114.870698,114.471687 L114.870698,114.471687 Z" id="Path" fill="#000000"></path>
                <path d="M176.870698,114.471687 C178.528245,114.377965 186.330292,113.787233 191.28599,110.944336 C192.081892,110.473392 192.980969,110.207087 193.903615,110.169 C195.479273,110.123559 197.292127,110.785293 196.131561,114.488727 C194.250938,120.546569 183.33146,127.362705 176.554437,126.984978 C170.0372,126.621451 162.305747,123.980198 157.20039,114.693211 C156.711233,113.799725 156.470309,112.790247 156.502921,111.770793 C156.56222,109.896355 157.239923,107.547628 160.738561,110.16616 C165.465534,113.702031 174.433794,114.372285 176.232529,114.471687 C176.445099,114.483148 176.658128,114.483148 176.870698,114.471687 L176.870698,114.471687 Z" id="Path" fill="#000000"></path>
            </g>
        </g>
    </g>
</svg>
