<?xml version="1.0" encoding="UTF-8"?>
<svg width="57px" height="57px" viewBox="0 0 57 57" version="1.1" xmlns="http://www.w3.org/2000/svg" xmlns:xlink="http://www.w3.org/1999/xlink">
    <!-- Generator: Sketch 47 (45396) - http://www.bohemiancoding.com/sketch -->
    <title>Search icon@2x</title>
    <desc>Created with Sketch.</desc>
    <defs></defs>
    <g id="Screens-" stroke="none" stroke-width="1" fill="none" fill-rule="evenodd" opacity="0.2">
        <g id="FO---Driver-screen---View-Loads-03-Copy" transform="translate(-347.000000, -749.000000)" stroke="#434C54" fill="#434C54">
            <g id="Group" transform="translate(34.000000, 363.000000)">
                <g id="Search-icon" transform="translate(314.000000, 387.000000)">
                    <path d="M20.4989603,1.96505554 C10.2806715,1.96505554 1.96505554,10.2806715 1.96505554,20.5010397 C1.96505554,30.7214079 10.2806715,39.0349445 20.4989603,39.0349445 C30.7193285,39.0349445 39.0349445,30.7214079 39.0349445,20.5010397 C39.0349445,10.2806715 30.7193285,1.96505554 20.4989603,1.96505554 M20.4989603,41 C9.19521225,41 0,31.8047877 0,20.5010397 C0,9.19729168 9.19521225,0 20.4989603,0 C31.8047877,0 41,9.19729168 41,20.5010397 C41,31.8047877 31.8047877,41 20.4989603,41" id="Fill-242"></path>
                    <path d="M54.0284878,55 C53.7798299,55 53.5311721,54.9054665 53.34211,54.7163995 L35.2866757,36.6584464 C34.9044414,36.2803124 34.9044414,35.6637896 35.2866757,35.2836005 C35.6648,34.9054665 36.279252,34.9054665 36.6594313,35.2836005 L54.7148655,53.3415536 C55.0950448,53.7217427 55.0950448,54.3382655 54.7148655,54.7163995 C54.5237484,54.9054665 54.2750905,55 54.0284878,55" id="Fill-244"></path>
                    <path d="M28.9959334,11 C28.8157517,11 28.6334502,10.9568132 28.468107,10.8560442 C21.451619,6.62168601 15.8469078,10.6298278 15.6094919,10.8025749 C15.1706964,11.1254472 14.5432401,11.0431868 14.2040745,10.6174888 C13.8712683,10.1897343 13.9539399,9.58306325 14.3906156,9.25607785 C14.4605685,9.20672156 21.2989945,4.24024515 29.5258796,9.20260854 C29.9985917,9.48640719 30.1406172,10.0869087 29.8480869,10.5413978 C29.6573063,10.8395921 29.3308594,11 28.9959334,11" id="Fill-246"></path>
                </g>
            </g>
        </g>
    </g>
</svg>