<svg width="212px" height="212px" viewBox="0 0 212 212" version="1.1" xmlns="http://www.w3.org/2000/svg" xmlns:xlink="http://www.w3.org/1999/xlink">
    <!-- Generator: Sketch 50.2 (55047) - http://www.bohemiancoding.com/sketch -->
    <desc>Created with Sketch.</desc>
    <defs>
        <circle id="path-1" cx="106" cy="106" r="106"></circle>
    </defs>
    <g id="Onboarding" stroke="none" stroke-width="1" fill="none" fill-rule="evenodd">
        <g id="FO---Onboarding-Screen-5" transform="translate(-269.000000, -364.000000)">
            <g id="Upload-Document-Illustration-" transform="translate(269.000000, 364.000000)">
                <g id="Group-10">
                    <g id="Group-5">
                        <g id="Group">
                            <mask id="mask-2" fill="white">
                                <use xlink:href="#path-1"></use>
                            </mask>
                            <use id="Oval-2" fill="#CFD0D1" xlink:href="#path-1"></use>
                            <g id="Page-1" mask="url(#mask-2)">
                                <g transform="translate(34.000000, 65.000000)">
                                    <g id="Group-27" stroke-width="1" fill="none" transform="translate(2.000000, 2.000000)">
                                        <path d="M131.184477,76.1551529 C131.184477,78.8318487 129.00879,80.9997536 126.329003,80.9997536 L15.656673,80.9997536 C12.9756513,80.9997536 10.8011991,78.8318487 10.8011991,76.1551529 L10.8011991,4.96785627 C10.8011991,2.2923924 12.9756513,0.124179468 15.656673,0.124179468 L126.329003,0.124179468 C129.00879,0.124179468 131.184477,2.2923924 131.184477,4.96785627 L131.184477,76.1551529 Z" id="Fill-1" fill-opacity="0.8" fill="#919696"></path>
                                        <path d="M21.4811426,73.2512567 C19.8793209,73.2512567 18.567673,71.9441692 18.567673,70.3469601 L18.567673,10.7790057 C18.567673,9.18025665 19.8793209,7.8731692 21.4811426,7.8731692 L120.502373,7.8731692 C122.106664,7.8731692 123.418003,9.18025665 123.418003,10.7790057 L123.418003,70.3469601 C123.418003,71.9441692 122.106664,73.2512567 120.502373,73.2512567 L21.4811426,73.2512567 Z" id="Fill-3" fill="#020303"></path>
                                        <path d="M141.9858,76.9870506 C141.9858,79.2030011 139.811965,80.9997844 137.130017,80.9997844 L4.85485652,80.9997844 C2.17414348,80.9997844 0,79.2030011 0,76.9870506 L0,70.9684118 C0,68.7503053 2.17414348,66.95537 4.85485652,66.95537 L137.130017,66.95537 C139.811965,66.95537 141.9858,68.7503053 141.9858,70.9684118 L141.9858,76.9870506 Z" id="Fill-5" fill-opacity="0.8" fill="#919696"></path>
                                        <path d="M81.6710839,73.1282167 C81.6710839,74.9376274 79.7685926,76.3990152 77.4234317,76.3990152 L64.5622448,76.3990152 C62.2146143,76.3990152 60.3127404,74.9376274 60.3127404,73.1282167 C60.3127404,71.3268137 62.2146143,69.8614221 64.5622448,69.8614221 L77.4234317,69.8614221 C79.7685926,69.8614221 81.6710839,71.3268137 81.6710839,73.1282167" id="Fill-7" fill="#020303"></path>
                                        <path d="M73.403813,3.98295171 C73.403813,5.31283004 72.324613,6.3889289 70.9925913,6.3889289 C69.661187,6.3889289 68.5807522,5.31283004 68.5807522,3.98295171 C68.5807522,2.65492129 69.661187,1.57697452 70.9925913,1.57697452 C72.324613,1.57697452 73.403813,2.65492129 73.403813,3.98295171" id="Fill-9" fill="#020303"></path>
                                        <path d="M83.3007809,25.3990129 C83.3007809,32.180838 77.7893287,37.6768266 70.9927765,37.6768266 C64.1937548,37.6768266 58.6866243,32.180838 58.6866243,25.3990129 C58.6866243,18.6184198 64.1937548,13.1202753 70.9927765,13.1202753 C77.7893287,13.1202753 83.3007809,18.6184198 83.3007809,25.3990129" id="Fill-11" fill="#020303"></path>
                                        <path d="M77.1105687,28.5603536 C77.1105687,26.5445932 75.474173,24.9110418 73.4522165,24.9110418 L72.45266,24.9110418 C73.9297687,24.3295665 74.9784078,22.8962053 74.9784078,21.2139924 C74.9784078,19.0177529 73.194147,17.2372928 70.9928383,17.2372928 C68.7915296,17.2372928 67.0072687,19.0177529 67.0072687,21.2139924 C67.0072687,22.8962053 68.0540557,24.3295665 69.5320904,24.9110418 L68.5353122,24.9110418 C66.5115035,24.9110418 64.8747991,26.5445932 64.8747991,28.5603536 L64.0357643,33.5604867 L77.9486774,33.5604867 L77.1105687,28.5603536 Z" id="Fill-13" fill="#020303"></path>
                                        <path d="M99.9603752,51.6484027 C99.9603752,55.2321137 97.0493752,58.1391821 93.45801,58.1391821 L48.9215622,58.1391821 C45.3292709,58.1391821 42.4170361,55.2321137 42.4170361,51.6484027 C42.4170361,48.0659236 45.3292709,45.161011 48.9215622,45.161011 L93.45801,45.161011 C97.0493752,45.161011 99.9603752,48.0659236 99.9603752,51.6484027" id="Fill-15" fill="#020303"></path>
                                        <polygon id="Fill-17" fill="#020303" points="54.5007422 49.386624 53.65399 48.1984186 50.77139 50.2400498 50.77139 46.711776 49.311877 46.711776 49.311877 50.2400498 46.4295857 48.1984186 45.5831422 49.386624 48.7806117 51.6484643 45.5831422 53.9164643 46.4295857 55.1031297 49.311877 53.0621144 49.311877 56.5860764 50.77139 56.5860764 50.77139 53.0621144 53.65399 55.1031297 54.5007422 53.9164643 51.3026552 51.6484643"></polygon>
                                        <polygon id="Fill-19" fill="#020303" points="65.0162743 49.386624 64.1695222 48.1984186 61.2878483 50.2400498 61.2878483 46.711776 59.8283352 46.711776 59.8283352 50.2400498 56.9448091 48.1984186 56.1002178 49.386624 59.2961439 51.6484643 56.1002178 53.9164643 56.9448091 55.1031297 59.8283352 53.0621144 59.8283352 56.5860764 61.2878483 56.5860764 61.2878483 53.0621144 64.1695222 55.1031297 65.0162743 53.9164643 61.8194222 51.6484643"></polygon>
                                        <polygon id="Fill-21" fill="#020303" points="75.5315287 49.386624 74.6847765 48.1984186 71.8034113 50.2400498 71.8034113 46.711776 70.3435896 46.711776 70.3435896 50.2400498 67.4612983 48.1984186 66.6154722 49.386624 69.811707 51.6484643 66.6154722 53.9164643 67.4612983 55.1031297 70.3435896 53.0621144 70.3435896 56.5860764 71.8034113 56.5860764 71.8034113 53.0621144 74.6847765 55.1031297 75.5315287 53.9164643 72.3346765 51.6484643"></polygon>
                                        <polygon id="Fill-23" fill="#020303" points="86.0464743 49.386624 85.201883 48.1984186 82.3189743 50.2400498 82.3189743 46.711776 80.8591526 46.711776 80.8591526 50.2400498 77.9765526 48.1984186 77.1310352 49.386624 80.3269613 51.6484643 77.1310352 53.9164643 77.9765526 55.1031297 80.8591526 53.0621144 80.8591526 56.5860764 82.3189743 56.5860764 82.3189743 53.0621144 85.201883 55.1031297 86.0464743 53.9164643 82.8505483 51.6484643"></polygon>
                                        <polygon id="Fill-25" fill="#020303" points="96.5629326 49.386624 95.7174152 48.1984186 92.8354326 50.2400498 92.8354326 46.711776 91.3746848 46.711776 91.3746848 50.2400498 88.4920848 48.1984186 87.6465674 49.386624 90.8437283 51.6484643 87.6465674 53.9164643 88.4920848 55.1031297 91.3746848 53.0621144 91.3746848 56.5860764 92.8354326 56.5860764 92.8354326 53.0621144 95.7174152 55.1031297 96.5629326 53.9164643 93.3660804 51.6484643"></polygon>
                                    </g>
                                    <path d="M132,76.1479459 C132,78.8287598 129.813167,81 127.119652,81 L15.8803484,81 C13.1855919,81 11,78.8287598 11,76.1479459 L11,4.85112873 C11,2.17154869 13.1855919,0 15.8803484,0 L127.119652,0 C129.813167,0 132,2.17154869 132,4.85112873 L132,76.1479459 Z" id="Fill-28" fill="#748086"></path>
                                    <path d="M21.9454154,74 C20.3260299,74 19,72.6804788 19,71.0680761 L19,10.9334784 C19,9.31952119 20.3260299,8 21.9454154,8 L122.0524,8 C123.674282,8 125,9.31952119 125,10.9334784 L125,71.0680761 C125,72.6804788 123.674282,74 122.0524,74 L21.9454154,74 Z" id="Fill-30" fill="#EAEAEB"></path>
                                    <path d="M142,76.9999561 C142,79.2088989 139.825948,81 137.143732,81 L4.85534206,81 C2.17436091,81 0,79.2088989 0,76.9999561 L0,71.0003509 C0,68.789259 2.17436091,67 4.85534206,67 L137.143732,67 C139.825948,67 142,68.789259 142,71.0003509 L142,76.9999561 Z" id="Fill-32" fill="#748086"></path>
                                    <path d="M81,73.9981627 C81,75.6587836 79.1294281,77 76.8236136,77 L64.1782075,77 C61.8699649,77 60,75.6587836 60,73.9981627 C60,72.3448909 61.8699649,71 64.1782075,71 L76.8236136,71 C79.1294281,71 81,72.3448909 81,73.9981627" id="Fill-34" fill="#3D4A49"></path>
                                    <path d="M73,4 C73,5.10547875 72.1049667,6 71.000256,6 C69.8960573,6 69,5.10547875 69,4 C69,2.89605735 69.8960573,2 71.000256,2 C72.1049667,2 73,2.89605735 73,4" id="Fill-36" fill="#3D4A49"></path>
                                    <path d="M84,24.5004703 C84,31.4047634 78.4021521,37 71.4990594,37 C64.5934584,37 59,31.4047634 59,24.5004703 C59,17.5974314 64.5934584,12 71.4990594,12 C78.4021521,12 84,17.5974314 84,24.5004703" id="Fill-38" fill="#EF833B"></path>
                                    <path d="M76.2168848,28.0988679 C76.2168848,26.1230189 74.6878633,24.5218113 72.79858,24.5218113 L71.8646106,24.5218113 C73.244797,23.9518491 74.2246284,22.5468679 74.2246284,20.8979623 C74.2246284,18.7452075 72.557444,17 70.5005769,17 C68.4437098,17 66.7765254,18.7452075 66.7765254,20.8979623 C66.7765254,22.5468679 67.7546261,23.9518491 69.1356778,24.5218113 L68.2043044,24.5218113 C66.3132904,24.5218113 64.7839805,26.1230189 64.7839805,28.0988679 L64,33 L77,33 L76.2168848,28.0988679 Z" id="Fill-40" fill="#FEFEFE"></path>
                                    <path d="M101,51.9984338 C101,55.3120387 98.0658985,58 94.4460324,58 L49.5561457,58 C45.9353461,58 43,55.3120387 43,51.9984338 C43,48.6859679 45.9353461,46 49.5561457,46 L94.4460324,46 C98.0658985,46 101,48.6859679 101,51.9984338" id="Fill-42" fill="#FEFEFE"></path>
                                    <polygon id="Fill-44" fill="#EF833B" points="56 49.7088987 55.1454237 48.5055675 52.236188 50.5731886 52.236188 47 50.7631889 47 50.7631889 50.5731886 47.8542647 48.5055675 47 49.7088987 50.2270147 51.9995321 47 54.2964037 47.8542647 55.4981754 50.7631889 53.4311781 50.7631889 57 52.236188 57 52.236188 53.4311781 55.1454237 55.4981754 56 54.2964037 52.7723622 51.9995321"></polygon>
                                    <polygon id="Fill-46" fill="#EF833B" points="66 49.7088987 65.1452758 48.5055675 62.2364713 50.5731886 62.2364713 47 60.7632171 47 60.7632171 50.5731886 57.852543 48.5055675 57 49.7088987 60.2260153 51.9995321 57 54.2964037 57.852543 55.4981754 60.7632171 53.4311781 60.7632171 57 62.2364713 57 62.2364713 53.4311781 65.1452758 55.4981754 66 54.2964037 62.7730499 51.9995321"></polygon>
                                    <polygon id="Fill-48" fill="#EF833B" points="77 49.7088987 76.1452758 48.5055675 73.2367829 50.5731886 73.2367829 47 71.7632171 47 71.7632171 50.5731886 68.8537894 48.5055675 68 49.7088987 71.2263269 51.9995321 68 54.2964037 68.8537894 55.4981754 71.7632171 53.4311781 71.7632171 57 73.2367829 57 73.2367829 53.4311781 76.1452758 55.4981754 77 54.2964037 73.7730499 51.9995321"></polygon>
                                    <polygon id="Fill-50" fill="#EF833B" points="87 49.7088987 86.1473979 48.5055675 83.2371455 50.5731886 83.2371455 47 81.7634777 47 81.7634777 50.5731886 78.8535369 48.5055675 78 49.7088987 81.2262387 51.9995321 78 54.2964037 78.8535369 55.4981754 81.7634777 53.4311781 81.7634777 57 83.2371455 57 83.2371455 53.4311781 86.1473979 55.4981754 87 54.2964037 83.7737613 51.9995321"></polygon>
                                    <polygon id="Fill-52" fill="#EF833B" points="98 49.7088987 97.1465517 48.5055675 94.2375364 50.5731886 94.2375364 47 92.7630868 47 92.7630868 50.5731886 89.8534483 48.5055675 89 49.7088987 92.22715 51.9995321 89 54.2964037 89.8534483 55.4981754 92.7630868 53.4311781 92.7630868 57 94.2375364 57 94.2375364 53.4311781 97.1465517 55.4981754 98 54.2964037 94.7731616 51.9995321"></polygon>
                                </g>
                            </g>
                        </g>
                    </g>
                </g>
            </g>
        </g>
    </g>
</svg>