<?xml version="1.0" encoding="UTF-8"?>
<svg width="683px" height="259px" viewBox="0 0 683 259" version="1.1" xmlns="http://www.w3.org/2000/svg" xmlns:xlink="http://www.w3.org/1999/xlink">
    <!-- Generator: Sketch 47 (45396) - http://www.bohemiancoding.com/sketch -->
    <title>search_illustration</title>
    <desc>Created with Sketch.</desc>
    <defs>
        <polygon id="path-1" points="682.33943 0 682.33943 188.373138 0.0975714286 188.373138 0.0975714286 3.75565595e-14"></polygon>
        <polygon id="path-3" points="682.33943 0.365224615 682.33943 92.9885231 0.0975714286 92.9885231 0.0975714286 0.365224615 682.33943 0.365224615"></polygon>
        <path d="M18.1813478,0.273333333 L12.2414783,0.273333333 C9.00052174,0.273333333 6.0613913,2.93222222 3.91695652,7.24777778 C2.25747826,10.5844444 1.07165217,14.9122222 0.587826087,19.7655556 L21.7868696,10.6811111 C22.4289565,10.6933333 23.0721739,10.7066667 23.7153913,10.72 C25.134087,10.7477778 24.5326957,10.7766667 25.9513913,10.8044444 L25.9513913,0.273333333 L25.0363043,0.273333333 L18.1813478,0.273333333 L18.1813478,0.273333333 Z" id="path-5"></path>
    </defs>
    <g id="Style-Guide" stroke="none" stroke-width="1" fill="none" fill-rule="evenodd">
        <g id="FleetOps-Icons" transform="translate(-61.000000, -776.000000)">
            <g id="search_illustration" transform="translate(61.000000, 777.000000)">
                <g>
                    <g id="Group-134">
                        <g id="Group-9" transform="translate(570.000000, 145.000000)" stroke="#BAC3BC" stroke-width="2">
                            <path d="M5.99841038,12.3566029 C5.99841038,12.3566029 5.02964358,0.174443426 18.0721253,0.00149608539 C21.4570589,-0.0434315758 30.1463878,0.853189275 31.5948831,12.3566029 C34.9754356,14.2025018 45.4396504,24.4271679 29.0193544,32.5218764 C27.4098543,35.5044933 18.9850333,43.1943698 8.89594861,32.5218764 C3.10087215,30.10786 -6.23685689,22.8653278 5.99841038,12.3566029 Z" id="Stroke-9-Copy"></path>
                            <path d="M19.225,16 L19,55" id="Stroke-13-Copy"></path>
                            <path d="M20,28 L27,22" id="Stroke-17-Copy"></path>
                            <path d="M20,34 L12,28" id="Stroke-21-Copy"></path>
                        </g>
                        <g id="Group-3" transform="translate(0.000000, 89.400000)">
                            <mask id="mask-2" fill="white">
                                <use xlink:href="#path-1"></use>
                            </mask>
                            <g id="Clip-2"></g>
                            <path d="M90.8956816,40.6872802 L88.7849532,39.1608015 L82.5594475,35.0615708 L75.9369269,31.8316015 L69.4018842,30.0324323 L62.8253456,28.2725708 L55.925812,28.4691092 L50.3507824,33.21074 L43.8034031,37.4615862 L37.0687315,41.2710631 L30.0951782,44.7121708 L23.6722865,49.1966169 L17.414257,53.9483554 L10.8309893,58.2587246 L4.47650985,62.2467708 L-0.889918719,67.7004323 L-5.90867898,73.8043554 L-13.4631749,75.5192938 L-27.9407562,244.746771 L327.199057,255.97754 L341.21794,250.362155 L350.008341,255.97754 L356.176649,255.97754 L362.344958,255.97754 L367.952511,255.97754 L375.803086,255.97754 L384.775172,255.97754 L397.96638,255.97754 L403.840853,255.97754 L410.569917,255.97754 L417.86983,249.239078 L425.149556,245.869848 L433.000131,248.116002 L443.093727,255.97754 L582.16105,255.97754 L592.254646,255.97754 L598.98371,255.97754 L607.955796,255.97754 L619.170902,255.97754 L628.142988,250.362155 L635.993562,246.992925 L652.816222,246.992925 L659.545287,245.869848 L669.638883,243.623694 L676.367947,243.623694 L693.190607,244.746771 L698.79816,243.623694 L710.013267,241.37754 L710.013267,195.331386 L706.460321,102.922371 L677.664413,86.8320477 L672.496492,81.1414169 L665.861635,77.7901554 L659.781925,73.5258323 L654.316804,68.3652938 L649.301408,63.5978323 L644.628073,58.4664938 L640.299042,52.8466169 L633.73484,49.7907246 L627.905227,45.56234 L621.27037,40.7061554 L613.806717,36.6361246 L605.851842,36.0173092 L598.067436,36.5754785 L590.539856,38.94854 L582.644421,37.6424015 L575.386004,40.5062477 L567.824779,40.3512631 L560.614587,42.75914 L553.183457,43.6239092 L545.172507,46.0913092 L537.022489,48.2622169 L529.174157,51.4933092 L522.319484,55.0826631 L514.969103,57.3389246 L508.296114,61.4190631 L501.904625,66.0113246 L495.164346,69.6500938 L488.812109,74.1502631 L482.349965,78.5718169 L477.650835,83.3347862 L472.4874,87.7293862 L466.568067,90.67634 L459.203106,92.0352631 L451.887492,88.6884938 L444.460848,85.21594 L437.192337,81.1942015 L431.406464,76.7782631 L424.296086,75.9280938 L417.623098,74.3400631 L410.929922,75.1149862 L403.647953,74.8319708 L396.783186,81.2099246 L389.769259,86.9937708 L380.065948,89.3803092 L373.052021,89.4072631 L366.209684,91.1794785 L359.19127,89.8430169 L351.88575,91.6365708 L344.616117,93.3672323 L337.084052,93.1302631 L327.965048,91.5051708 L319.126423,89.0714631 L311.220894,88.4212015 L304.933705,83.4852785 L299.074933,78.0417246 L291.637075,74.5590631 L284.170057,77.8260938 L276.803975,80.4967708 L271.705587,83.9154169 L265.413912,84.4657246 L259.514766,89.3600938 L253.810763,94.1747246 L247.348618,97.7775554 L240.488337,100.416786 L233.583196,102.786478 L226.313564,104.59014 L219.362441,101.291663 L212.901418,99.2880938 L206.321515,97.9089554 L199.275063,98.0976323 L193.619285,93.3829554 L187.427424,90.6819554 L180.109567,88.7042169 L172.87358,86.7904938 L165.295533,86.5490323 L158.09992,84.3522938 L151.820404,81.9371697 C151.8682,89.7132746 147.400978,98.3868646 133.429181,106.205647 C130.133061,113.139524 112.879741,131.016663 92.2181496,106.205647 C80.3503236,100.593632 61.2274451,83.7564627 86.2842366,59.3261704 C86.2842366,59.3261704 85.5583759,48.9646145 90.8956782,40.6872854 Z" id="Combined-Shape" stroke="#BAC3BC" stroke-width="2" mask="url(#mask-2)"></path>
                        </g>
                        <g id="Group-6" transform="translate(0.000000, 184.784615)">
                            <mask id="mask-4" fill="white">
                                <use xlink:href="#path-3"></use>
                            </mask>
                            <g id="Clip-5"></g>
                            <path d="M92.7493433,11.4504183 L88.2779182,12.7190708 L80.2568739,17.4258862 L73.1061218,13.1806554 L65.2050791,14.1599785 L59.4180841,19.4193477 L55.1798952,25.8354862 L47.5110053,29.7494092 L39.1221054,31.2262554 L30.674887,31.62944 L22.6269264,34.66624 L14.2503632,34.9964246 L6.00277373,36.0880554 L-7.2400243,38.4060862 L-16.616975,37.7165169 L-22.3333149,37.2111323 L-22.3333149,132.516563 L693.190495,132.516563 L693.190495,18.1817169 L687.27004,20.3661015 L677.823555,21.3757477 L668.318752,20.6547323 L658.853202,19.8562246 L649.406718,19.7910862 L639.960233,20.0359169 L630.67749,21.9283015 L622.162981,17.4786708 L610.991613,13.6972708 L603.350761,15.1449169 L595.841125,15.6480554 L588.11616,13.1626862 L577.984432,13.8410246 L567.971585,11.8060092 L559.121744,6.52305538 L548.896931,7.02731692 L538.958104,6.45791692 L530.079104,7.15984 L521.692447,9.74740923 L512.977188,9.92710154 L506.039522,7.16545538 L496.726498,5.23937846 L486.245981,4.70479385 L476.198367,0.365224615 L468.897332,1.45124 L461.753309,3.74905538 L452.701596,5.20231692 L444.645785,10.3651015 L436.347728,15.1628862 L428.297524,20.3189323 L419.61591,24.0700092 L411.017288,27.4381169 L401.630243,27.0955785 L393.116856,25.0077785 L385.223664,21.1837015 L377.592905,15.1729938 L372.292646,6.59605538 L363.727669,1.79939385 L353.927908,7.05202462 L346.04481,14.4115477 L337.777033,19.4609015 L330.423288,25.4154554 L321.814572,28.2557169 L312.467902,28.9520246 L303.804232,25.4210708 L295.946928,20.6008246 L290.055633,16.05124 L284.201347,11.9688554 L275.312253,12.0104092 L266.4826,16.1579323 L262.848905,23.3197938 L257.448831,28.7712092 L252.016233,34.5516862 L241.001877,35.3749015 L231.947922,28.6330708 L224.118656,29.1193631 L217.285291,30.7646708 L209.17789,29.4079938 L203.52099,23.0918092 L195.272279,23.1401015 L187.323012,23.4343477 L179.020468,25.3559323 L170.295115,26.89904 L161.982478,24.5214862 L154.214895,20.70864 L146.164692,17.8279477 L136.626243,12.40124 L133.866158,10.5744575 C133.721543,10.6567419 133.575886,10.738934 133.429181,10.8210319 C130.161348,17.6954023 113.174849,35.32601 92.7493433,11.4504183 Z" id="Combined-Shape" stroke="#BAC3BC" stroke-width="2" mask="url(#mask-4)"></path>
                        </g>
                        <path d="M86.2842366,148.72617 C86.2842366,148.72617 84.3002842,120.40554 111.010182,120.003478 C117.94224,119.899032 135.73725,121.983463 138.703645,148.72617 C145.626731,153.017447 167.056557,176.78737 133.429181,195.605647 C130.133061,202.539524 112.879741,220.416663 92.2181496,195.605647 C80.3503236,189.993632 61.2274451,173.156463 86.2842366,148.72617 Z" id="Stroke-9" stroke="#BAC3BC" stroke-width="2"></path>
                        <g id="Group-14" transform="translate(113.272578, 157.830769)">
                            <path d="M0.668644663,0.0709784615 L0.416304762,90.2518092" id="Fill-11" fill="#FEFEFE"></path>
                            <path d="M0.252339901,0 L0,90.1808308" id="Stroke-13" stroke="#BAC3BC" stroke-width="2"></path>
                        </g>
                        <g id="Group-18" transform="translate(113.272578, 170.184615)">
                            <path d="M0.559185222,15.1700738 L15.615466,0.643073846" id="Fill-15" fill="#FEFEFE"></path>
                            <path d="M1,15.527 L16.0562808,1" id="Stroke-17" stroke="#BAC3BC" stroke-width="2"></path>
                        </g>
                        <g id="Group-22" transform="translate(96.449918, 184.784615)">
                            <path d="M17.3818453,14.4362554 L0.859750082,0.638132308" id="Fill-19" fill="#FEFEFE"></path>
                            <path d="M17.5220952,14.7981231 L1,1" id="Stroke-21" stroke="#BAC3BC" stroke-width="2"></path>
                        </g>
                        <path d="M221.175811,29.8117923 C221.175811,45.8717923 208.174138,58.8927462 192.135414,58.8927462 C176.098933,58.8927462 163.096138,45.8717923 163.096138,29.8117923 C163.096138,13.7506692 176.098933,0.730838462 192.135414,0.730838462 C208.174138,0.730838462 221.175811,13.7506692 221.175811,29.8117923 Z" id="Stroke-23" stroke="#BAC3BC" stroke-width="2"></path>
                        <path d="M431.785422,44.9042615 C431.435511,38.925 426.513201,34.1451846 420.580409,34.1451846 C416.976995,34.1451846 413.489097,35.9140308 411.327946,38.8003385 C411.277478,38.7756308 411.224767,38.7565385 411.174299,38.7329538 C411.043082,38.6689385 410.910744,38.6094154 410.77392,38.5543846 C410.697657,38.5240615 410.622516,38.4971077 410.547375,38.4701538 C410.411672,38.4229846 410.274848,38.3814308 410.13578,38.3432462 C410.059518,38.3241538 409.984376,38.3016923 409.906992,38.2837231 C409.75671,38.2511538 409.605306,38.2253231 409.450537,38.2017385 C409.383247,38.1916308 409.318199,38.1792769 409.250908,38.1714154 C409.029971,38.1455846 408.807912,38.1321077 408.581367,38.1321077 C405.288611,38.1321077 402.609322,40.8128923 402.609322,44.1102462 C402.609322,44.1944769 402.61493,44.2775846 402.620537,44.3618154 L402.620537,44.3640615 C399.861621,45.8701077 397.966268,49.0259538 397.966268,52.1851692 C397.966268,56.8908615 401.789498,60.7194308 406.487506,60.7194308 L422.747168,60.7194308 C422.816701,60.7194308 422.885114,60.7160615 422.954647,60.7104462 L422.995022,60.7048308 L423.083621,60.7104462 C423.152033,60.7160615 423.219324,60.7194308 423.288857,60.7194308 L429.793619,60.7194308 C434.192184,60.7194308 437.773168,57.1356923 437.773168,52.7287385 C437.773168,49.0821077 435.234068,45.8117077 431.785422,44.9042615 Z" id="Stroke-25" stroke="#BAC3BC" stroke-width="2"></path>
                        <path d="M121.77318,60.5976892 C121.269622,51.9994123 114.190647,45.1261815 105.659315,45.1261815 C100.477936,45.1261815 95.4614184,47.6699508 92.3537123,51.8219662 C92.2819356,51.7837815 92.2067944,51.7579508 92.1338962,51.7242585 C91.9443609,51.6321662 91.7525826,51.5445662 91.5585612,51.4670738 C91.4486532,51.4232738 91.3398667,51.3850892 91.2310801,51.3469046 C91.0370588,51.2783969 90.8407944,51.2177508 90.640044,51.1649662 C90.5312575,51.13352 90.4213494,51.10432 90.3103199,51.0784892 C90.0961113,51.0301969 89.8774167,50.9931354 89.6553576,50.9594431 C89.5589077,50.9448431 89.4635793,50.9268738 89.3671294,50.9156431 C89.0497419,50.8808277 88.7301113,50.8583662 88.4048732,50.8583662 C83.6687337,50.8583662 79.8185875,54.7150123 79.8185875,59.4566431 C79.8185875,59.5779354 79.8264381,59.6969815 79.8331672,59.8171508 L79.8331672,59.8216431 C75.8652624,61.9869354 73.1399915,66.5252892 73.1399915,71.0681354 C73.1399915,77.8357969 78.6365153,83.34112 85.3936171,83.34112 L108.775993,83.34112 C108.875808,83.34112 108.9745,83.3355046 109.073193,83.3276431 L109.132633,83.3197815 L109.260486,83.3276431 C109.358057,83.3355046 109.455629,83.34112 109.554322,83.34112 L118.907721,83.34112 C125.235284,83.34112 130.383018,78.1861969 130.383018,71.85092 C130.383018,66.6061508 126.731379,61.9027046 121.77318,60.5976892 Z" id="Stroke-27" stroke="#BAC3BC" stroke-width="2"></path>
                        <polygon id="Fill-29" fill="#767777" opacity="0.7" points="182.146343 257.578194 464.801799 257.578194 426.650249 253.194825 190.870574 253.199317"></polygon>
                        <path d="M181.6097,181.580702 C181.6097,184.669163 179.481073,187.196086 176.879168,187.196086 C174.278385,187.196086 172.148636,184.669163 172.148636,181.580702 L172.148636,173.171102 C172.148636,170.08264 174.278385,167.555717 176.879168,167.555717 C179.481073,167.555717 181.6097,170.08264 181.6097,173.171102 L181.6097,181.580702 Z" id="Fill-31" fill="#424242"></path>
                        <path d="M181.6097,194.879954 C181.6097,197.579831 179.481073,199.790046 176.879168,199.790046 C174.278385,199.790046 172.148636,197.579831 172.148636,194.879954 C172.148636,192.178954 174.278385,189.968738 176.879168,189.968738 C179.481073,189.968738 181.6097,192.178954 181.6097,194.879954" id="Fill-33" fill="#424242"></path>
                        <path d="M313.776032,217.213237 C308.735963,217.469298 304.748992,226.221437 304.872359,236.759268 C304.993482,247.300468 309.17896,255.637068 314.22015,255.379883 L323.360462,255.379883 L318.123007,231.249452 L313.776032,217.213237 Z" id="Fill-35" fill="#424242"></path>
                        <path d="M332.265593,235.831718 C332.143349,225.293888 327.956749,216.956165 322.91668,217.213349 C317.876611,217.468288 313.888519,226.221549 314.011886,236.75938 C314.13413,247.30058 318.319608,255.63718 323.360799,255.379995 C328.400867,255.125057 332.387838,246.372918 332.265593,235.831718" id="Fill-37" fill="#333332"></path>
                        <path d="M342.125915,217.213237 C337.085846,217.469298 333.097754,226.221437 333.22112,236.759268 C333.343365,247.300468 337.528843,255.637068 342.570033,255.379883 L350.542853,255.379883 L346.47289,231.249452 L342.125915,217.213237 Z" id="Fill-39" fill="#424242"></path>
                        <path d="M359.447984,235.831718 C359.325739,225.293888 355.140261,216.956165 350.099071,217.213349 C345.059002,217.468288 341.072032,226.221549 341.195398,236.75938 C341.316521,247.30058 345.501999,255.63718 350.543189,255.379995 C355.58438,255.125057 359.570229,246.372918 359.447984,235.831718" id="Fill-41" fill="#424242"></path>
                        <path d="M369.002694,217.213237 C363.962625,217.469298 359.974533,226.221437 360.097899,236.759268 C360.220144,247.300468 364.405622,255.637068 369.445691,255.379883 L377.419632,255.379883 L373.348548,231.249452 L369.002694,217.213237 Z" id="Fill-43" fill="#424242"></path>
                        <path d="M386.324875,235.831718 C386.20263,225.293888 382.016031,216.956165 376.975962,217.213349 C371.935893,217.468288 367.948923,226.221549 368.071167,236.75938 C368.193412,247.30058 372.37889,255.63718 377.42008,255.379995 C382.460149,255.125057 386.44712,246.372918 386.324875,235.831718" id="Fill-45" fill="#333332"></path>
                        <path d="M340.168767,235.548703 C340.046522,225.011995 335.859923,216.674272 330.819854,216.931457 C325.779785,217.186395 321.791693,225.938534 321.915059,236.476365 C322.037304,247.017565 326.222782,255.355288 331.263972,255.098103 C336.304041,254.843165 340.291011,246.091026 340.168767,235.548703" id="Fill-47" fill="#333332"></path>
                        <polygon id="Fill-49" fill="#333332" points="415.968197 225.729529 413.278814 229.004422 411.49449 223.184637 409.670914 217.245806 407.019663 208.605975 404.205793 217.780391 401.948192 225.133175 400.758269 229.004422 398.073372 225.729529 399.919379 219.713206 401.908939 213.216206 405.205059 202.471729 407.019663 204.68756 408.833146 202.471729 412.007021 212.816391 413.711717 218.368883"></polygon>
                        <polygon id="Fill-51" fill="#333332" points="444.088058 225.729529 441.398675 229.004422 439.614352 223.184637 437.790776 217.245806 435.139524 208.605975 432.325654 217.780391 430.068053 225.133175 428.87813 229.004422 426.193234 225.729529 428.03924 219.713206 430.0288 213.216206 433.32492 202.471729 435.139524 204.68756 436.951886 202.471729 440.126882 212.816391 441.831578 218.368883"></polygon>
                        <polygon id="Fill-53" fill="#364242" points="465.371639 208.896515 462.683378 212.172531 462.095706 210.518238 464.717798 212.172531 462.683378 208.605638 459.867265 217.780054 457.609664 225.132838 456.421984 229.004085 453.734844 225.729192 455.581972 219.712869 457.570411 213.216992 460.866531 202.471392 462.683378 204.687223 464.494618 202.471392 467.668493 212.816054 465.990713 213.167577"></polygon>
                        <path d="M221.596378,202.153674 C218.068105,202.153674 215.182458,199.263997 215.182458,195.73192 L215.182458,125.303766 C215.182458,121.772812 218.068105,118.882012 221.596378,118.882012 L431.608224,118.882012 C435.134253,118.882012 438.021022,121.772812 438.021022,125.303766 L438.021022,195.73192 C438.021022,199.263997 435.134253,202.153674 431.608224,202.153674 L221.596378,202.153674 Z" id="Fill-55" fill="#F7E1CC"></path>
                        <path d="M271.18487,200.062168 C267.657719,200.062168 264.772072,197.172491 264.772072,193.639291 L264.772072,136.61506 C264.772072,133.08186 267.657719,130.192183 271.18487,130.192183 L289.056142,130.192183 C292.583293,130.192183 295.46894,133.08186 295.46894,136.61506 L295.46894,193.639291 C295.46894,197.172491 292.583293,200.062168 289.056142,200.062168 L271.18487,200.062168 Z" id="Fill-57" fill="#EF833B"></path>
                        <polygon id="Fill-59" fill="#767F7F" points="246.216453 204.118385 300.047844 204.118385 300.047844 193.113354 246.216453 193.113354"></polygon>
                        <path d="M321.415202,204.117935 L321.415202,222.253382 C321.415202,223.430366 322.376336,224.393966 323.552801,224.393966 L442.60901,224.393966 C443.783231,224.393966 444.746609,223.430366 444.746609,222.253382 L444.746609,205.153412" id="Fill-61" fill="#21211F"></path>
                        <polygon id="Fill-62" fill="#333332" points="394.162216 210.868414 390.409641 224.810291 388.519896 231.816045 344.103587 232.822322 334.547195 210.868414"></polygon>
                        <path d="M374.585126,228.4111 C374.585126,230.437131 375.830002,232.094792 377.351892,232.094792 C378.873782,232.094792 380.118659,231.429931 380.118659,230.6157 L380.118659,225.452915 L380.118659,214.5557 C380.118659,212.528546 378.873782,210.872008 377.351892,210.872008 C375.830002,210.872008 374.585126,212.528546 374.585126,214.5557 L374.585126,228.4111 Z" id="Fill-63" fill="#364242"></path>
                        <path d="M281.225867,204.117935 L281.225867,212.416351 C281.225867,213.594458 282.188123,214.556935 283.363466,214.556935 L467.053456,214.556935 C468.229921,214.556935 469.192177,213.594458 469.192177,212.416351 L469.192177,205.153412" id="Fill-64" fill="#21211F"></path>
                        <path d="M383.710522,204.117935 L383.710522,212.416351 C383.710522,213.594458 384.672778,214.556935 385.848121,214.556935 L457.669664,214.556935 C458.845008,214.556935 460.076426,213.632643 460.403907,212.501705 L462.537021,205.153412" id="Fill-65" fill="#21211F"></path>
                        <path d="M471.948402,204.117935 L471.948402,212.416351 C471.948402,213.594458 472.769348,214.556935 473.774221,214.556935 C474.776852,214.556935 475.598919,213.594458 475.598919,212.416351 L475.598919,205.153412" id="Fill-66" fill="#191F25"></path>
                        <path d="M305.895849,201.377178 C302.368698,201.377178 299.483051,198.487502 299.483051,194.954302 L299.483051,124.527271 C299.483051,120.995194 302.368698,118.105517 305.895849,118.105517 L467.504416,118.105517 C471.031567,118.105517 473.917214,120.995194 473.917214,124.527271 L473.917214,194.954302 C473.917214,198.487502 471.031567,201.377178 467.504416,201.377178 L305.895849,201.377178 Z" id="Fill-67" fill="#F6F0EA"></path>
                        <polygon id="Fill-68" fill="#21211F" points="388.990594 226.436843 386.303454 229.712858 384.220809 222.918243 382.428635 217.082735 379.172889 206.46292 382.636114 207.255812 384.832032 212.880182 386.528878 218.416951"></polygon>
                        <polygon id="Fill-69" fill="#21211F" points="399.999791 229.004422 409.060476 205.688222 380.06606 205.755606 383.322927 216.374298 385.115101 222.209806 387.197747 229.004422"></polygon>
                        <polygon id="Fill-70" fill="#21211F" points="417.760034 225.729529 415.070652 229.004422 413.28745 223.184637 411.463873 217.245806 408.812622 208.605975 405.99763 217.780391 403.741151 225.133175 402.551228 229.004422 399.86521 225.729529 401.712338 219.713206 403.701898 213.216206 406.996896 202.471729 408.812622 204.68756 410.624983 202.471729 413.798858 212.816391 415.503555 218.368883"></polygon>
                        <polygon id="Fill-71" fill="#21211F" points="464.717798 205.755382 461.260181 217.034443 459.058655 224.205289 457.587233 229.004197 454.896729 225.729305 456.936757 219.076197 458.905008 212.658935 462.03178 202.471505"></polygon>
                        <polygon id="Fill-72" fill="#21211F" points="445.677239 225.729529 442.987856 229.004422 441.156429 223.027406 439.337339 217.096437 436.328326 207.294222 433.386603 216.89316 431.192928 224.03256 429.669917 229.004422 426.979413 225.729529 429.058693 218.959622 431.024702 212.550222 434.114464 202.471729 436.328326 205.173852 438.542188 202.471729 441.681296 212.706329 443.384871 218.259945"></polygon>
                        <path d="M441.682978,210.868414 C440.817172,212.148722 439.552108,214.168014 438.857893,215.802091 L441.155868,223.026845 C441.770456,221.220937 443.005239,219.067998 443.86656,217.716937 L441.682978,210.868414 Z" id="Fill-73" fill="#364242"></path>
                        <polygon id="Fill-74" fill="#21211F" points="353.939796 209.458615 466.731246 209.458615 466.731246 206.466738 353.939796 206.466738"></polygon>
                        <path d="M411.949824,217.213237 C406.909755,217.469298 402.921663,226.221437 403.045029,236.759268 C403.167274,247.300468 407.352752,255.637068 412.393942,255.379883 L421.436683,255.379883 L411.949824,217.213237" id="Fill-75" fill="#21211F"></path>
                        <path d="M423.201043,211.343363 L418.483969,214.702486 C416.092909,214.824902 416.58413,216.64204 414.862611,219.594609 C414.054002,220.984978 413.34745,222.630286 412.770994,224.465394 C411.655091,228.007578 411.027045,232.267409 411.078634,236.820363 C411.090971,237.732302 411.127981,238.628517 411.190785,239.507886 L401.074759,239.587625 C401.03102,238.918271 401.001861,238.230948 400.985038,237.540255 C400.980552,237.326871 400.976066,237.112363 400.973823,236.898978 C400.955879,235.428871 400.999618,233.987963 401.101675,232.580748 C401.945051,220.825502 407.216152,211.64884 413.091746,211.352348 L423.201043,211.343363 Z" id="Fill-76" fill="#454F58"></path>
                        <path d="M439.147579,217.213237 C434.10751,217.469298 430.12054,226.221437 430.242784,236.759268 C430.365029,247.300468 434.550507,255.637068 439.591697,255.379883 L449.172763,255.379883 C449.172763,255.379883 441.627239,221.762822 441.627239,221.483175 C441.627239,221.203529 439.147579,217.213237 439.147579,217.213237" id="Fill-77" fill="#21211F"></path>
                        <path d="M451.405354,211.343363 L446.68828,214.702486 C444.29722,214.824902 444.788441,216.64204 443.066922,219.594609 C442.258313,220.984978 441.551762,222.630286 440.975305,224.465394 C439.859402,228.007578 439.231356,232.267409 439.282945,236.820363 C439.295282,237.732302 439.332292,238.628517 439.395097,239.507886 L429.27907,239.587625 C429.235331,238.918271 429.206172,238.230948 429.189349,237.540255 C429.184863,237.326871 429.180377,237.112363 429.178134,236.898978 C429.16019,235.428871 429.203929,233.987963 429.305987,232.580748 C430.149363,220.825502 435.420463,211.64884 441.296057,211.352348 L451.405354,211.343363 Z" id="Fill-78" fill="#454F58"></path>
                        <path d="M429.501914,218.947155 C427.716469,216.172032 425.494757,212.905002 423.102575,213.027417 C420.710392,213.148709 417.068847,216.639232 415.350693,219.591802 C412.974212,223.67194 411.487089,229.910632 411.566716,236.818678 C411.577931,237.73174 411.594754,240.327171 411.657558,241.203171 L414.085629,241.079632 C414.006001,240.209248 413.979085,237.612694 413.968992,236.696263 C413.86357,227.561155 417.331281,219.94894 421.702929,219.726571 C426.072335,219.504202 429.715001,226.754786 429.821545,235.891017 C429.831639,236.807448 429.805844,237.709278 429.746404,238.588648 L433.63356,238.465109 C433.675056,237.583494 433.691878,236.681663 433.682906,235.769725 C433.601036,228.860555 431.970359,222.78134 429.501914,218.947155" id="Fill-79" fill="#21211F"></path>
                        <path d="M431.508297,235.831718 C431.386052,225.293888 427.199453,216.956165 422.159384,217.213349 C417.119315,217.468288 413.131223,226.221549 413.254589,236.75938 C413.376834,247.30058 417.562312,255.63718 422.603502,255.379995 C427.643571,255.125057 431.630542,246.372918 431.508297,235.831718" id="Fill-80" fill="#424242"></path>
                        <path d="M422.548324,250.720125 C418.74416,250.914417 415.574771,244.600478 415.482807,236.645725 C415.389721,228.693217 418.40995,222.06594 422.212992,221.872771 C426.018278,221.680725 429.187667,227.992417 429.279631,235.944925 C429.372716,243.898555 426.35361,250.526955 422.548324,250.720125" id="Fill-81" fill="#424242"></path>
                        <path d="M427.531532,236.047798 C427.543869,237.097875 427.482186,238.110891 427.352091,239.069998 C426.921431,242.313445 425.751695,244.930214 424.236534,246.048798 C423.756527,246.402568 423.241754,246.608091 422.706793,246.636168 C422.171833,246.663122 421.654816,246.50926 421.168081,246.204906 C419.648434,245.258152 418.429352,242.819952 417.911214,239.682075 C417.748595,238.697137 417.654388,237.648183 417.642051,236.549814 C417.628593,235.452568 417.698127,234.394629 417.837194,233.395091 C418.285798,230.181968 419.46002,227.608998 420.971816,226.52186 C421.441729,226.181568 421.944166,225.985029 422.465669,225.958075 C422.989414,225.931122 423.495215,226.077122 423.970736,226.369122 C425.528514,227.314752 426.77227,229.82146 427.281435,233.042445 C427.431718,233.988075 427.519196,234.997722 427.531532,236.047798" id="Fill-82" fill="#67676D"></path>
                        <path d="M422.387275,236.068575 C422.39849,236.985006 422.351387,237.871114 422.251572,238.711175 C421.918484,241.542452 421.007817,243.825668 419.82238,244.796006 C419.448917,245.104852 419.046295,245.282298 418.62685,245.30476 C418.208526,245.326098 417.804782,245.190206 417.423469,244.921791 C416.234667,244.088468 415.276897,241.952375 414.868667,239.208698 C414.739694,238.346175 414.664553,237.429745 414.653337,236.469514 C414.642122,235.510406 414.695955,234.586114 414.802498,233.711237 C415.149045,230.905791 416.064198,228.66076 417.24627,227.716252 C417.611883,227.422006 418.004411,227.250175 418.413763,227.22996 C418.821993,227.208622 419.217886,227.338898 419.591349,227.59496 C420.810431,228.426037 421.786145,230.622775 422.188768,233.440575 C422.307648,234.26716 422.37606,235.152145 422.387275,236.068575" id="Fill-83" fill="#303035"></path>
                        <path d="M419.322859,236.236363 C419.325102,236.502532 419.309401,236.76084 419.276877,237.005671 C419.166969,237.830009 418.869769,238.494871 418.482848,238.777886 C418.360603,238.867732 418.229386,238.920517 418.092562,238.927255 C417.956859,238.932871 417.825643,238.893563 417.701155,238.816071 C417.314234,238.573486 417.003575,237.951302 416.871237,237.152794 C416.829741,236.903471 416.806189,236.635055 416.802825,236.355409 C416.79946,236.076886 416.817404,235.807348 416.853293,235.553532 C416.966565,234.735932 417.266009,234.082302 417.651808,233.807148 C417.770689,233.721794 417.898541,233.671255 418.032,233.664517 C418.16546,233.658902 418.294434,233.695963 418.414436,233.771209 C418.812572,234.012671 419.128838,234.651702 419.258933,235.470425 C419.297065,235.711886 419.319495,235.969071 419.322859,236.236363" id="Fill-84" fill="#303035"></path>
                        <path d="M434.56946,231.387591 C433.454679,219.731175 428.453863,211.054283 422.578268,211.353022 C416.701552,211.65176 411.908216,220.827298 411.06484,232.582545 C410.962782,233.986391 410.920165,235.430668 410.936988,236.899652 C410.948203,237.808222 410.981848,238.707806 411.039045,239.588298 L412.649534,239.506314 C412.58673,238.629191 412.548598,237.730729 412.538505,236.818791 C412.457756,229.910745 413.946001,223.672052 416.322482,219.591914 C418.041758,216.639345 420.224217,214.824452 422.6164,214.70316 C425.009703,214.580745 427.230295,216.172145 429.01574,218.947268 C431.484185,222.781452 433.114861,228.860668 433.19561,235.768714 C433.205703,236.681775 433.188881,237.583606 433.146263,238.465222 L431.932789,238.525868 L434.758996,238.383237 C434.793763,237.497129 434.808342,236.596422 434.797127,235.687852 C434.780304,234.217745 434.70292,232.780206 434.56946,231.387591" id="Fill-85" fill="#767777"></path>
                        <path d="M424.120009,246.042509 C423.641124,246.396278 423.126351,246.602925 422.59139,246.629878 C422.056429,246.657955 421.539413,246.502971 421.052677,246.19974 C419.53303,245.251863 418.313948,242.813663 417.79581,239.676909 C417.633191,238.691971 417.538984,237.643017 417.526648,236.544648 C417.51319,235.446278 417.583845,234.38834 417.722912,233.388802 C418.170395,230.175678 419.344617,227.602709 420.857534,226.515571 C421.326326,226.176402 421.828763,225.97874 422.351387,225.951786 C422.874011,225.925955 423.379812,226.071955 423.856454,226.363955 C425.413111,227.30734 426.656866,229.815171 427.167154,233.036155 C427.317436,233.982909 427.403792,234.992555 427.416129,236.042632 C427.428466,237.091586 427.366782,238.105725 427.236687,239.064832 C426.807149,242.308278 425.637413,244.923925 424.120009,246.042509 M422.235871,223.830294 C418.948723,223.996509 416.338968,229.725325 416.418595,236.598555 C416.498222,243.474032 419.238073,248.92994 422.526342,248.763725 C425.814612,248.596386 428.424367,242.867571 428.34474,235.992094 C428.263991,229.118863 425.52414,223.662955 422.235871,223.830294" id="Fill-86" fill="#BBBCBE"></path>
                        <polygon id="Fill-87" fill="#21211F" points="313.377335 213.194643 304.018328 213.194643 299.885561 205.977751 317.511223 205.977751"></polygon>
                        <polygon id="Fill-88" fill="#21211F" points="322.202727 208.823066 298.215856 208.823066 296.945185 205.688558 323.47452 205.688558"></polygon>
                        <path d="M457.238444,218.947155 C455.452999,216.172032 453.231286,212.905002 450.839104,213.027417 C448.4458,213.148709 444.805376,216.639232 443.087222,219.591802 C440.710741,223.67194 439.222496,229.910632 439.303245,236.818678 C439.313338,237.73174 439.331283,240.327171 439.392966,241.203171 L441.822158,241.079632 C441.742531,240.209248 441.715614,237.612694 441.704399,236.696263 C441.598977,227.561155 445.06781,219.94894 449.438337,219.726571 C453.808864,219.504202 457.450409,226.754786 457.556953,235.891017 C457.568168,236.807448 457.542373,237.709278 457.482933,238.588648 L461.370089,238.465109 C461.411585,237.583494 461.428407,236.681663 461.418314,235.769725 C461.337565,228.860555 459.706889,222.78134 457.238444,218.947155" id="Fill-89" fill="#21211F"></path>
                        <path d="M459.243817,235.831718 C459.122694,225.293888 454.936094,216.956165 449.896025,217.213349 C444.855956,217.468288 440.867864,226.221549 440.991231,236.75938 C441.113475,247.30058 445.298953,255.63718 450.340144,255.379995 C455.380212,255.125057 459.366061,246.372918 459.243817,235.831718" id="Fill-90" fill="#424242"></path>
                        <path d="M450.284853,250.720125 C446.480689,250.914417 443.3113,244.600478 443.218214,236.645725 C443.12625,228.693217 446.146479,222.06594 449.949521,221.872771 C453.753686,221.680725 456.924196,227.992417 457.01616,235.944925 C457.108124,243.898555 454.089017,250.526955 450.284853,250.720125" id="Fill-91" fill="#424242"></path>
                        <path d="M455.268174,236.047798 C455.28051,237.097875 455.217706,238.110891 455.088732,239.069998 C454.658072,242.313445 453.488336,244.930214 451.972054,246.048798 C451.493169,246.402568 450.978395,246.608091 450.442313,246.636168 C449.907353,246.663122 449.391458,246.50926 448.9036,246.204906 C447.385075,245.258152 446.164871,242.819952 445.647855,239.682075 C445.484114,238.697137 445.389908,237.648183 445.378692,236.549814 C445.365234,235.452568 445.434768,234.394629 445.573835,233.395091 C446.02244,230.181968 447.196661,227.608998 448.708458,226.52186 C449.177249,226.181568 449.680807,225.985029 450.20231,225.958075 C450.724934,225.931122 451.230735,226.077122 451.707377,226.369122 C453.265156,227.314752 454.507789,229.82146 455.018077,233.042445 C455.168359,233.988075 455.254715,234.997722 455.268174,236.047798" id="Fill-92" fill="#67676D"></path>
                        <path d="M450.123916,236.068575 C450.135131,236.985006 450.088028,237.871114 449.987092,238.711175 C449.654003,241.542452 448.744458,243.825668 447.559021,244.796006 C447.184437,245.104852 446.782936,245.282298 446.363491,245.30476 C445.945167,245.326098 445.541424,245.190206 445.16011,244.921791 C443.970187,244.088468 443.013539,241.952375 442.604187,239.208698 C442.476335,238.346175 442.401194,237.429745 442.389979,236.469514 C442.378764,235.510406 442.431475,234.586114 442.53914,233.711237 C442.885686,230.905791 443.799718,228.66076 444.98179,227.716252 C445.348524,227.422006 445.741053,227.250175 446.149282,227.22996 C446.557512,227.208622 446.954527,227.338898 447.326869,227.59496 C448.545951,228.426037 449.521665,230.622775 449.924287,233.440575 C450.043167,234.26716 450.112701,235.152145 450.123916,236.068575" id="Fill-93" fill="#303035"></path>
                        <path d="M447.058379,236.236363 C447.061744,236.502532 447.046042,236.76084 447.013519,237.005671 C446.902489,237.830009 446.605289,238.494871 446.219489,238.777886 C446.097244,238.867732 445.964906,238.920517 445.829203,238.927255 C445.692379,238.932871 445.561162,238.893563 445.437796,238.816071 C445.050875,238.573486 444.740216,237.951302 444.607878,237.152794 C444.566382,236.903471 444.542831,236.635055 444.539466,236.355409 C444.536101,236.076886 444.554046,235.807348 444.589934,235.553532 C444.703207,234.735932 445.00265,234.082302 445.38845,233.807148 C445.50733,233.721794 445.635182,233.671255 445.768642,233.664517 C445.902101,233.658902 446.029954,233.695963 446.151077,233.771209 C446.548092,234.012671 446.865479,234.651702 446.994453,235.470425 C447.033706,235.711886 447.055014,235.969071 447.058379,236.236363" id="Fill-94" fill="#303035"></path>
                        <path d="M462.30498,231.387591 C461.190199,219.731175 456.189382,211.054283 450.313788,211.353022 C444.437072,211.65176 439.644857,220.827298 438.801481,232.582545 C438.699423,233.986391 438.655685,235.430668 438.673629,236.899652 C438.683722,237.808222 438.718489,238.707806 438.775686,239.588298 L440.386176,239.506314 C440.323371,238.629191 440.28524,237.730729 440.274024,236.818791 C440.194397,229.910745 441.682642,223.672052 444.059123,219.591914 C445.778399,216.639345 447.959737,214.824452 450.353041,214.70316 C452.745223,214.580745 454.966936,216.172145 456.752381,218.947268 C459.220826,222.781452 460.851502,228.860668 460.93113,235.768714 C460.942345,236.681775 460.925522,237.583606 460.882905,238.465222 L459.66943,238.525868 L462.494515,238.383237 C462.530404,237.497129 462.543862,236.596422 462.533768,235.687852 C462.515824,234.217745 462.439561,232.780206 462.30498,231.387591" id="Fill-95" fill="#767777"></path>
                        <path d="M451.856538,246.042509 C451.377653,246.396278 450.86288,246.602925 450.327919,246.629878 C449.791837,246.657955 449.275942,246.502971 448.789206,246.19974 C447.269559,245.251863 446.049356,242.813663 445.532339,239.676909 C445.36972,238.691971 445.275513,237.643017 445.262055,236.544648 C445.249719,235.446278 445.319252,234.38834 445.459441,233.388802 C445.906924,230.175678 447.081146,227.602709 448.594064,226.515571 C449.062855,226.176402 449.56417,225.97874 450.087916,225.951786 C450.61054,225.925955 451.116341,226.071955 451.592983,226.363955 C453.14964,227.30734 454.393395,229.815171 454.903683,233.036155 C455.052844,233.982909 455.140321,234.992555 455.151536,236.042632 C455.163873,237.091586 455.103311,238.105725 454.973216,239.064832 C454.542556,242.308278 453.373942,244.923925 451.856538,246.042509 M449.9724,223.830294 C446.685252,223.996509 444.075497,229.725325 444.155124,236.598555 C444.234752,243.474032 446.973481,248.92994 450.26175,248.763725 C453.550019,248.596386 456.159775,242.867571 456.080147,235.992094 C455.999399,229.118863 453.260669,223.662955 449.9724,223.830294" id="Fill-96" fill="#BBBCBE"></path>
                        <polygon id="Fill-97" fill="#424242" points="245.453826 206.466738 299.804476 206.466738 299.804476 201.761046 245.453826 201.761046"></polygon>
                        <polygon id="Fill-98" fill="#767777" points="299.240356 204.118385 473.917887 204.118385 473.917887 193.113354 299.240356 193.113354"></polygon>
                        <polygon id="Fill-99" fill="#EF833B" points="240.601834 193.113129 240.601834 201.760822 240.082575 201.760822 240.082575 206.466514 294.433225 206.466514 294.433225 204.11816 294.433225 201.760822 294.433225 193.113129"></polygon>
                        <polygon id="Fill-100" fill="#21211F" points="299.240356 206.470108 476.341471 206.470108 476.341471 201.765538 299.240356 201.765538"></polygon>
                        <polygon id="Fill-101" fill="#424242" points="325.407331 210.787328 285.274072 210.787328 281.837763 219.164358 327.409228 219.164358"></polygon>
                        <path d="M193.670314,217.213237 C188.630245,217.469298 184.642153,226.221437 184.765519,236.759268 C184.887764,247.300468 189.073241,255.637068 194.114432,255.379883 L203.253622,255.379883 L198.017289,231.249452 L193.670314,217.213237 Z" id="Fill-102" fill="#21211F"></path>
                        <path d="M213.325237,235.831718 C213.202992,225.293888 209.016393,216.956165 203.976324,217.213349 C198.936255,217.468288 194.949284,226.221549 195.071529,236.75938 C195.193774,247.30058 199.379252,255.63718 204.420442,255.379995 C209.460511,255.125057 213.447481,246.372918 213.325237,235.831718" id="Fill-103" fill="#21211F"></path>
                        <path d="M250.544251,217.213237 C245.504182,217.469298 241.51609,226.221437 241.639456,236.759268 C241.761701,247.300468 245.947178,255.637068 250.987247,255.379883 L260.127559,255.379883 L254.890105,231.249452 L250.544251,217.213237 Z" id="Fill-104" fill="#424242"></path>
                        <path d="M269.032803,235.831718 C268.910558,225.293888 264.723959,216.956165 259.68389,217.213349 C254.643821,217.468288 250.655729,226.221549 250.779095,236.75938 C250.90134,247.30058 255.086818,255.63718 260.128008,255.379995 C265.168077,255.125057 269.155047,246.372918 269.032803,235.831718" id="Fill-105" fill="#424242"></path>
                        <path d="M323.04599,217.213237 C318.005922,217.469298 314.01783,226.221437 314.141196,236.759268 C314.26344,247.300468 318.448918,255.637068 323.490109,255.379883 L332.207611,255.379883 L323.04599,217.213237 Z" id="Fill-106" fill="#21211F"></path>
                        <path d="M265.391145,217.213237 C260.351077,217.469298 256.362985,226.221437 256.486351,236.759268 C256.608595,247.300468 260.794073,255.637068 265.835264,255.379883 L274.421549,255.379883 L265.391145,217.213237" id="Fill-107" fill="#21211F"></path>
                        <path d="M293.876844,224.663392 C293.876844,226.013331 294.98041,227.119562 296.330709,227.119562 L296.958755,227.119562 C298.306811,227.119562 299.411499,226.453577 299.411499,225.640469 L299.411499,221.705208 L299.411499,214.634315 C299.411499,213.283254 298.306811,212.178146 296.958755,212.178146 L296.330709,212.178146 C294.98041,212.178146 293.876844,213.283254 293.876844,214.634315 L293.876844,224.663392 Z" id="Fill-108" fill="#424242"></path>
                        <path d="M178.161952,222.187008 C176.63109,222.187008 175.379484,223.440362 175.379484,224.973362 L175.379484,240.797515 C175.379484,242.330515 176.63109,243.584992 178.161952,243.584992 L269.569558,243.584992 C271.10042,243.584992 272.352026,242.330515 272.352026,240.797515 L272.352026,224.973362 C272.352026,223.440362 271.10042,222.187008 269.569558,222.187008 L178.161952,222.187008 Z" id="Fill-109" fill="#21211F"></path>
                        <path d="M287.339446,154.495231 L287.339446,125.696169 L211.338032,125.696169 C211.338032,125.696169 183.837469,127.0506 183.850927,145.213 C183.857656,156.164123 194.330323,158.235077 194.330323,158.235077 L287.339446,154.495231 Z" id="Fill-110" fill="#EF833B"></path>
                        <path d="M252.567232,145.146514 L260.344908,219.333606 L177.77032,219.333606 L175.462251,216.30916 C175.46113,214.851406 175.454401,213.818175 175.454401,209.361806 C175.454401,204.876237 175.638329,199.60676 175.989361,194.062129 C176.015156,193.647714 177.792751,194.400175 177.82191,193.98576 L182.074678,164.725114 L178.897439,160.893175 C179.706048,152.316237 182.685902,147.244422 185.103879,146.641329 C192.146966,144.887083 228.886534,145.146514 252.567232,145.146514" id="Fill-111" fill="#EF833B"></path>
                        <path d="M258.555874,167.337166 L255.282185,195.711705 L175.868014,195.711705 C175.89493,195.297289 175.920725,194.881751 175.951006,194.467335 L176.728213,185.67252 L177.923743,172.175382 L178.437395,166.374689 L178.438516,166.357843 L179.750684,166.357843 C180.152185,166.357843 180.375365,166.12312 180.265457,167.337166 L258.555874,167.337166 Z" id="Fill-112" fill="#333332"></path>
                        <path d="M258.677446,165.689837 L255.404878,194.064375 L175.989586,194.064375 C176.016502,193.64996 176.042297,193.234422 176.072578,192.820006 L176.849784,184.025191 L178.046436,170.528052 L178.558967,164.72736 L178.560088,164.710514 L179.872256,164.710514 C180.273756,164.710514 180.498059,164.475791 180.388151,165.689837 L258.677446,165.689837 Z" id="Fill-113" fill="#8A8A8A"></path>
                        <path d="M197.549619,165.689837 C195.095754,171.465822 189.066512,185.888375 185.652634,194.064375 L175.989698,194.064375 C176.016614,193.64996 176.042409,193.234422 176.07269,192.820006 L176.849897,184.025191 L178.045427,170.528052 L178.557957,164.72736 L178.5602,164.710514 L179.872368,164.710514 C180.273869,164.710514 180.498171,164.475791 180.388263,165.689837 L197.549619,165.689837 Z" id="Fill-114" fill="#C7C7C7" opacity="0.184782609"></path>
                        <path d="M256.896599,165.689837 L256.774355,170.528052 L178.045427,170.528052 L178.557957,164.72736 L178.5602,164.710514 L179.872368,164.710514 C180.273869,164.710514 180.498171,164.475791 180.388263,165.689837 L256.896599,165.689837 Z" id="Fill-115" fill="#2C170F"></path>
                        <path d="M260.624725,155.529472 L260.624725,156.786195 L257.23552,160.056595 L255.766341,166.339088 L176.048241,166.339088 C176.4632,161.924272 177.470316,157.829534 177.904341,154.582718 C177.904341,155.906826 260.624725,155.529472 260.624725,155.529472" id="Fill-116" fill="#21211F"></path>
                        <polygon id="Fill-117" fill="#333332" points="254.652456 219.29486 262.692567 219.29486 265.487371 216.30186 251.961952 216.30186 175.51642 216.30186 175.51642 219.29486 185.537118 219.29486"></polygon>
                        <path d="M176.760064,219.264088 C175.230323,219.264088 173.977596,220.517442 173.977596,222.050442 L173.977596,237.874595 C173.977596,239.407595 175.230323,240.662072 176.760064,240.662072 L251.124072,240.662072 C252.654934,240.662072 253.90654,239.407595 253.90654,237.874595 L253.90654,222.050442 C253.90654,220.517442 252.654934,219.264088 251.124072,219.264088 L176.760064,219.264088 Z" id="Fill-118" fill="#434C54"></path>
                        <path d="M176.131457,223.627017 C174.601716,223.627017 173.348989,224.880371 173.348989,226.412248 L173.348989,230.099309 C173.348989,231.631186 174.601716,232.885663 176.131457,232.885663 L179.290752,232.885663 C180.821614,232.885663 182.074342,231.631186 182.074342,230.099309 L182.074342,226.412248 C182.074342,224.880371 180.821614,223.627017 179.290752,223.627017 L176.131457,223.627017 Z" id="Fill-119" fill="#F3F7FB"></path>
                        <path d="M287.338324,144.515906 L287.338324,160.057045 L176.847093,160.057045 C177.8172,149.767414 177.637758,144.515906 181.909592,144.515906 C190.871584,144.515906 258.930459,144.511414 287.338324,144.515906" id="Fill-120" fill="#FCD402"></path>
                        <path d="M289.526616,154.495231 L289.526616,125.696169 L287.836499,125.696169 C287.836499,125.696169 260.335936,127.0506 260.348273,145.213 C260.357245,156.164123 270.82879,158.235077 270.82879,158.235077 L289.526616,154.495231 Z" id="Fill-121" fill="#F69857"></path>
                        <path d="M289.526616,137.812485 L289.526616,153.354746 L259.354614,153.354746 C260.3236,143.065115 260.144158,137.812485 264.41487,137.812485 L289.526616,137.812485 Z" id="Fill-122" fill="#F69857"></path>
                        <path d="M281.235736,208.645283 L289.527065,208.645283 L289.527065,145.215022 C288.858644,145.215022 281.86939,145.215022 281.235736,145.213898 L281.235736,208.645283 Z" id="Fill-123" fill="#F69857"></path>
                        <polygon id="Fill-124" fill="#FEFEFE" points="257.144453 214.600062 263.553887 214.600062 263.553887 206.482462 257.144453 206.482462"></polygon>
                        <polygon id="Fill-125" fill="#454F58" points="338.11629 210.787328 318.46518 210.787328 315.148873 219.164358 295.980013 219.164358 253.267279 219.164358 255.335344 238.985543 340.119308 238.985543 340.119308 219.164358"></polygon>
                        <polygon id="Fill-126" fill="#333332" points="310.653522 235.882145 314.480116 235.882145 315.481625 231.249452 315.481625 219.164022 310.653522 219.164022"></polygon>
                        <path d="M284.441462,156.784174 L284.441462,155.528574 C284.441462,155.528574 254.29862,155.907051 254.401799,154.577328 C253.966653,157.825266 252.961779,161.92562 252.54682,166.339312 L258.740924,166.339312 L260.210103,160.05682 L284.441462,156.784174 Z" id="Fill-127" fill="#21211F"></path>
                        <path d="M256.108065,220.544058 L256.108065,205.518412 C256.108065,203.065612 256.205637,199.055105 256.325638,196.606797 L257.901361,164.510382 C258.020241,162.060951 260.123073,160.057382 262.572453,160.057382 L279.501656,160.057382 C281.951036,160.057382 283.982091,162.063197 284.01798,164.514874 L284.787336,218.842597" id="Fill-128" fill="#EF833B"></path>
                        <path d="M265.99463,164.708268 C268.44401,164.708268 270.448149,166.715206 270.448149,169.168006 L270.448149,182.701083 C270.448149,185.153883 268.565133,187.848145 266.263793,188.689329 L265.484343,188.973468 C263.183003,189.813529 260.585584,190.763652 259.709685,191.082606 C258.834906,191.402683 258.294338,189.66416 258.507425,187.220345 L259.026685,181.274775 C259.240893,178.832083 259.589683,174.833929 259.80277,172.391237 L260.085391,169.150037 C260.299599,166.707345 262.477573,164.708268 264.926952,164.708268 L265.99463,164.708268 Z" id="Fill-129" fill="#5A2B15"></path>
                        <path d="M265.99463,164.708268 C268.44401,164.708268 270.448149,166.715206 270.448149,169.168006 L270.448149,182.701083 C270.448149,185.153883 268.565133,187.848145 266.263793,188.689329 L265.484343,188.973468 C263.183003,189.813529 260.585584,190.763652 259.709685,191.082606 C258.834906,191.402683 258.294338,189.66416 258.507425,187.220345 L259.026685,181.274775 C259.240893,178.832083 259.589683,174.833929 259.80277,172.391237 L260.085391,169.150037 C260.299599,166.707345 262.477573,164.708268 264.926952,164.708268 L265.99463,164.708268 Z" id="Stroke-130" stroke="#F5C17D" stroke-width="0.5"></path>
                        <path d="M272.352362,160.056932 L272.352362,208.645732" id="Stroke-131" stroke="#5A2B12"></path>
                        <path d="M273.054428,206.96954 C269.706719,206.96954 266.54518,209.667171 264.152998,214.569402 C263.459904,215.985602 262.854288,217.545555 262.342879,219.220063 L263.840096,219.220063 C264.194494,218.228386 264.585901,217.288371 265.015439,216.406755 C267.17659,211.982955 270.031957,208.709186 273.054428,208.709186 L289.527177,208.709186 L289.527177,206.96954 L273.054428,206.96954 Z" id="Fill-132" fill="#333332"></path>
                        <polygon id="Fill-133" fill="#333332" points="278.469194 219.29486 286.509304 219.29486 286.509304 212.800106 270.647778 217.209306 265.487708 216.30186 252.015 216.30186 252.015 219.29486 262.035698 219.29486"></polygon>
                    </g>
                    <g id="Group-137" transform="translate(261.000000, 208.000000)">
                        <mask id="mask-6" fill="white">
                            <use xlink:href="#path-5"></use>
                        </mask>
                        <g id="Clip-136"></g>
                        <path d="M24.1212174,0.273333333 L12.2414783,0.273333333 C9.00052174,0.273333333 6.0613913,2.93222222 3.91695652,7.24777778 L3.91695652,7.24777778 C2.25747826,10.5844444 1.07165217,14.9122222 0.587826087,19.7655556 L0.587826087,19.7655556 L21.7868696,10.6811111 C22.4289565,10.6933333 23.0721739,10.7066667 23.7153913,10.72 L23.7153913,10.72 C25.134087,10.7477778 24.5326957,10.7766667 25.9513913,10.8044444 L25.9513913,10.8044444 L25.9513913,0.273333333 L24.1212174,0.273333333 Z" id="Fill-135" mask="url(#mask-6)"></path>
                    </g>
                    <g id="Group-258" transform="translate(176.000000, 144.000000)">
                        <polygon id="Fill-138" fill="#333332" points="163.82128 89.5762152 163.82128 94.4759121 91.38528 94.4759121 76.09728 89.5762152"></polygon>
                        <path d="M108.730272,87.4860515 C108.322592,82.6267182 107.240672,78.2461424 105.690592,74.7883242 L101.112032,74.7883242 C103.486432,77.3043242 105.261632,81.9338091 105.874272,87.4860515 C106.028832,88.8696273 106.108352,90.3081424 106.108352,91.7881424 C106.108352,92.3767788 106.096032,92.9586879 106.068032,93.5361121 C106.055712,93.8500515 106.038912,94.1673545 106.016512,94.4756879 L108.838912,94.4756879 C108.850112,94.2458394 108.860192,94.0159909 108.870272,93.7816576 C108.893792,93.1257485 108.908352,92.4575061 108.908352,91.7881424 C108.908352,90.3204758 108.847872,88.8819606 108.730272,87.4860515" id="Fill-140" fill="#333332"></path>
                        <path d="M73.649296,74.019397 C72.120496,74.019397 70.870576,75.2706697 70.870576,76.8011242 L70.870576,93.3659121 C70.870576,94.8952455 72.120496,96.1476394 73.649296,96.1476394 L91.664496,96.1476394 C93.193296,96.1476394 94.443216,94.8952455 94.443216,93.3659121 L94.443216,76.8011242 C94.443216,75.2706697 93.193296,74.019397 91.664496,74.019397 L73.649296,74.019397 Z" id="Fill-142" fill="#434C54"></path>
                        <path d="M84.263088,93.3175879 C84.263088,94.0217091 84.278768,94.7258303 84.303408,95.416497 C84.313488,95.6631636 84.324688,96.3235576 84.337008,96.5646182 L111.495888,96.5657394 C111.490288,96.4681939 111.495888,93.7705576 111.495888,93.7705576 C111.495888,93.7705576 108.488688,88.0938606 106.379728,74.5866182 L87.450608,74.5866182 C85.818768,78.2260727 84.880208,83.6740424 84.451248,88.7890121 C84.326928,90.2578 84.263088,91.7725576 84.263088,93.3175879" id="Fill-144" fill="#333332"></path>
                        <path d="M75.697888,79.1415424 C74.582368,79.1415424 73.669568,80.3928152 73.669568,81.9221485 L73.669568,85.6030879 C73.669568,87.1324212 74.582368,88.3848152 75.697888,88.3848152 C76.812288,88.3848152 77.725088,87.1324212 77.725088,85.6030879 L77.725088,81.9221485 C77.725088,80.3928152 76.812288,79.1415424 75.697888,79.1415424" id="Fill-146" fill="#E2E4E1"></path>
                        <path d="M163.813664,74.4694515 C162.030624,71.6989364 159.811904,68.4373303 157.422944,68.5595424 C155.032864,68.6806333 151.397344,72.1653606 149.681504,75.1130273 C147.308224,79.1863909 145.823104,85.4147242 145.902624,92.3113 C145.913824,93.2228455 145.930624,95.8139667 145.993344,96.6885121 L148.418144,96.5663 C148.338624,95.6962394 148.311744,93.103997 148.300544,92.1890879 C148.195264,83.0691485 151.659424,75.4695727 156.025184,75.2475727 C160.388704,75.0255727 164.025344,82.2641182 164.131744,91.3851788 C164.142944,92.3000879 164.117184,93.2004212 164.057824,94.0783303 L167.939744,93.954997 C167.981184,93.0748455 167.997984,92.1745121 167.987904,91.2640879 C167.907264,84.3663909 166.278784,78.2972697 163.813664,74.4694515" id="Fill-148" fill="#21211F"></path>
                        <path d="M165.817456,91.3259788 C165.695376,80.8056455 161.514416,72.4817667 156.481136,72.7385242 C151.447856,72.9930394 147.465136,81.7317667 147.588336,92.2521 C147.710416,102.775797 151.890256,111.098555 156.924656,110.841797 C161.957936,110.587282 165.938416,101.849676 165.817456,91.3259788" id="Fill-150" fill="#333332"></path>
                        <path d="M156.86944,106.189664 C153.0704,106.383633 149.90528,100.080179 149.81232,92.1386333 C149.72048,84.1993303 152.73664,77.5830576 156.53456,77.3902091 C160.3336,77.1984818 163.49984,83.4996939 163.59168,91.438997 C163.68464,99.3794212 160.66848,105.996815 156.86944,106.189664" id="Fill-152" fill="#444856"></path>
                        <path d="M156.84648,104.236288 C153.56376,104.402227 150.8276,98.9553788 150.74808,92.0913182 C150.66744,85.2295 153.2748,79.5113182 156.55752,79.3442576 C159.84136,79.177197 162.57752,84.6240455 162.65704,91.4858636 C162.73656,98.3499242 160.13032,104.070348 156.84648,104.236288" id="Fill-154" fill="#E2E9F6"></path>
                        <path d="M161.730128,91.5362061 C161.743568,92.5845394 161.680848,93.5958727 161.552048,94.5533879 C161.120848,97.7914485 159.953808,100.402752 158.439568,101.519479 C157.961328,101.873782 157.447248,102.078964 156.911888,102.106994 C156.377648,102.132782 155.862448,101.979176 155.375248,101.675327 C153.858768,100.730145 152.640208,98.2959939 152.123888,95.1644485 C151.960368,94.1811455 151.866288,93.1339333 151.855088,92.0373879 C151.841648,90.9419636 151.909968,89.8846606 152.049968,88.887903 C152.497968,85.6789939 153.670608,83.110297 155.180368,82.0260848 C155.648528,81.6863576 156.150288,81.4890242 156.672208,81.4632364 C157.194128,81.4363273 157.699248,81.5820848 158.175248,81.8736 C159.730928,82.8165394 160.971888,85.3190848 161.481488,88.5347212 C161.630448,89.479903 161.717808,90.4878727 161.730128,91.5362061" id="Fill-156" fill="#A8AEB3"></path>
                        <path d="M158.256336,81.952197 C157.957296,83.0352879 157.339056,83.7270758 156.698416,83.7595909 C156.061136,83.7921061 155.560496,83.0352879 155.260336,81.952197 C155.732976,81.6360152 156.235856,81.4644697 156.757776,81.4644697 C157.280816,81.4644697 157.783696,81.6360152 158.256336,81.952197" id="Fill-158" fill="#444856"></path>
                        <path d="M158.439008,101.519815 C157.960768,101.872997 157.446688,102.0793 156.912448,102.106209 C156.377088,102.133118 155.861888,101.979512 155.375808,101.675664 C155.651328,100.503997 156.219168,99.6888758 156.883328,99.6563606 C157.548608,99.6227242 158.135488,100.3773 158.439008,101.519815" id="Fill-160" fill="#444856"></path>
                        <path d="M161.730128,91.5362061 C161.743568,92.5845394 161.680848,93.5958727 161.552048,94.5533879 C161.078288,93.9288727 160.760208,92.8390545 160.744528,91.5855394 C160.729968,90.3320242 161.023408,89.2074485 161.481488,88.5347212 C161.630448,89.479903 161.717808,90.4878727 161.730128,91.5362061" id="Fill-162" fill="#444856"></path>
                        <path d="M152.961536,91.9817758 C152.977216,93.3227455 152.637856,94.5157152 152.123776,95.164897 C151.960256,94.1815939 151.866176,93.1332606 151.854976,92.0378364 C151.841536,90.9412909 151.910976,89.8851091 152.050976,88.8872303 C152.579616,89.4825939 152.944736,90.6363212 152.961536,91.9817758" id="Fill-164" fill="#444856"></path>
                        <path d="M161.337456,91.6336394 C161.345296,92.2682455 161.308336,92.8815485 161.228816,93.4623364 C160.968976,95.4244576 160.261136,97.0064879 159.343856,97.6837 C159.053776,97.8978515 158.742416,98.0223061 158.418736,98.0391242 C158.093936,98.0559424 157.781456,97.9628818 157.486896,97.7767606 C156.567376,97.2049424 155.829296,95.7294273 155.516816,93.8323364 C155.418256,93.2369727 155.361136,92.6012455 155.353296,91.9374879 C155.345456,91.2737303 155.388016,90.6335182 155.473136,90.0291848 C155.743056,88.0861242 156.454256,86.5287606 157.369296,85.8717303 C157.652656,85.6665485 157.956176,85.5465788 158.273136,85.5308818 C158.588976,85.5151848 158.894736,85.6026394 159.183696,85.7786697 C160.125616,86.3504879 160.878256,87.8674879 161.186256,89.8161545 C161.276976,90.3879727 161.329616,90.9990333 161.337456,91.6336394" id="Fill-166" fill="#E2E9F6"></path>
                        <path d="M159.604928,91.7299515 C159.608288,91.9956788 159.592608,92.2535576 159.560128,92.4979818 C159.449248,93.3209515 159.152448,93.9847091 158.767168,94.2672545 C158.645088,94.3569515 158.514048,94.4096485 158.377408,94.4163758 C158.240768,94.4219818 158.109728,94.3827394 157.986528,94.3053758 C157.600128,94.0631939 157.289888,93.4420424 157.157728,92.6448606 C157.116288,92.3959515 157.092768,92.1279818 157.089408,91.8488 C157.086048,91.5707394 157.103968,91.3016485 157.139808,91.0482545 C157.252928,90.2320121 157.551968,89.5794667 157.937248,89.3047697 C158.055968,89.2195576 158.183648,89.169103 158.316928,89.163497 C158.450208,89.1567697 158.577888,89.1937697 158.698848,89.2688909 C159.095328,89.5099515 159.412288,90.1479212 159.541088,90.9652848 C159.580288,91.2063455 159.601568,91.463103 159.604928,91.7299515" id="Fill-168" fill="#444856"></path>
                        <path d="M161.481824,88.5349455 C160.972224,85.3193091 159.731264,82.8156424 158.175584,81.8738242 C157.699584,81.5823091 157.194464,81.4365515 156.672544,81.4623394 C156.149504,81.4892485 155.648864,81.6865818 155.180704,82.0251879 C153.669824,83.1105212 152.498304,85.6792182 152.050304,88.8870061 C151.910304,89.8848848 151.841984,90.9410667 151.854304,92.0376121 L151.854304,92.042097 L152.777184,91.9950061 L152.777184,91.9905212 C152.767104,91.1002788 152.821984,90.2391879 152.935104,89.4296727 C153.299104,86.8194909 154.253344,84.7306727 155.481984,83.8482788 C155.861664,83.5702182 156.271584,83.4132485 156.694944,83.3919455 C157.119424,83.3706424 157.531584,83.4850061 157.916864,83.7238242 C159.181344,84.4896121 160.191584,86.5257333 160.605984,89.1415212 C160.726944,89.9117939 160.798624,90.7325212 160.807584,91.5835212 L160.807584,91.5880061 L161.730464,91.5409152 L161.730464,91.5364303 C161.718144,90.488097 161.630784,89.4801273 161.481824,88.5349455" id="Fill-170" fill="#444856"></path>
                        <path d="M113.296624,0.159548485 L82.218864,0.159548485 C77.951664,0.159548485 78.134224,5.40345758 77.165424,15.6771242 L113.296624,15.6771242 L113.296624,0.159548485 Z" id="Fill-172" fill="#F69857"></path>
                        <path d="M167.708464,86.8892303 C166.595184,75.2521697 161.601104,66.5896848 155.733424,66.8879273 C149.864624,67.1861697 145.078864,76.3464727 144.236624,88.0822 C144.134704,89.4837152 144.092144,90.9255939 144.108944,92.3921394 C144.119024,93.2992 144.153744,94.1972909 144.210864,95.0763212 L145.819184,94.9944727 C145.756464,94.1188061 145.718384,93.2218364 145.707184,92.3114121 C145.627664,85.4148364 147.113904,79.186503 149.487184,75.1131394 C151.204144,72.1654727 153.383664,70.3535939 155.772624,70.232503 C158.161584,70.1102909 160.380304,71.6990485 162.163344,74.4695636 C164.628464,78.2973818 166.256944,84.366503 166.337584,91.2630788 C166.347664,92.1746242 166.330864,93.0749576 166.288304,93.9551091 L165.076464,94.0156545 L167.898864,93.8732606 C167.933584,92.9886242 167.948144,92.0894121 167.936944,91.1823515 C167.919024,89.7146848 167.842864,88.2795333 167.708464,86.8892303" id="Fill-174" fill="#767777"></path>
                        <path d="M66.158176,79.1415424 C64.629376,79.1415424 63.379456,80.3928152 63.379456,81.9221485 L63.379456,85.6030879 C63.379456,87.1324212 64.629376,88.3848152 66.158176,88.3848152 L71.739136,88.3848152 C73.269056,88.3848152 74.518976,87.1324212 74.518976,85.6030879 L74.518976,81.9221485 C74.518976,80.3928152 73.269056,79.1415424 71.739136,79.1415424 L66.158176,79.1415424 Z" id="Fill-176" fill="#F3F7FB"></path>
                        <path d="M12.498864,79.9068818 C10.478384,79.9068818 9.068304,81.5449727 9.362864,83.5452152 L9.689904,85.7629727 C9.985584,87.7632152 11.879504,89.4013061 13.901104,89.4013061 L55.319824,89.4013061 C57.340304,89.4013061 59.235344,87.7632152 59.529904,85.7629727 L59.858064,83.5452152 C60.153744,81.5449727 58.741424,79.9068818 56.720944,79.9068818 L12.498864,79.9068818 Z" id="Fill-178" fill="#333332"></path>
                        <path d="M10.85168,59.1403515 C8.83008,59.1403515 7.43792,60.7750788 7.756,62.7719576 L8.2488,65.8586545 C8.56688,67.8555333 10.48096,69.4902606 12.50144,69.4902606 L57.93648,69.4902606 C59.95696,69.4902606 61.84864,67.8532909 62.14096,65.8508061 L62.59008,62.7798061 C62.8824,60.7784424 61.46784,59.1403515 59.44736,59.1403515 L10.85168,59.1403515 Z" id="Fill-180" fill="#333332"></path>
                        <polygon id="Fill-182" fill="#757574" opacity="0.441802536" points="19.446336 15.6770121 15.895936 21.9490727 7.102816 21.9490727 10.554656 15.6770121"></polygon>
                        <path d="M118.656048,91.7551788 C118.656048,92.3853 118.140848,92.8999364 117.512528,92.8999364 L114.269008,92.8999364 C113.639568,92.8999364 113.125488,92.3853 113.125488,91.7551788 L113.125488,71.1742091 C113.125488,70.5440879 113.639568,70.0283303 114.269008,70.0283303 L117.512528,70.0283303 C118.140848,70.0283303 118.656048,70.5440879 118.656048,71.1742091 L118.656048,91.7551788 Z" id="Fill-184" fill="#333332"></path>
                        <path d="M135.652944,91.7551788 C135.652944,92.3853 135.137744,92.8999364 134.509424,92.8999364 L131.265904,92.8999364 C130.636464,92.8999364 130.122384,92.3853 130.122384,91.7551788 L130.122384,71.1742091 C130.122384,70.5440879 130.636464,70.0283303 131.265904,70.0283303 L134.509424,70.0283303 C135.137744,70.0283303 135.652944,70.5440879 135.652944,71.1742091 L135.652944,91.7551788 Z" id="Fill-186" fill="#333332"></path>
                        <path d="M137.585504,86.9068333 C137.585504,89.4374091 135.516864,91.5082879 132.989024,91.5082879 L116.750144,91.5082879 C114.222304,91.5082879 112.153664,89.4374091 112.153664,86.9068333 L112.153664,73.8211667 C112.153664,71.2905909 114.222304,69.2197121 116.750144,69.2197121 L132.989024,69.2197121 C135.516864,69.2197121 137.585504,71.2905909 137.585504,73.8211667 L137.585504,86.9068333 Z" id="Fill-188" fill="#93929C"></path>
                        <path d="M120.98464,75.0902667 C119.89936,75.0902667 118.9832,74.3401758 118.9832,73.453297 C118.9832,72.5664182 119.89936,71.8174485 120.98464,71.8174485 L132.9888,71.8174485 C134.07408,71.8174485 134.99024,72.5664182 134.99024,73.453297 C134.99024,74.3401758 134.07408,75.0902667 132.9888,75.0902667 L120.98464,75.0902667 Z" id="Fill-190" fill="#DFDFDE"></path>
                        <path d="M137.584496,85.2983424 L137.584496,87.8064939 C137.584496,89.8426152 136.890096,91.5064939 136.041136,91.5064939 L113.698256,91.5064939 C112.848176,91.5064939 112.152656,89.8426152 112.152656,87.8064939 L112.152656,85.2983424 C112.152656,87.3344636 112.848176,88.9983424 113.698256,88.9983424 L136.041136,88.9983424 C136.890096,88.9983424 137.584496,87.3344636 137.584496,85.2983424" id="Fill-192" fill="#7F7F89"></path>
                        <path d="M116.3624,86.928697 C116.3624,89.4603939 114.72496,91.5301515 112.72352,91.5301515 C110.72208,91.5301515 109.08464,89.4603939 109.08464,86.928697 L109.08464,73.8430303 C109.08464,71.3124545 110.72208,69.2415758 112.72352,69.2415758 C114.72496,69.2415758 116.3624,71.3124545 116.3624,73.8430303 L116.3624,86.928697 Z" id="Fill-194" fill="#DFDFDE"></path>
                        <path d="M107.72832,86.0845364 C108.08784,88.0746879 109.62448,89.7038091 111.14544,89.7038091 C112.66416,89.7038091 113.90848,89.0400515 113.90848,88.2271727 L113.90848,83.0729606 L113.90848,78.4659 C113.90848,76.4421121 112.25424,74.7883242 110.23376,74.7883242 L109.36464,74.7883242 C107.34304,74.7883242 105.98336,76.4163242 106.344,78.4064758 L107.72832,86.0845364 Z" id="Fill-196" fill="#21211F"></path>
                        <path d="M111.11128,0.161790909 L111.11128,15.6771242 L0.76888,15.6771242 C1.08248,12.3661848 1.27736,9.57660909 1.53608,7.31512424 C2.08488,2.56903333 2.93384,0.161790909 5.82456,0.161790909 L111.11128,0.161790909 Z" id="Fill-198" fill="#EF833B"></path>
                        <path d="M84.142688,0.161790909 C81.674208,0.161790909 80.694208,1.91648788 80.118528,5.38439697 C80.019968,5.97751818 79.677248,7.31512424 78.803648,7.31512424 L1.535968,7.31512424 C2.084768,2.56903333 2.933728,0.161790909 5.824448,0.161790909 L84.142688,0.161790909 Z" id="Fill-200" fill="#F5C17D"></path>
                        <path d="M167.940416,84.4979091 C167.940416,86.5205758 169.594656,88.1754848 171.614016,88.1754848 L175.066976,88.1754848 C177.087456,88.1754848 178.741696,87.4410909 178.741696,86.543 L178.741696,81.2318182 L178.741696,66.0180909 C178.741696,63.994303 177.087456,62.3393939 175.066976,62.3393939 L171.614016,62.3393939 C169.594656,62.3393939 167.940416,63.994303 167.940416,66.0180909 L167.940416,84.4979091 Z" id="Fill-202" fill="#21211F"></path>
                        <path d="M106.23648,74.4694515 C104.45344,71.6989364 102.23472,68.4373303 99.84576,68.5595424 C97.4568,68.6806333 93.82016,72.1653606 92.10432,75.1130273 C89.73104,79.1863909 88.24592,85.4147242 88.32544,92.3113 C88.33664,93.2228455 88.35344,95.8139667 88.41616,96.6885121 L90.84096,96.5663 C90.76144,95.6962394 90.73456,93.103997 90.72448,92.1890879 C90.6192,83.0691485 94.08224,75.4695727 98.448,75.2475727 C102.81152,75.0255727 106.44928,82.2641182 106.55568,91.3851788 C106.56576,92.3000879 106.54,93.2004212 106.48064,94.0783303 L110.36256,93.954997 C110.404,93.0748455 110.4208,92.1745121 110.41184,91.2640879 C110.33008,84.3663909 108.7016,78.2972697 106.23648,74.4694515" id="Fill-204" fill="#21211F"></path>
                        <path d="M108.240272,91.3259788 C108.118192,80.8056455 103.937232,72.4817667 98.903952,72.7385242 C93.870672,72.9930394 89.887952,81.7317667 90.011152,92.2521 C90.133232,102.775797 94.313072,111.098555 99.347472,110.841797 C104.380752,110.587282 108.362352,101.849676 108.240272,91.3259788" id="Fill-206" fill="#424242"></path>
                        <path d="M99.292256,106.189664 C95.493216,106.383633 92.328096,100.080179 92.236256,92.1386333 C92.143296,84.1993303 95.159456,77.5830576 98.957376,77.3902091 C102.757536,77.1984818 105.922656,83.4996939 106.014496,91.438997 C106.107456,99.3794212 103.092416,105.996815 99.292256,106.189664" id="Fill-208" fill="#424242"></path>
                        <path d="M99.270416,104.236288 C95.986576,104.402227 93.250416,98.9553788 93.170896,92.0913182 C93.090256,85.2295 95.697616,79.5113182 98.980336,79.3442576 C102.264176,79.177197 105.000336,84.6240455 105.079856,91.4858636 C105.160496,98.3499242 102.554256,104.070348 99.270416,104.236288" id="Fill-210" fill="#424242"></path>
                        <path d="M104.153952,91.5362061 C104.166272,92.5845394 104.103552,93.5958727 103.974752,94.5533879 C103.544672,97.7914485 102.376512,100.402752 100.862272,101.519479 C100.384032,101.873782 99.869952,102.078964 99.334592,102.106994 C98.801472,102.132782 98.285152,101.979176 97.797952,101.675327 C96.281472,100.730145 95.064032,98.2959939 94.546592,95.1644485 C94.383072,94.1811455 94.288992,93.1339333 94.277792,92.0373879 C94.264352,90.9419636 94.333792,89.8846606 94.472672,88.887903 C94.920672,85.6789939 96.093312,83.110297 97.603072,82.0260848 C98.071232,81.6863576 98.574112,81.4890242 99.094912,81.4632364 C99.616832,81.4363273 100.121952,81.5820848 100.597952,81.8736 C102.153632,82.8165394 103.394592,85.3190848 103.904192,88.5347212 C104.054272,89.479903 104.140512,90.4878727 104.153952,91.5362061" id="Fill-212" fill="#A8AEB3"></path>
                        <path d="M100.679152,81.952197 C100.381232,83.0352879 99.761872,83.7270758 99.121232,83.7595909 C98.485072,83.7921061 97.984432,83.0352879 97.683152,81.952197 C98.155792,81.6360152 98.658672,81.4644697 99.181712,81.4644697 C99.703632,81.4644697 100.206512,81.6360152 100.679152,81.952197" id="Fill-214" fill="#444856"></path>
                        <path d="M100.861824,101.519815 C100.383584,101.872997 99.869504,102.0793 99.335264,102.106209 C98.801024,102.133118 98.284704,101.979512 97.798624,101.675664 C98.075264,100.503997 98.643104,99.6888758 99.306144,99.6563606 C99.971424,99.6227242 100.559424,100.3773 100.861824,101.519815" id="Fill-216" fill="#444856"></path>
                        <path d="M104.153952,91.5362061 C104.166272,92.5845394 104.103552,93.5958727 103.974752,94.5533879 C103.502112,93.9288727 103.182912,92.8390545 103.168352,91.5855394 C103.152672,90.3320242 103.446112,89.2074485 103.904192,88.5347212 C104.054272,89.479903 104.140512,90.4878727 104.153952,91.5362061" id="Fill-218" fill="#444856"></path>
                        <path d="M95.384352,91.9817758 C95.400032,93.3227455 95.061792,94.5157152 94.546592,95.164897 C94.383072,94.1815939 94.288992,93.1332606 94.277792,92.0378364 C94.264352,90.9412909 94.334912,89.8851091 94.473792,88.8872303 C95.002432,89.4825939 95.368672,90.6363212 95.384352,91.9817758" id="Fill-220" fill="#444856"></path>
                        <path d="M103.760272,91.6336394 C103.768112,92.2682455 103.731152,92.8815485 103.651632,93.4623364 C103.391792,95.4244576 102.683952,97.0064879 101.766672,97.6837 C101.476592,97.8978515 101.165232,98.0223061 100.841552,98.0391242 C100.516752,98.0559424 100.204272,97.9628818 99.909712,97.7767606 C98.990192,97.2049424 98.253232,95.7294273 97.939632,93.8323364 C97.841072,93.2369727 97.783952,92.6012455 97.776112,91.9374879 C97.768272,91.2737303 97.810832,90.6335182 97.895952,90.0291848 C98.166992,88.0861242 98.877072,86.5287606 99.792112,85.8717303 C100.075472,85.6665485 100.378992,85.5465788 100.695952,85.5308818 C101.012912,85.5151848 101.317552,85.6026394 101.606512,85.7786697 C102.548432,86.3504879 103.301072,87.8674879 103.610192,89.8161545 C103.699792,90.3879727 103.753552,90.9990333 103.760272,91.6336394" id="Fill-222" fill="#E2E9F6"></path>
                        <path d="M102.027744,91.7299515 C102.031104,91.9956788 102.015424,92.2535576 101.982944,92.4979818 C101.873184,93.3209515 101.576384,93.9847091 101.189984,94.2672545 C101.067904,94.3569515 100.936864,94.4096485 100.800224,94.4163758 C100.664704,94.4219818 100.533664,94.3827394 100.409344,94.3053758 C100.022944,94.0631939 99.712704,93.4420424 99.580544,92.6448606 C99.539104,92.3959515 99.515584,92.1279818 99.512224,91.8488 C99.508864,91.5707394 99.526784,91.3016485 99.562624,91.0482545 C99.675744,90.2320121 99.974784,89.5794667 100.360064,89.3047697 C100.478784,89.2195576 100.606464,89.169103 100.739744,89.163497 C100.873024,89.1567697 101.001824,89.1937697 101.121664,89.2688909 C101.519264,89.5099515 101.835104,90.1479212 101.965024,90.9652848 C102.003104,91.2063455 102.025504,91.463103 102.027744,91.7299515" id="Fill-224" fill="#444856"></path>
                        <path d="M103.90464,88.5349455 C103.39504,85.3193091 102.15408,82.8156424 100.5984,81.8738242 C100.1224,81.5823091 99.61728,81.4365515 99.09536,81.4623394 C98.57344,81.4892485 98.07168,81.6865818 97.60352,82.0251879 C96.09264,83.1105212 94.92112,85.6792182 94.47312,88.8870061 C94.33424,89.8848848 94.2648,90.9410667 94.27712,92.0376121 L94.27712,92.042097 L95.2,91.9950061 L95.2,91.9905212 C95.18992,91.1002788 95.2448,90.2391879 95.35904,89.4296727 C95.72304,86.8194909 96.67616,84.7306727 97.9048,83.8482788 C98.28448,83.5702182 98.6944,83.4132485 99.11888,83.3919455 C99.54336,83.3706424 99.9544,83.4850061 100.3408,83.7238242 C101.60416,84.4896121 102.6144,86.5257333 103.0288,89.1415212 C103.15088,89.9117939 103.22144,90.7325212 103.2304,91.5835212 L103.2304,91.5880061 L104.1544,91.5409152 L104.1544,91.5364303 C104.14096,90.488097 104.05472,89.4801273 103.90464,88.5349455" id="Fill-226" fill="#444856"></path>
                        <path d="M110.1324,86.8892303 C109.01912,75.2521697 104.02504,66.5896848 98.15736,66.8879273 C92.28856,67.1861697 87.50168,76.3464727 86.65944,88.0822 C86.55752,89.4837152 86.51496,90.9255939 86.53176,92.3921394 C86.54296,93.2992 86.57656,94.1972909 86.63368,95.0763212 L88.242,94.9944727 C88.1804,94.1188061 88.1412,93.2218364 88.13112,92.3114121 C88.05048,85.4148364 89.53672,79.186503 91.91,75.1131394 C93.62696,72.1654727 95.80648,70.3535939 98.19544,70.232503 C100.58552,70.1102909 102.80312,71.6990485 104.58616,74.4695636 C107.05128,78.2973818 108.67976,84.366503 108.7604,91.2630788 C108.77048,92.1746242 108.75368,93.0749576 108.71112,93.9551091 L107.5004,94.0156545 L110.32168,93.8732606 C110.3564,92.9886242 110.37096,92.0894121 110.35976,91.1823515 C110.34296,89.7146848 110.26568,88.2795333 110.1324,86.8892303" id="Fill-228" fill="#767777"></path>
                        <path d="M43.9025879,26.4689941 C41.3019479,31.356953 36.15752,43.358509 32.8692,49.6281 L56.15288,49.6281 C59.56328,43.126302 67.2445084,31.0622287 69.6950684,26.4689941 C68.6311035,26.4689941 45.5208805,26.2885871 45.4245605,26.4689941 L43.9025879,26.4689941 Z" id="Fill-230" fill="#C7C7C7" opacity="0.184782609"></path>
                        <path d="M101.84832,22.0188121 C103.58768,22.0188121 105.01008,24.021297 105.01008,26.4700242 L105.01008,32.938297 C105.01008,35.3870242 103.88896,37.7931455 102.51808,38.2864788 C101.1472,38.7786909 99.7248,39.2899636 99.35632,39.4211455 C98.98784,39.5545697 98.68768,37.6586 98.68768,35.2109939 L98.68768,26.4700242 C98.68768,24.021297 100.11008,22.0188121 101.84832,22.0188121" id="Fill-232" fill="#5A2B15"></path>
                        <path d="M101.84832,22.0188121 C103.58768,22.0188121 105.01008,24.021297 105.01008,26.4700242 L105.01008,32.938297 C105.01008,35.3870242 103.88896,37.7931455 102.51808,38.2864788 C101.1472,38.7786909 99.7248,39.2899636 99.35632,39.4211455 C98.98784,39.5545697 98.68768,37.6586 98.68768,35.2109939 L98.68768,26.4700242 C98.68768,24.021297 100.11008,22.0188121 101.84832,22.0188121 Z" id="Stroke-234" stroke="#F5C17D" stroke-width="0.5"></path>
                        <path d="M116.3624,69.2411273 C116.3624,69.2411273 119.95872,75.7576121 117.68624,91.5308242 L119.26432,91.5454 C119.26432,91.5454 122.024,77.7040364 117.9472,69.218703 C115.65344,69.218703 116.3624,69.2411273 116.3624,69.2411273" id="Fill-236" fill="#21211F"></path>
                        <path d="M132.063232,69.1009758 C132.063232,69.1009758 137.385472,76.8709758 133.555072,91.5454 C135.672992,91.5891273 135.472512,91.5061576 135.472512,91.5061576 C135.472512,91.5061576 138.579392,78.2321273 133.885472,69.2030061 C131.591712,69.2030061 132.063232,69.1009758 132.063232,69.1009758" id="Fill-238" fill="#21211F"></path>
                        <path d="M205.49536,22.4973455 C199.69824,22.4973455 194.98192,17.7770424 194.98192,11.9736485 C194.98192,6.17025455 199.69824,1.44995152 205.49536,1.44995152 C211.29136,1.44995152 216.00768,6.17025455 216.00768,11.9736485 C216.00768,17.7770424 211.29136,22.4973455 205.49536,22.4973455" id="Fill-240" fill="#F7E1CC"></path>
                        <path d="M205.494352,1.97938788 C199.990672,1.97938788 195.511792,6.46311515 195.511792,11.9738727 C195.511792,17.4846303 199.990672,21.9672364 205.494352,21.9672364 C210.999152,21.9672364 215.478032,17.4846303 215.478032,11.9738727 C215.478032,6.46311515 210.999152,1.97938788 205.494352,1.97938788 M205.494352,23.0267818 C199.406032,23.0267818 194.453392,18.0687818 194.453392,11.9738727 C194.453392,5.87896364 199.406032,0.919842424 205.494352,0.919842424 C211.583792,0.919842424 216.536432,5.87896364 216.536432,11.9738727 C216.536432,18.0687818 211.583792,23.0267818 205.494352,23.0267818" id="Fill-242" stroke="#434C54" fill="#434C54"></path>
                        <path d="M222.755904,29.8027152 C222.620384,29.8027152 222.484864,29.7511394 222.381824,29.6479879 L212.541504,19.795897 C212.333184,19.5895939 212.333184,19.2532303 212.541504,19.0458061 C212.747584,18.839503 213.082464,18.839503 213.289664,19.0458061 L223.129984,28.897897 C223.337184,29.1053212 223.337184,29.4416848 223.129984,29.6479879 C223.025824,29.7511394 222.890304,29.8027152 222.755904,29.8027152" id="Fill-244" stroke="#434C54" fill="#434C54"></path>
                        <path d="M209.191136,6.59922121 C209.095936,6.59922121 208.999616,6.57567576 208.912256,6.52073636 C205.205056,4.21216061 202.243776,6.39740303 202.118336,6.49158485 C201.886496,6.66761515 201.554976,6.62276667 201.375776,6.39067576 C201.199936,6.15746364 201.243616,5.82670606 201.474336,5.64843333 C201.511296,5.62152424 205.124416,2.91379697 209.471136,5.61928182 C209.720896,5.77400909 209.795936,6.10140303 209.641376,6.34919091 C209.540576,6.51176667 209.368096,6.59922121 209.191136,6.59922121" id="Fill-246" stroke="#434C54" fill="#434C54"></path>
                        <path d="M89.10944,15.6770121 L81.0488,15.6770121 C81.0488,15.6770121 78.86592,64.6268909 78.79648,71.8284364 L80.22784,71.8284364 C80.22784,71.8284364 82.04784,25.6894364 83.50384,19.9151939 C84.14224,17.3823758 87.15168,16.5145576 89.19344,16.5145576 C89.3816,15.0311939 89.10944,15.6770121 89.10944,15.6770121" id="Fill-248" fill="#F69857"></path>
                        <path d="M90.245904,38.2194303 C90.245904,41.3027636 88.121264,43.8254909 85.522864,43.8254909 C82.924464,43.8254909 80.798704,41.3027636 80.798704,38.2194303 L80.798704,29.8237939 C80.798704,26.7404606 82.924464,24.2177333 85.522864,24.2177333 C88.121264,24.2177333 90.245904,26.7404606 90.245904,29.8237939 L90.245904,38.2194303 Z" id="Fill-250" fill="#21211F"></path>
                        <path d="M90.245904,49.7469485 C90.245904,52.4434636 88.121264,54.6488879 85.522864,54.6488879 C82.924464,54.6488879 80.798704,52.4434636 80.798704,49.7469485 C80.798704,47.0515545 82.924464,44.8450091 85.522864,44.8450091 C88.121264,44.8450091 90.245904,47.0515545 90.245904,49.7469485" id="Fill-252" fill="#21211F"></path>
                        <path d="M79.923088,22.4677455 L82.934768,22.4677455 C84.592368,22.4677455 85.947568,23.982503 85.947568,25.8313818 L85.947568,47.9831697" id="Stroke-254" stroke="#21211F" stroke-width="2"></path>
                        <path d="M86.913232,15.6770121 L107.158352,15.6770121 L106.155952,17.5718606 C106.155952,17.5718606 105.481712,16.760103 103.903632,16.5145576 C96.510512,15.3619515 88.575312,16.5145576 88.575312,16.5145576 L86.913232,15.6770121 Z" id="Fill-256" fill="#F69857"></path>
                    </g>
                </g>
            </g>
        </g>
    </g>
</svg>