<svg xmlns="http://www.w3.org/2000/svg" xmlns:xlink="http://www.w3.org/1999/xlink" viewBox="0 0 688 281"><defs><path id="a" d="M0 51.429h200.76V.082H0z"/></defs><g fill="none" fill-rule="evenodd"><path stroke="#D0D8D3" stroke-width="2" d="M34.735 240.73s-.764-10.58 9.532-10.73c2.672-.039 9.532.74 10.676 10.73 2.669 1.603 10.93 10.482-2.033 17.511-1.27 2.59-7.922 9.269-15.886 0-4.576-2.096-11.947-8.385-2.288-17.511z"/><path fill="#FEFEFE" d="M45.196 245.376l-.093 35.321"/><path stroke="#D0D8D3" stroke-width="2" d="M45.196 245.376l-.093 35.321"/><path fill="#FEFEFE" d="M45.167 256.914l6.785-6.844"/><path stroke="#D0D8D3" stroke-width="2" d="M45.167 256.914l6.785-6.844"/><path fill="#FEFEFE" d="M47.879 263.711l-7.801-6.503"/><path stroke="#D0D8D3" stroke-width="2" d="M44.88 259.711l-7.802-6.502M356.74 240.73s-.764-10.579 9.532-10.73c2.672-.038 9.532.74 10.676 10.73 2.67 1.603 10.93 10.482-2.033 17.512-1.27 2.59-7.922 9.268-15.886 0-4.576-2.097-11.947-8.386-2.288-17.512z"/><path fill="#FEFEFE" d="M366.092 246.254L366 281.575"/><path stroke="#D0D8D3" stroke-width="2" d="M368.092 246.254V279"/><path fill="#FEFEFE" d="M365.04 256.789l6.785-6.222"/><path stroke="#D0D8D3" stroke-width="2" d="M368.04 254.789l6.785-6.222"/><path fill="#FEFEFE" d="M367.736 263.565l-8.101-6.503"/><path stroke="#D0D8D3" stroke-width="2" d="M367.736 258.565l-8.101-6.503m87.105-11.332s-.765-10.579 9.532-10.73c2.672-.038 9.532.74 10.676 10.73 2.67 1.604 10.93 10.482-2.034 17.512-1.27 2.59-7.921 9.268-15.887 0-4.574-2.097-11.946-8.386-2.287-17.512z"/><path fill="#FEFEFE" d="M462.194 246.058l-.248 35.88"/><path stroke="#D0D8D3" stroke-width="2" d="M458.194 245.058l-.248 35.88"/><path fill="#FEFEFE" d="M461.476 256.944l6.458-6.845"/><path stroke="#D0D8D3" stroke-width="2" d="M458.476 255.944l6.458-6.845"/><path fill="#FEFEFE" d="M461.544 263.74l-8.101-6.502"/><path stroke="#D0D8D3" stroke-width="2" d="M457.543 258.74l-8.1-6.502M211.16 256.48s-.51-7.373 6.354-7.478c1.782-.027 6.355.515 7.118 7.478 1.78 1.118 7.287 7.306-1.356 12.206-.847 1.804-5.28 6.459-10.59 0-3.05-1.463-7.965-5.845-1.526-12.206z"/><path fill="#FEFEFE" d="M220.244 258.242l-.058 22.755"/><path stroke="#D0D8D3" stroke-width="2" d="M218.244 258.242l-.058 22.755"/><path fill="#FEFEFE" d="M218.159 264.47l3.476-3.349"/><path stroke="#D0D8D3" stroke-width="2" d="M218.159 264.47l3.476-3.349"/><path fill="#FEFEFE" d="M216.968 268.601l-3.814-3.34"/><path stroke="#D0D8D3" stroke-width="2" d="M217.968 268.601l-3.814-3.34m326.006-7.781s-.51-7.373 6.354-7.478c1.782-.027 6.355.515 7.118 7.478 1.778 1.118 7.286 7.306-1.356 12.206-.847 1.804-5.28 6.459-10.591 0-3.05-1.463-7.965-5.845-1.525-12.206z"/><path fill="#FEFEFE" d="M548.165 259.21l-.152 22.419"/><path stroke="#D0D8D3" stroke-width="2" d="M547.165 258.21l-.152 22.419"/><path fill="#FEFEFE" d="M547.419 265.651l3.475-3.516"/><path stroke="#D0D8D3" stroke-width="2" d="M547.419 265.651l3.475-3.516"/><path fill="#FEFEFE" d="M544.7 270.808l-3.339-3.34"/><path stroke="#D0D8D3" stroke-width="2" d="M546.7 269.808l-3.339-3.34m26.269-12.338s-.586-8.014 7.308-8.128c2.048-.03 7.308.56 8.185 8.128 2.046 1.214 8.38 7.942-1.56 13.267-.974 1.963-6.073 7.02-12.18 0-3.507-1.588-9.159-6.353-1.753-13.267z"/><path fill="#FEFEFE" d="M575.134 257.08l-.068 24.772"/><path stroke="#D0D8D3" stroke-width="2" d="M578.134 257.08V280"/><path fill="#FEFEFE" d="M575 263l4-3"/><path stroke="#D0D8D3" stroke-width="2" d="M578 263l4-3"/><path fill="#FEFEFE" d="M579.821 265.646l-6.524-3.264"/><path stroke="#D0D8D3" stroke-width="2" d="M577.821 266.646l-3.262-4.26M240.74 240.73s-.765-10.579 9.532-10.729c2.672-.039 9.532.74 10.676 10.729 2.67 1.604 10.93 10.483-2.033 17.512-1.272 2.59-7.922 9.269-15.887 0-4.575-2.096-11.946-8.386-2.287-17.512z"/><path fill="#FEFEFE" d="M252.2 246.09l-.092 35.88"/><path stroke="#D0D8D3" stroke-width="2" d="M252.2 245.09l-.092 35.88"/><path fill="#FEFEFE" d="M252.187 256.607l6.459-6.223"/><path stroke="#D0D8D3" stroke-width="2" d="M252.187 254.607l6.459-6.223"/><path fill="#FEFEFE" d="M252.91 263.422l-7.801-5.912"/><path stroke="#D0D8D3" stroke-width="2" d="M251.91 259.422l-7.801-5.911M236 91.5c0 11.321-9.178 20.5-20.5 20.5-11.321 0-20.5-9.179-20.5-20.5 0-11.322 9.178-20.5 20.5-20.5S236 80.178 236 91.5zM33.488 105.1c-.265-4.5-3.974-8.097-8.446-8.097-2.715 0-5.343 1.332-6.973 3.504-.037-.02-.077-.033-.115-.05a4.82 4.82 0 0 0-.473-.198 4.229 4.229 0 0 0-.31-.096c-.058-.015-.114-.031-.172-.045a5.135 5.135 0 0 0-.344-.062c-.05-.008-.1-.017-.15-.023a4.505 4.505 0 0 0-5.006 4.47c0 .064.004.126.009.189v.002C9.428 105.828 8 108.203 8 110.58a6.43 6.43 0 0 0 6.422 6.424h12.254c.052 0 .104-.003.156-.008l.03-.003.068.003c.051.005.102.008.154.008h4.902A6.02 6.02 0 0 0 38 110.989c0-2.744-1.913-5.205-4.512-5.889zM604.68 72.74c-.37-6.525-5.564-11.74-11.824-11.74-3.802 0-7.481 1.93-9.762 5.08-.053-.028-.108-.048-.161-.074a6.675 6.675 0 0 0-.423-.194c-.08-.033-.16-.062-.24-.092a6.384 6.384 0 0 0-.433-.139c-.081-.022-.161-.045-.242-.064a6.449 6.449 0 0 0-.481-.09c-.07-.011-.14-.025-.212-.034a6.144 6.144 0 0 0-.706-.043c-3.474 0-6.3 2.926-6.3 6.525 0 .092.005.183.011.272v.004c-2.91 1.645-4.91 5.087-4.91 8.535 0 5.136 4.032 9.314 8.99 9.314h17.156c.073 0 .145-.005.218-.011l.044-.006.093.006c.072.006.143.01.216.01h6.862c4.643 0 8.42-3.912 8.42-8.72 0-3.98-2.679-7.548-6.316-8.54zM605 280h30V166h-30zm-3.33-92.6V281M638 187v93.796M619 167v114m-12-109h9m6 0h9m-24 7h9m6 0h9m-24 3h9m6 0h9m-24 4h9m6 0h9m-24 7h9m6 0h9m-24 4h9m6 0h9m-24 6h9m6 0h9m-24 4h9m6 0h9m-24 5h9m6 0h9m-24 6h9m6 0h9m-24 4h9m6 0h9m-24 4h9m6 0h9m-24 6h9m6 0h9m-24 5h9m6 0h9m-24 5h9m6 0h9m-24 7h9m6 0h9m-24 9h9m6 0h9m-24 4h9m6 0h9m-24 8h9m6 0h9m-24 3h9m6 0h9m-24-21h9m6 0h9m-23-86h24v-7h-24zm4-7h17v-7h-17zm5-7h7v-7h-7zm3.5-18v11M300 279h33V128h-33z"/><path stroke="#D0D8D3" stroke-width="2" d="M300 134h3.38v11.21h3.7v9.98h3.7V166h3.51v11h4.09v-11.21l3.71.21v-10.5h3.31v-11.31l3.51-.2V134H333m-33 8l3-3m26 1l4-3m-33 15l7-6m-7 14l7-6m-7 14l11-9m-11 17l13-10m-13 20l14-12m-14 21l33-26m-33 35l33-26m-33 34l33-26m-33 35l33-26m-33 36l33-26m-33 36l33-26m-33 35l33-25m-33 35l33-26m-33 36l33-28m-31 37l31-27m-21 28l21-19m-9 19l9-9m-8-120l8-7m-11 18l11-9m-15 20l15-12m-37-30l.333 148m-5.013-139v141m-4.01-134v132M163 269h9V164h-9zm-61 0h9v-85h-9zm-14 11h100v-11H88z"/><path stroke="#D0D8D3" stroke-linecap="round" stroke-width="2" d="M112 195s11.039 4.133 21 2.526V257"/><path stroke="#D0D8D3" stroke-width="2" d="M163 175s-8.684 4.203-23.879 3.503c-.272 14.712 0 77.997 0 77.997M103 184s-12.245 3.86-11.984 11.629C91.396 206.974 91 269 91 269m81-105s10.696 1.7 12 11.316c-.521 13.462 0 93.684 0 93.684m-16-100v7m0 1v7m0 1v7m0 1v7m0 1v7m0 1v7m0 1v7m0 1v7m0 1v7m0 1v7m0 4v7m0-10v7m0 4v7m-61-76v7m0 1v7m0 1v7m0 1v7m0 1v7m0 1v7m0 1v7m0 1v7m0 1v7"/><path stroke="#D0D8D3" stroke-width="2" d="M117 261.87s15.475-10.956 41 0c-3.015.884-21.907 8.835-41 0zM96 279v-9m6 9v-9m7 9v-9m8 9v-9m6 9v-9m9 9v-9m7 9v-9m7 9v-9m8 9v-9m8 9v-9m6 9v-9m7 9v-9m8 9v-9M524 97v183m0-166c-9.667 6.822-7.145 9.631-7.145 9.631v156.37H495v-94.838h4.203l-.42-60.728 25.217-.401M516 129h8m-8 6h8m-8 4h8m-8 8h8m-8 5h8m-9 5h9m-8 6h8m-8 5h8m-8 7h8m-8 5h8m-8 6h8m-8 5h8m-8 6h8m-8 6h8m-8 4h8m-8 6h8m-8 6h8m-8 7h8m-8 4h8m-8 7h8m-8 5h8m-8 7h8m-8 3h8m-8 6h8m-8 4h8m-8 8h8m-8 5h8"/><path stroke="#D0D8D3" stroke-width="2" d="M516 157h-13.71v28.38l-7.29.4v35.8h10.5V245H516m-116 34.82s9.445-127.54 9.725-155.85h8.945c-1.165 0 4.966 150.26 7.33 155.85-20.091.4-26 0-26 0z"/><path stroke="#D0D8D3" stroke-width="2" d="M412 275h4V124h-4zm-6 4h15v-4h-15zm6-148h4m-4 7h4m-4 9h4m-4 4h4m-4 7h4m-4 6h4m-4 8h4m-4 8h4m-4 6h4m-4 8h4m-4 6h4m-4 7h4m-4 8h4m-4 7h4m-4 7h4m-4 8h4m-4 5h4m-4 7h4m-4 8h4m-4 5h4m-4 9h4m7.44-147h-18.872c-1.416 0-2.564-1.567-2.564-3.5 0-1.934 1.148-3.5 2.564-3.5h18.872c1.416 0 2.564 1.566 2.564 3.5 0 1.933-1.148 3.5-2.564 3.5zm-.16-9h-18.559c-2.054 0-3.72-1.755-3.72-3.92V104h26v7.08c0 2.165-1.666 3.92-3.721 3.92zM402 104s.2-4 2.988-4c5.377 0 13.94.003 17.726 0 2.09-.002 3.286 2.667 3.286 4h-24z"/><path stroke="#D0D8D3" stroke-width="2" d="M406 100h17v-7h-17zm4-9V53.965s-.215-2.979 2.265-4.17c-.043-8.936 0-28.794 0-28.794h4.623V49.53s2.667 1.191 2 4.435V91H410zm4.5-70V0M410 54h8m-3.5 0v37m-5.5 2h11M.142 280h686.91"/><g transform="translate(232 229)"><path fill="#292F38" d="M191.63 43.447c0 3.692-3.001 6.686-6.704 6.686-3.701 0-6.702-2.994-6.702-6.686 0-3.692 3-6.683 6.702-6.683 3.703 0 6.704 2.991 6.704 6.683zm-17.67 0c0-3.692-3-6.683-6.704-6.683-3.701 0-6.703 2.991-6.703 6.683 0 3.692 3.002 6.686 6.704 6.686s6.703-2.994 6.703-6.686"/><mask id="b" fill="#fff"><use xlink:href="#a"/></mask><path fill="#F6F0EA" d="M45 32.349h155.24V.624H45z" mask="url(#b)"/><path fill="#995023" d="M44.433 32.891h156.33V.082H44.433v32.809zm1.088-1.085h154.15V1.167H45.52v30.64z" mask="url(#b)"/><path fill="#191F25" d="M200.76 42.382h-87.41v-5.22H44.653V35.33l156.107.001z" mask="url(#b)"/><path fill="#191F25" d="M76.85 42.382H50.545V35.33l26.305.001z" mask="url(#b)"/><path fill="#EF833B" d="M31.613 12.923l.155-3.51-1-7.304s-16.394 4.635-15.833 8.707c.564 4.072 3.24 3.51 3.24 3.51l13.438-1.403z" mask="url(#b)"/><path fill="#F5C17D" d="M31.12 5.178S21.122 7.344 15.044 9.99c1.46-3.848 15.724-7.881 15.724-7.881l1 7.302-.017.386-.63-4.619z" mask="url(#b)"/><path fill="#F69857" d="M31.768 9.412l-.155 3.51-13.44 1.404s-2.674.562-3.238-3.51c-.108-.775.402-1.57 1.292-2.35l15.267-1.053.274 1.999z" mask="url(#b)"/><path fill="#FAEEF5" d="M7.066 40.247c0-5.008 4.071-9.069 9.095-9.069 5.021 0 9.094 4.061 9.094 9.069 0 5.01-4.072 9.072-9.094 9.072-5.024 0-9.095-4.061-9.095-9.072" mask="url(#b)"/><path fill="#EF833B" d="M31.767 41.713V9.007c-15.214 0-16.603-.237-22.365.5-.544.068-.924.246-1.291.466C3.559 12.677.84 27.615.84 35.084c0 1.377-.14 2.795-.147 4.147l31.072 2.482z" mask="url(#b)"/><path fill="#55B958" d="M.695 39.232c-.02 4.024-.06 7.447-.06 7.447h31.132v-8.53L.695 39.231z" mask="url(#b)"/><path fill="#F69857" d="M5.292 26.009l.157-.996c.424-2.679 1.192-4.944 2.085-7.564l.308-.906.322-.956-1.915-.644-.322.956-.308.902c-.92 2.709-1.717 5.047-2.166 7.9l-.157.995 1.996.313zm9.599-.814l1.708-.026c-.059-3.955-.122-10.469-.032-11.106a.839.839 0 0 1-.555.623l-.27-.804.607-.607-.943-.184c-.532.225-.549.705-.57 1.26-.01.306-.017.75-.021 1.316-.006.945-.003 2.256.01 3.896.022 2.789.065 5.605.066 5.632" mask="url(#b)"/><path fill="#434C54" d="M31.555 34.92v.708H23.03L22.02 48.69H1.912c-1.45 0-1.796-1.665-1.796-2.766 0-1.1-.02-6.328 0-10.54l31.44-.464z" mask="url(#b)"/><path fill="#EF833B" d="M31.555 34.041v1.714H23.03v5.519H1.912c-1.45 0-1.796.095-1.796-1.006s-.02-1.55 0-5.762l31.44-.465z" mask="url(#b)"/><path fill="#F5C17D" d="M.096 34.853h3.409l12.401-1.804 11.197.002v-.542H15.867L3.465 34.314l-3.37-.003z" mask="url(#b)"/><path fill="#191F25" d="M3.466 46.48v-4.824h.872l.567 4.824z" mask="url(#b)"/><path fill="#434C54" d="M.112 42.744v-7.048l1.667-.027v6.428z" mask="url(#b)"/><path fill="#F69857" d="M.744 33.787c.35-7.835 3.117-21.426 7.367-23.949.367-.22.748-.397 1.292-.467 5.761-.735 7.15-.5 22.365-.5v1.242c-15.067-.002-16.468-.236-22.21.498-.543.07-.924.248-1.292.467C4.209 13.488 1.5 25.865.962 33.785l-.217.003z" mask="url(#b)"/><path fill="#F69857" d="M3.273 25.476l-.156.776-1.661.52c.505-3.2 1.466-7.043 2.392-9.776h1.658c-.065.195-.132.39-.197.58-.922 2.71-1.586 5.048-2.036 7.9" mask="url(#b)"/><path fill="#EF833B" d="M3.373 33.936c0-5.068 1.55-13 3.954-18.471h8.203v17.077l-12 1.498h-.103l-.054-.104z" mask="url(#b)"/><path fill="#3A424C" d="M3.453 24.701l-.18.777-1.72.52c.629-4.076 1.742-7.77 2.779-10.536h1.813c-.065.194-.46 1.15-.526 1.339-.92 2.709-1.716 5.047-2.166 7.9m13.205-8.48h6.013c1.01 0-.915 6.253-2.814 6.39-1.356.097-2.289.178-3.153.245a496.28 496.28 0 0 1-.046-6.635" mask="url(#b)"/><path fill="#F5C17D" d="M4.977 25.323h5.515s1.272-1.577 2.393-1.685c.355-.035 1.36-.07 1.867-.117v7.819L4.11 33.194c.132-2.114.323-5.272.867-7.871" mask="url(#b)"/><path fill="#5A2B12" d="M5.557 22.902l.002-.008c.05-.21.102-.419.155-.628.008-.026.014-.053.023-.08.11-.425.23-.85.356-1.271l.02-.072c.128-.423.26-.844.399-1.272.01-.028.017-.057.027-.085a117.637 117.637 0 0 1 .475-1.42c.068-.204.138-.408.209-.617.1-.297.204-.598.307-.906l.11-.322h7.173a293.837 293.837 0 0 0 .02 4.246l.001.21c0 .07.002.14.003.208.008.72.014 1.41.022 2.017l.001.09c-.907.077-1.78.131-2.286.18-1.121.108-2.393 1.685-2.393 1.685H5.164c.111-.673.243-1.32.393-1.955" mask="url(#b)"/><path fill="#EF833B" d="M4.82 25.943h5.672s1.272-1.578 2.393-1.685c.355-.034 1.36-.071 1.867-.117v7.82L3.955 33.657c.132-2.111.322-5.116.866-7.715" mask="url(#b)"/><path fill="#995023" d="M3.223 34.32l12.673-1.861 15.863.002v-.407H15.866L3.164 33.917z" mask="url(#b)"/><path fill="#434C54" d="M3.408 33.736v7.455h3.897c.505 0 .66-.097.758-.272.021-.04.041-.083.061-.127.944-2.953 3.484-6.705 5.667-6.705h6.357c1.79 0 3.59 2.2 4.768 4.532.017.035.72 0 .72 0v-1.528h6.062s.02 4.996.02 5.905c0 1.918-5.458 3.08-5.458 3.08H7.707v-3.08a3 3 0 0 1 .004-.166c0-.038.002-.077.005-.112.04-.494.115-.927-.327-.927H.084v-7.558l.633-.502 2.691.005z" mask="url(#b)"/><path fill="#454F58" d="M88.377 46.944l-66.552-.001V39.5h66.552z" mask="url(#b)"/><path fill="#191F25" d="M23.882 46.943h25.523V39.5H23.882zm41.693.001h20.229V39.5H65.575z" mask="url(#b)"/><path fill="#434C54" d="M8.418 46.829v-3.682c0-2.638 3.009-8.56 5.696-8.56h5.96c2.92 0 5.619 6.107 5.619 8.56v3.818l-17.274-.136z" mask="url(#b)"/><path fill="#191F25" d="M9.68 48.691v-4.962c0-2.222 2.669-7.209 5.052-7.209h4.742c2.59 0 5.207 5.142 5.207 7.21v3.235l-10.605.568-2.48 1.158H9.68zm-1.124-5.799H3.628v-1.1h5.217z" mask="url(#b)"/><path fill="#292F38" d="M23.895 44.743c0-3.69-3.001-6.684-6.704-6.684-3.701 0-6.702 2.993-6.702 6.684 0 3.692 3 6.686 6.702 6.686 3.703 0 6.704-2.994 6.704-6.686" mask="url(#b)"/><path fill="#A09EA9" d="M17.191 49.53c2.647 0 4.8-2.148 4.8-4.788 0-2.639-2.153-4.786-4.8-4.786-2.646 0-4.8 2.147-4.8 4.786 0 2.64 2.154 4.788 4.8 4.788" mask="url(#b)"/><path fill="#3A424C" d="M11.716 30.707h2.254v-1.085h-2.254z" mask="url(#b)"/><path fill="#6C3F18" d="M8.146 43.147c0-2.638 3.01-8.56 5.697-8.56h6.23c.919 0 1.84.605 2.672 1.509-.704-.64-1.455-1.044-2.205-1.044-2.922 0-3.72.05-6.406.05s-5.444 5.921-5.444 8.56v3.22h-.544v-3.735z" mask="url(#b)"/><path fill="#F5C17D" d="M24.032 15.592c1.148 0-1.35 8.069-3.512 8.225-1.54.113-3.378.203-4.36.28l-.04-8.505h7.912z" mask="url(#b)"/><path fill="#F69857" d="M16.172 23.592c.982-.076 2.42-.166 3.96-.277 2.162-.156 4.35-7.731 3.2-7.731h-7.238l.078 8.008z" mask="url(#b)"/><path fill="#434C54" d="M66.376 48.273l.012-3.862c0-5.14 4.179-9.31 9.335-9.31 5.153 0 9.333 4.17 9.333 9.31v3.862h-18.68z" mask="url(#b)"/><path fill="#5A2B12" d="M16.704 16.221h5.966c1.011 0-.914 6.253-2.814 6.39-1.355.097-2.288.178-3.152.245a496.28 496.28 0 0 1-.046-6.635h.046z" mask="url(#b)"/><path fill="#191F25" d="M67.424 48.261l.011-3.877c0-4.564 3.71-8.265 8.287-8.265 4.577 0 8.287 3.7 8.287 8.265v3.877H67.424z" mask="url(#b)"/><path fill="#F69857" d="M26.764 37.137h.679V8.717h-.679z" mask="url(#b)"/><path fill="#6599A1" d="M5.03 16.211c-.094.24-.18.455-.207.536-.959 2.817-1.786 5.248-2.254 8.213l-.182.786-.835.251c.574-3.72 1.552-7.118 2.507-9.786h.972z" mask="url(#b)"/><path fill="#7F7F89" d="M20.454 44.744a3.258 3.258 0 0 0-3.263-3.255 3.259 3.259 0 0 0-3.264 3.255 3.26 3.26 0 0 0 3.264 3.255 3.259 3.259 0 0 0 3.263-3.255" mask="url(#b)"/><path fill="#292F38" d="M82.415 44.743c0-3.69-3.002-6.684-6.704-6.684s-6.702 2.993-6.702 6.684c0 3.692 3 6.686 6.702 6.686s6.704-2.994 6.704-6.686" mask="url(#b)"/><path fill="#A09EA9" d="M75.711 49.53c2.647 0 4.8-2.148 4.8-4.788 0-2.639-2.153-4.786-4.8-4.786-2.646 0-4.8 2.147-4.8 4.786 0 2.64 2.154 4.788 4.8 4.788" mask="url(#b)"/><path fill="#7F7F89" d="M78.974 44.744a3.257 3.257 0 0 0-3.263-3.254 3.257 3.257 0 0 0-3.263 3.254 3.259 3.259 0 0 0 3.263 3.255 3.259 3.259 0 0 0 3.263-3.255" mask="url(#b)"/><path fill="#434C54" d="M167.8 48.273l.012-3.862c0-5.14 4.179-9.31 9.335-9.31 5.153 0 9.332 4.17 9.332 9.31v3.862h-18.68z" mask="url(#b)"/><path fill="#191F25" d="M168.84 48.261l.011-3.877c0-4.564 3.71-8.265 8.287-8.265 4.577 0 8.287 3.7 8.287 8.265v3.877H168.84z" mask="url(#b)"/><path fill="#292F38" d="M183.83 44.743c0-3.69-3.002-6.684-6.702-6.684-3.704 0-6.704 2.993-6.704 6.684 0 3.692 3 6.686 6.704 6.686 3.7 0 6.702-2.994 6.702-6.686" mask="url(#b)"/><path fill="#A09EA9" d="M177.13 49.53c2.646 0 4.8-2.148 4.8-4.788 0-2.639-2.154-4.786-4.8-4.786-2.647 0-4.8 2.147-4.8 4.786 0 2.64 2.153 4.788 4.8 4.788" mask="url(#b)"/><path fill="#7F7F89" d="M180.39 44.744a3.258 3.258 0 0 0-3.262-3.254 3.258 3.258 0 0 0-3.265 3.254 3.26 3.26 0 0 0 3.265 3.255 3.26 3.26 0 0 0 3.262-3.255" mask="url(#b)"/><path fill="#434C54" d="M150.12 48.273l.012-3.862c0-5.14 4.178-9.31 9.334-9.31 5.154 0 9.333 4.17 9.333 9.31v3.862h-18.68z" mask="url(#b)"/><path fill="#191F25" d="M151.17 48.261l.012-3.877c0-4.564 3.71-8.265 8.286-8.265 4.578 0 8.288 3.7 8.288 8.265v3.877H151.17z" mask="url(#b)"/><path fill="#292F38" d="M166.16 44.743c0-3.69-3.002-6.684-6.704-6.684s-6.702 2.993-6.702 6.684c0 3.692 3 6.686 6.703 6.686 3.7 0 6.703-2.994 6.703-6.686" mask="url(#b)"/><path fill="#A09EA9" d="M159.46 49.53c2.647 0 4.8-2.148 4.8-4.788 0-2.639-2.153-4.786-4.8-4.786s-4.8 2.147-4.8 4.786c0 2.64 2.153 4.788 4.8 4.788" mask="url(#b)"/><path fill="#7F7F89" d="M162.72 44.744a3.258 3.258 0 0 0-3.264-3.254 3.257 3.257 0 0 0-3.263 3.254 3.26 3.26 0 0 0 3.263 3.255 3.26 3.26 0 0 0 3.264-3.255" mask="url(#b)"/><path fill="#93929C" d="M26.634 47.585h21.637v-9.612H26.634z" mask="url(#b)"/><path fill="#DFDFDE" d="M26.634 39.419h21.637v-1.446H26.634z" mask="url(#b)"/><path fill="#7F7F89" d="M26.634 47.632h21.637v-1.634H26.634z" mask="url(#b)"/><path fill="#191F25" d="M44.966 47.843h1.087V37.765h-1.087zm-16.069-.045h1.087V37.72h-1.087z" mask="url(#b)"/><path fill="#EDECEC" d="M0 41.659v-5.013h.989v4.521z" mask="url(#b)"/><path fill="#6C3F18" d="M3.466 46.882h4.99v-.652h-4.99z" mask="url(#b)"/><path fill="#FEFEFE" d="M9.403 9.37c-.544.07-.925.248-1.292.468-.876.52-1.69 1.505-2.432 2.811l.605.491c.618-.934 1.28-1.645 1.981-2.063.368-.218.749-.397 1.293-.466l-.155-1.24z" mask="url(#b)"/><path fill="#F5851F" d="M84.344 15.908h1.091c.49 0 .843-.034 1.058-.104a.882.882 0 0 0 .646-.847.629.629 0 0 0-.153-.435.756.756 0 0 0-.431-.228c-.104-.018-.356-.028-.754-.028h-1.11l-.347 1.642zm-.63 3.02h1.38c.578 0 .967-.037 1.165-.112a.988.988 0 0 0 .474-.366.928.928 0 0 0 .178-.54c0-.23-.085-.42-.256-.57-.171-.15-.456-.225-.854-.225h-1.709l-.379 1.813zm-1.667 1.117l1.457-6.938h2.378c.515 0 .876.015 1.082.047.341.047.63.142.867.284.238.142.418.332.541.568.124.236.186.498.186.785 0 .385-.108.719-.323 1.002-.215.281-.548.495-.997.64.358.098.637.273.838.524.201.25.301.534.301.85 0 .416-.118.811-.356 1.185a1.996 1.996 0 0 1-.982.807c-.418.164-.989.246-1.713.246h-3.279zm7.888-6.938h1.362l-.256 1.23H89.68l.256-1.23zm-.398 1.912h1.361l-1.053 5.026h-1.362l1.054-5.026zm2.79 2.863c0 .383.086.673.258.874.173.2.389.3.649.3.236 0 .466-.09.69-.27.223-.18.394-.435.512-.767.119-.33.178-.65.178-.96 0-.357-.097-.644-.29-.862-.192-.217-.415-.326-.668-.326-.244 0-.468.096-.672.289-.204.192-.372.488-.505.89a2.682 2.682 0 0 0-.152.832m-1.604 2.428l1.438.208c0 .146.023.255.07.329a.555.555 0 0 0 .231.19c.106.051.25.078.434.078.288 0 .519-.057.693-.17a.936.936 0 0 0 .318-.427c.05-.123.116-.39.195-.804l.047-.237c-.471.391-.958.587-1.461.587-.494 0-.899-.173-1.215-.52-.317-.347-.475-.855-.475-1.524 0-.59.108-1.132.323-1.624.215-.492.517-.864.907-1.117.388-.252.786-.378 1.19-.378.336 0 .643.088.92.265.28.176.496.424.652.742l.189-.89h1.276l-.872 4.19c-.143.672-.264 1.151-.361 1.439-.099.286-.21.515-.338.686-.126.17-.286.313-.479.428a2.1 2.1 0 0 1-.683.248 4.49 4.49 0 0 1-.854.076c-.712 0-1.25-.122-1.613-.365-.364-.242-.546-.646-.546-1.21 0-.06.005-.127.014-.2m8.105-4.179h.76c.768 0 1.278-.046 1.53-.137.251-.092.448-.236.59-.43.143-.197.215-.402.215-.616a.623.623 0 0 0-.31-.568c-.126-.076-.4-.114-.82-.114h-1.576l-.389 1.865zm-.82 3.914h-1.434l1.457-6.938h3.09c.53 0 .944.054 1.24.163.296.11.534.308.716.598.183.29.274.643.274 1.056 0 .59-.178 1.077-.532 1.46-.354.384-.89.62-1.609.713.184.163.356.38.518.648.319.542.675 1.309 1.067 2.3h-1.537c-.124-.392-.366-1.002-.726-1.832-.196-.448-.405-.75-.626-.904-.137-.091-.374-.137-.713-.137h-.583l-.603 2.873zm9.042-3.058c0-.322-.094-.58-.282-.774a.972.972 0 0 0-.728-.29c-.294 0-.556.09-.783.271-.229.182-.405.446-.532.79a2.79 2.79 0 0 0-.19.954c0 .36.098.646.295.857a.964.964 0 0 0 .74.317c.373 0 .686-.16.94-.478.36-.452.54-1 .54-1.647m-3.882.97c0-.93.264-1.673.79-2.227.527-.553 1.22-.83 2.077-.83.743 0 1.324.204 1.741.612.418.41.626.96.626 1.65 0 .814-.26 1.518-.782 2.11-.522.594-1.221.891-2.097.891a2.72 2.72 0 0 1-1.263-.284 1.855 1.855 0 0 1-.82-.804 2.39 2.39 0 0 1-.272-1.118m8.572-.255a2.787 2.787 0 0 1-.327.061c-.684.082-1.13.202-1.339.36a.548.548 0 0 0-.223.46c0 .157.057.29.171.399a.627.627 0 0 0 .451.163c.206 0 .4-.05.58-.149.183-.1.32-.227.41-.383.09-.156.17-.4.24-.732l.037-.179zm-1.295-1.259l-1.329-.113c.152-.449.417-.8.795-1.051.378-.253.878-.379 1.502-.379.648 0 1.127.13 1.437.39.31.26.465.579.465.954 0 .152-.013.312-.04.483-.027.17-.12.618-.282 1.344-.133.6-.2 1.02-.2 1.26 0 .214.038.452.115.714h-1.325a2.608 2.608 0 0 1-.1-.568c-.199.22-.428.39-.688.508-.259.119-.52.178-.782.178-.418 0-.762-.137-1.035-.41-.273-.272-.408-.624-.408-1.053 0-.48.15-.862.449-1.15.298-.287.832-.46 1.601-.52.649-.054 1.082-.118 1.3-.194.057-.19.086-.34.086-.455a.456.456 0 0 0-.176-.364c-.117-.098-.291-.146-.521-.146-.244 0-.436.049-.577.149a.738.738 0 0 0-.287.423zM114.85 18c0 .36.09.64.273.842a.865.865 0 0 0 .671.303c.247 0 .477-.084.69-.253.214-.169.385-.427.513-.773a2.89 2.89 0 0 0 .192-1c0-.362-.098-.656-.294-.88-.196-.224-.422-.336-.679-.336-.398 0-.726.22-.982.663A2.81 2.81 0 0 0 114.85 18zm3.146 2.045h-1.291l.114-.545a2.483 2.483 0 0 1-.728.509 2.035 2.035 0 0 1-.81.154c-.521 0-.945-.178-1.27-.533-.323-.355-.485-.88-.485-1.574 0-.804.228-1.532.683-2.181.456-.65 1.058-.975 1.808-.975.677 0 1.185.268 1.523.805l.546-2.599h1.362l-1.452 6.938z" mask="url(#b)"/><path fill="#282827" d="M128.34 15.927h.408c.683 0 1.125-.032 1.326-.095a.8.8 0 0 0 .448-.32.79.79 0 0 0 .147-.432.523.523 0 0 0-.175-.417c-.117-.101-.371-.151-.764-.151h-1.092l-.298 1.415zm-1.557-2.82h3.957c.684 0 1.184.177 1.5.534.317.356.475.786.475 1.287 0 .543-.168 1.017-.503 1.423-.336.405-.872.664-1.609.778.437.353.959 1.325 1.566 2.915h-2.273c-.19-.501-.413-1.05-.671-1.644-.258-.595-.452-.94-.582-1.034a.775.775 0 0 0-.47-.142h-.113l-.593 2.82h-2.16l1.476-6.938zm12.957 0l-.32 1.49h-3.53l-.23 1.103h3.4l-.31 1.406h-3.4l-.29 1.358h3.83l-.35 1.581h-5.97l1.48-6.938zm3.18 0l-1.49 6.938h-2.18l1.49-6.938zm7.18 2.006l-2.116.232c-.193-.549-.586-.823-1.177-.823-.58 0-1.037.291-1.376.875a3.674 3.674 0 0 0-.508 1.874c0 .386.125.708.377.968.251.26.572.39.96.39h.02a2.03 2.03 0 0 0 1.167-.34l.157-.743h-1.314l.313-1.448h3.245l-.697 3.26c-1.082.537-2.154.805-3.217.805-.96 0-1.72-.259-2.28-.776-.562-.518-.843-1.245-.843-2.182 0-.783.179-1.5.536-2.153a3.795 3.795 0 0 1 1.512-1.522c.65-.361 1.396-.542 2.237-.542 1.645 0 2.647.709 3.004 2.125m7.83-2.006l-1.5 6.938h-2.16l.6-2.821h-2.33l-.59 2.821h-2.18l1.5-6.938h2.16l-.53 2.451h2.33l.54-2.451zm7.23 0l-.36 1.703h-2.26l-1.13 5.235h-2.16l1.13-5.235h-2.16l.36-1.703zm-42.58 1.481h3.19l.32-1.481h-5.34l-.32 1.481zm-.27 1.239h-2.14l-.9 4.218h2.15l.57-2.812h3.13l.31-1.406z" mask="url(#b)"/></g></g></svg>